<svg xmlns="http://www.w3.org/2000/svg" xmlns:xlink="http://www.w3.org/1999/xlink" viewBox="0 0 180.51115 320.90871"><defs><style>.a{fill:#fff;}.b{fill-opacity:0.4;fill:url(#a);}</style><linearGradient id="a" x1="90.25557" y1="107.76219" x2="90.25557" y2="320.96392" gradientUnits="userSpaceOnUse"><stop offset="0" stop-color="#f0fff6"/><stop offset="0.16644" stop-color="#d1f2df"/><stop offset="0.53113" stop-color="#83d2a3"/><stop offset="1" stop-color="#16a651"/></linearGradient></defs><path class="a" d="M20.02556,0h140.46a20.02556,20.02556,0,0,1,20.02556,20.02556V320.90871a0,0,0,0,1,0,0H0a0,0,0,0,1,0,0V20.02556A20.02556,20.02556,0,0,1,20.02556,0Z"/><path class="b" d="M16.27394,108.97638H164.23721a16.27394,16.27394,0,0,1,16.27394,16.27394V320.90871a0,0,0,0,1,0,0H0a0,0,0,0,1,0,0V125.25032A16.27394,16.27394,0,0,1,16.27394,108.97638Z"/></svg>