<svg xmlns="http://www.w3.org/2000/svg" xmlns:xlink="http://www.w3.org/1999/xlink" viewBox="0 0 180.51115 320.90871"><defs><style>.a{fill:#bdeeff;}.b{fill:url(#a);}.c{fill:url(#b);}.d{fill:url(#c);}.e{fill:url(#d);}.f{fill:url(#e);}.g{fill:url(#f);}.h{fill:#3c3c3b;}.i{clip-path:url(#g);}.j{fill:#85b783;}.k{fill:#432918;}.l{fill:#7b6a58;}.m{fill:#c9c4bd;}.n{fill:#e8dfd1;}.o{fill:#a48a7b;}.p{fill:#002d15;}.q{clip-path:url(#h);}.r{fill:url(#i);}.s{fill:url(#j);}.t,.u{opacity:0.58;}.t{fill:url(#k);}.u{fill:url(#l);}.v{fill:url(#m);}.w{fill:url(#n);}.x{fill:url(#o);}.y{fill:url(#p);}.z{opacity:0.4;fill:url(#q);}</style><linearGradient id="a" x1="49.33622" y1="293.37417" x2="55.78964" y2="318.8945" gradientUnits="userSpaceOnUse"><stop offset="0" stop-color="#878787"/><stop offset="0.27069" stop-color="#949494"/><stop offset="1" stop-color="#b2b2b2"/></linearGradient><linearGradient id="b" x1="131.76644" y1="291.91672" x2="125.60636" y2="310.69029" xlink:href="#a"/><linearGradient id="c" x1="-3.87568" y1="270.42399" x2="71.87925" y2="270.42399" gradientUnits="userSpaceOnUse"><stop offset="0" stop-color="#878787"/><stop offset="0.42747" stop-color="#6d6d6d"/><stop offset="1" stop-color="#4f4f4f"/></linearGradient><linearGradient id="d" x1="107.52381" y1="270.42399" x2="184.45948" y2="270.42399" gradientUnits="userSpaceOnUse"><stop offset="0" stop-color="#4f4f4f"/><stop offset="0.57253" stop-color="#6d6d6d"/><stop offset="1" stop-color="#878787"/></linearGradient><linearGradient id="e" x1="103.15156" y1="281.06041" x2="78.21791" y2="252.60671" xlink:href="#a"/><radialGradient id="f" cx="98.36504" cy="303.48217" r="41.14033" gradientUnits="userSpaceOnUse"><stop offset="0.16206" stop-color="#4f4f4f"/><stop offset="0.39768" stop-color="#535353"/><stop offset="0.61292" stop-color="#5e5e5e"/><stop offset="0.81958" stop-color="#707070"/><stop offset="1" stop-color="#878787"/></radialGradient><clipPath id="g"><circle class="a" cx="32.8353" cy="303.7303" r="35.70703"/></clipPath><clipPath id="h"><circle class="a" cx="147.67585" cy="303.7303" r="35.70703"/></clipPath><linearGradient id="i" x1="5.55093" y1="269.19468" x2="70.67177" y2="351.6224" gradientUnits="userSpaceOnUse"><stop offset="0" stop-color="#fff"/><stop offset="0.14441" stop-color="#e2f0e8" stop-opacity="0.87943"/><stop offset="0.46083" stop-color="#99c9ac" stop-opacity="0.57129"/><stop offset="0.92279" stop-color="#258b4e" stop-opacity="0.0841"/><stop offset="1" stop-color="#11803e" stop-opacity="0"/></linearGradient><linearGradient id="j" x1="120.39147" y1="269.19468" x2="185.51231" y2="351.6224" xlink:href="#i"/><linearGradient id="k" x1="52.76058" y1="334.92526" x2="32.30042" y2="302.09384" gradientUnits="userSpaceOnUse"><stop offset="0" stop-color="#fff"/><stop offset="0.14441" stop-color="#edf4f0" stop-opacity="0.87943"/><stop offset="0.46083" stop-color="#bfd9ca" stop-opacity="0.57129"/><stop offset="0.92279" stop-color="#77ad8d" stop-opacity="0.0841"/><stop offset="1" stop-color="#6aa683" stop-opacity="0"/></linearGradient><linearGradient id="l" x1="169.50875" y1="334.92526" x2="149.04858" y2="302.09384" xlink:href="#k"/><linearGradient id="m" x1="-904.63541" y1="1116.31265" x2="-915.80617" y2="1098.38748" gradientTransform="translate(932.90387 -555.89188) scale(1 0.75249)" gradientUnits="userSpaceOnUse"><stop offset="0" stop-color="#fff"/><stop offset="0.14441" stop-color="#fafafa" stop-opacity="0.87943"/><stop offset="0.46083" stop-color="#efefef" stop-opacity="0.57129"/><stop offset="0.92279" stop-color="#dcdcdc" stop-opacity="0.0841"/><stop offset="1" stop-color="#d9d9d9" stop-opacity="0"/></linearGradient><linearGradient id="n" x1="-797.17702" y1="1164.04147" x2="-808.34779" y2="1146.1163" gradientTransform="translate(938.74694 -591.80727) scale(1 0.75249)" xlink:href="#m"/><linearGradient id="o" x1="2742.80782" y1="-3662.23547" x2="2735.64176" y2="-3673.73451" gradientTransform="translate(2913.70121 -2453.65252) rotate(180) scale(1 0.75249)" xlink:href="#m"/><linearGradient id="p" x1="2764.63011" y1="-3509.42366" x2="2757.46404" y2="-3520.92269" gradientTransform="translate(2818.48199 -2338.66339) rotate(180) scale(1 0.75249)" xlink:href="#m"/><linearGradient id="q" x1="90.78953" y1="-1.83853" x2="90.78953" y2="320.99231" gradientUnits="userSpaceOnUse"><stop offset="0" stop-color="#f0fff6"/><stop offset="0.16644" stop-color="#d1f2df"/><stop offset="0.53113" stop-color="#83d2a3"/><stop offset="1" stop-color="#16a651"/></linearGradient></defs><path class="b" d="M83.76517,303.7303c0-17.98262-13.47778-33.30631-31.4604-33.30631a32.56041,32.56041,0,0,0-32.56042,32.56042c0,17.98262,14.57779,23.91317,32.56042,23.91317S83.76517,321.71292,83.76517,303.7303Z"/><path class="c" d="M96.20034,303.7303c0-17.98262,13.47778-33.30631,31.4604-33.30631a32.56042,32.56042,0,0,1,32.56042,32.56042c0,17.98262-14.5778,23.91317-32.56042,23.91317S96.20034,321.71292,96.20034,303.7303Z"/><path class="d" d="M71.87925,279.817l-6.435-37.25087c-4.16921-3.82293-24.98533-3.46161-34.91419-3.05645a11.2907,11.2907,0,0,0-8.46934,4.38083L2.26406,269.47226a29.35591,29.35591,0,0,0-6.13974,17.966v14.141H1.70405L5.445,278.744Z"/><path class="e" d="M107.52381,279.817l7.61577-37.25087c4.16922-3.82293,24.98533-3.46161,34.91419-3.05645a11.2907,11.2907,0,0,1,8.46934,4.38083l19.79664,25.58172a29.356,29.356,0,0,1,6.13973,17.966v14.141h-5.57973L175.1388,278.744Z"/><path class="f" d="M64.96246,243.42063,49.11334,271.5302l19.429,9.81686,21.60928-6.81015,22.61879,6.81015,15.95019-9.81686-12.80332-27.533a8.2982,8.2982,0,0,0-7.52443-4.7992h-36.202A8.29818,8.29818,0,0,0,64.96246,243.42063Z"/><path class="g" d="M118.97756,292.08724h-9.53582a20.45588,20.45588,0,0,0-38.58027,0H61.32565a28.826,28.826,0,1,1,57.65191,0Z"/><circle class="h" cx="32.8353" cy="303.7303" r="41.46975"/><circle class="a" cx="32.8353" cy="303.7303" r="35.70703"/><g class="i"><ellipse class="j" cx="32.8353" cy="330.05541" rx="41.30243" ry="24.35452"/><rect class="k" x="12.90286" y="306.97137" width="1.63638" height="4.96853"/><path class="l" d="M73.96437,314.93375c-3.55223,2.26519-7.0595.627-9.66634-2.14789a51.89437,51.89437,0,0,1-8.18164-10.81794,61.73747,61.73747,0,0,1-4.80065-13.49,3.60848,3.60848,0,0,1,.04963-2.85291c1.13927-1.77225,5.8179,2.76025,7.72457,2.75955a9.76708,9.76708,0,0,1,2.14-.05183c1.44105.32379,2.0866,1.95319,3.04651,3.07571,1.84323,2.15547,5.40232,2.8972,6.15692,5.63108.22521.81593.14289,1.68848.3284,2.51434.4495,2.00108,2.31557,3.30405,3.55234,4.94013a8.878,8.878,0,0,1,1.28646,8.10435A4.37622,4.37622,0,0,1,73.96437,314.93375Z"/><path class="m" d="M25.86732,301.93505q-1.82563,2.178-3.43044,4.5294a61.94133,61.94133,0,0,0,6.36383-.289c1.21866-.26516,4.2966-1.15846,4.63738.89346.08116.48868-.14622,1.01484.04125,1.47337a1.76164,1.76164,0,0,0,.95357.79328,17.67,17.67,0,0,0,5.55237,1.95965c1.29292.1496,2.60061.01125,3.90173.0447,3.76222.09674,7.31723,1.6124,10.91522,2.71608a67.88378,67.88378,0,0,0,11.23533,2.08838c.9553.12094,2.28494-.06427,2.34855-1.02508a1.86107,1.86107,0,0,0-.78708-1.34277,55.32535,55.32535,0,0,1-14.41474-22.37924c-.60408-1.76962-.98964-6.82371-2.95337-6.97423-1.7542-.13447-5.83234,2.78692-7.39357,3.63574a58.95441,58.95441,0,0,0-16.97,13.87622Z"/><path class="n" d="M49.19866,300.19148c1.60375-.76266,4.94168-2.80879,6.78379-2.185,2.16368.7327,1.21992,3.38537,2.40733,4.839a11.69828,11.69828,0,0,0,1.89347,1.34984A5.77715,5.77715,0,0,1,61.90091,307.58q.63084,2.87255,1.074,5.78207a4.99537,4.99537,0,0,1-.11073,2.73705,3.53489,3.53489,0,0,1-3.85063,1.71709,11.18262,11.18262,0,0,1-4.06964-1.94349,17.50744,17.50744,0,0,0-6.81727-3.00925c-1.38784-.19832-2.80248-.09218-4.19713-.23487a11.82627,11.82627,0,0,1-3.352-.85223C32.488,308.3944,46.62732,301.41427,49.19866,300.19148Z"/><path class="o" d="M55.74475,298.275a1.86528,1.86528,0,0,1,.96044-.24828c1.81812.015,4.52653,3.63859,5.538,4.93576,1.7724,2.27308,3.28406,4.78353,5.42141,6.71745,1.23385,1.11641,2.80634,2.34161,2.64053,3.9979-.24151,2.40652-3.174,2.7209-5.00106,3.05892-1.55971.28856-4.56447,1.95667-5.67592.14637a3.86811,3.86811,0,0,1-.356-1.81659c-.2037-3.25111-1.95889-6.1672-3.55971-9.0042a12.197,12.197,0,0,1-1.44148-3.32166C53.98834,301.44645,54.39715,299.04957,55.74475,298.275Z"/><path class="p" d="M8.89966,300.967c-.11271-6.46794.50766-11.72773,4.82139-16.54838,1.84829,3.2564,5.27276,5.46619,6.02666,9.13388.93037,4.52619.59674,10.58925-3.28181,13.71523C11.55241,311.22781,8.97743,305.42974,8.89966,300.967Z"/></g><circle class="h" cx="147.67585" cy="303.7303" r="41.46975"/><circle class="a" cx="147.67585" cy="303.7303" r="35.70703"/><g class="q"><ellipse class="j" cx="147.67585" cy="330.05541" rx="41.30243" ry="24.35452"/><rect class="k" x="127.7434" y="306.97137" width="1.63638" height="4.96853"/><path class="l" d="M188.80491,314.93375c-3.55223,2.26519-7.0595.627-9.66634-2.14789a51.89437,51.89437,0,0,1-8.18164-10.81794,61.73747,61.73747,0,0,1-4.80065-13.49,3.60844,3.60844,0,0,1,.04964-2.85291c1.13926-1.77225,5.81789,2.76025,7.72456,2.75955a9.76708,9.76708,0,0,1,2.14-.05183c1.441.32379,2.0866,1.95319,3.04651,3.07571,1.84324,2.15547,5.40233,2.8972,6.15692,5.63108.22521.81593.14289,1.68848.3284,2.51434.4495,2.00108,2.31557,3.30405,3.55235,4.94013a8.878,8.878,0,0,1,1.28645,8.10435A4.37622,4.37622,0,0,1,188.80491,314.93375Z"/><path class="m" d="M140.70787,301.93505q-1.82565,2.178-3.43045,4.5294a61.94121,61.94121,0,0,0,6.36383-.289c1.21866-.26516,4.2966-1.15846,4.63738.89346.08116.48868-.14622,1.01484.04125,1.47337a1.76164,1.76164,0,0,0,.95357.79328,17.67005,17.67005,0,0,0,5.55238,1.95965c1.29292.1496,2.6006.01125,3.90172.0447,3.76222.09674,7.31723,1.6124,10.91523,2.71608a67.88347,67.88347,0,0,0,11.23532,2.08838c.9553.12094,2.28494-.06427,2.34855-1.02508a1.86107,1.86107,0,0,0-.78708-1.34277,55.32535,55.32535,0,0,1-14.41474-22.37924c-.60408-1.76962-.98964-6.82371-2.95337-6.97423-1.7542-.13447-5.83233,2.78692-7.39356,3.63574a58.95441,58.95441,0,0,0-16.97,13.87622Z"/><path class="n" d="M164.0392,300.19148c1.60375-.76266,4.94168-2.80879,6.78379-2.185,2.16368.7327,1.21992,3.38537,2.40733,4.839a11.69872,11.69872,0,0,0,1.89347,1.34984,5.77715,5.77715,0,0,1,1.61766,3.38469q.63084,2.87255,1.074,5.78207a4.99528,4.99528,0,0,1-.11073,2.73705,3.53488,3.53488,0,0,1-3.85062,1.71709,11.18259,11.18259,0,0,1-4.06965-1.94349,17.50738,17.50738,0,0,0-6.81727-3.00925c-1.38784-.19832-2.80247-.09218-4.19713-.23487a11.82627,11.82627,0,0,1-3.352-.85223C147.32852,308.3944,161.46786,301.41427,164.0392,300.19148Z"/><path class="o" d="M170.5853,298.275a1.86522,1.86522,0,0,1,.96043-.24828c1.81812.015,4.52653,3.63859,5.538,4.93576,1.77241,2.27308,3.28406,4.78353,5.42141,6.71745,1.23385,1.11641,2.80634,2.34161,2.64053,3.9979-.24151,2.40652-3.174,2.7209-5.00106,3.05892-1.55971.28856-4.56447,1.95667-5.67592.14637a3.86811,3.86811,0,0,1-.356-1.81659c-.2037-3.25111-1.95889-6.1672-3.55971-9.0042a12.1973,12.1973,0,0,1-1.44148-3.32166C168.82889,301.44645,169.23769,299.04957,170.5853,298.275Z"/><path class="p" d="M123.7402,300.967c-.1127-6.46794.50766-11.72773,4.82139-16.54838,1.84829,3.2564,5.27277,5.46619,6.02667,9.13388.93036,4.52619.59673,10.58925-3.28182,13.71523C126.393,311.22781,123.818,305.42974,123.7402,300.967Z"/></g><circle class="r" cx="32.8353" cy="303.7303" r="35.70703"/><circle class="s" cx="147.67585" cy="303.7303" r="35.70703"/><path class="t" d="M55.5771,302.92342a25.45654,25.45654,0,0,1-32.90453,20.24245A19.32808,19.32808,0,0,0,55.5771,302.92342Z"/><path class="u" d="M172.32527,302.92342a25.45655,25.45655,0,0,1-32.90454,20.24245,19.32808,19.32808,0,0,0,32.90454-20.24245Z"/><ellipse class="v" cx="23.49887" cy="278.36139" rx="5.71155" ry="3.66397" transform="translate(-87.02582 21.80428) rotate(-18.48097)"/><ellipse class="w" cx="136.80033" cy="278.36139" rx="5.71155" ry="3.66397" transform="translate(-81.18275 57.71967) rotate(-18.48097)"/><ellipse class="x" cx="173.95309" cy="305.83219" rx="3.66397" ry="2.35044" transform="translate(-158.94962 419.71281) rotate(-79.25437)"/><ellipse class="y" cx="56.91159" cy="305.83219" rx="3.66397" ry="2.35044" transform="translate(-254.16883 304.72367) rotate(-79.25437)"/><rect class="z" x="0.53396" width="180.51115" height="320.90871"/></svg>