<?xml version="1.0" encoding="utf-8"?>
<!-- Generator: Adobe Illustrator 25.0.0, SVG Export Plug-In . SVG Version: 6.00 Build 0)  -->
<svg version="1.1" id="Layer_1" xmlns="http://www.w3.org/2000/svg" xmlns:xlink="http://www.w3.org/1999/xlink" x="0px" y="0px"
	 viewBox="0 0 215.7 89.4" style="enable-background:new 0 0 215.7 89.4;" xml:space="preserve">
<style type="text/css">
	.st0{fill:url(#SVGID_1_);}
	.st1{fill:url(#SVGID_2_);}
	.st2{fill:url(#SVGID_3_);}
	.st3{fill:url(#SVGID_4_);}
	.st4{fill:url(#SVGID_5_);}
	.st5{fill:url(#SVGID_6_);}
	.st6{fill:#3C3C3B;}
	.st7{fill:#BDEEFF;}
	.st8{clip-path:url(#SVGID_8_);}
	.st9{fill:#85B783;}
	.st10{fill:#432918;}
	.st11{fill:#7B6A58;}
	.st12{fill:#C9C4BD;}
	.st13{fill:#E8DFD1;}
	.st14{fill:#A48A7B;}
	.st15{fill:#002D15;}
	.st16{clip-path:url(#SVGID_10_);}
	.st17{fill:url(#SVGID_11_);}
	.st18{fill:url(#SVGID_12_);}
	.st19{opacity:0.58;fill:url(#SVGID_13_);enable-background:new    ;}
	.st20{opacity:0.58;fill:url(#SVGID_14_);enable-background:new    ;}
	.st21{fill:url(#SVGID_15_);}
	.st22{fill:url(#SVGID_16_);}
	.st23{fill:url(#SVGID_17_);}
	.st24{fill:url(#SVGID_18_);}
</style>
<g id="מסך_פתיחה">
	
		<linearGradient id="SVGID_1_" gradientUnits="userSpaceOnUse" x1="59.9926" y1="1017.5435" x2="67.1026" y2="1045.6609" gradientTransform="matrix(1 0 0 1 0 -956)">
		<stop  offset="0" style="stop-color:#878787"/>
		<stop  offset="0.27" style="stop-color:#949494"/>
		<stop  offset="1" style="stop-color:#B2B2B2"/>
	</linearGradient>
	<path class="st0" d="M100.2,72.9c0-19.7-15.8-36.5-36.9-36.5S25.1,52.3,25.1,72l0,0c0,19.7,17.2,26.2,38.2,26.2
		S100.2,92.5,100.2,72.9z"/>
	
		<linearGradient id="SVGID_2_" gradientUnits="userSpaceOnUse" x1="156.2138" y1="1015.9248" x2="149.4018" y2="1036.6741" gradientTransform="matrix(1 0 0 1 0 -956)">
		<stop  offset="0" style="stop-color:#878787"/>
		<stop  offset="0.27" style="stop-color:#949494"/>
		<stop  offset="1" style="stop-color:#B2B2B2"/>
	</linearGradient>
	<path class="st1" d="M114.8,72.9c0-19.7,15.8-36.5,36.9-36.5s38.2,15.9,38.2,35.6l0,0c0,19.7-17.1,26.2-38.2,26.2
		S114.8,92.5,114.8,72.9z"/>
	
		<linearGradient id="SVGID_3_" gradientUnits="userSpaceOnUse" x1="-2.6927" y1="992.4319" x2="86.2349" y2="992.4319" gradientTransform="matrix(1 0 0 1 0 -956)">
		<stop  offset="0" style="stop-color:#878787"/>
		<stop  offset="0.43" style="stop-color:#6D6D6D"/>
		<stop  offset="1" style="stop-color:#4F4F4F"/>
	</linearGradient>
	<path class="st2" d="M86.2,46.7L78.7,5.9c-4.9-4.2-29.3-3.8-41-3.3c-4,0.1-7.6,1.9-10,4.8l-23.3,28C-0.2,41-2.7,47.9-2.8,55.1v15.5
		h6.5l4.4-25L86.2,46.7z"/>
	
		<linearGradient id="SVGID_4_" gradientUnits="userSpaceOnUse" x1="128.0656" y1="992.4319" x2="218.2696" y2="992.4319" gradientTransform="matrix(1 0 0 1 0 -956)">
		<stop  offset="0" style="stop-color:#4F4F4F"/>
		<stop  offset="0.57" style="stop-color:#6D6D6D"/>
		<stop  offset="1" style="stop-color:#878787"/>
	</linearGradient>
	<path class="st3" d="M128.1,46.7L137,5.9c4.9-4.2,29.3-3.8,41-3.3c3.9,0.1,7.5,1.9,10,4.8l23.2,28c4.7,5.6,7.2,12.5,7.2,19.7v15.5
		h-6.5l-4.4-25L128.1,46.7z"/>
	
		<linearGradient id="SVGID_5_" gradientUnits="userSpaceOnUse" x1="122.4387" y1="1005.5966" x2="93.8968" y2="973.0148" gradientTransform="matrix(1 0 0 1 0 -956)">
		<stop  offset="0" style="stop-color:#878787"/>
		<stop  offset="0.27" style="stop-color:#949494"/>
		<stop  offset="1" style="stop-color:#B2B2B2"/>
	</linearGradient>
	<path class="st4" d="M78.1,6.9L59.5,37.7l22.7,10.7l25.3-7.5l26.5,7.5l18.7-10.7l-15-30.1c-1.6-3.2-5-5.3-8.8-5.3H86.6
		C83.1,2.3,79.8,4,78.1,6.9z"/>
	
		<radialGradient id="SVGID_6_" cx="116.6539" cy="1028.583" r="45.01" gradientTransform="matrix(1.0726 0 0 1 -7.8024 -956)" gradientUnits="userSpaceOnUse">
		<stop  offset="0.16" style="stop-color:#4F4F4F"/>
		<stop  offset="0.4" style="stop-color:#535353"/>
		<stop  offset="0.61" style="stop-color:#5E5E5E"/>
		<stop  offset="0.82" style="stop-color:#707070"/>
		<stop  offset="1" style="stop-color:#878787"/>
	</radialGradient>
	<path class="st5" d="M141.5,60.1h-11.2c-4.4-11.6-18.1-17.7-30.6-13.6c-6.9,2.3-12.2,7.3-14.7,13.7H73.9
		c-0.3-17.4,14.6-31.8,33.2-32.1s34.1,13.6,34.4,31C141.5,59.4,141.5,59.8,141.5,60.1z"/>
	<ellipse class="st6" cx="40.4" cy="72.9" rx="48.7" ry="45.4"/>
	<ellipse class="st7" cx="40.4" cy="72.9" rx="41.9" ry="39.1"/>
	<g>
		<g>
			<defs>
				<ellipse id="SVGID_7_" cx="40.4" cy="72.9" rx="41.9" ry="39.1"/>
			</defs>
			<clipPath id="SVGID_8_">
				<use xlink:href="#SVGID_7_"  style="overflow:visible;"/>
			</clipPath>
			<g class="st8">
				<ellipse class="st9" cx="40.4" cy="101.7" rx="48.5" ry="26.6"/>
				<rect x="17.1" y="76.4" class="st10" width="1.9" height="5.4"/>
				<path class="st11" d="M88.7,85.1c-4.2,2.5-8.3,0.7-11.4-2.3c-3.8-3.5-7-7.5-9.7-11.8c-2.7-4.6-4.2-9.7-5.7-14.8
					c-0.4-1-0.4-2.1,0-3.1c1.4-1.9,6.9,3,9,3c0.9-0.1,1.7-0.1,2.5-0.1c1.7,0.3,2.5,2.1,3.5,3.4c2.1,2.4,6.3,3.2,7.2,6.2
					c0.3,0.9,0.2,1.8,0.4,2.8c0.5,2.2,2.7,3.6,4.2,5.4c2,2.5,2.6,5.9,1.5,8.9C90.2,83.6,89.6,84.5,88.7,85.1z"/>
				<path class="st12" d="M32.3,70.9c-1.4,1.6-2.8,3.2-4.1,4.9c-0.1,0.1,6.8-0.2,7.5-0.3c1.4-0.3,5-1.3,5.5,1c0.1,0.5-0.2,1.1,0,1.6
					c0.2,0.4,0.6,0.7,1.1,0.9c2,1,4.3,1.8,6.5,2.1c1.5,0.2,3,0,4.6,0c4.4,0.1,8.6,1.8,12.8,3c4.3,1.1,8.7,1.9,13.2,2.3
					c1.1,0.1,2.7-0.1,2.8-1.1c-0.1-0.6-0.4-1.1-1-1.5c-5-4.4-9.3-9.6-12.7-15.3c-1.7-2.9-3.1-6-4.3-9.1c-0.8-1.9-1.2-7.5-3.4-7.6
					c-2-0.2-6.9,3.1-8.7,4c-3.2,1.6-6.3,3.5-9.2,5.6C39,64.2,35.4,67.4,32.3,70.9z"/>
				<path class="st13" d="M59.6,69c1.9-0.8,5.8-3.1,7.9-2.4c2.6,0.8,1.4,3.7,2.8,5.3c0.5,0.7,1.5,0.9,2.3,1.5c1.1,1,1.7,2.3,1.9,3.7
					c0.5,2.1,0.9,4.2,1.3,6.3c0.2,1,0.2,2-0.1,3c-0.9,1.5-2.7,2.2-4.5,1.9c-1.7-0.4-3.3-1.1-4.7-2.1c-2.4-1.6-5.1-2.7-8-3.3
					c-1.6-0.2-3.3-0.1-4.9-0.3c-1.4-0.1-2.7-0.4-4-0.9C40,78,56.6,70.3,59.6,69z"/>
				<path class="st14" d="M67.3,66.9c0.3-0.2,0.6-0.3,1.1-0.3c2.1,0,5.4,4,6.5,5.4c2.1,2.5,4,5.2,6.4,7.4c1.4,1.2,3.3,2.6,3.1,4.4
					c-0.3,2.6-3.8,3-5.9,3.3c-1.8,0.3-5.4,2.1-6.6,0.2c-0.3-0.6-0.4-1.3-0.4-2c-0.2-3.6-2.3-6.7-4.2-9.8c-0.8-1.1-1.3-2.3-1.7-3.6
					C65.2,70.4,65.7,67.7,67.3,66.9z"/>
				<path class="st15" d="M12.3,69.8C12.2,62.7,12.9,57,18,51.7c2.1,3.6,6.2,6,7.1,10c1.1,5,0.8,11.6-3.9,15
					C15.4,81.1,12.4,74.7,12.3,69.8z"/>
			</g>
		</g>
	</g>
	<ellipse class="st6" cx="175.2" cy="72.9" rx="48.7" ry="45.4"/>
	<ellipse class="st7" cx="175.2" cy="72.9" rx="41.9" ry="39.1"/>
	<g>
		<g>
			<defs>
				<ellipse id="SVGID_9_" cx="175.2" cy="72.9" rx="41.9" ry="39.1"/>
			</defs>
			<clipPath id="SVGID_10_">
				<use xlink:href="#SVGID_9_"  style="overflow:visible;"/>
			</clipPath>
			<g class="st16">
				<ellipse class="st9" cx="175.2" cy="101.7" rx="48.5" ry="26.6"/>
				<rect x="151.8" y="76.4" class="st10" width="1.9" height="5.4"/>
				<path class="st11" d="M223.4,85.1c-4.2,2.5-8.3,0.7-11.4-2.3c-3.8-3.5-7-7.5-9.5-11.8c-2.7-4.6-4.2-9.7-5.7-14.8
					c-0.4-1-0.4-2.1,0-3.1c1.4-1.9,6.9,3,9,3c0.9-0.1,1.7-0.1,2.5-0.1c1.7,0.3,2.5,2.1,3.5,3.4c2.1,2.4,6.3,3.2,7.2,6.2
					c0.3,0.9,0.2,1.8,0.4,2.8c0.5,2.2,2.7,3.6,4.2,5.4c2,2.5,2.6,5.9,1.5,8.9C225,83.6,224.4,84.5,223.4,85.1z"/>
				<path class="st12" d="M167,70.9c-1.4,1.6-2.8,3.2-4.1,4.9c-0.1,0.1,6.8-0.2,7.5-0.3c1.4-0.3,5-1.3,5.5,1c0.1,0.5-0.2,1.1,0,1.6
					c0.2,0.4,0.6,0.7,1.2,0.9c2,1,4.2,1.8,6.5,2.2c1.5,0.2,3.1,0,4.6,0c4.4,0.1,8.6,1.8,12.8,3c4.3,1.1,8.7,1.9,13.2,2.3
					c1.1,0.1,2.7-0.1,2.8-1.1c-0.1-0.6-0.4-1.1-1-1.5c-7.7-6.7-13.5-15.1-16.9-24.5c-0.8-1.9-1.2-7.5-3.4-7.6c-2-0.2-6.9,3.1-8.7,4
					c-3.2,1.6-6.3,3.5-9.2,5.6C173.8,64.2,170.2,67.4,167,70.9z"/>
				<path class="st13" d="M194.4,69c1.9-0.8,5.8-3.1,7.9-2.4c2.6,0.8,1.4,3.7,2.8,5.3c0.6,0.6,1.4,1.1,2.3,1.5
					c1.1,1,1.7,2.3,1.9,3.7c0.5,2.1,0.9,4.2,1.3,6.3c0.2,1,0.2,2-0.1,3c-0.9,1.5-2.7,2.2-4.5,1.9c-1.7-0.4-3.3-1.1-4.7-2.1
					c-2.4-1.6-5.1-2.7-8-3.3c-1.6-0.2-3.3-0.1-4.9-0.3c-1.4-0.1-2.7-0.4-4-0.9C174.7,78,191.3,70.3,194.4,69z"/>
				<path class="st14" d="M202.1,66.9c0.3-0.2,0.8-0.3,1.2-0.3c2.1,0,5.3,4,6.5,5.4c2,2.5,3.9,5.2,6.3,7.3c1.5,1.2,3.3,2.6,3.1,4.4
					c-0.3,2.6-3.8,3-5.9,3.3c-1.8,0.3-5.4,2.1-6.6,0.2c-0.3-0.6-0.4-1.3-0.4-2c-0.2-3.6-2.3-6.7-4.2-9.8c-0.8-1.1-1.3-2.3-1.7-3.6
					C200,70.4,200.5,67.7,202.1,66.9z"/>
				<path class="st15" d="M147.1,69.8c-0.1-7.1,0.6-12.8,5.7-18.1c2.1,3.6,6.2,6,7.1,10c1.1,5,0.8,11.6-3.9,15
					C150.2,81.1,147.2,74.7,147.1,69.8z"/>
			</g>
		</g>
	</g>
	
		<linearGradient id="SVGID_11_" gradientUnits="userSpaceOnUse" x1="9.7176" y1="990.0023" x2="82.9865" y2="1082.7402" gradientTransform="matrix(1 0 0 1 0 -956)">
		<stop  offset="0" style="stop-color:#FFFFFF"/>
		<stop  offset="0.14" style="stop-color:#E2F0E8;stop-opacity:0.88"/>
		<stop  offset="0.46" style="stop-color:#99C9AC;stop-opacity:0.57"/>
		<stop  offset="0.92" style="stop-color:#258B4E;stop-opacity:8.000000e-02"/>
		<stop  offset="1" style="stop-color:#11803E;stop-opacity:0"/>
	</linearGradient>
	<ellipse class="st17" cx="40.4" cy="72.9" rx="41.9" ry="39.1"/>
	
		<linearGradient id="SVGID_12_" gradientUnits="userSpaceOnUse" x1="144.4455" y1="990.0173" x2="217.7144" y2="1082.7552" gradientTransform="matrix(1 0 0 1 0 -956)">
		<stop  offset="0" style="stop-color:#FFFFFF"/>
		<stop  offset="0.14" style="stop-color:#E2F0E8;stop-opacity:0.88"/>
		<stop  offset="0.46" style="stop-color:#99C9AC;stop-opacity:0.57"/>
		<stop  offset="0.92" style="stop-color:#258B4E;stop-opacity:8.000000e-02"/>
		<stop  offset="1" style="stop-color:#11803E;stop-opacity:0"/>
	</linearGradient>
	<ellipse class="st18" cx="175.2" cy="72.9" rx="41.9" ry="39.1"/>
	
		<linearGradient id="SVGID_13_" gradientUnits="userSpaceOnUse" x1="63.1965" y1="1063.6857" x2="39.6038" y2="1025.8192" gradientTransform="matrix(1 0 0 1 0 -956)">
		<stop  offset="0" style="stop-color:#FFFFFF"/>
		<stop  offset="0.14" style="stop-color:#EDF4F0;stop-opacity:0.88"/>
		<stop  offset="0.46" style="stop-color:#BFD9CA;stop-opacity:0.57"/>
		<stop  offset="0.92" style="stop-color:#77AD8D;stop-opacity:8.000000e-02"/>
		<stop  offset="1" style="stop-color:#6AA683;stop-opacity:0"/>
	</linearGradient>
	<path class="st19" d="M67.1,72c-2.6,15.2-17.9,25.5-34.2,23.1c-1.5-0.2-3-0.6-4.4-1c6.9,9.8,20.9,12.5,31.4,6.1
		C69.9,94.1,73.1,81.7,67.1,72z"/>
	
		<linearGradient id="SVGID_14_" gradientUnits="userSpaceOnUse" x1="200.1679" y1="1063.6904" x2="176.5752" y2="1025.824" gradientTransform="matrix(1 0 0 1 0 -956)">
		<stop  offset="0" style="stop-color:#FFFFFF"/>
		<stop  offset="0.14" style="stop-color:#EDF4F0;stop-opacity:0.88"/>
		<stop  offset="0.46" style="stop-color:#BFD9CA;stop-opacity:0.57"/>
		<stop  offset="0.92" style="stop-color:#77AD8D;stop-opacity:8.000000e-02"/>
		<stop  offset="1" style="stop-color:#6AA683;stop-opacity:0"/>
	</linearGradient>
	<path class="st20" d="M204.1,72c-2.6,15.2-17.9,25.5-34.1,23.1c-1.5-0.2-3-0.6-4.5-1c6.9,9.8,20.9,12.5,31.4,6.1
		C206.9,94.1,210.1,81.7,204.1,72z"/>
	
		<linearGradient id="SVGID_15_" gradientUnits="userSpaceOnUse" x1="1014.7267" y1="-4.5623" x2="1001.8782" y2="-25.1705" gradientTransform="matrix(0.9484 -0.317 0.2377 0.7113 -920.5078 377.0185)">
		<stop  offset="0" style="stop-color:#FFFFFF"/>
		<stop  offset="0.14" style="stop-color:#FAFAFA;stop-opacity:0.88"/>
		<stop  offset="0.46" style="stop-color:#EFEFEF;stop-opacity:0.57"/>
		<stop  offset="0.92" style="stop-color:#DCDCDC;stop-opacity:8.000000e-02"/>
		<stop  offset="1" style="stop-color:#D9D9D9;stop-opacity:0"/>
	</linearGradient>
	<path class="st21" d="M28.1,41.3c3.5-1.1,7-0.3,7.7,1.8c0.8,2.1-1.5,4.7-5,5.8s-7,0.3-7.7-1.8S24.6,42.4,28.1,41.3z"/>
	
		<linearGradient id="SVGID_16_" gradientUnits="userSpaceOnUse" x1="1140.7004" y1="51.516" x2="1127.8549" y2="30.9023" gradientTransform="matrix(0.9484 -0.317 0.2377 0.7113 -920.5017 377.0158)">
		<stop  offset="0" style="stop-color:#FFFFFF"/>
		<stop  offset="0.14" style="stop-color:#FAFAFA;stop-opacity:0.88"/>
		<stop  offset="0.46" style="stop-color:#EFEFEF;stop-opacity:0.57"/>
		<stop  offset="0.92" style="stop-color:#DCDCDC;stop-opacity:8.000000e-02"/>
		<stop  offset="1" style="stop-color:#D9D9D9;stop-opacity:0"/>
	</linearGradient>
	<path class="st22" d="M161,41.3c3.5-1.1,7-0.3,7.7,1.8c0.8,2.1-1.5,4.7-5,5.8c-3.5,1.1-7,0.3-7.7-1.8C155.3,45,157.6,42.4,161,41.3
		z"/>
	
		<linearGradient id="SVGID_17_" gradientUnits="userSpaceOnUse" x1="-2185.5549" y1="5359.0439" x2="-2193.8608" y2="5345.6992" gradientTransform="matrix(-0.1865 0.9825 -0.7368 -0.1399 3759.3228 2965.3755)">
		<stop  offset="0" style="stop-color:#FFFFFF"/>
		<stop  offset="0.14" style="stop-color:#FAFAFA;stop-opacity:0.88"/>
		<stop  offset="0.46" style="stop-color:#EFEFEF;stop-opacity:0.57"/>
		<stop  offset="0.92" style="stop-color:#DCDCDC;stop-opacity:8.000000e-02"/>
		<stop  offset="1" style="stop-color:#D9D9D9;stop-opacity:0"/>
	</linearGradient>
	<path class="st23" d="M203.4,74.7c0.4-2.2,2-3.7,3.5-3.5s2.4,2.2,1.9,4.4c-0.4,2.2-2,3.7-3.5,3.5C203.7,78.8,202.8,76.9,203.4,74.7
		z"/>
	
		<linearGradient id="SVGID_18_" gradientUnits="userSpaceOnUse" x1="-2160.2393" y1="5538.5537" x2="-2168.5547" y2="5525.2104" gradientTransform="matrix(-0.1865 0.9825 -0.7368 -0.1399 3759.3169 2965.3804)">
		<stop  offset="0" style="stop-color:#FFFFFF"/>
		<stop  offset="0.14" style="stop-color:#FAFAFA;stop-opacity:0.88"/>
		<stop  offset="0.46" style="stop-color:#EFEFEF;stop-opacity:0.57"/>
		<stop  offset="0.92" style="stop-color:#DCDCDC;stop-opacity:8.000000e-02"/>
		<stop  offset="1" style="stop-color:#D9D9D9;stop-opacity:0"/>
	</linearGradient>
	<path class="st24" d="M66,74.7c0.4-2.2,2-3.7,3.5-3.5c1.5,0.2,2.4,2.2,1.9,4.4c-0.4,2.2-2,3.7-3.5,3.5C66.4,78.9,65.5,76.9,66,74.7
		z"/>
</g>
</svg>
