<?xml version="1.0" encoding="utf-8"?>
<!-- Generator: Adobe Illustrator 25.0.0, SVG Export Plug-In . SVG Version: 6.00 Build 0)  -->
<svg version="1.1" id="Layer_1" xmlns="http://www.w3.org/2000/svg" xmlns:xlink="http://www.w3.org/1999/xlink" x="0px" y="0px"
	 viewBox="0 0 229.4 102.3" style="enable-background:new 0 0 229.4 102.3;" xml:space="preserve">
<style type="text/css">
	.st0{fill:url(#SVGID_1_);}
	.st1{fill:url(#SVGID_2_);}
	.st2{fill:none;stroke:url(#SVGID_3_);stroke-width:3.35;stroke-linecap:round;stroke-miterlimit:10;}
	.st3{fill:url(#SVGID_4_);}
	.st4{clip-path:url(#SVGID_6_);}
	.st5{fill:url(#SVGID_7_);}
	.st6{fill:url(#SVGID_8_);}
	.st7{fill:url(#SVGID_9_);}
	.st8{fill:url(#SVGID_10_);}
	.st9{clip-path:url(#SVGID_12_);}
	.st10{fill:url(#SVGID_13_);}
	.st11{fill:#5BFF52;}
</style>
<g>
	<g id="מסך_פתיחה">
		
			<linearGradient id="SVGID_1_" gradientUnits="userSpaceOnUse" x1="114.5707" y1="1019.2635" x2="115.3281" y2="1078.686" gradientTransform="matrix(1 0 0 1 0 -956)">
			<stop  offset="0" style="stop-color:#262A2E"/>
			<stop  offset="0.66" style="stop-color:#40474C"/>
			<stop  offset="1" style="stop-color:#4F575E"/>
		</linearGradient>
		<path class="st0" d="M208.8,77.6c0,15.6-37.9,28.3-94,28.3s-94-11.3-94-27s37.9-18.4,94-18.4S208.8,62,208.8,77.6z"/>
		
			<linearGradient id="SVGID_2_" gradientUnits="userSpaceOnUse" x1="13.0617" y1="1000.7167" x2="216.3617" y2="1000.7167" gradientTransform="matrix(1 0 0 1 0 -956)">
			<stop  offset="0" style="stop-color:#262A2E"/>
			<stop  offset="0.66" style="stop-color:#40474C"/>
			<stop  offset="1" style="stop-color:#4F575E"/>
		</linearGradient>
		<path class="st1" d="M216.4,75.7C216.4,33.9,164.7,0,114.8,0C72.4,0,13.1,33.9,13.1,75.7c0,25.9,45.5,0,101.7,0
			S216.4,106.6,216.4,75.7z"/>
		
			<linearGradient id="SVGID_3_" gradientUnits="userSpaceOnUse" x1="103.539" y1="1048.1" x2="133.5503" y2="1048.1" gradientTransform="matrix(1 0 0 1 0 -956)">
			<stop  offset="0" style="stop-color:#15181A"/>
			<stop  offset="1" style="stop-color:#262A2E"/>
		</linearGradient>
		<path class="st2" d="M105.3,95.1c0,0,12.8-13.5,26.7,0"/>
		
			<linearGradient id="SVGID_4_" gradientUnits="userSpaceOnUse" x1="169.8243" y1="1037.9324" x2="170.8171" y2="1115.9922" gradientTransform="matrix(1 0 0 1 0 -956)">
			<stop  offset="0" style="stop-color:#181A1D"/>
			<stop  offset="0.66" style="stop-color:#32373B"/>
			<stop  offset="1" style="stop-color:#41474D"/>
		</linearGradient>
		<path class="st3" d="M208.8,100.6c0-20.7-17.3-22.3-38.7-22.3s-38.7,1.6-38.7,22.3s17.3,37.5,38.7,37.5S208.8,121.2,208.8,100.6z"
			/>
		<g>
			<g>
				<defs>
					<path id="SVGID_5_" d="M208.8,100.6c0-20.7-17.3-22.3-38.7-22.3s-38.7,1.6-38.7,22.3s17.3,37.5,38.7,37.5
						S208.8,121.2,208.8,100.6z"/>
				</defs>
				<clipPath id="SVGID_6_">
					<use xlink:href="#SVGID_5_"  style="overflow:visible;"/>
				</clipPath>
				<g class="st4">
					
						<linearGradient id="SVGID_7_" gradientUnits="userSpaceOnUse" x1="95.3568" y1="1083.6947" x2="50.0889" y2="1042.5719" gradientTransform="matrix(1 0 0 1 0 -956)">
						<stop  offset="0" style="stop-color:#D1D8E3"/>
						<stop  offset="0.16" style="stop-color:#BEC4CF;stop-opacity:0.86"/>
						<stop  offset="0.51" style="stop-color:#8C929B;stop-opacity:0.52"/>
						<stop  offset="1" style="stop-color:#41474D;stop-opacity:0"/>
					</linearGradient>
					<polygon class="st5" points="28.5,103.6 100.7,85.9 105.3,95.1 32.2,116.9 					"/>
					
						<linearGradient id="SVGID_8_" gradientUnits="userSpaceOnUse" x1="96.4547" y1="1086.3927" x2="49.3752" y2="1043.6219" gradientTransform="matrix(1 0 0 1 0 -956)">
						<stop  offset="0" style="stop-color:#D1D8E3"/>
						<stop  offset="0.16" style="stop-color:#BEC4CF;stop-opacity:0.86"/>
						<stop  offset="0.51" style="stop-color:#8C929B;stop-opacity:0.52"/>
						<stop  offset="1" style="stop-color:#41474D;stop-opacity:0"/>
					</linearGradient>
					<polygon class="st6" points="28.5,103.6 103.4,85.9 108,95.1 27.3,118.3 					"/>
					
						<linearGradient id="SVGID_9_" gradientUnits="userSpaceOnUse" x1="198.9435" y1="1086.3826" x2="151.8641" y2="1043.6119" gradientTransform="matrix(1 0 0 1 0 -956)">
						<stop  offset="0" style="stop-color:#D1D8E3"/>
						<stop  offset="0.16" style="stop-color:#BEC4CF;stop-opacity:0.86"/>
						<stop  offset="0.51" style="stop-color:#8C929B;stop-opacity:0.52"/>
						<stop  offset="1" style="stop-color:#41474D;stop-opacity:0"/>
					</linearGradient>
					<polygon class="st7" points="131,103.6 205.9,85.9 210.5,95.1 129.8,118.3 					"/>
				</g>
			</g>
		</g>
		
			<linearGradient id="SVGID_10_" gradientUnits="userSpaceOnUse" x1="66.7767" y1="1037.9321" x2="67.7593" y2="1115.9918" gradientTransform="matrix(1 0 0 1 0 -956)">
			<stop  offset="0" style="stop-color:#181A1D"/>
			<stop  offset="0.66" style="stop-color:#32373B"/>
			<stop  offset="1" style="stop-color:#41474D"/>
		</linearGradient>
		<path class="st8" d="M105.7,100.6c0-20.7-17.3-22.3-38.7-22.3s-38.6,1.6-38.6,22.3S45.7,138,67.1,138S105.7,121.2,105.7,100.6z"/>
		<g>
			<g>
				<defs>
					<path id="SVGID_11_" d="M105.7,100.6c0-20.7-17.3-22.3-38.7-22.3s-38.6,1.6-38.6,22.3S45.7,138,67.1,138
						S105.7,121.2,105.7,100.6z"/>
				</defs>
				<clipPath id="SVGID_12_">
					<use xlink:href="#SVGID_11_"  style="overflow:visible;"/>
				</clipPath>
				<g class="st9">
					
						<linearGradient id="SVGID_13_" gradientUnits="userSpaceOnUse" x1="83.0995" y1="1074.2633" x2="36.0303" y2="1031.4928" gradientTransform="matrix(1 0 0 1 0 -956)">
						<stop  offset="0" style="stop-color:#41474D;stop-opacity:0"/>
						<stop  offset="0.49" style="stop-color:#8C929B;stop-opacity:0.52"/>
						<stop  offset="0.84" style="stop-color:#BEC4CF;stop-opacity:0.86"/>
						<stop  offset="1" style="stop-color:#D1D8E3"/>
					</linearGradient>
					<polygon class="st10" points="28.5,103.6 103.4,85.9 108,95.1 27.3,118.3 					"/>
				</g>
			</g>
		</g>
		<g>
			<path class="st11" d="M82.4,48.8c0.2,0.1,0.4,0.3,0.5,0.5c0.2,0.8,0.3,1.1,0.5,1.9c0,0.2,0,0.5-0.2,0.6c-0.2,0.2-0.6,0.3-0.9,0.3
				l-2.7,0.4C79.2,53,79,53.6,79,54.2c0,0.8,0,1.6,0.3,2.3c1.1,4.1,1.7,6.2,2.8,10.3c0,0.2-0.1,0.4-0.2,0.6
				c-0.2,0.2-0.5,0.3-0.8,0.3c-1.5,0.2-2.2,0.3-3.7,0.6c-0.3,0.1-0.5,0-0.8-0.1c-0.2-0.1-0.4-0.3-0.4-0.5c-1.4-4.2-2-6.3-3.4-10.6
				c-0.5-1.7-0.5-3,0-3.7c-5.1,0.9-7.7,1.4-12.8,2.5c-0.3,0.1-0.6,0.1-0.9,0c-0.3-0.1-0.5-0.2-0.6-0.5c-0.3-0.7-0.5-1.1-0.8-1.8
				c-0.1-0.2,0-0.5,0.1-0.6c0.2-0.2,0.5-0.3,0.8-0.4c7.5-1.8,15.1-3.1,22.7-4.1C81.7,48.7,82,48.7,82.4,48.8z"/>
			<path class="st11" d="M102.3,65.7c-0.2-0.1-0.4-0.3-0.4-0.6c-0.1-1-0.2-1.4-0.3-2.4c0-0.2,0.1-0.4,0.2-0.6
				c0.2-0.2,0.5-0.4,0.8-0.5l1.7-0.6c1.5-0.5,3-1.2,4.1-2.3c1-1.1,1.5-2.6,1.3-4.1c0-1-0.3-2-0.8-2.8c-0.6-0.7-1.4-1.2-2.3-1.3
				c-1.4-0.3-2.9-0.4-4.3-0.2c-4.8,0.3-7.2,0.5-12,1c-0.3,0-0.6,0-0.9-0.1c-0.2-0.1-0.4-0.3-0.5-0.5l-0.4-2c0-0.2,0.1-0.5,0.3-0.6
				c0.3-0.2,0.5-0.3,0.8-0.3c5.4-0.6,8.2-0.8,13.6-1.1c4.7-0.3,8.1,0.3,10.1,1.6s3,3.4,3.1,6.4c0.1,2.6-1.1,5.1-3.2,6.7
				c-2.4,1.8-5.1,3.2-8.1,3.9c-0.7,0.2-1.1,0.3-1.9,0.5C102.9,65.9,102.6,65.9,102.3,65.7z M93.5,72.3c-0.2-0.1-0.4-0.3-0.4-0.5
				c-1.3-6.6-1.9-9.8-3.2-16.4c-0.1-0.2,0-0.5,0.2-0.6c0.2-0.2,0.5-0.3,0.8-0.3c1.6-0.2,2.4-0.2,3.9-0.4c0.3,0,0.6,0,0.9,0.2
				c0.2,0.1,0.4,0.3,0.4,0.5c1,6.6,1.5,9.9,2.5,16.4c0,0.2-0.1,0.4-0.2,0.6c-0.2,0.2-0.5,0.3-0.7,0.3c-1.4,0.1-2,0.2-3.4,0.3
				C94,72.5,93.7,72.5,93.5,72.3z"/>
			<path class="st11" d="M127.8,51.9c-0.1,1.3,0.4,2.1,1.5,2.4l1.6,0.4c0.2,0.1,0.5,0.2,0.6,0.4c0.1,0.2,0.2,0.4,0.2,0.7
				c0,0.5,0,0.7-0.1,1.2c0,0.3-0.2,0.5-0.7,0.6s-0.9,0.2-1.4,0.1l-2-0.3c-1.5-0.1-2.8-0.8-3.9-1.9c-1-1.1-1.5-2.5-1.4-3.9l0.1-4.5
				c0-0.2,0.2-0.5,0.4-0.6c0.3-0.1,0.6-0.2,0.9-0.2c4.1,0.1,6.1,0.1,10.2,0.4c4.3,0.2,7.4,1.2,9.3,2.8c1.8,1.6,2.7,4,2.3,6.4
				c0,0.4-0.1,0.7-0.2,1.1c-0.1,0.4-0.1,0.7-0.3,1.1c-0.5,2.4-2.1,4.5-4.2,5.7c-2.1,1.3-5.1,1.8-8.8,1.5c-3.4-0.2-5.1-0.3-8.4-0.3
				c-0.3,0-0.6-0.1-0.8-0.2c-0.2-0.1-0.3-0.3-0.3-0.6l0.1-2c0-0.2,0.2-0.4,0.4-0.6c0.2-0.1,0.5-0.2,0.8-0.2c3.4,0.1,5.1,0.1,8.4,0.3
				c1.6,0.2,3.3-0.2,4.7-0.9c1.2-0.7,2-1.9,2.3-3.3c0-0.2,0.1-0.6,0.2-1c0.1-0.3,0.1-0.7,0.1-1c0.2-1.4-0.4-2.7-1.4-3.6
				c-1.4-1-3.1-1.5-4.8-1.5c-2.1-0.1-3.2-0.2-5.3-0.2C127.8,50.8,127.8,51.2,127.8,51.9z"/>
			<path class="st11" d="M175.8,54.3c1.6,1.7,1.9,4.3,0.8,6.4c-1.6,3.8-2.4,5.7-3.9,9.5c-0.1,0.2-0.3,0.4-0.5,0.5
				c-0.3,0.1-0.6,0.1-0.9,0c-4.8-1-7.2-1.5-12.1-2.4c-0.3,0-0.5-0.2-0.7-0.4c-0.2-0.2-0.2-0.4-0.2-0.6l0.6-1.9
				c0.1-0.2,0.3-0.4,0.5-0.5c0.3-0.1,0.6-0.1,0.9-0.1c3,0.5,4.5,0.8,7.5,1.4l2.5-6.7c0.5-1.2,0.4-2.5-0.4-3.5
				c-0.9-1.1-2.3-1.8-3.7-2c-1.9-0.3-2.8-0.5-4.6-0.8c-3.3,5.3-4.8,8-7.8,13.4c-0.1,0.2-0.3,0.4-0.6,0.5s-0.6,0.2-0.8,0.1l-3.6-0.5
				c-0.3,0-0.5-0.1-0.7-0.3c-0.2-0.2-0.2-0.4-0.1-0.6c2.9-5.4,4.4-8.1,7.7-13.5l-3.1-0.4c-0.3,0-0.6-0.1-0.8-0.3
				c-0.2-0.1-0.3-0.4-0.2-0.6c0.2-0.8,0.3-1.2,0.5-2c0.1-0.2,0.2-0.4,0.5-0.5s0.6-0.1,0.9-0.1c6,0.8,9,1.2,14.9,2.3
				C171.6,51.3,174.2,52.6,175.8,54.3z"/>
		</g>
	</g>
</g>
</svg>
