<svg xmlns="http://www.w3.org/2000/svg" xmlns:xlink="http://www.w3.org/1999/xlink" viewBox="0 0 28.5449 28.5449"><defs><style>.a{fill:url(#a);}.b{fill:url(#b);}.c{isolation:isolate;}.d{fill:#fff;}.e{fill:url(#c);}.f{fill:url(#d);}.g{fill:none;stroke-linecap:round;stroke-miterlimit:10;stroke-width:0.39016px;stroke:url(#e);}.h{clip-path:url(#g);}.i{fill:url(#h);}.j{fill:url(#i);}.k{fill:url(#j);}.l{clip-path:url(#l);}.m{fill:url(#m);}.n{mix-blend-mode:overlay;}.o{fill:#5bff52;}</style><linearGradient id="a" x1="19.21354" y1="15.9717" x2="19.30612" y2="23.28601" gradientUnits="userSpaceOnUse"><stop offset="0" stop-color="#181a1d"/><stop offset="0.65941" stop-color="#32373b"/><stop offset="1" stop-color="#41474d"/></linearGradient><linearGradient id="b" x1="9.85437" y1="15.9717" x2="9.94696" y2="23.28601" xlink:href="#a"/><linearGradient id="c" x1="14.1855" y1="13.02133" x2="14.27712" y2="20.25934" gradientUnits="userSpaceOnUse"><stop offset="0" stop-color="#262a2e"/><stop offset="0.65941" stop-color="#40474c"/><stop offset="1" stop-color="#4f575e"/></linearGradient><linearGradient id="d" x1="4.97757" y1="10.75266" x2="23.43968" y2="10.75266" xlink:href="#c"/><linearGradient id="e" x1="13.15043" y1="16.92891" x2="15.96149" y2="16.92891" gradientUnits="userSpaceOnUse"><stop offset="0" stop-color="#15181a"/><stop offset="1" stop-color="#262a2e"/></linearGradient><clipPath id="g"><path class="a" d="M22.74713,17.71845c0-1.93934-1.57215-2.093-3.51148-2.093s-3.51148.15368-3.51148,2.093a3.51148,3.51148,0,0,0,7.023,0Z"/></clipPath><linearGradient id="h" x1="12.44031" y1="20.17032" x2="8.34403" y2="16.44905" gradientUnits="userSpaceOnUse"><stop offset="0" stop-color="#d1d8e3"/><stop offset="0.16045" stop-color="#bec4cf" stop-opacity="0.86472"/><stop offset="0.51199" stop-color="#8c929b" stop-opacity="0.519"/><stop offset="1" stop-color="#41474d" stop-opacity="0"/></linearGradient><linearGradient id="i" x1="12.53731" y1="20.41712" x2="8.27723" y2="16.54704" xlink:href="#h"/><linearGradient id="j" x1="21.84261" y1="20.41712" x2="17.58252" y2="16.54704" xlink:href="#h"/><clipPath id="l"><path class="b" d="M13.388,17.71845c0-1.93934-1.57214-2.093-3.51148-2.093s-3.51147.15368-3.51147,2.093a3.51148,3.51148,0,1,0,7.023,0Z"/></clipPath><linearGradient id="m" x1="11.32941" y1="19.3198" x2="7.06932" y2="15.44972" gradientUnits="userSpaceOnUse"><stop offset="0" stop-color="#41474d" stop-opacity="0"/><stop offset="0.48801" stop-color="#8c929b" stop-opacity="0.519"/><stop offset="0.83955" stop-color="#bec4cf" stop-opacity="0.86472"/><stop offset="1" stop-color="#d1d8e3"/></linearGradient></defs><g class="c"><circle class="d" cx="14.27245" cy="14.27245" r="14.27245"/><path class="e" d="M22.74735,14.76824c0,1.908-3.44056,3.45474-8.53873,3.45474S5.6699,16.83526,5.6699,14.92726s3.44055-2.24291,8.53872-2.24291S22.74735,12.86024,22.74735,14.76824Z"/><path class="f" d="M23.43968,14.53056A9.61123,9.61123,0,0,0,14.20862,5.2995c-3.84627,0-9.231,4.13289-9.231,9.23106,0,3.15394,4.13288,0,9.23105,0S23.43968,18.2999,23.43968,14.53056Z"/><path class="g" d="M13.34551,17.20926a1.61915,1.61915,0,0,1,2.42089,0"/><path class="a" d="M22.74713,17.71845c0-1.93934-1.57215-2.093-3.51148-2.093s-3.51148.15368-3.51148,2.093a3.51148,3.51148,0,0,0,7.023,0Z"/><g class="h"><polygon class="i" points="6.378 18.002 12.931 16.339 13.346 17.209 6.717 19.248 6.378 18.002"/><polygon class="j" points="6.378 18.002 13.181 16.339 13.595 17.209 6.265 19.382 6.378 18.002"/><polygon class="k" points="15.683 18.002 22.486 16.339 22.901 17.209 15.571 19.382 15.683 18.002"/></g><path class="b" d="M13.388,17.71845c0-1.93934-1.57214-2.093-3.51148-2.093s-3.51147.15368-3.51147,2.093a3.51148,3.51148,0,1,0,7.023,0Z"/><g class="l"><polygon class="m" points="6.378 18.002 13.181 16.339 13.595 17.209 6.265 19.382 6.378 18.002"/></g><g class="n"><path class="o" d="M11.2683,11.254a.08475.08475,0,0,1,.0448.06079l.04077.23291a.08624.08624,0,0,1-.02076.07251.1272.1272,0,0,1-.07873.04248c-.09863.01807-.14795.02735-.24646.04663a.4477.4477,0,0,0-.05444.21045,1.11959,1.11959,0,0,0,.024.28492c.10254.50488.15381.75732.25635,1.262a.07642.07642,0,0,1-.02075.06763.12717.12717,0,0,1-.07031.041c-.1333.02808-.2.04273-.33289.07349a.0968.0968,0,0,1-.072-.00781.08516.08516,0,0,1-.03967-.05616c-.12244-.51513-.1836-.77295-.306-1.28808a.67526.67526,0,0,1,.004-.45679c-.46583.10767-.69764.16919-1.15748.30762a.1232.1232,0,0,1-.08544-.00318.085.085,0,0,1-.05225-.05493l-.06958-.22607a.0825.0825,0,0,1,.01245-.07666.13251.13251,0,0,1,.07166-.04883,15.74844,15.74844,0,0,1,2.06225-.49609A.13093.13093,0,0,1,11.2683,11.254Z"/><path class="o" d="M13.07823,13.31455a.08865.08865,0,0,1-.04-.0686l-.02661-.29078a.09731.09731,0,0,1,.0199-.06787.1892.1892,0,0,1,.06921-.05615c.06067-.02783.09107-.0415.15222-.0686a.94107.94107,0,0,0,.37647-.28492.75346.75346,0,0,0,.11755-.49414.82886.82886,0,0,0-.07409-.343.34494.34494,0,0,0-.20581-.1709,1.00922,1.00922,0,0,0-.39075-.029c-.43775.0354-.65625.05932-1.09192.12085a.12292.12292,0,0,1-.08386-.01612.08786.08786,0,0,1-.04248-.063l-.03723-.25317a.08054.08054,0,0,1,.02356-.07007.134.134,0,0,1,.07812-.03735c.49194-.06934.73889-.09571,1.2334-.13257a1.25384,1.25384,0,0,1,.91687.198.99457.99457,0,0,1,.27576.7749,1.14638,1.14638,0,0,1-.29078.822,1.81954,1.81954,0,0,1-.73315.47437c-.06775.02588-.10144.03906-.1687.06543A.081.081,0,0,1,13.07823,13.31455Zm-.8031.80859a.09033.09033,0,0,1-.03821-.06494c-.11755-.79932-.17639-1.19873-.29394-1.998a.0847.0847,0,0,1,.0216-.07373.122.122,0,0,1,.07447-.03735c.14245-.02.21386-.0293.35669-.04663a.11762.11762,0,0,1,.08166.0188.08628.08628,0,0,1,.03955.064c.0918.80249.1377,1.20386.22937,2.00635a.09276.09276,0,0,1-.02026.0708.0968.0968,0,0,1-.06567.03565c-.12525.01513-.18787.02343-.313.041A.10167.10167,0,0,1,12.27513,14.12314Z"/><path class="o" d="M15.39061,11.63218c-.00745.16259.03711.25781.13354.28686.05774.01758.08655.02661.14405.04468a.09966.09966,0,0,1,.05371.04932.14548.14548,0,0,1,.01538.07934l-.00537.14795a.08634.08634,0,0,1-.05884.07593.21414.21414,0,0,1-.12622.01245c-.07263-.01685-.109-.02515-.18188-.04126a.54163.54163,0,0,1-.35291-.22656.7802.7802,0,0,1-.12769-.47705c.00391-.21924.006-.32862.00989-.54786a.10152.10152,0,0,1,.03772-.06909.12026.12026,0,0,1,.08-.02417c.37207.009.5581.01807.92944.04541a1.19044,1.19044,0,0,1,.84326.34668,1.00106,1.00106,0,0,1,.21.77735,1.19838,1.19838,0,0,1-.01294.13134,1.2346,1.2346,0,0,1-.02356.13379.99341.99341,0,0,1-1.1842.88794c-.30627-.02246-.45959-.03-.76636-.03857a.101.101,0,0,1-.07129-.02954.09078.09078,0,0,1-.02807-.06909l.00525-.25123a.0905.0905,0,0,1,.03174-.06787.10439.10439,0,0,1,.07446-.02588c.30627.00831.45935.01587.765.03809a.59442.59442,0,0,0,.43164-.114.64717.64717,0,0,0,.21094-.40259c.00476-.02588.01172-.06836.01795-.12671.006-.05591.00769-.09766.00878-.12378a.59563.59563,0,0,0-.12951-.43725.63231.63231,0,0,0-.43909-.18775c-.1936-.01392-.2904-.01953-.48413-.02856Z"/><path class="o" d="M19.74876,11.92954a.87925.87925,0,0,1,.07288.7749l-.3562,1.158a.09207.09207,0,0,1-.04663.05737.10238.10238,0,0,1-.07984.00489c-.43481-.13111-.654-.18872-1.09484-.28931a.10394.10394,0,0,1-.06507-.04321.08985.08985,0,0,1-.01416-.073l.05091-.23047a.0873.0873,0,0,1,.0448-.06152.11216.11216,0,0,1,.07861-.00879c.27295.06225.40893.09619.67981.16968.08935-.32886.134-.49341.22326-.82227a.55324.55324,0,0,0-.03637-.43189.504.504,0,0,0-.33618-.24121c-.168-.04028-.25208-.05957-.42078-.09594-.29675.6477-.43811.97387-.707,1.63037a.13093.13093,0,0,1-.05164.06372.10333.10333,0,0,1-.07629.01391c-.1322-.0249-.19837-.03662-.33093-.05859a.09059.09059,0,0,1-.06446-.04077.08467.08467,0,0,1-.012-.07324c.26245-.66236.40149-.9917.69519-1.645-.10974-.02027-.16467-.03-.27454-.04859a.11924.11924,0,0,1-.07458-.04052.08641.08641,0,0,1-.0221-.073l.04041-.24854a.08275.08275,0,0,1,.045-.06347.12929.12929,0,0,1,.08521-.012c.54565.092.8175.1482,1.35705.28077A1.10442,1.10442,0,0,1,19.74876,11.92954Z"/></g></g></svg>