<svg xmlns="http://www.w3.org/2000/svg" xmlns:xlink="http://www.w3.org/1999/xlink" viewBox="0 0 28.5449 28.5449"><defs><style>.a{fill:#bdeeff;}.b{fill:#fff;}.c{fill:url(#a);}.d{fill:url(#b);}.e{fill:url(#c);}.f{fill:url(#d);}.g{fill:url(#e);}.h{fill:url(#f);}.i{fill:#3c3c3b;}.j{clip-path:url(#g);}.k{fill:#85b783;}.l{fill:#432918;}.m{fill:#7b6a58;}.n{fill:#c9c4bd;}.o{fill:#e8dfd1;}.p{fill:#a48a7b;}.q{fill:#002d15;}.r{clip-path:url(#h);}.s{fill:url(#i);}.t{fill:url(#j);}.u,.v{opacity:0.58;}.u{fill:url(#k);}.v{fill:url(#l);}.w{fill:url(#m);}.x{fill:url(#n);}.y{fill:url(#o);}.z{fill:url(#p);}</style><linearGradient id="a" x1="10.33782" y1="14.1197" x2="10.96284" y2="16.59137" gradientUnits="userSpaceOnUse"><stop offset="0" stop-color="#878787"/><stop offset="0.27069" stop-color="#949494"/><stop offset="1" stop-color="#b2b2b2"/></linearGradient><linearGradient id="b" x1="18.32126" y1="13.97854" x2="17.72465" y2="15.79678" xlink:href="#a"/><linearGradient id="c" x1="5.1842" y1="11.89695" x2="12.52113" y2="11.89695" gradientUnits="userSpaceOnUse"><stop offset="0" stop-color="#878787"/><stop offset="0.42747" stop-color="#6d6d6d"/><stop offset="1" stop-color="#4f4f4f"/></linearGradient><linearGradient id="d" x1="15.97334" y1="11.89695" x2="23.42462" y2="11.89695" gradientUnits="userSpaceOnUse"><stop offset="0" stop-color="#4f4f4f"/><stop offset="0.57253" stop-color="#6d6d6d"/><stop offset="1" stop-color="#878787"/></linearGradient><linearGradient id="e" x1="15.54988" y1="12.9271" x2="13.13503" y2="10.17134" xlink:href="#a"/><radialGradient id="f" cx="15.0863" cy="15.09867" r="3.98448" gradientUnits="userSpaceOnUse"><stop offset="0.16206" stop-color="#4f4f4f"/><stop offset="0.39768" stop-color="#535353"/><stop offset="0.61292" stop-color="#5e5e5e"/><stop offset="0.81958" stop-color="#707070"/><stop offset="1" stop-color="#878787"/></radialGradient><clipPath id="g"><circle class="a" cx="8.73969" cy="15.1227" r="3.45826"/></clipPath><clipPath id="h"><circle class="a" cx="19.8621" cy="15.1227" r="3.45826"/></clipPath><linearGradient id="i" x1="6.09717" y1="11.77789" x2="12.40418" y2="19.76109" gradientUnits="userSpaceOnUse"><stop offset="0" stop-color="#fff"/><stop offset="0.14441" stop-color="#e2f0e8" stop-opacity="0.87943"/><stop offset="0.46083" stop-color="#99c9ac" stop-opacity="0.57129"/><stop offset="0.92279" stop-color="#258b4e" stop-opacity="0.0841"/><stop offset="1" stop-color="#11803e" stop-opacity="0"/></linearGradient><linearGradient id="j" x1="17.21958" y1="11.77789" x2="23.52659" y2="19.76109" xlink:href="#i"/><linearGradient id="k" x1="10.66947" y1="18.14396" x2="8.68788" y2="14.96421" gradientUnits="userSpaceOnUse"><stop offset="0" stop-color="#fff"/><stop offset="0.14441" stop-color="#edf4f0" stop-opacity="0.87943"/><stop offset="0.46083" stop-color="#bfd9ca" stop-opacity="0.57129"/><stop offset="0.92279" stop-color="#77ad8d" stop-opacity="0.0841"/><stop offset="1" stop-color="#6aa683" stop-opacity="0"/></linearGradient><linearGradient id="l" x1="21.97663" y1="18.14396" x2="19.99505" y2="14.96421" xlink:href="#k"/><linearGradient id="m" x1="670.49201" y1="-1216.4625" x2="669.41011" y2="-1218.19857" gradientTransform="translate(-662.19462 928.59756) scale(1 0.75249)" gradientUnits="userSpaceOnUse"><stop offset="0" stop-color="#fff"/><stop offset="0.14441" stop-color="#fafafa" stop-opacity="0.87943"/><stop offset="0.46083" stop-color="#efefef" stop-opacity="0.57129"/><stop offset="0.92279" stop-color="#dcdcdc" stop-opacity="0.0841"/><stop offset="1" stop-color="#d9d9d9" stop-opacity="0"/></linearGradient><linearGradient id="n" x1="680.89944" y1="-1211.83992" x2="679.81755" y2="-1213.57599" gradientTransform="translate(-661.62871 925.11912) scale(1 0.75249)" xlink:href="#m"/><linearGradient id="o" x1="446.04266" y1="4712.26624" x2="445.34862" y2="4711.15255" gradientTransform="translate(468.1534 3560.89474) rotate(180) scale(1 0.75249)" xlink:href="#m"/><linearGradient id="p" x1="448.15617" y1="4727.0662" x2="447.46213" y2="4725.95251" gradientTransform="translate(458.93133 3572.03154) rotate(180) scale(1 0.75249)" xlink:href="#m"/></defs><circle class="b" cx="14.27245" cy="14.27245" r="14.27245"/><path class="c" d="M13.67229,15.1227a3.1017,3.1017,0,1,0-6.20047-.07224c0,1.74163,1.41187,2.316,3.1535,2.316S13.67229,16.86433,13.67229,15.1227Z"/><path class="d" d="M14.87665,15.1227a3.1017,3.1017,0,1,1,6.20047-.07224c0,1.74163-1.41187,2.316-3.1535,2.316S14.87665,16.86433,14.87665,15.1227Z"/><path class="e" d="M12.52113,12.80668,11.89789,9.1989c-.40379-.37026-2.41985-.33526-3.38147-.296a1.0935,1.0935,0,0,0-.82026.42429L5.77884,11.80478a2.84316,2.84316,0,0,0-.59464,1.74v1.36956h.5404l.36231-2.21161Z"/><path class="f" d="M15.97334,12.80668l.73759-3.60778c.40379-.37026,2.41985-.33526,3.38147-.296a1.09348,1.09348,0,0,1,.82026.42429L22.83,11.80478a2.84315,2.84315,0,0,1,.59463,1.74v1.36956h-.5404l-.36231-2.21161Z"/><path class="g" d="M11.85123,9.28166l-1.535,2.72243,1.88172.95077,2.09287-.65957,2.19065.65957,1.54479-.95077-1.24-2.66659a.8037.8037,0,0,0-.72875-.46481H12.55131A.80369.80369,0,0,0,11.85123,9.28166Z"/><path class="h" d="M17.08264,13.99506h-.92355a1.98117,1.98117,0,0,0-3.73653,0H11.499a2.79182,2.79182,0,1,1,5.58364,0Z"/><circle class="i" cx="8.73969" cy="15.1227" r="4.01638"/><circle class="a" cx="8.73969" cy="15.1227" r="3.45826"/><g class="j"><ellipse class="k" cx="8.73969" cy="17.67231" rx="4.00018" ry="2.35876"/><rect class="l" x="6.80921" y="15.4366" width="0.15848" height="0.48121"/><path class="m" d="M12.72308,16.20776a.71063.71063,0,0,1-.9362-.208,5.02653,5.02653,0,0,1-.7924-1.04773,5.97954,5.97954,0,0,1-.46494-1.30652.34948.34948,0,0,1,.0048-.27631c.11034-.17164.56347.26734.74813.26727a.94581.94581,0,0,1,.20727-.005c.13956.03136.20209.18917.295.29788.17852.20876.52322.2806.59631.54538.02181.079.01384.16353.0318.24352.04354.1938.22427.32.344.47845a.85984.85984,0,0,1,.12459.78492A.42386.42386,0,0,1,12.72308,16.20776Z"/><path class="n" d="M8.06483,14.94883q-.17681.21093-.33224.43867a5.99793,5.99793,0,0,0,.61634-.028c.118-.02568.41613-.1122.44914.08653.00786.04733-.01416.09829.004.1427a.17065.17065,0,0,0,.09236.07683,1.71139,1.71139,0,0,0,.53775.18979c.12522.01449.25187.00109.37789.00433a4.03516,4.03516,0,0,1,1.05715.26306,6.575,6.575,0,0,0,1.08815.20226c.09252.01171.2213-.00623.22746-.09928a.18028.18028,0,0,0-.07623-.13,5.35825,5.35825,0,0,1-1.39608-2.16745c-.05851-.17139-.09585-.66088-.286-.67546-.1699-.013-.56487.26992-.71607.35212a5.70989,5.70989,0,0,0-1.64357,1.34393Z"/><path class="o" d="M10.32449,14.78c.15533-.07386.47861-.272.657-.21162.20955.071.11815.32788.23315.46866a1.133,1.133,0,0,0,.18339.13074.5595.5595,0,0,1,.15667.32781q.06109.27821.104.56a.48374.48374,0,0,1-.01073.26508.34234.34234,0,0,1-.37293.1663,1.08278,1.08278,0,0,1-.39415-.18823,1.69553,1.69553,0,0,0-.66026-.29144c-.13441-.01921-.27142-.00893-.4065-.02275a1.14574,1.14574,0,0,1-.32464-.08254C8.70605,15.57442,10.07546,14.89839,10.32449,14.78Z"/><path class="p" d="M10.95849,14.59435a.18072.18072,0,0,1,.093-.02405c.17609.00146.4384.3524.53636.478a4.84952,4.84952,0,0,0,.52506.65059c.1195.10812.2718.22679.25574.3872-.02339.23307-.3074.26352-.48435.29626-.15106.02794-.44208.1895-.54972.01417a.37461.37461,0,0,1-.03448-.17593,2.11125,2.11125,0,0,0-.34476-.87207,1.181,1.181,0,0,1-.13961-.32171A.44833.44833,0,0,1,10.95849,14.59435Z"/><path class="q" d="M6.4215,14.85507a2.1213,2.1213,0,0,1,.467-1.60273c.179.31539.51067.52941.58368.88463A1.374,1.374,0,0,1,7.1543,15.4653C6.67842,15.84884,6.429,15.28729,6.4215,14.85507Z"/></g><circle class="i" cx="19.8621" cy="15.1227" r="4.01638"/><circle class="a" cx="19.8621" cy="15.1227" r="3.45826"/><g class="r"><ellipse class="k" cx="19.8621" cy="17.67231" rx="4.00018" ry="2.35876"/><rect class="l" x="17.93162" y="15.4366" width="0.15848" height="0.48121"/><path class="m" d="M23.84548,16.20776a.71062.71062,0,0,1-.93619-.208,5.02619,5.02619,0,0,1-.7924-1.04773,5.979,5.979,0,0,1-.465-1.30652.34948.34948,0,0,1,.00481-.27631c.11034-.17164.56347.26734.74813.26727a.94573.94573,0,0,1,.20726-.005c.13957.03136.20209.18917.29506.29788.17852.20876.52322.2806.5963.54538.02182.079.01384.16353.03181.24352.04353.1938.22427.32.344.47845a.85984.85984,0,0,1,.12459.78492A.42382.42382,0,0,1,23.84548,16.20776Z"/><path class="n" d="M19.18724,14.94883q-.1768.21093-.33224.43867a5.998,5.998,0,0,0,.61634-.028c.118-.02568.41613-.1122.44914.08653.00786.04733-.01416.09829.004.1427a.17062.17062,0,0,0,.09236.07683,1.7113,1.7113,0,0,0,.53775.18979c.12522.01449.25187.00109.37788.00433a4.03506,4.03506,0,0,1,1.05715.26306,6.57537,6.57537,0,0,0,1.08815.20226c.09253.01171.2213-.00623.22746-.09928a.18021.18021,0,0,0-.07623-.13,5.35825,5.35825,0,0,1-1.39608-2.16745c-.0585-.17139-.09584-.66088-.286-.67546-.1699-.013-.56487.26992-.71608.35212a5.71,5.71,0,0,0-1.64356,1.34393Z"/><path class="o" d="M21.4469,14.78c.15533-.07386.47861-.272.657-.21162.20955.071.11815.32788.23315.46866a1.13288,1.13288,0,0,0,.18338.13074.55951.55951,0,0,1,.15668.32781q.0611.27821.104.56a.48374.48374,0,0,1-.01073.26508.34235.34235,0,0,1-.37294.1663,1.08282,1.08282,0,0,1-.39414-.18823,1.6956,1.6956,0,0,0-.66026-.29144c-.13442-.01921-.27142-.00893-.4065-.02275a1.14565,1.14565,0,0,1-.32464-.08254C19.82846,15.57442,21.19787,14.89839,21.4469,14.78Z"/><path class="p" d="M22.0809,14.59435a.18072.18072,0,0,1,.093-.02405c.17608.00146.43839.3524.53635.478a4.84959,4.84959,0,0,0,.52507.65059c.1195.10812.2718.22679.25574.3872-.02339.23307-.30741.26352-.48436.29626-.15106.02794-.44207.1895-.54971.01417a.37449.37449,0,0,1-.03448-.17593,2.11113,2.11113,0,0,0-.34477-.87207,1.18123,1.18123,0,0,1-.1396-.32171A.44833.44833,0,0,1,22.0809,14.59435Z"/><path class="q" d="M17.54391,14.85507a2.12129,2.12129,0,0,1,.467-1.60273c.179.31539.51068.52941.58369.88463a1.374,1.374,0,0,1-.31784,1.32833C17.80083,15.84884,17.55144,15.28729,17.54391,14.85507Z"/></g><circle class="s" cx="8.73969" cy="15.1227" r="3.45826"/><circle class="t" cx="19.8621" cy="15.1227" r="3.45826"/><path class="u" d="M10.94225,15.04455a2.46548,2.46548,0,0,1-3.18683,1.9605,1.87194,1.87194,0,0,0,3.18683-1.9605Z"/><path class="v" d="M22.24942,15.04455a2.46549,2.46549,0,0,1-3.18684,1.9605,1.87195,1.87195,0,0,0,3.18684-1.9605Z"/><ellipse class="w" cx="7.83545" cy="12.6657" rx="0.55317" ry="0.35486" transform="translate(-3.61081 3.13694) rotate(-18.48097)"/><ellipse class="x" cx="18.80879" cy="12.6657" rx="0.55317" ry="0.35486" transform="translate(-3.04491 6.61538) rotate(-18.48097)"/><ellipse class="y" cx="22.40707" cy="15.32627" rx="0.35486" ry="0.22764" transform="translate(3.17177 34.48286) rotate(-79.25437)"/><ellipse class="z" cx="11.0715" cy="15.32627" rx="0.35486" ry="0.22764" transform="translate(-6.05029 23.34606) rotate(-79.25437)"/></svg>