<svg xmlns="http://www.w3.org/2000/svg" xmlns:xlink="http://www.w3.org/1999/xlink" viewBox="0 0 28.5449 28.5449"><defs><style>.a{fill:#fff;}.b{fill:url(#a);}.c{fill:url(#b);}.d{fill:url(#c);}.e{fill:url(#d);}.f{fill:url(#e);}.g{fill:url(#f);}.h{fill:url(#g);}</style><linearGradient id="a" x1="15.08152" y1="12.40107" x2="13.35564" y2="17.66092" gradientUnits="userSpaceOnUse"><stop offset="0" stop-color="#3e6287"/><stop offset="0.27069" stop-color="#3a5a7a"/><stop offset="1" stop-color="#2f455c"/></linearGradient><linearGradient id="b" x1="15.47756" y1="14.25568" x2="23.55139" y2="14.74501" gradientUnits="userSpaceOnUse"><stop offset="0" stop-color="#9aa1a6"/><stop offset="0.27069" stop-color="#a3acb3"/><stop offset="1" stop-color="#bac6d1"/></linearGradient><linearGradient id="c" x1="15.47756" y1="-113.04714" x2="23.55139" y2="-112.55781" gradientTransform="matrix(1, -0.06312, 0, 1, 0, 128.2141)" gradientUnits="userSpaceOnUse"><stop offset="0" stop-color="#b8c1c7"/><stop offset="1" stop-color="#c2d0db"/></linearGradient><linearGradient id="d" x1="14.3904" y1="13.9321" x2="24.07515" y2="13.9321" gradientUnits="userSpaceOnUse"><stop offset="0" stop-color="#edf6ff"/><stop offset="0.0159" stop-color="#ecf6ff"/><stop offset="1" stop-color="#cedbe8"/></linearGradient><linearGradient id="e" x1="7.31543" y1="12.50775" x2="14.93052" y2="17.37039" xlink:href="#d"/><linearGradient id="f" x1="16.08774" y1="13.9321" x2="6.49733" y2="13.9321" gradientUnits="userSpaceOnUse"><stop offset="0" stop-color="#cedbe8"/><stop offset="0.9841" stop-color="#ecf6ff"/><stop offset="1" stop-color="#edf6ff"/></linearGradient><linearGradient id="g" x1="10.36668" y1="-432.09352" x2="16.74117" y2="-432.09352" gradientTransform="matrix(0.99807, -0.22076, 0, 1, 3.91245, 448.25744)" gradientUnits="userSpaceOnUse"><stop offset="0" stop-color="#fff"/><stop offset="1" stop-color="#e2f1ff"/></linearGradient></defs><circle class="a" cx="14.27245" cy="14.27245" r="14.27245"/><rect class="b" x="5.919" y="8.79849" width="16.85106" height="11.6973"/><rect class="c" x="14.43628" y="8.79849" width="7.93621" height="11.26914"/><polygon class="d" points="22.372 19.567 14.436 20.068 14.436 8.798 22.372 8.298 22.372 19.567"/><polygon class="e" points="22.235 19.066 14.299 20.068 14.299 8.798 22.235 7.797 22.235 19.066"/><rect class="f" x="6.36245" y="8.79849" width="7.93621" height="11.26914"/><polygon class="g" points="6.362 19.066 14.299 20.068 14.299 8.798 6.362 7.797 6.362 19.066"/><polygon class="h" points="21.134 17.423 14.299 20.068 14.299 8.798 21.134 6.154 21.134 17.423"/></svg>