<svg xmlns="http://www.w3.org/2000/svg" xmlns:xlink="http://www.w3.org/1999/xlink" viewBox="0 0 69.77243 92.7498"><defs><style>.a{fill:none;}.b{fill:#ca9e67;}.c{clip-path:url(#a);}.d{fill:#8ef4c0;}.e{fill:#bc9566;}.f{fill:#936037;}.g{clip-path:url(#b);}.h{fill:#ad815c;}.i{fill:#cbbba0;}.j{fill:#7b6a58;}.k{fill:#d3ac79;}.l{fill:#3c3c3b;}</style><clipPath id="a"><rect class="a" width="69.77243" height="92.60078"/></clipPath><clipPath id="b"><path class="b" d="M54.02005,12.72471a13.40389,13.40389,0,0,0-4.66032-.96441,5.87374,5.87374,0,0,0-2.05949.37018,9.21755,9.21755,0,0,0-1.37042.7241c-2.26032,1.36182-5.724,2.4476-7.58672,4.26982-2.34842,2.29736-3.03416,5.9846-5.42395,8.37439-1.75348,1.69136-4.05482,2.66692-6.13487,3.9353s-4.08636,3.04559-4.56662,5.434L27.39,37.21042c.04595.02081-1.53045,2.85669-1.68425,3.10865a3.36741,3.36741,0,0,1-1.91293,1.61824c-1.848.958-2.97849,2.812-4.21533,4.40789-2.51223,3.24141-8.12615,7.13327-7.66608,11.80016a9.73735,9.73735,0,0,0,.79751,2.66986l2.83677,6.97693c-3.68533.59789-5.55348,4.88041-5.6972,8.61116a9.72122,9.72122,0,0,0,1.3888,5.96461,4.87338,4.87338,0,0,0,5.4185,2.04269c2.11913,2.028,4.62746,4.202,7.54973,3.94955a17.07865,17.07865,0,0,0,3.42288-.9493A46.535,46.535,0,0,0,32.966,85.96144c4.91925-2.165,6.56542-8.18663,9.84137-12.44743a3.66736,3.66736,0,0,1,1.21935-1.12808,4.973,4.973,0,0,1,2.92508-.026c4.61406.69979,8.79052-1.80367,13.33356-1.534a3.5625,3.5625,0,0,0,1.46428-.28967,11.72692,11.72692,0,0,0,6.48278-7.31973c1.42038-4.121.13149-8.845,2.00211-12.66893.836-1.70893,2.06489-3.26915,2.4365-5.135.45208-2.26983-.44142-4.47638-1.08275-6.61311-.62878-2.09492-2.06234-3.77834-2.623-5.90564a22.42806,22.42806,0,0,1-.33561-5.47869c-.056-4.8691-3.67458-10.59689-8.27389-12.3219l-5.186-1.94506C54.78886,13.00539,54.40566,12.8621,54.02005,12.72471Z"/></clipPath></defs><g class="c"><polygon class="d" points="60.356 15.093 67.038 13.801 67.038 21.359 60.356 15.093"/><path class="b" d="M73.32736,34.7288c.83369-.63215,1.964-.49718,2.81656-1.1781a5.73432,5.73432,0,0,0,1.62989-2.65037,13.74978,13.74978,0,0,1,1.65075-4.06842c.41463-.542.98795-1.12229.83439-1.78722-.14751-.63878-.93777-1.045-.91454-1.70015.02339-.65943.85076-1.00862,1.04035-1.64064a1.86813,1.86813,0,0,0-.22715-1.25081l-.79712-1.81572a1.2478,1.2478,0,0,1-.15052-.60053c.06972-.75814,1.38569-.97252,1.33933-1.73245-.027-.44212-.54207-.69394-.985-.69038-.09795.00079-.218-.00244-.26361-.0891s.13433-.17849.13718-.08057a4.214,4.214,0,0,0-3.18111,1.05315c-3.40688,2.54382-6.84774,4.93629-7.75671,9.46854-.63768,3.17962-.12413,8.37424,2.74056,10.4214a.73416.73416,0,0,0,.37278.16546.70113.70113,0,0,0,.41836-.15762C72.63217,35.98093,72.75974,35.1592,73.32736,34.7288Z"/><path class="e" d="M71.82956,23.96652c.02413-.99158.52273-2.87147.13971-3.64695-2.58895,3.27055-6.1905,8.24181-4.49328,12.6636.40936,1.06652,2.95534,5.88287,4.31709,5.28958.61239-.26681,1.014-2.66165,1.01727-3.24379.0066-1.17956-.68058-2.05722-1.137-3.09975-.546-1.24717-1.08517-2.72447-.41215-3.908.38492-.67688,1.15608-1.26065,1.02192-2.02768A4.32677,4.32677,0,0,0,71.972,25.222,3.2649,3.2649,0,0,1,71.82956,23.96652Z"/><path class="b" d="M31.99565,9.14057A5.90376,5.90376,0,0,0,30.06231,12.829a14.77832,14.77832,0,0,0,.11,4.24193A16.34086,16.34086,0,0,0,31.81216,22.896a2.32229,2.32229,0,0,0,1.00612,1.07721,2.39364,2.39364,0,0,0,1.82447-.17831,11.79961,11.79961,0,0,0,3.365-2.10431c.18321-.16338.3837-.1061.3094-.34006C37.06419,17.40534,33.26794,13.0796,31.99565,9.14057Z"/><path class="f" d="M32.16465,8.8634a17.251,17.251,0,0,0,3.75743,12.68176c.20031.24437.50469.50808.79256.37782a.74945.74945,0,0,0,.31651-.38854c.504-1.03314,2.01532-3.03616,1.94729-4.19022-.066-1.11886-1.3095-1.47521-2.1047-2.07135C35.46721,14.21841,31.94188,10.86635,32.16465,8.8634Z"/><path class="b" d="M54.02005,12.72471a13.40389,13.40389,0,0,0-4.66032-.96441,5.87374,5.87374,0,0,0-2.05949.37018,9.21755,9.21755,0,0,0-1.37042.7241c-2.26032,1.36182-5.724,2.4476-7.58672,4.26982-2.34842,2.29736-3.03416,5.9846-5.42395,8.37439-1.75348,1.69136-4.05482,2.66692-6.13487,3.9353s-4.08636,3.04559-4.56662,5.434L27.39,37.21042c.04595.02081-1.53045,2.85669-1.68425,3.10865a3.36741,3.36741,0,0,1-1.91293,1.61824c-1.848.958-2.97849,2.812-4.21533,4.40789-2.51223,3.24141-8.12615,7.13327-7.66608,11.80016a9.73735,9.73735,0,0,0,.79751,2.66986l2.83677,6.97693c-3.68533.59789-5.55348,4.88041-5.6972,8.61116a9.72122,9.72122,0,0,0,1.3888,5.96461,4.87338,4.87338,0,0,0,5.4185,2.04269c2.11913,2.028,4.62746,4.202,7.54973,3.94955a17.07865,17.07865,0,0,0,3.42288-.9493A46.535,46.535,0,0,0,32.966,85.96144c4.91925-2.165,6.56542-8.18663,9.84137-12.44743a3.66736,3.66736,0,0,1,1.21935-1.12808,4.973,4.973,0,0,1,2.92508-.026c4.61406.69979,8.79052-1.80367,13.33356-1.534a3.5625,3.5625,0,0,0,1.46428-.28967,11.72692,11.72692,0,0,0,6.48278-7.31973c1.42038-4.121.13149-8.845,2.00211-12.66893.836-1.70893,2.06489-3.26915,2.4365-5.135.45208-2.26983-.44142-4.47638-1.08275-6.61311-.62878-2.09492-2.06234-3.77834-2.623-5.90564a22.42806,22.42806,0,0,1-.33561-5.47869c-.056-4.8691-3.67458-10.59689-8.27389-12.3219l-5.186-1.94506C54.78886,13.00539,54.40566,12.8621,54.02005,12.72471Z"/><g class="g"><path class="h" d="M33.10017,26.99543a8.89982,8.89982,0,0,0-5.31288.30842,9.78427,9.78427,0,0,0-5.27408,3.82877,4.15323,4.15323,0,0,0-.71562,2.10437c-.02827,1.8019,1.56214,3.17839,3.08841,4.13658a4.41372,4.41372,0,0,0,1.94691.79541,4.75571,4.75571,0,0,0,2.1494-.5243c2.44437-1.02356,5.84309-2.49033,7.3745-4.81435C37.91589,30.46432,35.33587,27.65951,33.10017,26.99543Z"/><path class="i" d="M50.87018,42.35826a13.96053,13.96053,0,0,1,3.40722-6.78433,9.87764,9.87764,0,0,1,6.797-3.1525,7.67346,7.67346,0,0,1,6.55994,3.3366,11.47569,11.47569,0,0,1,1.08654,2.37768,2.98016,2.98016,0,0,1,.14411,2.29565,3.11319,3.11319,0,0,1-2.3099,1.27474l-5.63114,1.18518a12.04216,12.04216,0,0,1-4.94242.34043,4.10812,4.10812,0,0,1-3.37712-3.228"/><path class="i" d="M41.22394,68.10537a5.13219,5.13219,0,0,0-.81133,1.90147A20.166,20.166,0,0,1,24.98185,83.87032a7.08927,7.08927,0,0,1-4.35052-.30221c-1.63844-.79824-2.5804-2.52148-3.41828-4.14-.36077,1.17442-.99181,2.57316-2.21859,2.63968-1.20529.06536-1.99542-1.22882-2.37828-2.37355a17.39773,17.39773,0,0,1,.05206-11.09638,8.23408,8.23408,0,0,0-4.337,5.72692,17.8443,17.8443,0,0,0-.02938,4.6313,12.90112,12.90112,0,0,0,1.14451,5.44405,6.13022,6.13022,0,0,0,5.73137,3.04576,1.87717,1.87717,0,0,1,1.41679.19929,1.79049,1.79049,0,0,1,.3428.4816,9.64925,9.64925,0,0,0,6.54064,4.3454,20.2764,20.2764,0,0,0,8.0344-.31447A21.60835,21.60835,0,0,0,36.663,90.5358a14.25194,14.25194,0,0,0,7.12188-7.98348c1.173-3.32826.438-6.244.25363-9.61673C43.97293,71.73512,43.77439,65.03557,41.22394,68.10537Z"/><path class="j" d="M16.18223,72.77325c-.06593.87384-.78168,11.67283-1.06243,11.60716a6.02566,6.02566,0,0,1-3.44834-2.5696,17.90825,17.90825,0,0,1-1.86307-3.97356,14.77691,14.77691,0,0,0,.75925,4.24127,4.98955,4.98955,0,0,0,2.89413,3.02424c1.29264.42506,2.74111.11476,4.03107.5479.3691.12393.71548.30595,1.07211.46218a14.60828,14.60828,0,0,0,6.764.7808,15.25321,15.25321,0,0,0,3.72437-.57379,12.98808,12.98808,0,0,0,4.54729-2.79335,25.783,25.783,0,0,0,4.34188-4.97727c.89905-1.34407,2.53558-3.49561,2.43511-5.179-1.12523,1.60387-1.70771,3.59523-2.75727,5.26684a15.77014,15.77014,0,0,1-8.51728,6.48453,18.80414,18.80414,0,0,1-10.77075.09055c-2.34547-.6606-2.3796-2.68771-2.30084-4.76658q.16088-4.24658.59087-8.47721"/><path class="j" d="M38.44859,75.04682A20.18784,20.18784,0,0,1,40.972,67.42118a4.48937,4.48937,0,0,1,1.82546-1.94776c1.25821-.52871.881.50231.20524,1.06958a9.48938,9.48938,0,0,0-.74886.70062C40.201,69.38356,39.43756,72.1796,38.44859,75.04682Z"/><path class="j" d="M47.54468,70.24063A43.79838,43.79838,0,0,0,60.331,68.27736,27.50812,27.50812,0,0,1,55.1493,70.3c-.75934.18334-1.53266.30153-2.30487.41951l-3.5352.54012a15.66368,15.66368,0,0,1-3.07711.26443c-.84517-.039-2.68418-.49593-2.48871-1.59156C45.01417,70.01665,46.25106,70.24562,47.54468,70.24063Z"/><path class="f" d="M52.07278,40.25629A10.99349,10.99349,0,0,1,58.561,37.25554a17.3774,17.3774,0,0,1,7.185.80319c1.34922.4188,2.87815,1.23183,2.97093,2.6415a2.72457,2.72457,0,0,1-1.11748,2.17383c-1.40556,1.15442-3.33345,1.36023-5.13407,1.61722A27.61636,27.61636,0,0,0,57.05193,45.645c-1.04454.375-2.13271,1.22-3.27448,1.22655C49.82205,46.89423,49.93963,42.40168,52.07278,40.25629Z"/><path class="k" d="M37.011,23.78575A17.95926,17.95926,0,0,1,34.68,35.53367c-.16075.26869-.47529.57022-.73445.39453a.58179.58179,0,0,1-.17615-.24361c-1.0128-2.10744-2.30811-5.46313-1.92526-7.8814a4.05809,4.05809,0,0,1,1.59827-2.45305C33.99158,24.88066,36.79,22.29684,37.011,23.78575Z"/><path class="e" d="M24.29573,41.8581c2.13373-2.65687,4.3816-5.40476,7.4789-6.8255,1.54414-.7083,3.3566-1.13632,4.35732-2.50913a14.62774,14.62774,0,0,1,.82931-1.23426,1.30229,1.30229,0,0,1,1.32176-.47282c.69806.24269.79417,1.17009.80782,1.909a10.09077,10.09077,0,0,0,.61753,3.59384c.3504.86976.87843,1.6549,1.30774,2.48855a19.09149,19.09149,0,0,1,1.75779,7.89455c.16272,3.47724-.16986,7.23735-2.39678,9.91289a16.42116,16.42116,0,0,0-1.14229,1.37385,10.34964,10.34964,0,0,0-.78938,1.61625,20.606,20.606,0,0,1-3.07328,4.97407,2.39546,2.39546,0,0,1-.80779.70163,2.53992,2.53992,0,0,1-.96789.15734l-6.83108.21312-2.30367.07187a50.80907,50.80907,0,0,1-7.93056-.166,3.12778,3.12778,0,0,1-2.09452-.86193,3.81092,3.81092,0,0,1-.567-2.20016,12.88986,12.88986,0,0,0-1.62713-5.32069,4.12634,4.12634,0,0,1-.58028-1.30926,3.77636,3.77636,0,0,1,.70221-2.33268A35.574,35.574,0,0,0,16.618,39.38605c.04863-.59046.16134-1.29929.70749-1.52892a1.31251,1.31251,0,0,1,1.18086.22739c1.06765.69282,1.66253,1.93484,2.674,2.70741a3.98037,3.98037,0,0,0,4.79151-.08206"/></g><path class="l" d="M54.03414,45.277a.66464.66464,0,0,0-.161.5369.64822.64822,0,0,0,.327.327,8.72046,8.72046,0,0,0,7.21627.686c3.07223-1.08861,6.32163-4.32444,1.68833-5.66707C59.3417,40.06933,56.09629,42.21015,54.03414,45.277Z"/><path class="l" d="M21.85926,35.30329c.53487.45062.88794,2.7692,1.25048,3.5014a12.13626,12.13626,0,0,0,1.641,2.98875,13.55723,13.55723,0,0,1,3.62975-4.20336c-1.05294-.32555-1.94545-.96211-2.95641-1.38717C25.1013,36.06722,21.85989,35.30382,21.85926,35.30329Z"/><path class="i" d="M34.41881,66.045a2.69349,2.69349,0,0,0,.18165-2.89406,5.26865,5.26865,0,0,0-2.20329-2.07679,10.72739,10.72739,0,0,0-13.58928,3.15635c-1.00934-3.56645-2.39563-7.57818-5.81144-9.01714-1.64091,3.452.05322,7.49009,1.73111,10.92426.65079,1.332,1.541,2.83983,3.01578,2.99083a2.484,2.484,0,0,1-1.691-1.47235c1.03419,5.73094-1.73909,12.17526,1.20529,17.19958q-.23956-5.59508-.10654-11.19783a8.06841,8.06841,0,0,1,.6073-3.455c.8483-1.69238,2.73475-2.5884,4.55666-3.10264a20.35484,20.35484,0,0,1,10.42825-.15189,2.16812,2.16812,0,0,0-.55834-.46024A1.84171,1.84171,0,0,0,34.41881,66.045Z"/><path class="f" d="M23.097,67.8169c.43836-.46232,4.84438-.13037,5.7161-.22775,1.40382-.15683,3.39519-.18868,4.58022-.94138C31.21541,63.70456,25.12286,65.68037,23.097,67.8169Z"/><path class="e" d="M62.43739,62.175a4.67167,4.67167,0,0,1-1.25133,2.61484,5.27945,5.27945,0,0,1-1.62866.94143,20.7755,20.7755,0,0,1-7.95472,1.54827,1.35635,1.35635,0,0,1-.75249-.15555c-.57536-.381-.29122-1.29254.157-1.81723,1.03019-1.206,2.54771-1.8601,3.8355-2.786a10.58649,10.58649,0,0,0,3.00107-3.33187c.61983-1.08509,2.01763-4.64311,3.73164-3.12933C62.889,57.21971,62.7213,60.65915,62.43739,62.175Z"/><path class="i" d="M40.96584,55.46527a1.70275,1.70275,0,0,1,1.3282,1.85652,5.56338,5.56338,0,0,1-.91873,2.32921,29.68676,29.68676,0,0,0-3.64272,11.32729c-.02385.21857-.09.4896-.3057.532-.23508.04621-.39855-.22311-.47931-.44866a18.37034,18.37034,0,0,1-.36307-9.79055,9.16625,9.16625,0,0,1,.93346-2.7832,3.88119,3.88119,0,0,1,2.1965-1.85695"/><path class="k" d="M59.1591,63.02911a6.49346,6.49346,0,0,1-2.06229,1.38606q-2.42211,1.1997-4.89076,2.30219a3.28549,3.28549,0,0,1-2.079.41325,2.199,2.199,0,0,1-1.37278-2.56638,5.07854,5.07854,0,0,1,1.73707-2.63318c1.85086-1.69728,4.16022-3.03544,5.31372-5.2661.53281-1.03036.8871-2.52879,1.98592-3.12535a1.96878,1.96878,0,0,1,2.84514.95641c.33461.987-.09491,2.5283-.16016,3.54538C60.36916,59.7057,60.32952,61.70557,59.1591,63.02911Z"/><path class="d" d="M38.91573,27.6369l-.46765-7.091L44.18169,23.278S41.02211,27.44541,38.91573,27.6369Z"/><path class="d" d="M45.95212,21.35923,44.99467,14.663l6.12766,1.953S47.867,21.16183,45.95212,21.35923Z"/><path class="d" d="M52.367,15.06262,54.2584,8.45624S58.77707,14.28,58.39893,14.663,53.133,14.96687,52.367,15.06262Z"/></g></svg>