<svg xmlns="http://www.w3.org/2000/svg" xmlns:xlink="http://www.w3.org/1999/xlink" viewBox="0 0 69.77243 92.74961"><defs><style>.a{fill:none;}.b{clip-path:url(#a);}.c{fill:#72614c;stroke:#ead6b9;stroke-miterlimit:10;stroke-width:1.07745px;}.d{fill:#998876;}.e{fill:#ead6b9;}.f{fill:#bab19b;}.g{fill:#3c3c3b;}.h{fill:#575756;}.i{fill:#666258;}.j{fill:#706f6f;}.k{fill:#8ef4c0;}.l{fill:#5c9b78;}.m{fill:#fff;}</style><clipPath id="a"><rect class="a" y="-0.17651" width="69.77243" height="92.60078"/></clipPath></defs><g class="b"><path class="c" d="M76.9152,1.21622c2.09211,3.18314,2.05716,6.947,2.8199,10.65375.78007,3.79094,1.85171,7.57886,2.64277,11.42594A27.65476,27.65476,0,0,1,83.1253,28.763c.01583,5.32878-2.3127,8.627-5.49346,11.84336-4.05146,4.09684-5.56571,7.10388-9.23213,1.20816-2.896-4.65686-9.37241-8.46938-8.93714-15.0796C60.1878,15.72432,68.4458,5.19572,76.9152,1.21622Z"/><path class="d" d="M67.3598,43.90821c-1.362-3.78345-.09946-5.64834,2.49034-7.77854C72.727,33.7634,73.87367,29.8449,75.1237,26.1563a39.56462,39.56462,0,0,0,2.13122-11.49958c.05663-1.99333.06456-4.10827.97693-5.79819a77.57885,77.57885,0,0,0,2.8317,12.50137C82.201,25.55,83.21233,28.84447,81.448,32.96928a26.90733,26.90733,0,0,1-7.49373,9.90505c-1.5621,1.31284-3.40317,2.50319-5.3136,2.19766a1.49386,1.49386,0,0,1-.83887-.36661A2.09505,2.09505,0,0,1,67.3598,43.90821Z"/><path class="d" d="M65.8558,25.44166a18.07712,18.07712,0,0,1-1.33348-9.24653c-.96961.42453-1.293,1.799-1.48435,2.98133-.458,2.83029-2.97042,16.30376.66717,17.574,1.4965.52258,2.87555-2.21532,3.30056-3.47538C67.9719,30.41047,66.9726,28.00107,65.8558,25.44166Z"/><path class="c" d="M23.0102,1.21622C20.91809,4.39936,20.953,8.1632,20.1903,11.87c-.78007,3.79094-1.85171,7.57886-2.64276,11.42594A27.65477,27.65477,0,0,0,16.8001,28.763c-.01583,5.32878,2.3127,8.627,5.49346,11.84336,4.05147,4.09684,5.56571,7.10388,9.23213,1.20816,2.896-4.65686,9.37241-8.46938,8.93715-15.0796C39.73761,15.72432,31.4796,5.19572,23.0102,1.21622Z"/><path class="d" d="M32.5656,43.90821c1.362-3.78345.09946-5.64834-2.49034-7.77854-2.87683-2.36627-4.02353-6.28477-5.27356-9.97337a39.56461,39.56461,0,0,1-2.13121-11.49958c-.05663-1.99333-.06457-4.10827-.97694-5.79819a77.57778,77.57778,0,0,1-2.8317,12.50137c-1.13748,4.19011-2.14878,7.48457-.38448,11.60938a26.90743,26.90743,0,0,0,7.49373,9.90505c1.5621,1.31284,3.40317,2.50319,5.3136,2.19766a1.49392,1.49392,0,0,0,.83888-.36661A2.09517,2.09517,0,0,0,32.5656,43.90821Z"/><path class="d" d="M34.0696,25.44166a18.07712,18.07712,0,0,0,1.33348-9.24653c.96961.42453,1.293,1.799,1.48435,2.98133.458,2.83029,2.97042,16.30376-.66717,17.574-1.4965.52258-2.87555-2.21532-3.30055-3.47538C31.9535,30.41047,32.9528,28.00107,34.0696,25.44166Z"/><path class="e" d="M37.84727,32.1565l.38357-2.28689c1.09462.10684,2.38473.137,3.07518-.71907.28086-.34823.4119-.79586.67685-1.15635.39747-.54079,1.05366-.83271,1.50006-1.33385s.55548-1.4469-.05331-1.72939a3.0152,3.0152,0,0,0,4.41212.14772,11.578,11.578,0,0,0,1.649,2.44882,1.03978,1.03978,0,0,0,.68722.43664c.36287.01079.62332-.32462.89379-.56678a2.63657,2.63657,0,0,1,2.79407-.30585,4.63782,4.63782,0,0,1,2.05328,2.07882c.32738.60147.77638,1.36352,1.451,1.24591.78224-.13636.82429-1.25083.58868-2.0091,2.33654,3.71,5.49221,5.43163,8.7867,8.07846,1.96155,1.57593,10.0286,8.536,8.22224,11.46127a4.15386,4.15386,0,0,0-.76189,1.2938c-.33155,1.77292,3.336,2.61966,2.64153,4.28424-.3438.824-1.679,1.13229-1.61124,2.02259.05291.69547.9666,1.00542,1.20031,1.66259.35088.98667-.93162,1.69908-1.5104,2.57181-.75364,1.13638-.26582,2.63453-.08084,3.9855a2.0421,2.0421,0,0,1-.061,1.04231,3.12922,3.12922,0,0,1-.73012.90428,4.64726,4.64726,0,0,0-.41006,5.71266c-1.09359.06718-2.42451.30388-2.78494,1.33856l-1.717-2.069a11.38057,11.38057,0,0,1-2.67382,4.918c1.44373,3.49953-3.04874,8.57245-5.58436,10.59552-3.5358,2.82108-7.972,6.57436-12.72457,6.6104-5.45377.04136-9.15252-3.61814-12.09433-7.6948a28.907,28.907,0,0,1-3.016-4.23653c-.53864-1.16536-.42288-2.81114-1.32509-3.77856a2.87067,2.87067,0,0,0-3.08874-.6885c.62725-.04761.68915-1.03845.23818-1.477a7.774,7.774,0,0,0-1.66671-.86321c-.54394-.316-.95339-1.09615-.52024-1.55232.15949-.168.39857-.24572.54952-.42139.54028-.62874-.45315-1.37818-1.058-1.945a7.19234,7.19234,0,0,1-1.35683-2.726c-.38616-.94938-1.16591-1.92577-2.18889-1.86288.9692-.168,1.39544-1.36913,1.276-2.34549s-.58379-1.89779-.60692-2.88117a7.72116,7.72116,0,0,0-.01208-2.3489c-.29584-.85478-1.23764-1.47227-1.22347-2.37669.01694-1.08037,1.42531-1.98766.98024-2.97225-.21891-.48427-.81342-.69931-1.07-1.16471-.39967-.72495.18651-1.57068.64863-2.25751a8.66939,8.66939,0,0,0,1.45182-4.2816,4.84832,4.84832,0,0,1,.25034-1.68866c.40668-.91215,2.36817-2.28728,3.08067-3.11969,1.4768-1.72535,3.12523-3.2964,4.49185-5.11655.58977-.78548.87811-2.17429,1.70709-2.6954,1.16824-.73437,2.94384.132,4.18869-.67079.92621-.59732.99167-1.68915,2.06181-2.42a11.024,11.024,0,0,1,3.452-1.23466,16.51975,16.51975,0,0,1,11.01323,1.30567,79.202,79.202,0,0,1,8.66473,4.52951"/><path class="f" d="M56.75868,58.055a16.50779,16.50779,0,0,0-4.07094-4.434,7.4681,7.4681,0,0,0-3.56018,4.2746,5.936,5.936,0,0,0-3.84411-.32663,1.06706,1.06706,0,0,1-.6678.036c-.50482-.21208-.3147-.96646-.4787-1.48888-.30327-.96611-1.9271-1.19974-1.9229-2.21232a13.07818,13.07818,0,0,0-4.72154,4.81739c-.60972,1.08232-1.13811,2.33036-2.23989,2.90417a4.80264,4.80264,0,0,1-2.21582.39113,31.23982,31.23982,0,0,1-3.76513-.21191,13.02337,13.02337,0,0,0,4.12949,7.9423c.7042.63895,1.64191,1.20713,2.27194,1.90689a6.37781,6.37781,0,0,1,1.02545,2.90718c.63741,2.65087,1.25557,5.31,2.08535,7.90912a6.98641,6.98641,0,0,0,2.08976,3.54294,5.952,5.952,0,0,0,1.69247.76452c2.20207.71651,4.815,1.748,7.16082,1.62322a8.64345,8.64345,0,0,0,3.64785-1.322,10.89466,10.89466,0,0,0,2.6857-1.48c1.48736-1.37693,2.02668-3.49078,2.35784-5.374a52.77353,52.77353,0,0,1,1.19712-6.66834c.30281-.98281.4985-2.79864,1.30916-3.48439.7746-.65525,1.952-.87,2.79-1.50661a10.12272,10.12272,0,0,0,2.07593-2.17322q.10853-.15132.21206-.30564c.99064-1.476,3.50822-5.10447,1.24783-6.236A16.33826,16.33826,0,0,0,62.274,58.837a10.99807,10.99807,0,0,0-4.91509.20985c-1.21926-1.27022-.60206-2.89074-.022-4.3634a2.44039,2.44039,0,0,0-2.008.465A3.10939,3.10939,0,0,1,54.994,53.349a4.45942,4.45942,0,0,0-1.18756,1.27746,11.29546,11.29546,0,0,0-1.14706-4.202,41.17683,41.17683,0,0,1-3.34912,6.05882,1.26494,1.26494,0,0,1-.67882.60673c-.46322.10982-1.2583-.07-1.1876.40077a1.05647,1.05647,0,0,1-.81543-.97328l-.49154.98964c-2.15128-1.55027-3.20068-4.172-4.14324-6.65046a1.4719,1.4719,0,0,1-1.50988.48374,2.91638,2.91638,0,0,1-1.71454,3.22985.51818.51818,0,0,1-.60636.56591,5.65468,5.65468,0,0,1-.99226,2.31524"/><path class="g" d="M69.63782,58.0323a13.10314,13.10314,0,0,0-10.58189-.47619,2.86317,2.86317,0,0,0-1.82843,1.543c-.49333,1.52107,1.35416,2.72458,2.90748,3.10437a10.06162,10.06162,0,0,0,5.50536.03144,5.20482,5.20482,0,0,0,3.61488-3.87952"/><path class="g" d="M37.2516,60.30753a9.28357,9.28357,0,0,0-6.192-2.81222,3.35023,3.35023,0,0,0-1.77435.30207,2.54738,2.54738,0,0,0-.88605,3.21705,4.29,4.29,0,0,0,2.80768,2.17924,6.74314,6.74314,0,0,0,6.52555-1.7201"/><path class="h" d="M42.1986,78.47514a6.10536,6.10536,0,0,0,5.804,3.22812c2.97592-.01013,5.09037-4.00084,3.91444-6.62644A2.43064,2.43064,0,0,0,50.677,73.77724c-1.04145-.4192-2.336.16111-3.37128.33432a6.768,6.768,0,0,1-3.5769-.56061,1.77978,1.77978,0,0,0-.65485-.11961,1.35566,1.35566,0,0,0-.74964.352C40.80176,75.06055,41.41528,76.98642,42.1986,78.47514Z"/><path class="g" d="M45.829,80.16952a1.56452,1.56452,0,0,1-1.13337-.82356,6.2055,6.2055,0,0,1-.21488-.96944,1.87116,1.87116,0,0,0-1.10972-1.24987.97482.97482,0,0,0-.90544.03659,1.0967,1.0967,0,0,0-.22738,1.23543A4.0615,4.0615,0,0,0,44.375,80.66829c3.11318,1.54656,6.00267.94339,6.67077-2.76818.08505-.47249.043-1.08338-.40141-1.26493a1.0155,1.0155,0,0,0-.96816.27354C47.94265,78.30674,48.88219,80.81427,45.829,80.16952Z"/><path class="i" d="M49.8825,61.66293a18.1321,18.1321,0,0,1,.54311-2.13649c.29264-.98244.71-1.925.9635-2.91757a7.20614,7.20614,0,0,0,.27223-1.73346c.00476-.35517-.27216-1.30105-.14347-1.58348a35.674,35.674,0,0,0-1.43975,4.15572C49.65168,58.81961,50.11559,60.264,49.8825,61.66293Z"/><path class="i" d="M44.67228,61.2032l-1.66674-2.786c-.48661-.81337-1.94578-2.77394-1.37676-3.71777C43.19525,55.03508,44.26484,59.82486,44.67228,61.2032Z"/><path class="i" d="M55.87144,63.52679a14.749,14.749,0,0,1,2.75,2.48019,7.517,7.517,0,0,1,1.15276,3.514,6.17025,6.17025,0,0,0-2.49228-2.83708c-.9673-.70384-4.29312-3.207-2.86054-4.68811C54.90822,62.47265,55.32525,63.06744,55.87144,63.52679Z"/><path class="i" d="M68.55565,63.54777A5.36008,5.36008,0,0,1,67.004,65.722a4.636,4.636,0,0,1-2.63224.65126c-.257.00373-.61142-.10592-.56573-.35885a9.24842,9.24842,0,0,0,1.98535-.676,3.10792,3.10792,0,0,0,1.46071-1.4543c.13523-.31292.1995-.65151.3127-.97305a3.57919,3.57919,0,0,1,2.46-2.465.85388.85388,0,0,0-.33042-.23617C69.21167,61.19256,69.0683,62.485,68.55565,63.54777Z"/><path class="i" d="M37.83692,64.40479c-.2732.25515-.59272.45525-.87937.6952a6.9122,6.9122,0,0,0-1.98079,3.74406,1.97485,1.97485,0,0,1-.72889-1.62766,2.7097,2.7097,0,0,1,.37659-1.15993,4.42875,4.42875,0,0,1,.87938-1.104,8.84471,8.84471,0,0,1,1.05477-.78308c.28259-.18883,1.50564-1.24673,1.80679-1.07356C38.81594,63.35485,38.07814,64.244,37.83692,64.40479Z"/><path class="i" d="M27.3782,59.07526a6.16821,6.16821,0,0,0,.24431,3.854A6.60339,6.60339,0,0,0,28.976,65.69667c.57776.60489,2.144,1.36332,2.89653.5861.88852-.9177-.49854-1.35474-1.17215-1.575a3.5297,3.5297,0,0,1-2.26615-1.88432C28.04157,62.09932,27.07355,59.89442,27.3782,59.07526Z"/><path class="i" d="M47.44407,85.09479a.64818.64818,0,0,0,.0824.3497.63953.63953,0,0,0,.36495.20535c2.81245.8214,6.03161.92721,8.49421-.66029a3.22182,3.22182,0,0,1-2.00114,1.07568,14.97209,14.97209,0,0,1-6.33539.0659,2.78744,2.78744,0,0,0-.67372-.08784,2.98528,2.98528,0,0,0-.89316.24476,8.8651,8.8651,0,0,1-5.29575.25407,12.911,12.911,0,0,0,5.43692-1.551.46235.46235,0,0,0,.20153-.16855.47124.47124,0,0,0,.02322-.27785c-.11954-1.00458-.24822-2.00893-.35751-3.0144C47.82319,81.28915,47.41131,84.33034,47.44407,85.09479Z"/><path class="f" d="M48.19978,37.2774c-.38637.48654-.99425.79-1.28078,1.34127-.528,1.01583.2797,2.17392.58578,3.27708a7.36181,7.36181,0,0,1,.103,2.53672q-.271,3.50082-.65677,6.99149a1.7911,1.7911,0,0,1-.99192-1.71674,9.03523,9.03523,0,0,1,.411-2.06377,8.38863,8.38863,0,0,0-.56764-5.45317,5.9563,5.9563,0,0,1-.67875-1.73956,4.40194,4.40194,0,0,1,.45793-2.12431l.76986-1.93c.49555-1.24236-1.5883-4.00686.4439-3.38692A2.96716,2.96716,0,0,1,48.19978,37.2774Z"/><path class="f" d="M65.01507,49.90535a4.02732,4.02732,0,0,0,.1511-1.81589,1.37881,1.37881,0,0,0-1.25584-1.14021,2.87691,2.87691,0,0,0-.37465,1.91689c0,.66645-.173,1.45886-.794,1.701a3.8837,3.8837,0,0,0-.59049.19163c-.30125.17776-.39734.558-.56788.86343s-.582.56709-.84971.34194a4.10938,4.10938,0,0,0-.89787-1.15445A3.0155,3.0155,0,0,1,58.42562,51.855l-.166-1.46908c-.5027.64.10974,1.52625.62419,2.15688,1.28628,1.57674,1.401,4.76622,3.53427,3.29963.80479-.55327,1.37968-1.98649,1.84991-2.81476C64.425,52.75113,65.92684,49.18678,65.01507,49.90535Z"/><path class="f" d="M31.28956,52.20122a3.83583,3.83583,0,0,1-.10093-.557c-.14613-1.40835-1.34572.58553-2.42788.037-1.21648-.61661-.79544-1.96813-1.1674-2.99869a.48354.48354,0,0,1-.24062.581,1.24033,1.24033,0,0,1-.634-.83591,3.74047,3.74047,0,0,1-.6031,1.68468c-.2766.41626.994,4.06427,1.07248,4.82677.37423-.44009,1.06488-.35064,1.62833-.22245a16.98882,16.98882,0,0,0,3.72842.71181C32.34456,54.30279,31.586,53.35851,31.28956,52.20122Z"/><path class="i" d="M59.37391,80.91318l-1.64269,2.55587c-.60914.94776-1.24259,2.08572-.844,3.13949,1.726-1.1981,2.50131-3.31326,3.60841-5.09916.4418-.71269,2.97967-3.44916,1.1157-3.8854C60.51669,77.36781,59.91626,80.06932,59.37391,80.91318Z"/><path class="i" d="M38.65236,84.53447c-.7562-1.34635-1.94887-5.96079-3.72323-6.22972-2.72462-.413,1.978,3.99966,2.321,4.53565.70516,1.1022,1.23512,2.60867,2.56466,3.12745A4.296,4.296,0,0,1,38.65236,84.53447Z"/><path class="j" d="M34.35177,60.09493c-.23567.69212-.30408,1.65158.35725,1.96337a.98548.98548,0,0,0,1.2767-.96393,1.45208,1.45208,0,0,0-1.24862-1.25928"/><path class="j" d="M66.21035,58.18148a.89469.89469,0,0,0-.70968.96677,1.10777,1.10777,0,1,0,.76855-1.14138"/><circle class="k" cx="46.61731" cy="42.68268" r="5.04409"/><path class="l" d="M41.57316,42.68273a4.79093,4.79093,0,0,0,5.04419,4.79517,4.80112,4.80112,0,0,0,0-9.58813,4.78869,4.78869,0,0,0-5.04419,4.793Zm0,0a5.30725,5.30725,0,0,1,5.04419-5.29528,5.3,5.3,0,1,1,0,10.58813,5.30491,5.30491,0,0,1-5.04419-5.29285Z"/><circle class="m" cx="44.67228" cy="40.49379" r="0.93078"/></g></svg>