<svg xmlns="http://www.w3.org/2000/svg" xmlns:xlink="http://www.w3.org/1999/xlink" viewBox="0 0 69.77243 92.74961"><defs><style>.a{fill:none;}.b{clip-path:url(#a);}.c{fill:#cbbba0;}.d{fill:#e8dccd;}.e{fill:#a89a85;}.f{fill:#3c3c3b;}.g{fill:#ead6b9;}.h{fill:#575756;}.i{fill:#7b6a58;}.j{fill:#5c9b78;}.k{fill:#8ef4c0;}</style><clipPath id="a"><rect class="a" y="0.07441" width="69.77243" height="92.60078"/></clipPath></defs><g class="b"><path class="c" d="M76.41006,58.18944c-.12015-3.62423.26338-7.26529-.10661-10.88143a8.38056,8.38056,0,0,1,.25881-4.31637c.61957-1.49955,1.84886-2.59106,2.21411-4.2301a20.26736,20.26736,0,0,0,.15094-6.25144,2.34956,2.34956,0,0,0-.49557-1.48188,2.21892,2.21892,0,0,0-1.09327-.50578,17.24635,17.24635,0,0,0-3.436-.471,19.40553,19.40553,0,0,0-4.33539.359c-1.10156.211-2.82638,1.13046-3.87409.85789-2.17742-.56649-4.59435-3.62446-6.81145-4.63817a35.72192,35.72192,0,0,0-23.82441-1.562c-1.8929.53278-3.78711,1.29684-5.74833,1.15886a20.90573,20.90573,0,0,1-2.95425-.59031,16.4498,16.4498,0,0,0-6.09976-.16841,3.15505,3.15505,0,0,0-2.13566,1.01428,3.28211,3.28211,0,0,0-.36951,2.25144c.2001,2.21131,1.00243,4.29283,1.32675,6.47848.52772,3.55648-2.10706,7.08968-3.01862,10.45882-1.217,4.49812-2.301,9.18878-2.02061,13.88072.11527,1.92906.4365,3.55688-.27456,5.41832-.69892,1.82962-1.41235,2.69524-.877,4.69072a13.35177,13.35177,0,0,0,2.40249,4.4966,11.18429,11.18429,0,0,0,3.39007,3.16384c1.51676.82637,2.71427.52567,4.34239.46147a17.38746,17.38746,0,0,1,3.2315-.03144,14.75614,14.75614,0,0,1,4.67115,2.05192c6.5757,3.56406,14.32089,4.065,21.7883,4.48929,4.20889.23917,8.525.46583,12.55044-.78615a12.76962,12.76962,0,0,0,7.95541-6.51111,9.349,9.349,0,0,0,.68346-5.17927,9.73763,9.73763,0,0,1,1.21782-6.2343A15.03634,15.03634,0,0,0,76.41006,58.18944Z"/><path class="d" d="M28.45694,59.49534a51.59975,51.59975,0,0,0-6.03431,4.90642c-.99415,1.06469-1.66529,2.66922-1.0204,3.97536a11.08514,11.08514,0,0,0,1.00814,1.38349c1.05918,1.50315,1.12517,3.65831,2.53259,4.84173,1.81536,1.52644,4.93723.635,6.59569,2.33056a4.21917,4.21917,0,0,0,.78692.77019,2.72756,2.72756,0,0,0,1.92675.02258,11.421,11.421,0,0,1,6.59669.61615,6.54857,6.54857,0,0,0,1.68842.56821,5.11318,5.11318,0,0,0,2.70014-.71l7.21433-3.421a2.91032,2.91032,0,0,0,1.49879-1.18221c.67221-1.39111-.93461-3.49292.312-4.4056-.65005.47591-4.30073-4.1152-4.67943-4.64562a30.5674,30.5674,0,0,0-4.54143-4.397,8.75208,8.75208,0,0,0-2.56336-1.83565,8.73335,8.73335,0,0,0-1.93449-.44616c-1.66635-.25295-3.35371-.44852-5.00986-.76057-1.42061-.26766-2.62884-.81157-4.03666-.02428.13163.26079-.17619.53194-.45667.61356s-.62386.13338-.74606.39872c-.05441.11814-.05052.25855-.11509.37146-.1184.207-.398.23244-.62664.30021a2.5636,2.5636,0,0,0-.8792.55351Q28.56741,59.40868,28.45694,59.49534Z"/><path class="e" d="M53.673,65.49411a5.84112,5.84112,0,0,1,3.63808.9953c.68115.5254,1.20313,1.29152,2.00789,1.59546a7.49568,7.49568,0,0,0,1.69791.24474c2.011.264,3.45967,1.05683,5.43881.04647.70142-.35809.7263-.70507,1.27351-1.17656.46892-.404,1.221-.52508,1.64292-.9671A18.60487,18.60487,0,0,0,70.691,64.6906a1.28877,1.28877,0,0,0,.30845-.61342c.04751-.434-.3207-.78682-.63869-1.08605a10.19416,10.19416,0,0,1-2.4014-3.45756,2.69187,2.69187,0,0,1-.27619-1.32079,5.66451,5.66451,0,0,1,.60875-1.50255,4.58766,4.58766,0,0,0-.03127-3.2766A13.63446,13.63446,0,0,0,66.65175,50.502L64.132,46.68944a3.26975,3.26975,0,0,0-.62631-.76589,2.97664,2.97664,0,0,0-1.27162-.51444,16.07777,16.07777,0,0,0-5.29262-.25643A5.22067,5.22067,0,0,0,53.69712,46.641c-1.02339,1.0059-2.36264,1.66252-3.45457,2.66414-.60608.55594-1.13565,1.19424-1.77145,1.71593a12.62706,12.62706,0,0,0-1.00036.82189,3.34725,3.34725,0,0,0-.329,4.20465c.95349,1.37732,2.83591,1.58365,3.89588,2.88094,1.23318,1.50929.43241,2.05068-.41977,3.35714-.53475.8198-1.22925,3.34246.40892,3.29618C51.89,65.55749,52.79184,65.48659,53.673,65.49411Z"/><path class="e" d="M23.32424,45.32986a2.63425,2.63425,0,0,1,.00773.574.78175.78175,0,0,1-.03708.14285,1.97861,1.97861,0,0,1-.55132.64759A2.39342,2.39342,0,0,0,22.058,48.613a1.458,1.458,0,0,1,.01234.4929c-.10264.42294-.622.5692-.92867.878a1.74476,1.74476,0,0,0-.32785,1.49007,5.35655,5.35655,0,0,1,.15067,1.56834.51322.51322,0,0,1-.12371.29417.74647.74647,0,0,1-.44543.13528c-1.40128.18591-2.02,1.75685-2.26079,2.92462-.21368,1.03642-1.12481,3.32314-.67587,4.2967.14164.30715.54781.36347.886.36511A14.0781,14.0781,0,0,0,21.41,60.7353a2.58455,2.58455,0,0,1,1.43748-.06105c.20863.07757.39113.21281.59592.3a6.26813,6.26813,0,0,0,1.89838.13532,9.31838,9.31838,0,0,0,1.60567.22744c1.253-.10347,1.62111-1.19187,2.26453-2.03174a34.88286,34.88286,0,0,1,2.77866-3.16619c.632-.63883,1.42518-.94107,1.78708-1.85271.23328-.58764.20272-1.24976.40142-1.85a16.57771,16.57771,0,0,1,1.07252-1.91807,3.6951,3.6951,0,0,0-.09639-3.3643,4.03423,4.03423,0,0,0-2.46949-2.04579,9.73364,9.73364,0,0,1-2.52826-1.10856C28.3514,42.87815,23.12442,41.90238,23.32424,45.32986Z"/><path class="f" d="M26.53109,66.03753a2.17046,2.17046,0,0,0-.28088.31522.85636.85636,0,0,0-.17761.79695c.16971.42293.74356.46529,1.19769.42731a4.7326,4.7326,0,0,1,1.38837.00971,17.87679,17.87679,0,0,1,2.6038,1.40779,23.53,23.53,0,0,0,3.69867,1.26468,18.694,18.694,0,0,0,7.68992.35655c.95389-.16542,2.225-.48916,3.11625.11609.42406.288.63719.86778,1.12669,1.02a.927.927,0,0,0,1.09671-.68468,1.35592,1.35592,0,0,0-.46507-1.29539,2.61745,2.61745,0,0,0-1.31413-.56c-1.73618-.29666-3.49668.33364-5.25783.30786a24.55521,24.55521,0,0,1-7.15175-.87953,14.01773,14.01773,0,0,1-4.20019-2.03984C28.71,65.92959,27.49347,65.15919,26.53109,66.03753Z"/><path class="g" d="M25.26682,33.84688c.46252.81277.70055.972.11526,1.88146-.87144,1.35416-3.07023,2.79923-1.03872,4.26563.61625.44483,1.25665.41113,1.16674,1.33857-.05805.59889-1.02035,1.2039-.57983,1.849a1.57942,1.57942,0,0,0,.55522.39754,2.09688,2.09688,0,0,1,1.00416,1.94133,2.14171,2.14171,0,0,1,1.11213-.45189c.283.58478,1.64652,1.91618,2.378,1.94034a.97958.97958,0,0,1,.53058.069c.19378.13181.18922.41027.22971.6411a1.93668,1.93668,0,0,0,2.05377,1.30563c.249-.00563.5564-.00625.67334.21361-.15332.55061.15668,1.16026-.03051,1.70029-.1356.39119-.51771.6923-.53706,1.10587a1.97617,1.97617,0,0,1-.004.484c-.08952.29441-.45628.37866-.75921.43273a3.9179,3.9179,0,0,0-2.22179,1.092c-.58162.653-.29379,1.16239-.59,1.84556-.25487.58779-2.52507,1.7413-2.206,2.44739a2.28393,2.28393,0,0,0,2.24174,1.29716,8.71121,8.71121,0,0,1,1.1113-.1548.83107.83107,0,0,1,.83953.60264,3.20718,3.20718,0,0,0,2.05178-1.40382c.23351-.36638.42969-.815.83873-.96146a1.50587,1.50587,0,0,1,.84962.03447q3.08786.738,6.11084,1.71884a2.19252,2.19252,0,0,1,1.01811.5502,3.30934,3.30934,0,0,1,.46513,1.6656A4.16853,4.16853,0,0,0,45.92921,64.818a6.72856,6.72856,0,0,0,4.61737-.8954,4.82173,4.82173,0,0,1,1.54625-.69911,1.80033,1.80033,0,0,0,.64328-.14669,1.027,1.027,0,0,0,.25712-1.229c-.33273-.96146-1.02823-1.30455-1.117-2.35627-.06579-.77911.27921-1.81869-.18841-2.51983-.44119-.66153-1.09924-.50273-1.72937-.80138-.28617-.13563-1.76075-1.006-1.82783-1.28292.23819-.09172.52574-.26884.4691-.51771-.03763-.16536-.21465-.2551-.31107-.39461-.25047-.36238.119-.829.47427-1.08946s.77988-.63233.639-1.0497a.99609.99609,0,0,1-.10176-.30159c-.00014-.23407.292-.33523.52346-.37039,1.61351-.24512,3.63781-.21221,5.07605-1.0886.5421-.33034.91205-.89057,1.44859-1.22988,1.0458-.66135,2.52572-.37173,3.49553-1.14021.617-.4889.92712-1.3411,1.64248-1.66964.50112-.23014,1.11775-.15521,1.58054-.45506.66808-.43286.75512-1.4726,1.45478-1.8523.34756-.18863.84757-.22623.98108-.59846.10786-.30071-.1126-.64877.0034-.94643.202-.51833.97738-.3948,1.21429-.93288.29929-.67973-.33025-1.60033-.26758-2.312.14178-1.61,1.67485-2.7424,2.778-3.77685a32.127,32.127,0,0,0,3.23195-3.518.59574.59574,0,0,0,.13374-.23779c.074-.35891-.4511-.49981-.81555-.46166-1.98778.20807-3.888,1.08094-5.85081,1.46012-1.04048.201-3.9308-.04192-4.01018,1.54064-.02653.52893.40386,1.034.26866,1.546-.13534.5126-.746.71765-1.27133.78908-1.20966.16447-2.4467.06218-3.65015.26723a3.87171,3.87171,0,0,0-2.46393,1.20388c-.68645,1.08731.28991.89524.23958,1.8794-.0261.46152-.67641.50789-1.1385.49567a7.42317,7.42317,0,0,0-3.7087,1.28741,2.50612,2.50612,0,0,0-1.01366.84016.86311.86311,0,0,0,.22587,1.17179,5.11631,5.11631,0,0,1-1.11256.71129,4.6886,4.6886,0,0,1-1.56635.05487c-.88777-.01877-1.99056-.01294-2.44053.96007a5.6316,5.6316,0,0,0-.228,1.45709c-.08252.48714-.43123,1.01813-.924.9826l1.0707,2.69541a1.429,1.429,0,0,1,.1361.99468c-.19674.53629-.90394.62732-1.47517.62892l-1.82379.00513a3.88619,3.88619,0,0,1-1.25377-.13351,1.31572,1.31572,0,0,1-.88224-.83733c-.10665-.392.0339-.84071-.15927-1.19812-.30662-.56735-1.26113-.56342-1.48473-1.16832-.18309-.49534.274-.9869.7179-1.273.62965-.40592,1.32474-.70268,1.95254-1.11146,1.01377-.66011,2.26673-2.20149.6489-3.01035-1.12823-.56408-2.16245.98459-3.20923.22445-.86427-.62759-.30517-2.15919-1.0308-2.94317-.32824-.35464-.85844-.47488-1.16877-.84527a29.84858,29.84858,0,0,1-1.96187-3.19621,1.31525,1.31525,0,0,1-.275-1.0608c.15691-.46484.76741-.64126.95548-1.09439a1.10874,1.10874,0,0,0-.29416-1.10043c-.26277-.30193-.60233-.53283-.84551-.85084-1.01912-1.33282-.22313-3.28941-1.026-4.69529a4.57318,4.57318,0,0,0-4.603-1.74367c-.02033.00558,1.19012,2.28892,1.19418,2.53489C28.35124,30.43977,24.36781,32.2671,25.26682,33.84688Z"/><path class="f" d="M28.5914,51.54021c-.834.84886-1.9644,1.05566-2.95966-.3282-1.01181-1.40687-1.977-5.34418-1.53066-6.99974.81841-3.03518,3.89982.41035,5.007,1.88887a3.71412,3.71412,0,0,1,.78215,1.64335,4.6195,4.6195,0,0,1-.21405,1.7919A4.53127,4.53127,0,0,1,28.5914,51.54021Z"/><path class="f" d="M59.46828,47.11115a1.06076,1.06076,0,0,1,.94114.73529,6.05105,6.05105,0,0,1-.33247,5.93144,4.43832,4.43832,0,0,1-5.49209,1.48967C48.32486,51.88421,54.46611,46.10988,59.46828,47.11115Z"/><path class="h" d="M30.956,59.0745a2.66858,2.66858,0,0,0-.58811.79841,3.05617,3.05617,0,0,0,.07774,1.98746,16.70472,16.70472,0,0,0,1.553,3.65991,3.73623,3.73623,0,0,0,2.20386,2.03884,3.53528,3.53528,0,0,0,1.61141-.20684,10.14024,10.14024,0,0,0,3.29823-1.40194,4.47921,4.47921,0,0,0,1.87548-3.30146c.1044-2.23984-2.39345-5.90106-4.17509-6.71689C34.59944,54.91859,32.50225,57.47245,30.956,59.0745Z"/><path class="f" d="M35.19387,64.09693l.07225.02849c.90936-.41112,5.80112-2.10605,5.01175.33261-.6096,1.88327-3.42233,3.132-4.94372,3.37283A3.00129,3.00129,0,0,1,33.957,67.784a3.90855,3.90855,0,0,1-1.8375-1.60784c-.779-1.11156-3.22941-4.96056-.80939-5.44855.92652-.18683,1.45408.57148,1.8858,1.40383C33.85991,63.41166,33.94107,63.59893,35.19387,64.09693Z"/><path class="i" d="M28.06628,25.84654a10.06769,10.06769,0,0,0-4.73326-2.5371,5.51169,5.51169,0,0,0-4.75458.63055c-1.3201,1.06622-1.66991,2.91046-1.834,4.59941-.34379,3.53777-.20513,7.32551,1.70424,10.32356a.82548.82548,0,0,0,.9968.46786,13.08428,13.08428,0,0,0,3.77032-1.14557,14.19794,14.19794,0,0,0,4.3529-2.8939,9.79136,9.79136,0,0,0,2.55493-4.66064C30.4437,28.92988,29.22588,26.99892,28.06628,25.84654Z"/><path class="i" d="M70.83332,31.46758a10.26827,10.26827,0,0,1,8.88268.2685,2.6109,2.6109,0,0,1,.99673.89581,3.13916,3.13916,0,0,1,.19588,1.8886l-.60071,5.79592a6.70938,6.70938,0,0,1-.61158,2.55371,4.623,4.623,0,0,1-1.67269,1.65517,8.264,8.264,0,0,1-7.40832.4675,10.32971,10.32971,0,0,1-5.30519-5.34024c-.30385-.67842-1.395-1.83646-1.51673-2.44365-.20961-1.04568.98389-1.743,1.74886-2.39183A19.54517,19.54517,0,0,1,70.83332,31.46758Z"/><circle class="j" cx="62.32987" cy="48.31541" r="1.86107"/><circle class="k" cx="23.50711" cy="52.214" r="1.86107"/><circle class="k" cx="19.28704" cy="48.85724" r="0.90326"/><circle class="j" cx="22.1025" cy="43.43142" r="1.52922"/><circle class="j" cx="24.87025" cy="35.10164" r="1.52922"/><circle class="k" cx="64.19094" cy="56.67278" r="1.86107"/><circle class="k" cx="70.38495" cy="47.86831" r="1.86107"/><circle class="k" cx="65.01513" cy="40.78224" r="1.03688"/></g></svg>