<svg xmlns="http://www.w3.org/2000/svg" xmlns:xlink="http://www.w3.org/1999/xlink" viewBox="0 0 69.77243 92.74961"><defs><style>.a{fill:none;}.b{fill:#3c3c3b;}.c{clip-path:url(#a);}.d{clip-path:url(#b);}.e{fill:#b17f4a;}.f{clip-path:url(#c);}.g{clip-path:url(#d);}.h{fill:#706f6f;}.i{opacity:0.8;}.j{fill:#8ef4c0;}.k{fill:#5c9b78;}.l{fill:#fff;}.m{opacity:0.7;}.n{opacity:0.5;}.o{opacity:0.2;}</style><clipPath id="a"><rect class="a" y="0.07441" width="69.77243" height="92.60078"/></clipPath><clipPath id="b"><path class="b" d="M20.05,55.83553C17.29169,56.86027,15.0821,58.953,13.0281,61.06a14.81981,14.81981,0,0,0-3.65673,5.10278c-.98889,2.76453-.34778,5.85477.74011,8.58186.56892-1.312-.22109-2.95957.47-4.21157.64954-1.17673,2.20952-1.37465,3.47937-1.81519a7.12945,7.12945,0,0,0,3.74042-3.03772,8.92178,8.92178,0,0,1,1.206-1.87521,5.15556,5.15556,0,0,1,2.13734-1.09227c2.47658-.78116,10.89277-.63113,10.69609-4.18162C31.60914,54.35057,22.60174,54.88751,20.05,55.83553Z"/></clipPath><clipPath id="c"><path class="b" d="M29.33333,57.145a16.91537,16.91537,0,0,0-7.6028,9.23659,5.308,5.308,0,0,1,.78468-1.77275c.59657,3.89752-.42564,8.00252-.5751,11.914a10.6691,10.6691,0,0,1,1.53074-5.09849,1.57282,1.57282,0,0,1-.0984,1.4852c.48327-.16041.57051-.78468.72976-1.26832s.80371-.94308,1.11527-.54034c1.73779-2.78476,4.768-5.52406,8.122-4.43692,6.22052,2.01627,13.40941,2.78532,18.99527-.61444C61.40385,60.52968,64.88025,48.28716,66.90724,38.545a11.55259,11.55259,0,0,0,.31908-4.2575c-.31489-1.85554-1.6531-2.94986-1.84061-4.81462-.17517-1.7421.69569-3.72184,1.10322-5.3915,1.00856-4.13414,1.8412-8.35109,1.00762-12.62234-.58867-3.01623-3.44585-6.56522-6.921-4.95976A2.55088,2.55088,0,0,0,59.092,9.07167c.28241,1.91561,3.47222,2.43673,4.30263,4.4372.80584,1.94153.23138,4.44918-.32482,6.37384a19.66416,19.66416,0,0,1-2.381,5.322c-1.47495,2.24011-2.45378,1.22172-4.217,2.7333-3.81141,3.26774-5.72814,8.448-6.95238,13.1753a29.70015,29.70015,0,0,1-3.4049,7.43818c-1.71945,2.93393-1.66769,3.97568-4.985,4.73132C37.275,54.16083,32.87773,54.98681,29.33333,57.145Z"/></clipPath><clipPath id="d"><path class="b" d="M35.81717,77.19243a28.70964,28.70964,0,0,1-8.30857,5.8349,18.087,18.087,0,0,0,13.73962-1.84385,20.6219,20.6219,0,0,1-11.50067,11.2359c6.6163-1.678,13.60775-3.5694,18.29952-8.52706a8.79437,8.79437,0,0,1,1.93255-1.7555,10.52916,10.52916,0,0,1,2.496-.78914,10.45613,10.45613,0,0,0,7.47835-7.99684,9.50876,9.50876,0,0,0-4.58634-9.79826,11.29432,11.29432,0,0,0-8.51731-.60688c-2.61693.77212-6.31756,2.28777-7.3803,4.952C38.12007,71.28193,38.56733,74.17584,35.81717,77.19243Z"/></clipPath></defs><g class="c"><path class="b" d="M20.05,55.83553C17.29169,56.86027,15.0821,58.953,13.0281,61.06a14.81981,14.81981,0,0,0-3.65673,5.10278c-.98889,2.76453-.34778,5.85477.74011,8.58186.56892-1.312-.22109-2.95957.47-4.21157.64954-1.17673,2.20952-1.37465,3.47937-1.81519a7.12945,7.12945,0,0,0,3.74042-3.03772,8.92178,8.92178,0,0,1,1.206-1.87521,5.15556,5.15556,0,0,1,2.13734-1.09227c2.47658-.78116,10.89277-.63113,10.69609-4.18162C31.60914,54.35057,22.60174,54.88751,20.05,55.83553Z"/><g class="d"><path class="e" d="M20.32023,66.91586c1.17272-.88074,1.75-2.34942,2.89583-3.21435.48285-.36447.85758-.26263,1.34706-.497.51522-.24671.71059-.63679,1.12447-1.01306.74472-.677,1.92052-.79635.96143-1.88528-.94061-1.068-1.46259.1195-2.57035-.104.30138-.19192-.12346-.60485-.47148-.68575l-1.42756-.33184a3.58945,3.58945,0,0,0-1.78791-.10615,1.23373,1.23373,0,0,0-.94814,1.33828c.07538.3156.31918.64575.15994.92846a.67561.67561,0,0,1-.33987.25751,9.632,9.632,0,0,0-1.41694.56075,1.06185,1.06185,0,0,0-.50431,1.29284,6.64037,6.64037,0,0,0-1.88048.96992,2.21982,2.21982,0,0,0-.68375.72271c-.43788.84146.07122,2.01708-.53822,2.744-.69624-.433-4.246-.46881-4.0555.95458.02.1492.12181.28272.11879.43325-.00453.22549-.2366.37634-.45345.43832a1.57764,1.57764,0,0,0-.62883.23119.724.724,0,0,0-.09772.86572,9.296,9.296,0,0,1,.79883,1.36132,7.52453,7.52453,0,0,1,.54333,2.31354A15.098,15.098,0,0,1,17.175,68.47164,16.15243,16.15243,0,0,0,20.32023,66.91586Z"/></g><path class="b" d="M29.33333,57.145a16.91537,16.91537,0,0,0-7.6028,9.23659,5.308,5.308,0,0,1,.78468-1.77275c.59657,3.89752-.42564,8.00252-.5751,11.914a10.6691,10.6691,0,0,1,1.53074-5.09849,1.57282,1.57282,0,0,1-.0984,1.4852c.48327-.16041.57051-.78468.72976-1.26832s.80371-.94308,1.11527-.54034c1.73779-2.78476,4.768-5.52406,8.122-4.43692,6.22052,2.01627,13.40941,2.78532,18.99527-.61444C61.40385,60.52968,64.88025,48.28716,66.90724,38.545a11.55259,11.55259,0,0,0,.31908-4.2575c-.31489-1.85554-1.6531-2.94986-1.84061-4.81462-.17517-1.7421.69569-3.72184,1.10322-5.3915,1.00856-4.13414,1.8412-8.35109,1.00762-12.62234-.58867-3.01623-3.44585-6.56522-6.921-4.95976A2.55088,2.55088,0,0,0,59.092,9.07167c.28241,1.91561,3.47222,2.43673,4.30263,4.4372.80584,1.94153.23138,4.44918-.32482,6.37384a19.66416,19.66416,0,0,1-2.381,5.322c-1.47495,2.24011-2.45378,1.22172-4.217,2.7333-3.81141,3.26774-5.72814,8.448-6.95238,13.1753a29.70015,29.70015,0,0,1-3.4049,7.43818c-1.71945,2.93393-1.66769,3.97568-4.985,4.73132C37.275,54.16083,32.87773,54.98681,29.33333,57.145Z"/><g class="f"><path class="e" d="M45.57452,70.05609A84.49386,84.49386,0,0,1,36.38671,68.791a22.21231,22.21231,0,0,1-2.47787-.53209,2.65311,2.65311,0,0,1-1.31963-.72769,1.07954,1.07954,0,0,1-.0622-1.39344,11.59915,11.59915,0,0,1,2.72785-1.07883,5.24227,5.24227,0,0,1,1.84505-.237c.54462.02309,1.45613.46572,1.95461.345.89807-.21741,1.00351-1.65358,1.58493-2.43962a.94476.94476,0,0,1,.60909-.44748c.44967-.04276.73081.50286.724.95451a4.1082,4.1082,0,0,0-.02226,1.34484,1.39483,1.39483,0,0,0,1.571.78167,4.06962,4.06962,0,0,0,1.67793-.87659,1.20734,1.20734,0,0,0,.43222-.45965c.14106-.335-.041-.70916-.082-1.0703a1.36684,1.36684,0,0,1,2.58984-.74664c.23893.49664.39992,1.28841.9407,1.18215a.82294.82294,0,0,0,.39073-.25,7.854,7.854,0,0,0,1.35079-1.74543c.25429-.44678.62611-1.0006,1.12589-.88021a5.45106,5.45106,0,0,1,.50069.23373c.54589.19227,1.112-.38477,1.14859-.96238a3.07588,3.07588,0,0,0-.55232-1.61938,2.48952,2.48952,0,0,1-.438-1.64109l2.3658.75971a.723.723,0,0,0,1.02626-.32354l1.67522-2.32316a2.34337,2.34337,0,0,1-.65539-1.3697c.63149-.27762,1.49945.0923,1.98468-.398.71032-.71776-.47244-2.04357.06439-2.89886.372-.59271,1.2513-.48969,1.92854-.31351.22569-.99565-1.18676-1.83013-.93286-2.819.11412-.44446.54011-.74276.7136-1.16758a7.80128,7.80128,0,0,0,.1911-1.09486c.08973-.36056.41174-.72778.77223-.63776.10852.0271.21749.09412.32425.06075.14713-.046.17536-.2386.17679-.39275l.02376-2.56628c.572-.19535,1.39409.44283,1.70729-.07413a.82929.82929,0,0,0-.01791-.67269l-.6993-2.186,1.256.007a4.92254,4.92254,0,0,1-.7134-1.34082.60829.60829,0,0,1-.03263-.42729.64843.64843,0,0,1,.35238-.28856,6.6294,6.6294,0,0,0,2.048-1.256c.33435-.33686.43876-.86489.97728-.68383,1.62982.548.28709,4.35457-.05649,5.27926-1.92527,5.18157-3.05553,10.528-5.28679,15.63257"/><path class="e" d="M66.9793,15.44335a.57914.57914,0,0,1,.18207.36453c-.01227.19138-.22219.29417-.35507.43244-.38422.39981-.10236,1.04681-.06831,1.60026.05425.882-.58241,1.64373-.8271,2.49283-.46424,1.611.49757,3.4748-.27868,4.96083.26138.61459,1.2437.5501,1.66846.0347a2.9691,2.9691,0,0,0,.45265-1.9094l.04182-7.11276a17.89994,17.89994,0,0,0-.9048-7.044c-.62015-1.48514-2.08107-3.35874-3.87156-3.28767.11938,1.73246,2.10212,2.89845,2.93753,4.27863C66.92019,11.84617,65.8289,13.99081,66.9793,15.44335Z"/></g><path class="b" d="M35.81717,77.19243a28.70964,28.70964,0,0,1-8.30857,5.8349,18.087,18.087,0,0,0,13.73962-1.84385,20.6219,20.6219,0,0,1-11.50067,11.2359c6.6163-1.678,13.60775-3.5694,18.29952-8.52706a8.79437,8.79437,0,0,1,1.93255-1.7555,10.52916,10.52916,0,0,1,2.496-.78914,10.45613,10.45613,0,0,0,7.47835-7.99684,9.50876,9.50876,0,0,0-4.58634-9.79826,11.29432,11.29432,0,0,0-8.51731-.60688c-2.61693.77212-6.31756,2.28777-7.3803,4.952C38.12007,71.28193,38.56733,74.17584,35.81717,77.19243Z"/><g class="g"><path class="h" d="M29.43366,81.94611c4.33954-1.85607,8.54156-4.30759,8.94123-9.40745a4.301,4.301,0,0,1,.3268-1.73929A2.38546,2.38546,0,0,1,41.0813,69.754c1.78556.20085,3.00752,1.93264,4.68483,2.06737a2.2959,2.2959,0,0,1,1.06577.19144,1.55767,1.55767,0,0,1,.559.9361,14.2266,14.2266,0,0,1-.14009,8.05625c-.442,1.45147-1.39278,3.05405-2.90922,3.10429a.41631.41631,0,0,1,.32128-.63107Q42.85548,84.886,41.012,86.24642a16.48839,16.48839,0,0,1-4.4653,2.59132,10.83309,10.83309,0,0,0-2.16456.78266,2.01356,2.01356,0,0,0-1.10144,1.8761,56.78989,56.78989,0,0,0,10.1832-9.31089c.24724-.2887.5081-.65139.39775-1.01511a1.80935,1.80935,0,0,0-.37926-.54085,3.49385,3.49385,0,0,1-.52809-1.74592,2.61,2.61,0,0,0-.67872-1.67421c-1.104-.972-1.63436.6977-2.36035,1.18322a22.14448,22.14448,0,0,1-4.1227,2.22224A33.833,33.833,0,0,1,27.565,82.3752"/></g><path class="b" d="M70.58849,62.22273a7.338,7.338,0,0,1-.10919,1.11076c-.02784.1577-.10507.35305-.26519.3502-.12945-.0023-.21-.13789-.26146-.25669-.63667-1.46911-.81776-3.14719-1.73029-4.46282a9.42462,9.42462,0,0,0-2.73921-2.33851.51287.51287,0,0,0-.77114.08389c-1.92178,1.63764.61156,4.218.54651,6.73488a22.732,22.732,0,0,1-1.15225,5.73487,9.48068,9.48068,0,0,0-4.2596-8.30169,9.10933,9.10933,0,0,1-.29675,5.26827,5.28377,5.28377,0,0,0-5.801-2.47221c.94054-.24946,2.783-4.4697,3.40535-5.34364,2.0743-2.91278,4.55893-4.7592,6.0164-8.26177a14.03165,14.03165,0,0,1,6.03487,2.02979,5.77056,5.77056,0,0,1,2.62833,5.4838,6.791,6.791,0,0,0-2.06533-2.93474,2.33941,2.33941,0,0,0-3.22615.38271A8.18833,8.18833,0,0,1,70.58849,62.22273Z"/><path class="h" d="M31.91533,64.10409c.09494-.1624.15678-.34352.263-.49879a1.636,1.636,0,0,1,.93614-.58287c.78393-.22156,1.61987-.18239,2.41367-.36546a.88938.88938,0,0,0,.41945-.187c.34629-.32448.06336-.91806-.31138-1.20923a2.63844,2.63844,0,0,0-3.18927.03919,2.88714,2.88714,0,0,1-.87019.63423,5.84524,5.84524,0,0,1-.65385.09761,6.78277,6.78277,0,0,0-3.86335,2.79032c-.44275.555-1.87034,1.90382-1.11634,2.62382,1.11962,1.06915,2.1756-1.52131,2.904-1.93362C29.80788,64.96846,31.28762,65.17785,31.91533,64.10409Z"/><path class="h" d="M52.87275,48.23386a4.99776,4.99776,0,0,1,3.134,1.41315,1.466,1.466,0,0,1,.38417.88877.77223.77223,0,0,1-.5102.7623c-.50526.13842-.92358-.37571-1.24651-.78823a7.45093,7.45093,0,0,0-3.28186-2.3084,7.687,7.687,0,0,0-2.71319-.59071C48.84748,48.177,52.11441,48.1082,52.87275,48.23386Z"/><path class="h" d="M49.565,51.04818a4.99776,4.99776,0,0,1,3.134,1.41315,1.466,1.466,0,0,1,.38416.88876.77222.77222,0,0,1-.5102.7623c-.50526.13842-.92358-.37571-1.24651-.78822a7.451,7.451,0,0,0-3.28186-2.30841,7.687,7.687,0,0,0-2.71319-.59071C45.5397,50.99135,48.80663,50.92251,49.565,51.04818Z"/><path class="h" d="M44.51048,54.7684a4.9977,4.9977,0,0,1,3.134,1.41315,1.466,1.466,0,0,1,.38416.88876.77223.77223,0,0,1-.5102.7623c-.50526.13842-.92358-.37571-1.24651-.78822A7.451,7.451,0,0,0,42.9901,54.736a7.687,7.687,0,0,0-2.71319-.59071C40.4852,54.71156,43.75213,54.64273,44.51048,54.7684Z"/><path class="h" d="M38.09558,55.79332a4.99776,4.99776,0,0,1,3.134,1.41315,1.4661,1.4661,0,0,1,.38417.88877.77223.77223,0,0,1-.5102.7623c-.50527.13841-.92358-.37571-1.24651-.78823a7.45093,7.45093,0,0,0-3.28186-2.3084,7.687,7.687,0,0,0-2.71319-.59072C34.07031,55.73649,37.33724,55.66766,38.09558,55.79332Z"/><path class="h" d="M54.59616,44.76274a4.99776,4.99776,0,0,1,3.134,1.41315,1.466,1.466,0,0,1,.38416.88876.77223.77223,0,0,1-.5102.76231c-.50526.13841-.92358-.37572-1.24651-.78823a7.451,7.451,0,0,0-3.28186-2.30841,7.687,7.687,0,0,0-2.71319-.59071C50.57088,44.70591,53.83781,44.63707,54.59616,44.76274Z"/><path class="h" d="M55.26637,40.07957a4.99771,4.99771,0,0,1,3.134,1.41315,1.466,1.466,0,0,1,.38416.88876.77221.77221,0,0,1-.51019.7623c-.50527.13842-.92358-.37571-1.24651-.78822A7.451,7.451,0,0,0,53.746,40.04715a7.68706,7.68706,0,0,0-2.71319-.59071C51.24109,40.02274,54.508,39.9539,55.26637,40.07957Z"/><path class="h" d="M56.74867,35.0051a4.99771,4.99771,0,0,1,3.134,1.41315,1.466,1.466,0,0,1,.38417.88876.77225.77225,0,0,1-.5102.76231c-.50526.13841-.92358-.37572-1.24651-.78823a7.451,7.451,0,0,0-3.28186-2.30841,7.687,7.687,0,0,0-2.71319-.59071C52.7234,34.94827,55.99033,34.87943,56.74867,35.0051Z"/><path class="h" d="M59.308,30.98768a4.99771,4.99771,0,0,1,3.134,1.41315,1.466,1.466,0,0,1,.38417.88876.77225.77225,0,0,1-.5102.76231c-.50526.13841-.92358-.37572-1.24651-.78823a7.451,7.451,0,0,0-3.28186-2.30841,7.687,7.687,0,0,0-2.71319-.59071C55.28277,30.93085,58.5497,30.862,59.308,30.98768Z"/><path class="h" d="M58.14637,61.59368c-.117-.41962.36605-.72767.71683-.986s.55-.92476.12744-1.03082a.95174.95174,0,0,1,1.25748-.35825,3.86611,3.86611,0,0,1,1.1023.9398,1.77069,1.77069,0,0,0,1.2564.65118,3.21181,3.21181,0,0,0-.44207-3.32293l1.80331-1.48816c.36546-.30159.75938-.8236.45388-1.18581a4.91272,4.91272,0,0,1,2.12313.839c.21888-.43512-.22459-.915-.6622-1.12887s-.97264-.39328-1.13465-.85261l2.795-1.03726c.04219-.50713-.60651-.74329-1.11071-.81223-1.7596-.24061-3.22791-1.01026-4.03414,1.07132a7.32948,7.32948,0,0,1-.41794,1.08086c-.37975.65068-1.07.797-1.56184,1.28948a16.59888,16.59888,0,0,0-1.1706,1.72924,25.40819,25.40819,0,0,0-2.58358,3.736c-.22034.4396-.92423,1.62555-.42234,2.09206.65606.60982,1.89977-.851,2.4038.33473C59.12423,62.37351,58.26905,62.20708,58.14637,61.59368Z"/><path class="h" d="M62.78278,22.8215a1.23312,1.23312,0,0,0,1.67519-.63287A1.02467,1.02467,0,0,0,63.38,20.89713a1.79222,1.79222,0,0,0,1.63406-2.90787c.2162.36957.79924.05118.99134-.33148a2.44542,2.44542,0,0,0-.73734-2.98535,1.91212,1.91212,0,0,0,.21335-3.18163c-.15717-.03418-.15626.2768.00289.30012s.2862-.1339.34231-.28464a1.51536,1.51536,0,0,0-.42556-1.52449,4.45729,4.45729,0,0,0-1.41784-.86372l-2.12416-.95329c-.20832.07569-.17633.39389-.03637.56576s.34978.30081.411.51382a1.853,1.853,0,0,1-.02989.57465,1.09679,1.09679,0,0,0,.79642.9912,3.21229,3.21229,0,0,0,1.35106.05755,1.07128,1.07128,0,0,0-.611,1.09828,4.5056,4.5056,0,0,0,.38472,1.28845,6.83874,6.83874,0,0,1,.40413,2.977,4.4189,4.4189,0,0,1-.19413,1.00785c-.25931.78114-.82066,1.5148-.71642,2.33123.05952.46615.33561.93836.16838,1.37753a1.71655,1.71655,0,0,1-.37689.51206c-.71126.78137-2.05046,3.0251-.53589,3.76935C64.52107,26.03879,64.1546,23.32736,62.78278,22.8215Z"/><path class="h" d="M58.10017,9.90777a3.36878,3.36878,0,0,1,.48775.259.362.362,0,0,1,.10281.48549.54175.54175,0,0,0-.09657.10932c-.07072.15035.16.25418.326.26156.37015.01646,1.60113.26548,1.89106.01875a5.8068,5.8068,0,0,0,.53155-1.49876,2.86158,2.86158,0,0,0-.58215-2.56676C59.052,5.43612,56.1855,8.79945,58.10017,9.90777Z"/><g class="i"><circle class="j" cx="49.20733" cy="11.85811" r="2.99319"/><path class="k" d="M46.61521,10.36152a2.98186,2.98186,0,0,0-.264,2.262,2.87041,2.87041,0,1,0,2.09094-3.62134A2.98182,2.98182,0,0,0,46.61521,10.36152Zm0,0a3.11781,3.11781,0,0,1,5.69007.6665,3.12425,3.12425,0,0,1-2.26807,3.92737,3.118,3.118,0,0,1-3.422-4.59387Z"/><circle class="l" cx="48.07616" cy="10.44986" r="0.63431"/></g><g class="m"><circle class="j" cx="51.50173" cy="19.78119" r="1.78777"/><path class="k" d="M49.95347,18.88727a1.78167,1.78167,0,0,0-.15771,1.35108,1.71448,1.71448,0,1,0,1.2489-2.163A1.78142,1.78142,0,0,0,49.95347,18.88727Zm0,0a1.86218,1.86218,0,0,1,3.39856.39808,1.86605,1.86605,0,0,1-1.35461,2.34582,1.8624,1.8624,0,0,1-2.04395-2.7439Z"/><circle class="l" cx="50.82611" cy="18.94007" r="0.37886"/></g><g class="n"><circle class="j" cx="37.32017" cy="21.5239" r="3.99197"/><path class="k" d="M33.863,19.5279a3.978,3.978,0,0,0-.35218,3.01672,3.82825,3.82825,0,1,0,2.7887-4.82971A3.97758,3.97758,0,0,0,33.863,19.5279Zm0,0a4.15814,4.15814,0,0,1,7.58874.88892A4.16634,4.16634,0,0,1,38.427,25.65461a4.15837,4.15837,0,0,1-4.564-6.12671Z"/><circle class="l" cx="35.81154" cy="19.64574" r="0.84597"/></g><g class="o"><circle class="j" cx="39.85717" cy="32.7261" r="2.43773"/><path class="k" d="M37.74607,31.50727a2.42925,2.42925,0,0,0-.21508,1.84216,2.33773,2.33773,0,1,0,1.70288-2.94934A2.42888,2.42888,0,0,0,37.74607,31.50727Zm0,0a2.53924,2.53924,0,0,1,4.63416.54285,2.54447,2.54447,0,0,1-1.84717,3.19848,2.53934,2.53934,0,0,1-2.787-3.74133Z"/><circle class="l" cx="38.93591" cy="31.57919" r="0.5166"/></g><path class="k" d="M28.02769,58.85688a14.0222,14.0222,0,0,0-.40466-2.911,4.4342,4.4342,0,0,0-1.24073-2.35755l.66162-.74975a3.771,3.771,0,0,1,.85694,1.45972,7.24766,7.24766,0,0,1,.339,1.531,14.434,14.434,0,0,1,.031,3.03858Z"/><circle class="j" cx="26.02686" cy="52.69392" r="1.21778"/><path class="k" d="M24.90171,52.22809a1.15538,1.15538,0,1,0,1.5669-.60131A1.16621,1.16621,0,0,0,24.90171,52.22809Zm0,0a1.28016,1.28016,0,1,1,.6355,1.64844A1.28246,1.28246,0,0,1,24.90171,52.22809Z"/><circle class="l" cx="25.59371" cy="52.35174" r="0.29641"/><path class="k" d="M32.404,61.14313a14.01764,14.01764,0,0,0,.58264-2.88073,4.435,4.435,0,0,0-.3894-2.63538l.87268-.48828A3.77331,3.77331,0,0,1,33.79478,56.8a7.2463,7.2463,0,0,1-.1875,1.55689,14.434,14.434,0,0,1-.97742,2.8772Z"/><circle class="j" cx="32.5582" cy="54.66534" r="1.21778"/><path class="k" d="M31.651,53.853a1.15542,1.15542,0,1,0,1.67761-.04809A1.16618,1.16618,0,0,0,31.651,53.853Zm0,0a1.28017,1.28017,0,1,1,.05347,1.766A1.28245,1.28245,0,0,1,31.651,53.853Z"/><circle class="l" cx="32.2629" cy="54.19897" r="0.29641"/></g></svg>