<svg xmlns="http://www.w3.org/2000/svg" xmlns:xlink="http://www.w3.org/1999/xlink" viewBox="0 0 69.77243 92.74961"><defs><style>.a,.m{fill:none;}.b{fill:#d8c4b2;}.c{fill:#d89f6c;}.d{clip-path:url(#a);}.e{fill:url(#b);}.f{fill:url(#c);}.g{clip-path:url(#d);}.h{fill:#7a593f;}.i{fill:#dbb58d;}.j{clip-path:url(#e);}.k{fill:#f4dcc1;}.l{fill:#575756;}.m{stroke:#3c3c3b;stroke-linecap:round;stroke-linejoin:round;stroke-width:0.90536px;}.n{fill:#3c3c3b;}.o{fill:#1d1d1b;}.p{fill:#706f6f;}.q{fill:#8ef4c0;}</style><clipPath id="a"><rect class="a" y="0.02157" width="69.77243" height="92.60078"/></clipPath><linearGradient id="b" x1="40.98807" y1="29.4007" x2="44.45539" y2="3.3958" gradientUnits="userSpaceOnUse"><stop offset="0.39389" stop-color="#dadada"/><stop offset="0.83897" stop-color="#4c4a4a"/><stop offset="0.89956" stop-color="#383636"/></linearGradient><linearGradient id="c" x1="-1110.75128" y1="-94.682" x2="-1107.28396" y2="-120.6869" gradientTransform="matrix(-0.97645, -0.21576, -0.21576, 0.97645, -1039.9293, -112.65018)" xlink:href="#b"/><clipPath id="d"><path class="b" d="M5.66357,13.41175c.34661.939.72469,1.843.99684,2.64384a93.031,93.031,0,0,0,5.066,12.05362A8.80072,8.80072,0,0,0,13.072,30.21764a9.25838,9.25838,0,0,0,3.1246,1.91363c4.60113,2.034,9.78711,2.89255,13.382,6.57408.192.19666.426.41506.69793.3748a.848.848,0,0,0,.49823-.38705c1.93012-2.55188,3.53466-5.8873,1.958-9.02392-1.02007-2.02933-2.79408-3.56271-4.14145-5.39118-1.79435-2.43506-2.80358-5.35276-4.35469-7.94955A22.88063,22.88063,0,0,0,12.05372,6.7169c-1.81333-.6651-3.75238-1.70065-5.54376-.517C3.96914,7.87877,4.69294,10.78229,5.66357,13.41175Z"/></clipPath><clipPath id="e"><path class="c" d="M31.8914,74.33469a39.39713,39.39713,0,0,1,9.217,1.55431c1.72988.5089,3.622,1.32362,4.24441,3.016l6.66547-19.03322a41.545,41.545,0,0,1,3.39767-7.90234A13.94328,13.94328,0,0,1,61.62227,46.193c3.01069-1.28406,6.41977-1.0772,9.6848-.8478.96378.06772-.63-8.84938-.84118-9.59442-.84137-2.96783-2.50559-4.60712-4.90014-6.59577a27.58,27.58,0,0,0-5.85626-4.06288,20.594,20.594,0,0,0-6.58525-1.61341A28.01524,28.01524,0,0,0,38.0325,25.71005c-3.98287,1.941-11.32516,8.11932-9.06873,13.26582.61375,1.3995,2.00137,2.25068,2.6297,3.77141A19.51906,19.51906,0,0,1,32.855,49.26611c.23421,4.90422.01574,9.74025-.00307,14.61919A55.7505,55.7505,0,0,1,31.8914,74.33469Z"/></clipPath></defs><g class="d"><path class="b" d="M101.90883,31.22767c-.64932.76171-1.31612,1.47976-1.84788,2.13751a93.03068,93.03068,0,0,1-8.914,9.56528,8.80063,8.80063,0,0,1-1.99045,1.51464,9.25841,9.25841,0,0,1-3.593.718c-5.02037.32141-10.1841-.66218-14.82849,1.55283a.89364.89364,0,0,1-.78439.111.84792.84792,0,0,1-.33408-.53521c-.931-3.06114-1.28614-6.74535,1.276-9.1453,1.65764-1.55271,3.8518-2.37979,5.74734-3.63105,2.52438-1.66636,4.47839-4.05662,6.83026-5.95871a22.88064,22.88064,0,0,1,14.75108-4.81752c1.93146.00145,4.10873-.30143,5.38167,1.42767C105.40837,26.61918,103.72716,29.09462,101.90883,31.22767Z"/><path class="c" d="M82.73936,24.84242a82.968,82.968,0,0,1,16.32323-2.69925c1.04279-.094,2.271-.109,2.92043.71228-4.9963-.97565-10.06917,1.36018-14.17514,4.36948s-7.68738,6.75469-12.10933,9.27685a8.83468,8.83468,0,0,1-3.72016,1.32469c-1.99912.13049-3.90531-1.064-3.88182-3.17971.02193-1.97481,1.85577-3.11412,3.26062-4.19407A35.02071,35.02071,0,0,1,82.73936,24.84242Z"/><path class="e" d="M36.42483,16.61927a13.45736,13.45736,0,0,1,1.92824-8.83452,13.39608,13.39608,0,0,1,3.03061-3.06324,10.84034,10.84034,0,0,1,5.182-2.32592c-3.12421,2.68792-3.628,7.34123-3.1904,11.4393.412,3.85892,1.72841,8.02263,5.05783,10.01662-2.06034.45041-7.76539,2.55347-9.6109,1.39827C37.09347,24.16768,36.59531,18.45616,36.42483,16.61927Z"/><path class="f" d="M72.30138,23.062a13.45731,13.45731,0,0,0,.02334-9.04246,13.39568,13.39568,0,0,0-2.29829-3.645,10.8403,10.8403,0,0,0-4.55808-3.38923c2.47067,3.2987,1.95855,7.9511.64707,11.85823-1.23494,3.67912-3.41869,7.46073-7.09992,8.68939,1.91463.88434,7.03153,4.16881,9.08282,3.439C70.01981,30.28836,71.73858,24.81885,72.30138,23.062Z"/><path class="b" d="M5.66357,13.41175c.34661.939.72469,1.843.99684,2.64384a93.031,93.031,0,0,0,5.066,12.05362A8.80072,8.80072,0,0,0,13.072,30.21764a9.25838,9.25838,0,0,0,3.1246,1.91363c4.60113,2.034,9.78711,2.89255,13.382,6.57408.192.19666.426.41506.69793.3748a.848.848,0,0,0,.49823-.38705c1.93012-2.55188,3.53466-5.8873,1.958-9.02392-1.02007-2.02933-2.79408-3.56271-4.14145-5.39118-1.79435-2.43506-2.80358-5.35276-4.35469-7.94955A22.88063,22.88063,0,0,0,12.05372,6.7169c-1.81333-.6651-3.75238-1.70065-5.54376-.517C3.96914,7.87877,4.69294,10.78229,5.66357,13.41175Z"/><g class="g"><path class="h" d="M20.25735,16.07951c.36884.36973.72385.89131.533,1.37743-.14845.378-.58428.58793-.72079.97044-.3977,1.11442,1.86144,1.45647,2.033,2.62721.15092,1.02956-1.42054,1.59376-1.48379,2.63239-.05471.89838.98286,1.39142,1.78291,1.80372,3.71085,1.91235,5.20238,6.76359,8.95382,8.595,1.4807-2.75064,3.00787-5.86006,2.166-8.86834a11.78584,11.78584,0,0,0-1.83815-3.4382q-3.26631-4.71026-6.882-9.16493a16.16772,16.16772,0,0,0-3.3609-3.35948c-2.56928-1.73219-5.44029-2.86817-6.31135.64771C13.97,14.58075,17.60926,13.425,20.25735,16.07951Z"/></g><path class="i" d="M27.98633,74.29487a26.30951,26.30951,0,0,0,2.6603,8.55031,15.81912,15.81912,0,0,0,7.43947,7.18616c4.05808,1.75086,10.7033-4.76828,13.6178-7.35487,3.73815-3.31758,5.492-7.47252,7.54608-11.90769,1.45963-3.15171,3.55091-6.14436,5.28983-9.15339A58.459,58.459,0,0,0,69.99448,50.4005c2.12877-6.64638-.50515-11.477-5.954-15.3992a29.5559,29.5559,0,0,0-8.86226-4.71162c-5.31131-1.53684-10.98527-.57668-16.42873.3931a22.56446,22.56446,0,0,0-7.63918,2.34144c-2.39526,1.4225-2.40652,2.44355-2.28087,4.99952.2976,6.05356.10938,12.11357-.07368,18.16751-.091,3.00879-.03234,6.06564-.27449,9.06555-.20641,2.557-.98448,4.88639-.69351,7.50855Q27.87275,73.53083,27.98633,74.29487Z"/><path class="c" d="M31.8914,74.33469a39.39713,39.39713,0,0,1,9.217,1.55431c1.72988.5089,3.622,1.32362,4.24441,3.016l6.66547-19.03322a41.545,41.545,0,0,1,3.39767-7.90234A13.94328,13.94328,0,0,1,61.62227,46.193c3.01069-1.28406,6.41977-1.0772,9.6848-.8478.96378.06772-.63-8.84938-.84118-9.59442-.84137-2.96783-2.50559-4.60712-4.90014-6.59577a27.58,27.58,0,0,0-5.85626-4.06288,20.594,20.594,0,0,0-6.58525-1.61341A28.01524,28.01524,0,0,0,38.0325,25.71005c-3.98287,1.941-11.32516,8.11932-9.06873,13.26582.61375,1.3995,2.00137,2.25068,2.6297,3.77141A19.51906,19.51906,0,0,1,32.855,49.26611c.23421,4.90422.01574,9.74025-.00307,14.61919A55.7505,55.7505,0,0,1,31.8914,74.33469Z"/><g class="j"><path class="k" d="M50.47444,52.38684c.08774-.49594.06942-1.01039.20625-1.49515.464-1.64407,2.22373-2.20846,3.24494-3.40131,1.283-1.49868,2.15159-3.41247,3.508-4.78629a3.4157,3.4157,0,0,1,3.459-1.01448,4.89077,4.89077,0,0,0,1.439.52218,3.42275,3.42275,0,0,0,1.7437-.78584c2.22926-1.3463,4.38755-.14238,6.47643.79078,1.17808.52628,2.4104,1.85846,1.692,2.93023a2.50585,2.50585,0,0,1-1.68329.83074c-2.722.546-5.55287,1.09672-7.79016,2.74055A17.02774,17.02774,0,0,0,59.21308,52.637a102.47427,102.47427,0,0,0-8.92015,14.90574c-2.32916,4.76854-4.31142,9.75918-7.43291,14.05106a5.08526,5.08526,0,0,1-2.01413,1.85547c-1.44894.59909-3.09554-.126-4.399-.99737a9.54533,9.54533,0,0,1-3.50782-3.737,12.68164,12.68164,0,0,1-.86535-4.55645c-.24834-3.833-.49682-7.67276-.38754-11.51229.0889-3.12353.41445-6.24708.24159-9.36735a37.99867,37.99867,0,0,0-1.372-7.90015c-.16076-.588-3.28267-11.15664-2.65041-11.06133,2.56286.38631,8.62468,5.24755,7.51639,8.34129-.44983,1.25566-1.83328,2.298-1.51186,3.59246.2313.93151,1.2477,1.4116,1.82593,2.17766a4.62777,4.62777,0,0,1,.38043,3.82332,9.12989,9.12989,0,0,0-.4606,3.90829c.13356.62218.42864,1.20108.55767,1.8246.42028,2.03188-.83528,3.95-1.05873,5.92679-.13676,1.2099.45037,2.25269.62778,3.41231.1251.81766-.26321,2.25246.29447,2.90294.93368,1.08621,3.37635.791,4.63436.91236,2.08036.20074,3.58584-.05034,3.65-2.68647.03419-1.40485-.33426-2.89235.2585-4.16648.77387-1.66343,3.01983-2.5494,3.16264-4.37846.04455-.57054-.13922-1.13558-.14373-1.70783-.01712-2.17281,2.41866-3.6322,2.8272-5.76633Z"/></g><path class="l" d="M45.1992,78.44688A4.96836,4.96836,0,0,1,43.008,81.42824c-1.14939.76412-2.88047.88667-4.22083,1.13983A3.99494,3.99494,0,0,1,35.923,82.1919a11.86853,11.86853,0,0,1-3.51571-2.68447c-1.81123-2.30189-1.32848-6.63527,1.48993-8.09657a6.00417,6.00417,0,0,1,2.20869-.50311,17.36667,17.36667,0,0,1,2.703-.12172,8.71843,8.71843,0,0,1,3.93463,1.21091C44.83877,73.24746,45.68328,76.17933,45.1992,78.44688Z"/><path class="m" d="M36.63959,82.07461c-.32966,2.72258-1.59133,7.7295,2.22714,8.03094a8.67192,8.67192,0,0,0,6.20405-1.99613"/><path class="n" d="M35.03536,78.05789c-.02831.91154-.32769,2.00363.35814,2.60477.69456.60879,2.03842.28251,2.449,1.10985a8.4523,8.4523,0,0,1,5.64461-4.37572,1.24973,1.24973,0,0,1,.5609-.02981.96539.96539,0,0,1,.63494.71144,2.16847,2.16847,0,0,1-.67615,2.04294,6.39,6.39,0,0,1-1.922,1.16016L39.866,82.28578a5.53888,5.53888,0,0,1-3.16532.72464,4.93082,4.93082,0,0,1-2.04348-1.05327,9.73333,9.73333,0,0,1-2.30926-2.31509c-.63108-.95889-1.99474-4.64771-.27177-5.18168C33.74069,73.94452,35.07335,76.83492,35.03536,78.05789Z"/><path class="o" d="M30.85822,39.72687a19.255,19.255,0,0,1,2.3306,9.3834c-.002.4616-.13661,1.05978-.59551,1.10888a17.6492,17.6492,0,0,1-2.26408-1.696,2.71115,2.71115,0,0,1-.89871-.78156c-.96034-1.53991.50453-10.0408-2.25454-9.46854C28.84163,37.92756,30.0575,38.26969,30.85822,39.72687Z"/><path class="o" d="M68.47848,44.305a16.65385,16.65385,0,0,0,2.20344.50832,6.53967,6.53967,0,0,0-2.59605-1.24188.97032.97032,0,0,0-.24043-.1686,1.71092,1.71092,0,0,0-.80539-.11394,12.11048,12.11048,0,0,0-7.34055,3.07718c-1.697,1.45966-2.58328,3.55241-4.13046,5.04113a5.66765,5.66765,0,0,0,5.3272,1.03836,9.27492,9.27492,0,0,0,4.73079-2.59c1.28261-1.30808,3.22467-3.44393,2.88168-5.43473C68.502,44.38189,68.48771,44.34387,68.47848,44.305Z"/><path class="p" d="M66.61978,44.42207a2.96151,2.96151,0,0,0-1.86224,2.59215.46112.46112,0,0,0,.5852.54848,2.185,2.185,0,0,0,1.895-1.25308,1.63824,1.63824,0,0,0-.70881-2.05344"/><path class="p" d="M30.03973,40.87647a.26522.26522,0,0,0-.30466-.11377,3.75885,3.75885,0,0,0-.48339,1.61909c-.021.33649.07945.76694.41209.82186.28455.047.51773-.23069.62234-.49945a2.00208,2.00208,0,0,0-.50479-2.151"/><path class="c" d="M25.859,14.03316A82.96768,82.96768,0,0,0,11.46964,5.86729c-.94629-.44806-2.09392-.88592-2.98683-.33916,5.02609.80826,8.98141,4.751,11.79683,8.9923s4.88452,8.9924,8.16461,12.88546a8.83463,8.83463,0,0,0,3.03458,2.527c1.83131.81228,4.03259.34893,4.74058-1.645.66084-1.86109-.66725-3.56321-1.61318-5.06158A35.02073,35.02073,0,0,0,25.859,14.03316Z"/><path class="m" d="M36.66069,89.09918a9.578,9.578,0,0,1-4.78-4.53111"/><path class="q" d="M44.58141,32.96179A3.77964,3.77964,0,0,0,43.29109,34.181a19.61226,19.61226,0,0,0-1.94434,3.21682,6.57916,6.57916,0,0,0-.81594,3.231c.13192,1.93907,1.68873,3.51688,3.42066,4.39881a24.64532,24.64532,0,0,1,1.61225-8.86148C45.93269,35.19834,46.86933,31.84534,44.58141,32.96179Z"/><path class="o" d="M46.30232,32.96179s-3.68182,2.51407-4.4798,6.38675a5.609,5.609,0,0,0,2.00169,5.7732,5.606,5.606,0,0,0,4.06818-4.52249C48.69037,36.72658,46.30232,32.96179,46.30232,32.96179Z"/><path class="p" d="M44.6712,37.98708a.55887.55887,0,0,0-.65687-.02193,1.02543,1.02543,0,0,0-.39445.5684,1.08216,1.08216,0,0,0,.03087.83409,1.30813,1.30813,0,0,0,.72653.53643,1.45947,1.45947,0,0,0,.93143.09987,1.02862,1.02862,0,0,0,.67409-.98363,1.464,1.464,0,0,0-.57174-1.09607.9183.9183,0,0,0-1.0679-.1548"/></g></svg>