<svg xmlns="http://www.w3.org/2000/svg" xmlns:xlink="http://www.w3.org/1999/xlink" viewBox="0 0 69.77243 92.74961"><defs><style>.a,.h,.j{fill:none;}.b{fill:#5e9e7b;}.c{clip-path:url(#a);}.d{fill:#f9b233;}.e{fill:#ededed;}.f{fill:#f39200;}.g{fill:#3c3c3b;}.h,.j{stroke:#f39200;}.h{stroke-linecap:round;stroke-linejoin:round;}.i{fill:#ffc397;}.j{stroke-miterlimit:10;}.k{fill:#706f6f;}.l{clip-path:url(#b);}.m{fill:#8ef4c0;}</style><clipPath id="a"><rect class="a" y="0.02157" width="69.77243" height="92.60078"/></clipPath><clipPath id="b"><path class="b" d="M34.82806,38.82485c-.24957-.12-.68938-.075-.78705-.30438a2.9027,2.9027,0,0,1-.19959-2.29964,1.338,1.338,0,0,0,.05731-.73909,2.23378,2.23378,0,0,0-.36034-.574c-.6365-.92966-.29684-2.18493.0645-3.25209a1.51371,1.51371,0,0,1-1.21759-1.11741c-.217-.90925.64436-1.19085.71235-1.90281a6.60651,6.60651,0,0,0-.31043-1.98c-.23073-1.17658-1.22217-3.26881-.0811-4.27273-1.0917-1.11366-.99475-2.90563-.69235-4.43553.30237-1.52978.72464-3.17707.07194-4.59322a14.22042,14.22042,0,0,0,2.00036,3.21333c.673.807,1.87858,1.03264,1.39754,2.49443a2.56011,2.56011,0,0,1,1.84939.43909c.53262.52591.286,1.29258.656,1.88073.65149,1.03564,1.86142.71229,1.72613,2.31527a1.22114,1.22114,0,0,1,.88482.63446,1.07922,1.07922,0,0,1-.12111,1.09149c.22043-.2856,1.34438.855,1.43541,1.03784.27308.5484.082,1.20138.22124,1.77451.15887.65412.63569,1.14828.80233,1.79828.163.63586-.05528,1.38918.25193,1.98951.56122,1.09669,1.95887.96572,1.23425,2.68412.55306-.07588.91712.54985,1.09743,1.07818a21.099,21.099,0,0,1,.61494,2.17762c.40442,1.79529-5.19845,4.088-6.34434,4.29144-.31762.05639-4.84431-.27958-4.67-.8249a3.34,3.34,0,0,0-.15073-2.47662A.301.301,0,0,0,34.82806,38.82485Z"/></clipPath></defs><g class="c"><path class="d" d="M20.19319,77.52509c-.46606,3.17943,2.24877,6.25365,4.6548,7.92289,4.35375,3.02052,9.01786,2.02183,13.89189.99a37.60187,37.60187,0,0,0,5.40974-1.42923c2.7649-1.03335,5.19053-2.755,7.953-3.79078,2.84825-1.06789,5.98034-1.299,8.65655-2.83217a20.75608,20.75608,0,0,0,3.25487-2.48557A37.3123,37.3123,0,0,0,75.6626,54.69664c1.00561-6.04742.65062-12.42146.3216-18.49156-.11371-2.09831.90144-3.52051,1.45762-5.55233A30.51156,30.51156,0,0,0,78.2975,24.359a10.9994,10.9994,0,0,0-.39649-4.49251,1.30016,1.30016,0,0,0-.44842-.66771,1.39318,1.39318,0,0,0-.66489-.1705,21.1787,21.1787,0,0,0-10.84691,2.42758c-3.16647,1.55911-8.10843,7.016-11.69931,5.80437a13.79044,13.79044,0,0,1-1.9907-1.04825,14.913,14.913,0,0,0-5.20118-1.31831c-2.39042-.30272-4.85094-.98237-7.25437-.6246-1.93458.288-2.92378.69523-4.89991-.18242-3.77149-1.675-6.26065-5.30723-9.77211-7.39958-3.8353-2.28531-8.33531-3.71936-12.76333-3.14939a43.52466,43.52466,0,0,0,1.36923,15.06093c1.21021,4.46847,4.67516,8.82678,4.18212,13.45863-.38935,3.65779-1.91536,7.24192-1.45627,10.89161.47066,3.74155.24828,7.29626.76043,11.02658a14.40809,14.40809,0,0,0,1.43527,4.54895c.69259,1.36316,2.26,2.40421,2.58782,3.95355C21.58411,74.11151,20.4284,75.92044,20.19319,77.52509Z"/><path class="e" d="M49.81164,70.49251a27.28742,27.28742,0,0,1,8.44893-1.7576,11.53124,11.53124,0,0,1,7.99149,2.77345,1.77527,1.77527,0,0,1,.44159.55609c.68123,1.54706-3.23633,4.16945-4.16769,5.04423a14.938,14.938,0,0,1-2.08438,1.73252,14.96463,14.96463,0,0,1-4.2901,1.64425c-2.02342.54483-4.531.72808-6.39135,1.61366-1.73817.8274-3.11589,2.26195-4.79326,3.20657a19.08276,19.08276,0,0,1-11.01281,2.165c-1.80554-.125-3.61173-.25-5.41037-.45132.59362.0664,2.514-1.62392,3.13682-1.94445,1.12844-.58071,2.28925-1.14342,3.4081-1.76536,2.58855-1.43889,3.858-3.74982,5.1031-6.36076.70807-1.48481,2.53551-2.64,3.75071-3.77666C45.48777,71.7267,47.8555,71.15536,49.81164,70.49251Z"/><path class="f" d="M34.44735,83.9867a6.99527,6.99527,0,0,1-11.48754.80022,20.84386,20.84386,0,0,0,7.202.314c.59172-.10987,1.17344-.26718,1.75439-.42432C32.71962,84.45924,33.64389,84.204,34.44735,83.9867Z"/><path class="g" d="M22.50149,49.93456c.46142-.50314,1.299-.17118,1.84385.24019a10.2154,10.2154,0,0,1,3.369,4.4866,3.35229,3.35229,0,0,1-.02517,3.0479c-.86095,1.25344-2.93754,1.02957-3.9721-.08489a6.42221,6.42221,0,0,1-1.312-4.26343,7.53859,7.53859,0,0,1,.28785-2.65729"/><path class="h" d="M51.55813,52.4516c-3.87652,2.21851-9.94652,6.807-9.79291,11.68679.04654,1.4784.35965,2.93906.40057,4.41763.13234,4.78272-2.21409,10.88158-5.93228,14.004a12.89733,12.89733,0,0,1-13.6587,1.65513,5.14032,5.14032,0,0,1-2.28851-1.90686,5.54806,5.54806,0,0,1-.35952-3.64209c1.3198-8.18413,7.77348-14.91992,7.828-23.38442a6.835,6.835,0,0,0-1.08418-3.59225C25.3212,49.53766,23.01,49.04662,20.73633,48.443"/><path class="g" d="M28.36594,80.67351a5.15723,5.15723,0,0,0-2.76921-2.594,5.75863,5.75863,0,0,0-4.379-.39833,3.212,3.212,0,0,0-2.11335,3.54435,4.38254,4.38254,0,0,0,2.8234,2.61965,6.46717,6.46717,0,0,0,4.32338.48231,3.14106,3.14106,0,0,0,2.30331-3.33438"/><path class="h" d="M31.24575,85.95724c1.2953-.30726,2.98505-.74037,3.731-1.94048a8.60838,8.60838,0,0,1,2.03793-2.03349,24.30747,24.30747,0,0,1,5.3471-3.26912"/><path class="i" d="M28.6803,33.56327l-8.86909,5.49685a1.97143,1.97143,0,0,1-.95107.37837c-.75531.01888-1.23884-.77345-1.55866-1.458a63.5777,63.5777,0,0,1-3.87667-11.32906c-1.07331-4.15117-.79906-8.40765-1.3249-12.65973.0977.79,5.77194,3.97063,6.73228,4.73659A28.91624,28.91624,0,0,1,28.6803,33.56327Z"/><path class="i" d="M76.26716,21.56068a1.54405,1.54405,0,0,1,1.31-.27867c.47225.201.6157.79049.68352,1.29925A26.99782,26.99782,0,0,1,76.9991,34.97851a4.62873,4.62873,0,0,1-.938,1.74871c-.77426.79894-1.98347,1.00694-2.85541,1.698-1.16867.9262-1.747,2.70521-3.21089,2.98894A3.14129,3.14129,0,0,1,67.29929,40.219a11.20463,11.20463,0,0,0-2.18319-2.15158c-1.509-.89123-4.44235-.76386-4.532-3.1184-.073-1.91835,2.791-3.859,4.052-4.99312A66.94512,66.94512,0,0,1,76.26716,21.56068Z"/><path class="j" d="M52.9798,57.94144c1.30346.73529,2.01372,2.1693,2.73926,3.47822s1.67467,2.67307,3.12542,3.0405l-.15237.51612"/><path class="g" d="M51.67033,56.88229a3.40283,3.40283,0,0,1,2.60306,1.73354,1.82948,1.82948,0,0,1,.16653.56014A2.4,2.4,0,0,1,53.25876,61.374c-2.58268,1.68346-7.36691,1.85048-9.376-.739a4.48591,4.48591,0,0,1-2.03422,1.87844,14.16906,14.16906,0,0,1,3.3259-4.28686A9.44663,9.44663,0,0,1,51.67033,56.88229Z"/><path class="e" d="M23.5488,67.25156a1.08594,1.08594,0,0,1,.09454,1.42209c-.4717.82579-2.41842,3.55777-2.32485,4.50921a7.85866,7.85866,0,0,0-1.77646-3.441,14.67107,14.67107,0,0,1-2.69179-9.0041c1.76008.868,2.95106.99386,4.26476,2.69066A42.79865,42.79865,0,0,1,23.5488,67.25156Z"/><path class="k" d="M23.9454,50.73213a23.62577,23.62577,0,0,0-.77211,3.67541.64061.64061,0,0,0,.12614.58968.44.44,0,0,0,.59867-.13423,1.277,1.277,0,0,0,.18-.65421l.25045-2.83911"/><path class="k" d="M52.42191,58.63794l-.37455,1.42589a1.93529,1.93529,0,0,0-.09453.707.6577.6577,0,0,0,.3903.55772,2.22588,2.22588,0,0,0,1.18725-1.274c.14194-.58046-.33963-1.30834-.924-1.18348"/><path class="b" d="M34.82806,38.82485c-.24957-.12-.68938-.075-.78705-.30438a2.9027,2.9027,0,0,1-.19959-2.29964,1.338,1.338,0,0,0,.05731-.73909,2.23378,2.23378,0,0,0-.36034-.574c-.6365-.92966-.29684-2.18493.0645-3.25209a1.51371,1.51371,0,0,1-1.21759-1.11741c-.217-.90925.64436-1.19085.71235-1.90281a6.60651,6.60651,0,0,0-.31043-1.98c-.23073-1.17658-1.22217-3.26881-.0811-4.27273-1.0917-1.11366-.99475-2.90563-.69235-4.43553.30237-1.52978.72464-3.17707.07194-4.59322a14.22042,14.22042,0,0,0,2.00036,3.21333c.673.807,1.87858,1.03264,1.39754,2.49443a2.56011,2.56011,0,0,1,1.84939.43909c.53262.52591.286,1.29258.656,1.88073.65149,1.03564,1.86142.71229,1.72613,2.31527a1.22114,1.22114,0,0,1,.88482.63446,1.07922,1.07922,0,0,1-.12111,1.09149c.22043-.2856,1.34438.855,1.43541,1.03784.27308.5484.082,1.20138.22124,1.77451.15887.65412.63569,1.14828.80233,1.79828.163.63586-.05528,1.38918.25193,1.98951.56122,1.09669,1.95887.96572,1.23425,2.68412.55306-.07588.91712.54985,1.09743,1.07818a21.099,21.099,0,0,1,.61494,2.17762c.40442,1.79529-5.19845,4.088-6.34434,4.29144-.31762.05639-4.84431-.27958-4.67-.8249a3.34,3.34,0,0,0-.15073-2.47662A.301.301,0,0,0,34.82806,38.82485Z"/><g class="l"><path class="m" d="M33.5909,22.21632a5.39767,5.39767,0,0,0,3.37153-.60648,4.0003,4.0003,0,0,1-3.5636,3.66592,6.61081,6.61081,0,0,0,4.41679-.4151,4.4741,4.4741,0,0,1-3.63727,4.05169,5.6147,5.6147,0,0,0,4.9528-.10378,2.67631,2.67631,0,0,1-1.2475,2.56674,7.86582,7.86582,0,0,1-2.82043,1.0245,9.33642,9.33642,0,0,0,5.70025.4844,4.16794,4.16794,0,0,1-4.23107,3.06895,9.19866,9.19866,0,0,0,5.0855.27207c-1.04136,1.793-3.35756,2.29187-5.40561,2.61533a8.75355,8.75355,0,0,0,8.22562-1.62065,4.32145,4.32145,0,0,1-.73345,5.12621,9.65412,9.65412,0,0,1-4.90091,2.50425c-2.38419.59281-5.15827.77275-7.05281-.79139-1.77044-1.46168-2.20763-3.99864-2.1319-6.29325.122-3.696,1.244-7.44489.34545-11.0321-.46832-1.86974-1.00886-3.69614-.16012-5.52941a30.0496,30.0496,0,0,0,2.48974-5.73735c.64985,1.6545-.1061,5.80308,2.62848,4.81217A2.2525,2.2525,0,0,1,33.5909,22.21632Z"/></g></g></svg>