<?xml version="1.0" encoding="utf-8"?>
<!-- Generator: Adobe Illustrator 25.0.0, SVG Export Plug-In . SVG Version: 6.00 Build 0)  -->
<svg version="1.1" id="Layer_1" xmlns="http://www.w3.org/2000/svg" xmlns:xlink="http://www.w3.org/1999/xlink" x="0px" y="0px"
	 viewBox="0 0 54.2 65.1" style="enable-background:new 0 0 54.2 65.1;" xml:space="preserve">
<style type="text/css">
	.st0{fill:#CBBBA0;}
	.st1{fill:#E8DCCD;}
	.st2{fill:#A89A85;}
	.st3{fill:#3C3C3B;}
	.st4{fill:#EAD6B9;}
	.st5{fill:#575756;}
	.st6{fill:#7B6A58;}
	.st7{fill:#5C9B78;}
	.st8{fill:#8EF4C0;}
</style>
<g id="Layer_4">
	<path class="st0" d="M56.2,31.1c-0.1-3.2,0.2-6.4-0.1-9.6c-0.3-1.3-0.2-2.6,0.2-3.8c0.5-1.3,1.6-2.3,2-3.7c0.3-1.8,0.4-3.7,0.1-5.5
		c0-0.5-0.1-0.9-0.4-1.3c-0.3-0.2-0.6-0.4-1-0.4c-1-0.2-2-0.4-3-0.4c-1.3,0-2.6,0.1-3.8,0.3c-1,0.2-2.5,1-3.4,0.8
		c-1.9-0.5-4.1-3.2-6-4.1C34.1,0.5,26.7,0,19.7,2c-1.7,0.5-3.4,1.1-5.1,1c-0.9-0.1-1.8-0.3-2.6-0.5c-1.8-0.4-3.6-0.4-5.4-0.1
		c-0.7,0-1.4,0.4-1.9,0.9c-0.3,0.6-0.5,1.3-0.3,2c0.2,2,0.9,3.8,1.2,5.7c0.5,3.1-1.9,6.3-2.7,9.3c-1.1,4-2,8.1-1.8,12.3
		c0.1,1.7,0.4,3.1-0.2,4.8c-0.6,1.6-1.2,2.4-0.8,4.1c0.4,1.5,1.2,2.8,2.1,4c0.8,1.1,1.8,2.1,3,2.8C6.5,49,7.6,48.8,9,48.7
		c0.9-0.1,1.9-0.1,2.9,0c1.5,0.4,2.9,1,4.1,1.8c5.8,3.2,12.7,3.6,19.3,4c3.7,0.2,7.5,0.4,11.1-0.7c3-0.8,5.6-2.9,7-5.8
		c0.6-1.4,0.8-3,0.6-4.6c-0.3-1.9,0.1-3.8,1.1-5.5C56,35.6,56.4,33.3,56.2,31.1z"/>
	<path class="st1" d="M13.8,32.2c-1.9,1.3-3.7,2.8-5.3,4.3C7.6,37.4,7,38.9,7.6,40c0.3,0.4,0.6,0.8,0.9,1.2c0.9,1.3,1,3.2,2.2,4.3
		c1.6,1.4,4.4,0.6,5.8,2.1c0.2,0.3,0.4,0.5,0.7,0.7c0.5,0.2,1.2,0.2,1.7,0c2-0.4,4-0.2,5.8,0.5c0.5,0.2,1,0.4,1.5,0.5
		c0.8,0,1.7-0.2,2.4-0.6l6.4-3c0.5-0.2,1-0.6,1.3-1c0.6-1.2-0.8-3.1,0.3-3.9c-0.6,0.4-3.8-3.6-4.1-4.1c-1.2-1.4-2.5-2.7-4-3.9
		c-0.7-0.7-1.4-1.2-2.3-1.6c-0.6-0.2-1.1-0.3-1.7-0.4c-1.5-0.2-3-0.4-4.4-0.7c-1.3-0.2-2.3-0.7-3.6,0c0.1,0.2-0.2,0.5-0.4,0.5
		c-0.2,0.1-0.6,0.1-0.7,0.4c0,0.1,0,0.2-0.1,0.3c-0.1,0.2-0.4,0.2-0.6,0.3c-0.3,0.1-0.6,0.3-0.8,0.5C13.9,32.1,13.8,32.2,13.8,32.2z
		"/>
	<path class="st2" d="M36.1,37.5c1.1-0.1,2.3,0.2,3.2,0.9c0.6,0.5,1.1,1.1,1.8,1.4c0.5,0.1,1,0.2,1.5,0.2c1.8,0.2,3.1,0.9,4.8,0
		c0.6-0.3,0.6-0.6,1.1-1c0.4-0.4,1.1-0.5,1.5-0.9s0.8-0.9,1.2-1.4c0.1-0.2,0.2-0.3,0.3-0.5c0-0.4-0.3-0.7-0.6-1
		c-0.9-0.9-1.6-1.9-2.1-3.1c-0.2-0.4-0.3-0.8-0.2-1.2c0.1-0.5,0.3-0.9,0.5-1.3c0.3-0.9,0.3-2,0-2.9c-0.4-0.9-0.8-1.8-1.4-2.6
		l-2.2-3.4c-0.1-0.3-0.3-0.5-0.6-0.7s-0.7-0.4-1.1-0.5c-1.5-0.3-3.1-0.4-4.7-0.2c-1.1,0.1-2.1,0.6-2.9,1.3c-0.9,0.9-2.1,1.5-3.1,2.4
		c-0.5,0.5-1,1.1-1.6,1.5c-0.3,0.2-0.6,0.5-0.9,0.7c-1,1-1.1,2.6-0.3,3.7c0.8,1.2,2.5,1.4,3.4,2.5c1.1,1.3,0.4,1.8-0.4,3
		c-0.5,0.7-1.1,3,0.4,2.9C34.5,37.6,35.3,37.5,36.1,37.5z"/>
	<path class="st2" d="M9.2,19.7c0,0.2,0,0.3,0,0.5v0.1c-0.1,0.2-0.3,0.4-0.5,0.6C8.3,21.3,8,22,8.1,22.6c0,0.1,0,0.3,0,0.4
		c-0.1,0.4-0.6,0.5-0.8,0.8C7,24.2,6.9,24.7,7,25.1c0.1,0.5,0.2,0.9,0.1,1.4c0,0.1,0,0.2-0.1,0.3c-0.1,0.1-0.3,0.1-0.4,0.1
		c-1.2,0.2-1.8,1.6-2,2.6c-0.2,0.9-1,2.9-0.6,3.8c0.1,0.3,0.5,0.3,0.8,0.3c0.9,0,1.8-0.1,2.7-0.3c0.4-0.1,0.9-0.2,1.3-0.1
		c0.2,0.1,0.3,0.2,0.5,0.3c0.6,0.1,1.1,0.2,1.7,0.1c0.5,0.1,0.9,0.2,1.4,0.2c1.1-0.1,1.4-1.1,2-1.8c0.8-1,1.6-1.9,2.5-2.8
		c0.6-0.6,1.3-0.8,1.6-1.6c0.2-0.5,0.2-1.1,0.4-1.6c0.3-0.6,0.6-1.2,0.9-1.7c0.5-0.9,0.4-2.1-0.1-3c-0.4-0.9-1.2-1.5-2.2-1.8
		c-0.8-0.2-1.5-0.5-2.2-1C13.7,17.5,9.1,16.7,9.2,19.7z"/>
	<path class="st3" d="M12.1,38c-0.1,0.1-0.2,0.2-0.2,0.3c-0.2,0.2-0.2,0.5-0.2,0.7c0.2,0.4,0.7,0.4,1.1,0.4c0.4-0.1,0.8-0.1,1.2,0
		c0.8,0.4,1.6,0.8,2.3,1.2c1.1,0.5,2.2,0.8,3.3,1.1c2.2,0.6,4.5,0.7,6.8,0.3c0.8-0.1,2-0.4,2.8,0.1c0.4,0.3,0.6,0.8,1,0.9
		c0.4,0.1,0.9-0.2,1-0.6c0.1-0.4-0.1-0.9-0.4-1.1c-0.3-0.3-0.7-0.4-1.2-0.5c-1.5-0.3-3.1,0.3-4.7,0.3c-2.1,0.1-4.3-0.2-6.3-0.8
		c-1.3-0.4-2.6-1-3.7-1.8C14,37.9,12.9,37.2,12.1,38z"/>
	<path class="st4" d="M11,9.5c0.4,0.7,0.6,0.9,0.1,1.7c-0.8,1.2-2.7,2.5-0.9,3.8c0.5,0.4,1.1,0.4,1,1.2c-0.1,0.5-0.9,1.1-0.5,1.6
		c0.1,0.2,0.3,0.3,0.5,0.4c0.6,0.4,0.9,1,0.9,1.7c0.3-0.2,0.6-0.4,1-0.4c0.3,0.5,1.5,1.7,2.1,1.7c0.2,0,0.3,0,0.5,0.1
		s0.2,0.4,0.2,0.6c0.3,0.8,1,1.2,1.8,1.2c0.2,0,0.5,0,0.6,0.2c-0.1,0.5,0.1,1,0,1.5c-0.1,0.3-0.5,0.6-0.5,1c0,0.1,0,0.3,0,0.4
		c-0.1,0.3-0.4,0.3-0.7,0.4c-0.7,0.1-1.4,0.4-2,1c-0.5,0.6-0.3,1-0.5,1.6c-0.2,0.5-2.2,1.5-2,2.2c0.4,0.8,1.1,1.2,2,1.1
		c0.3-0.1,0.7-0.1,1-0.1s0.6,0.2,0.7,0.5c0.7-0.2,1.4-0.6,1.8-1.2c0.2-0.3,0.4-0.7,0.7-0.9c0.2-0.1,0.5-0.1,0.8,0
		c1.8,0.4,3.6,0.9,5.4,1.5c0.3,0.1,0.6,0.2,0.9,0.5c0.3,0.4,0.4,1,0.4,1.5c0.3,1.4,1.5,2.5,2.9,2.8c1.4,0.2,2.9,0,4.1-0.8
		c0.4-0.3,0.9-0.5,1.4-0.6c0.2,0,0.4-0.1,0.6-0.1c0.3-0.3,0.4-0.7,0.2-1.1c-0.3-0.9-0.9-1.2-1-2.1c-0.1-0.7,0.2-1.6-0.2-2.2
		s-1-0.4-1.5-0.7c-0.3-0.1-1.6-0.9-1.6-1.1c0.2-0.1,0.5-0.2,0.4-0.5c0-0.1-0.2-0.2-0.3-0.3c-0.2-0.3,0.1-0.7,0.4-1
		c0.3-0.3,0.7-0.6,0.6-0.9c0-0.1-0.1-0.2-0.1-0.3c0-0.2,0.3-0.3,0.5-0.3c1.4-0.2,3.2-0.2,4.5-1c0.5-0.3,0.8-0.8,1.3-1.1
		c0.9-0.6,2.2-0.3,3.1-1c0.5-0.4,0.8-1.2,1.5-1.5c0.4-0.2,1-0.1,1.4-0.4c0.6-0.4,0.7-1.3,1.3-1.6c0.3-0.2,0.7-0.2,0.9-0.5
		c0.1-0.3-0.1-0.6,0-0.8c0.2-0.5,0.9-0.3,1.1-0.8c0.3-0.6-0.3-1.4-0.2-2c0.1-1.4,1.5-2.4,2.5-3.3c1-1,2-2,2.9-3.1
		c0.1-0.1,0.1-0.1,0.1-0.2c0.1-0.3-0.4-0.4-0.7-0.4c-1.8,0.2-3.4,1-5.2,1.3c-0.9,0.2-3.5,0-3.5,1.4c0,0.5,0.4,0.9,0.2,1.4
		c-0.1,0.5-0.7,0.6-1.1,0.7c-1.1,0.1-2.2,0.1-3.2,0.2c-0.8,0.1-1.6,0.5-2.2,1.1c-0.6,1,0.3,0.8,0.2,1.7c0,0.4-0.6,0.4-1,0.4
		c-1.2,0.1-2.3,0.5-3.3,1.1c-0.4,0.2-0.7,0.4-0.9,0.7c-0.2,0.3-0.1,0.8,0.2,1c-0.3,0.3-0.6,0.5-1,0.6c-0.5,0.1-0.9,0.1-1.4,0
		c-0.8,0-1.8,0-2.2,0.8c-0.1,0.4-0.2,0.9-0.2,1.3C27.7,21.5,27.4,22,27,22l0.9,2.4c0.1,0.3,0.2,0.6,0.1,0.9
		c-0.2,0.5-0.8,0.6-1.3,0.6h-1.6c-0.4,0-0.7,0-1.1-0.1c-0.4-0.1-0.7-0.4-0.8-0.7c-0.1-0.3,0-0.7-0.1-1.1c-0.3-0.5-1.1-0.5-1.3-1
		c-0.2-0.4,0.2-0.9,0.6-1.1c0.6-0.4,1.2-0.6,1.7-1c0.9-0.6,2-1.9,0.6-2.7c-1-0.5-1.9,0.9-2.8,0.2c-0.8-0.6-0.3-1.9-0.9-2.6
		c-0.3-0.3-0.8-0.4-1-0.7c-0.6-0.9-1.2-1.8-1.7-2.8c-0.2-0.3-0.3-0.6-0.2-0.9c0.1-0.4,0.7-0.6,0.8-1c0.1-0.3,0-0.7-0.3-1
		c-0.2-0.3-0.5-0.5-0.7-0.8C16.7,7,17.4,5.3,16.7,4c-0.9-1.3-2.5-1.9-4.1-1.5c0,0,1.1,2,1.1,2.2C13.7,6.5,10.2,8.1,11,9.5z"/>
	<path class="st3" d="M13.9,25.2c-0.7,0.8-1.7,0.9-2.6-0.3c-0.9-1.2-1.7-4.7-1.4-6.2c0.7-2.7,3.5,0.4,4.4,1.7
		c0.3,0.4,0.6,0.9,0.7,1.5c0,0.5,0,1.1-0.2,1.6C14.7,24.1,14.4,24.7,13.9,25.2z"/>
	<path class="st3" d="M41.2,21.3c0.4,0,0.7,0.3,0.8,0.7c0.8,1.7,0.7,3.7-0.3,5.2c-1.1,1.6-3.1,2.1-4.9,1.3
		C31.4,25.5,36.8,20.4,41.2,21.3z"/>
	<path class="st5" d="M16,31.9c-0.2,0.2-0.4,0.4-0.5,0.7c-0.2,0.6-0.1,1.2,0.1,1.8c0.3,1.1,0.8,2.2,1.4,3.2c0.4,0.8,1.1,1.5,1.9,1.8
		c0.5,0.1,1,0,1.4-0.2c1-0.2,2-0.7,2.9-1.2c1-0.7,1.6-1.7,1.7-2.9c0.1-2-2.1-5.2-3.7-5.9C19.2,28.2,17.4,30.4,16,31.9z"/>
	<path class="st3" d="M19.7,36.3L19.7,36.3c0.9-0.3,5.2-1.8,4.5,0.3c-0.5,1.7-3,2.8-4.4,3c-0.4,0.1-0.8,0.1-1.2,0
		c-0.7-0.3-1.2-0.8-1.6-1.4c-0.7-1-2.9-4.4-0.7-4.8c0.8-0.2,1.3,0.5,1.7,1.2C18.6,35.7,18.6,35.9,19.7,36.3z"/>
	<path class="st6" d="M13.4,2.5c-1.2-1.1-2.6-1.9-4.2-2.2C7.8-0.2,6.2,0,5,0.9S3.5,3.5,3.4,5c-0.3,3-0.2,6.3,1.5,9
		c0.1,0.2,0.2,0.3,0.4,0.4c0.2,0.1,0.4,0.1,0.5,0c1.2-0.2,2.3-0.5,3.3-1c1.4-0.6,2.7-1.5,3.9-2.6c1.1-1.1,1.9-2.6,2.3-4.1
		C15.5,5.2,14.5,3.5,13.4,2.5z"/>
	<path class="st6" d="M51.3,7.4c2.5-1.1,5.4-1,7.9,0.2c0.4,0.2,0.7,0.5,0.9,0.8c0.1,0.6,0.2,1.2,0.1,1.7l-0.5,5.1
		c0,0.8-0.2,1.5-0.5,2.3c-0.4,0.6-0.9,1.1-1.5,1.5c-2,1.2-4.4,1.3-6.6,0.4c-2.1-0.9-3.8-2.6-4.7-4.7c-0.3-0.6-1.2-1.6-1.3-2.2
		c-0.2-0.9,0.9-1.5,1.5-2.1C48,9.2,49.6,8.2,51.3,7.4z"/>
	<circle class="st7" cx="43.7" cy="22.3" r="1.6"/>
	<circle class="st7" cx="54.3" cy="19.4" r="0.9"/>
	<circle class="st8" cx="9.4" cy="25.8" r="1.6"/>
	<circle class="st8" cx="5.7" cy="22.8" r="0.8"/>
	<circle class="st7" cx="8.2" cy="18" r="1.4"/>
	<circle class="st7" cx="10.6" cy="10.6" r="1.4"/>
	<circle class="st8" cx="45.4" cy="29.7" r="1.6"/>
	<circle class="st8" cx="50.9" cy="21.9" r="1.6"/>
	<circle class="st8" cx="46.1" cy="15.7" r="0.9"/>
</g>
</svg>
