<?xml version="1.0" encoding="utf-8"?>
<!-- Generator: Adobe Illustrator 25.0.0, SVG Export Plug-In . SVG Version: 6.00 Build 0)  -->
<svg version="1.1" id="Layer_1" xmlns="http://www.w3.org/2000/svg" xmlns:xlink="http://www.w3.org/1999/xlink" x="0px" y="0px"
	 viewBox="0 0 62.7 79.9" style="enable-background:new 0 0 62.7 79.9;" xml:space="preserve">
<style type="text/css">
	.st0{fill:#8EF4C0;}
	.st1{fill:#CA9E67;}
	.st2{fill:#936037;}
	.st3{fill:#BC9566;}
	.st4{clip-path:url(#SVGID_2_);}
	.st5{fill:#AD815C;}
	.st6{fill:#CBBBA0;}
	.st7{fill:#7B6A58;}
	.st8{fill:#D3AC79;}
	.st9{fill:#3C3C3B;}
</style>
<g id="Layer_4">
	<polygon class="st0" points="50.5,6.6 57.2,5.3 57.2,12.9 	"/>
	<path class="st1" d="M63.5,26.3c0.8-0.6,2-0.5,2.8-1.2c0.8-0.7,1.3-1.6,1.6-2.7c0.3-1.4,0.9-2.8,1.7-4.1c0.4-0.5,1-1.1,0.8-1.8
		c-0.1-0.6-0.9-1-0.9-1.7c0-0.7,0.9-1,1-1.6c0.1-0.4,0-0.9-0.2-1.3l-0.8-1.8c-0.1-0.2-0.2-0.4-0.2-0.6c0.1-0.8,1.4-1,1.3-1.7
		c0-0.4-0.5-0.7-1-0.7c-0.1,0-0.2,0-0.3-0.1s0.1-0.2,0.1-0.1c-1.2-0.1-2.3,0.3-3.2,1.1c-3.4,2.5-6.8,4.9-7.8,9.5
		c-0.6,3.2-0.1,8.4,2.7,10.4c0.1,0.1,0.2,0.1,0.4,0.2c0.2,0,0.3-0.1,0.4-0.2C62.8,27.5,63,26.7,63.5,26.3z"/>
	<path class="st2" d="M64.2,25.2c0.4-1.1,0.8-2.1,1.4-3.1c0.6-0.7,1.1-1.4,1.6-2.1c0.3-0.7,0.4-1.7-0.3-2c0.5-0.2,0.6-0.8,0.5-1.3
		c-0.1-0.5-0.2-1,0-1.5c0.1-0.2,0.2-0.4,0.3-0.5c0.2-0.5,0.2-1-0.1-1.5c-0.1-0.1-0.1-0.2-0.2-0.2c-0.3-0.1-0.5,0.2-0.6,0.5
		c-1,2.3-1.8,4.8-2.3,7.3C64.2,21.9,64.6,24.2,64.2,25.2z"/>
	<path class="st3" d="M62,15.5c0-1,0.5-2.9,0.1-3.6c-2.6,3.3-6.2,8.2-4.5,12.7c0.4,1.1,3,5.9,4.3,5.3c0.6-0.3,1-2.7,1-3.2
		c0-1.2-0.7-2.1-1.1-3.1c-0.5-1.2-1.1-2.7-0.4-3.9c0.4-0.7,1.2-1.3,1-2c-0.1-0.3-0.2-0.5-0.3-0.8C62,16.4,62,15.9,62,15.5z"/>
	<path class="st1" d="M22.2,0.7c-1.1,1-1.8,2.3-1.9,3.7c-0.2,1.4-0.1,2.8,0.1,4.2c0.2,2,0.7,4,1.6,5.8c0.2,0.5,0.6,0.8,1,1.1
		c0.6,0.2,1.3,0.1,1.8-0.2c1.2-0.5,2.4-1.2,3.4-2.1c0.2-0.2,0.4-0.1,0.3-0.3C27.3,8.9,23.5,4.6,22.2,0.7z"/>
	<path class="st2" d="M22.4,0.4c-0.5,4.6,0.9,9.1,3.8,12.7c0.2,0.2,0.5,0.5,0.8,0.4c0.1-0.1,0.3-0.2,0.3-0.4c0.5-1,2-3,1.9-4.2
		c-0.1-1.1-1.3-1.5-2.1-2.1C25.7,5.8,22.1,2.4,22.4,0.4z"/>
	<path class="st1" d="M44.2,4.3c-1.5-0.6-3.1-0.9-4.7-1c-0.7,0-1.4,0.1-2.1,0.4c-0.5,0.2-0.9,0.4-1.4,0.7c-2.3,1.4-5.7,2.4-7.6,4.3
		c-2.3,2.3-3,6-5.4,8.4c-1.8,1.7-4.1,2.7-6.1,3.9s-4.1,3-4.6,5.4l5.2,2.3c0,0-1.5,2.9-1.7,3.1c-0.4,0.8-1.1,1.3-1.9,1.6
		c-1.8,1-3,2.8-4.2,4.4C7.3,41.1,1.6,45,2.1,49.7c0.1,0.9,0.4,1.8,0.8,2.7l2.8,7c-3.7,0.6-5.6,4.9-5.7,8.6c-0.2,2.1,0.3,4.2,1.4,6
		c1.2,1.8,3.4,2.6,5.4,2c2.1,2,4.6,4.2,7.5,3.9c1.2-0.2,2.3-0.5,3.4-0.9c1.8-0.4,3.6-0.9,5.3-1.4c4.9-2.2,6.6-8.2,9.8-12.4
		c0.3-0.5,0.7-0.9,1.2-1.1c1-0.3,2-0.3,2.9,0c4.6,0.7,8.8-1.8,13.3-1.5c0.5,0,1-0.1,1.5-0.3c3.1-1.4,5.5-4.1,6.5-7.3
		c1.4-4.1,0.1-8.8,2-12.7c0.8-1.7,2.1-3.3,2.4-5.1c0.5-2.3-0.4-4.5-1.1-6.6c-0.6-2.1-2.1-3.8-2.6-5.9c-0.3-1.8-0.4-3.6-0.3-5.5
		c-0.1-4.9-3.7-10.6-8.3-12.3l-5.2-1.9C45,4.5,44.6,4.4,44.2,4.3z"/>
	<g>
		<defs>
			<path id="SVGID_1_" d="M44.2,4.3c-1.5-0.6-3.1-0.9-4.7-1c-0.7,0-1.4,0.1-2.1,0.4c-0.5,0.2-0.9,0.4-1.4,0.7
				c-2.3,1.4-5.7,2.4-7.6,4.3c-2.3,2.3-3,6-5.4,8.4c-1.8,1.7-4.1,2.7-6.1,3.9s-4.1,3-4.6,5.4l5.2,2.3c0,0-1.5,2.9-1.7,3.1
				c-0.4,0.8-1.1,1.3-1.9,1.6c-1.8,1-3,2.8-4.2,4.4C7.3,41.1,1.6,45,2.1,49.7c0.1,0.9,0.4,1.8,0.8,2.7l2.8,7
				c-3.7,0.6-5.6,4.9-5.7,8.6c-0.2,2.1,0.3,4.2,1.4,6c1.2,1.8,3.4,2.6,5.4,2c2.1,2,4.6,4.2,7.5,3.9c1.2-0.2,2.3-0.5,3.4-0.9
				c1.8-0.4,3.6-0.9,5.3-1.4c4.9-2.2,6.6-8.2,9.8-12.4c0.3-0.5,0.7-0.9,1.2-1.1c1-0.3,2-0.3,2.9,0c4.6,0.7,8.8-1.8,13.3-1.5
				c0.5,0,1-0.1,1.5-0.3c3.1-1.4,5.5-4.1,6.5-7.3c1.4-4.1,0.1-8.8,2-12.7c0.8-1.7,2.1-3.3,2.4-5.1c0.5-2.3-0.4-4.5-1.1-6.6
				c-0.6-2.1-2.1-3.8-2.6-5.9c-0.3-1.8-0.4-3.6-0.3-5.5c-0.1-4.9-3.7-10.6-8.3-12.3l-5.2-1.9C45,4.5,44.6,4.4,44.2,4.3z"/>
		</defs>
		<clipPath id="SVGID_2_">
			<use xlink:href="#SVGID_1_"  style="overflow:visible;"/>
		</clipPath>
		<g class="st4">
			<path class="st5" d="M23.3,18.5c-1.8-0.4-3.6-0.3-5.3,0.3c-2.1,0.6-4,2-5.3,3.8C12.3,23.3,12,24,12,24.8c0,1.8,1.6,3.2,3.1,4.1
				c0.6,0.4,1.2,0.7,1.9,0.8c0.7,0,1.5-0.2,2.1-0.5c2.4-1,5.8-2.5,7.4-4.8C28.1,22,25.5,19.2,23.3,18.5z"/>
			<path class="st6" d="M41.1,33.9c0.5-2.5,1.7-4.9,3.4-6.8c1.8-1.9,4.2-3,6.8-3.2c2.6-0.1,5.1,1.2,6.6,3.3c0.5,0.7,0.8,1.5,1.1,2.4
				c0.4,0.7,0.4,1.5,0.1,2.3c-0.5,0.7-1.4,1.2-2.3,1.3l-5.6,1.2c-1.6,0.5-3.3,0.6-4.9,0.3c-1.7-0.3-3-1.6-3.4-3.2"/>
			<path class="st6" d="M31.4,59.6c-0.4,0.6-0.7,1.2-0.8,1.9c-2.2,7.1-8.1,12.4-15.4,13.9c-1.4,0.4-3,0.3-4.4-0.3
				c-1.6-0.8-2.6-2.5-3.4-4.1c-0.4,1.2-1,2.6-2.2,2.6c-1.2,0.1-2-1.2-2.4-2.4c-1.2-3.6-1.2-7.5,0.1-11.1c-2.2,1.1-3.8,3.3-4.3,5.7
				c-0.2,1.5-0.2,3.1,0,4.6c0,1.9,0.4,3.7,1.1,5.4c1.2,2,3.4,3.2,5.7,3c0.5-0.1,1-0.1,1.4,0.2c0.1,0.1,0.3,0.3,0.3,0.5
				C8.6,82,11,83.6,13.7,84c2.7,0.4,5.4,0.3,8-0.3c1.8-0.3,3.5-0.9,5.2-1.6c3.3-1.6,5.9-4.5,7.1-8c1.2-3.3,0.4-6.2,0.3-9.6
				C34.2,63.3,34,56.6,31.4,59.6z"/>
			<path class="st7" d="M6.4,64.3C6.3,65.2,5.6,76,5.3,75.9c-1.4-0.4-2.7-1.3-3.4-2.6c-0.8-1.2-1.4-2.6-1.9-4c0,1.4,0.3,2.9,0.8,4.2
				c0.5,1.4,1.5,2.5,2.9,3c1.3,0.4,2.7,0.1,4,0.5c0.4,0.1,0.7,0.3,1.1,0.5c2.2,0.8,4.5,1.1,6.8,0.8c1.3,0,2.5-0.2,3.7-0.6
				c1.7-0.6,3.2-1.6,4.5-2.8c1.7-1.5,3.1-3.1,4.3-5c0.9-1.3,2.5-3.5,2.4-5.2c-1.1,1.6-1.7,3.6-2.8,5.3c-2,3.1-5,5.4-8.5,6.5
				c-3.5,1.1-7.2,1.1-10.8,0.1c-2.3-0.7-2.4-2.7-2.3-4.8c0.1-2.8,0.3-5.7,0.6-8.5"/>
			<path class="st7" d="M28.6,66.6c0.3-2.7,1.2-5.3,2.5-7.6c0.4-0.8,1-1.5,1.8-1.9c1.3-0.5,0.9,0.5,0.2,1.1
				c-0.3,0.2-0.5,0.5-0.7,0.7C30.4,60.9,29.6,63.7,28.6,66.6z"/>
			<path class="st7" d="M37.7,61.8c4.3,0,8.6-0.7,12.8-2c-1.7,0.8-3.4,1.5-5.2,2c-0.8,0.2-1.5,0.3-2.3,0.4l-3.5,0.5
				c-1,0.2-2,0.3-3.1,0.3c-0.8,0-2.7-0.5-2.5-1.6C35.2,61.6,36.4,61.8,37.7,61.8z"/>
			<path class="st2" d="M42.3,31.8c1.8-1.7,4.1-2.8,6.5-3c2.4-0.2,4.9,0,7.2,0.8c1.3,0.4,2.9,1.2,3,2.6c0,0.9-0.4,1.7-1.1,2.2
				c-1.4,1.2-3.3,1.4-5.1,1.6c-1.8,0.2-3.7,0.6-5.4,1.2c-1,0.4-2.1,1.2-3.3,1.2C40,38.4,40.1,33.9,42.3,31.8z"/>
			<path class="st8" d="M27.2,15.3c0.6,4.1-0.2,8.2-2.3,11.7c-0.2,0.3-0.5,0.6-0.7,0.4c-0.1-0.1-0.1-0.1-0.2-0.2
				c-1-2.1-2.3-5.5-1.9-7.9c0.2-1,0.8-1.9,1.6-2.5C24.2,16.4,27,13.8,27.2,15.3z"/>
			<path class="st3" d="M14.5,33.4c2.1-2.7,4.4-5.4,7.5-6.8c1.5-0.7,3.4-1.1,4.4-2.5c0.3-0.4,0.5-0.8,0.8-1.2
				c0.3-0.4,0.8-0.6,1.3-0.5c0.7,0.2,0.8,1.2,0.8,1.9c0,1.2,0.2,2.4,0.6,3.6c0.4,0.9,0.9,1.7,1.3,2.5c1.1,2.5,1.7,5.2,1.8,7.9
				c0.2,3.5-0.2,7.2-2.4,9.9c-0.4,0.4-0.8,0.9-1.1,1.4c-0.3,0.5-0.6,1.1-0.8,1.6c-0.8,1.8-1.8,3.5-3.1,5c-0.2,0.3-0.5,0.5-0.8,0.7
				c-0.3,0.1-0.6,0.2-1,0.2L17,57.2l-2.3,0.1c-2.6,0.2-5.3,0.1-7.9-0.2c-0.8,0-1.5-0.3-2.1-0.9C4.2,55.6,4,54.8,4.1,54
				c-0.1-1.9-0.7-3.7-1.6-5.3c-0.3-0.4-0.5-0.8-0.6-1.3c0-0.8,0.2-1.7,0.7-2.3c2.4-4.4,3.8-9.2,4.3-14.1c0-0.6,0.2-1.3,0.7-1.5
				c0.4-0.1,0.8,0,1.2,0.2c1.1,0.7,1.7,1.9,2.7,2.7c1.4,1,3.4,1,4.8-0.1"/>
		</g>
	</g>
	<path class="st9" d="M44.2,36.8c-0.1,0.1-0.2,0.3-0.2,0.5c0.1,0.1,0.2,0.3,0.3,0.3c2.2,1.3,4.8,1.5,7.2,0.7
		c3.1-1.1,6.3-4.3,1.7-5.7C49.5,31.6,46.3,33.8,44.2,36.8z"/>
	<path class="st9" d="M12.1,26.8c0.5,0.5,0.9,2.8,1.3,3.5c0.4,1.1,1,2.1,1.6,3c0.9-1.6,2.1-3.1,3.6-4.2c-1.1-0.3-1.9-1-3-1.4
		C15.3,27.6,12.1,26.8,12.1,26.8z"/>
	<path class="st6" d="M24.6,57.6c0.6-0.8,0.7-2,0.2-2.9c-0.5-0.9-1.3-1.6-2.2-2.1c-4.7-2.4-10.5-1.1-13.6,3.2c-1-3.6-2.4-7.6-5.8-9
		c-1.6,3.5,0.1,7.5,1.7,10.9c0.7,1.3,1.5,2.8,3,3c-0.8-0.2-1.4-0.7-1.7-1.5c1,5.7-1.7,12.2,1.2,17.2c-0.2-3.7-0.2-7.5-0.1-11.2
		C7.3,64,7.5,62.8,8,61.7c0.8-1.7,2.7-2.6,4.6-3.1c3.4-1,7-1,10.4-0.2c-0.2-0.2-0.3-0.3-0.6-0.5C23.1,58.4,24.1,58.2,24.6,57.6z"/>
	<path class="st2" d="M13.3,59.4c0.4-0.5,4.8-0.1,5.7-0.2c1.4-0.2,3.4-0.2,4.6-0.9C21.4,55.2,15.3,57.2,13.3,59.4z"/>
	<path class="st3" d="M52.6,53.7c-0.1,1-0.6,1.9-1.3,2.6c-0.5,0.4-1,0.7-1.6,0.9c-2.5,1-5.2,1.6-8,1.5c-0.3,0-0.5,0-0.8-0.2
		c-0.6-0.4-0.3-1.3,0.2-1.8c1-1.2,2.5-1.9,3.8-2.8c1.2-0.9,2.3-2,3-3.3c0.6-1.1,2-4.6,3.7-3.1C53.1,48.8,52.9,52.2,52.6,53.7z"/>
	<path class="st6" d="M31.2,47c0.9,0.2,1.4,1,1.3,1.9c-0.1,0.8-0.4,1.6-0.9,2.3c-2,3.5-3.2,7.3-3.6,11.3c0,0.2-0.1,0.5-0.3,0.5
		c-0.2,0-0.4-0.2-0.5-0.4c-1-3.2-1.1-6.6-0.4-9.8c0.2-1,0.5-1.9,0.9-2.8c0.5-0.9,1.3-1.5,2.2-1.9"/>
	<path class="st8" d="M49.4,54.6c-0.6,0.6-1.3,1.1-2.1,1.4c-1.6,0.8-3.2,1.6-4.9,2.3c-0.6,0.4-1.4,0.5-2.1,0.4
		c-1-0.4-1.6-1.5-1.4-2.6c0.3-1,0.9-2,1.7-2.6c1.9-1.7,4.2-3,5.3-5.3c0.5-1,0.9-2.5,2-3.1c0.9-0.6,2.1-0.3,2.7,0.7
		c0.1,0.1,0.1,0.2,0.1,0.3c0.3,1-0.1,2.5-0.2,3.5C50.6,51.2,50.5,53.2,49.4,54.6z"/>
	<path class="st0" d="M29.1,19.2l-0.5-7.1l5.7,2.7C34.4,14.8,31.2,19,29.1,19.2z"/>
	<path class="st0" d="M36.1,12.9l-1-6.7l6.1,2C41.3,8.2,38.1,12.7,36.1,12.9z"/>
	<path class="st0" d="M42.6,6.6L44.5,0c0,0,4.5,5.8,4.1,6.2S43.3,6.5,42.6,6.6z"/>
</g>
</svg>
