<?xml version="1.0" encoding="utf-8"?>
<!-- Generator: Adobe Illustrator 25.0.0, SVG Export Plug-In . SVG Version: 6.00 Build 0)  -->
<svg version="1.1" id="Layer_1" xmlns="http://www.w3.org/2000/svg" xmlns:xlink="http://www.w3.org/1999/xlink" x="0px" y="0px"
	 viewBox="0 0 57.2 74.2" style="enable-background:new 0 0 57.2 74.2;" xml:space="preserve">
<style type="text/css">
	.st0{fill:#F9B233;}
	.st1{fill:#EDEDED;}
	.st2{fill:#F39200;}
	.st3{fill:#3C3C3B;}
	.st4{fill:none;stroke:#F39200;stroke-linecap:round;stroke-linejoin:round;}
	.st5{fill:#FFC397;}
	.st6{fill:none;stroke:#F39200;stroke-miterlimit:10;}
	.st7{fill:#706F6F;}
	.st8{fill:#5E9E7B;}
	.st9{clip-path:url(#SVGID_2_);}
	.st10{fill:#8EF4C0;}
</style>
<g id="Layer_4">
	<path class="st0" d="M7.9,64.2c-0.5,3.2,2.2,6.3,4.7,7.9c4.4,3,9,2,13.9,1c1.8-0.3,3.6-0.8,5.4-1.4c2.8-1,5.2-2.8,8-3.8
		c2.8-1.1,6-1.3,8.7-2.8c1.2-0.7,2.3-1.6,3.3-2.5c6.1-5.6,10.2-13,11.6-21.2c1-6,0.7-12.4,0.3-18.5c-0.1-2.1,0.9-3.5,1.5-5.6
		c0.5-2.1,0.8-4.2,0.9-6.3c0.2-1.5,0-3-0.4-4.5c-0.1-0.3-0.2-0.5-0.4-0.7c-0.2-0.1-0.4-0.2-0.7-0.2C60.8,5.5,57,6.3,53.7,8.1
		c-3.2,1.6-8.1,7-11.7,5.8c-0.7-0.3-1.4-0.6-2-1c-1.6-0.8-3.4-1.2-5.2-1.3c-2.4-0.3-4.9-1-7.3-0.6c-1.9,0.3-2.9,0.7-4.9-0.2
		c-3.8-1.7-6.3-5.3-9.8-7.4C9,1,4.5-0.4,0.1,0.2c-0.4,5.1,0,10.2,1.4,15.1c1.2,4.5,4.7,8.8,4.2,13.5c-0.4,3.7-1.9,7.2-1.5,10.9
		c0.5,3.7,0.2,7.3,0.8,11c0.2,1.6,0.7,3.1,1.4,4.5c0.7,1.4,2.3,2.4,2.6,4C9.3,60.8,8.2,62.6,7.9,64.2z"/>
	<path class="st1" d="M37.5,57.1c2.7-1,5.6-1.6,8.4-1.8c2.9-0.1,5.8,0.9,8,2.8c0.2,0.2,0.3,0.3,0.4,0.6c0.7,1.5-3.2,4.2-4.2,5
		c-0.6,0.6-1.3,1.2-2.1,1.7c-1.3,0.8-2.8,1.3-4.3,1.6c-2,0.5-4.5,0.7-6.4,1.6c-1.7,0.8-3.1,2.3-4.8,3.2c-3.4,1.8-7.2,2.6-11,2.2
		c-1.8-0.1-3.6-0.3-5.4-0.5c0.6,0.1,2.5-1.6,3.1-1.9c1.1-0.6,2.3-1.1,3.4-1.8c2.6-1.4,3.9-3.7,5.1-6.4c0.7-1.5,2.5-2.6,3.8-3.8
		C33.2,58.4,35.6,57.8,37.5,57.1z"/>
	<path class="st2" d="M22.2,70.6c-2,3.3-6.3,4.4-9.6,2.5c-0.7-0.4-1.4-1-1.9-1.7c2.4,0.5,4.8,0.6,7.2,0.3c0.6-0.1,1.2-0.3,1.8-0.4
		C20.4,71.1,21.4,70.9,22.2,70.6z"/>
	<path class="st3" d="M10.2,36.6c0.5-0.5,1.3-0.2,1.8,0.2c1.5,1.2,2.7,2.7,3.4,4.5c0.5,1,0.5,2.1,0,3c-0.9,1.3-2.9,1-4-0.1
		c-0.9-1.2-1.4-2.7-1.3-4.3c-0.1-0.9,0-1.8,0.3-2.7"/>
	<path class="st4" d="M39.3,39.1c-3.9,2.2-9.9,6.8-9.8,11.7c0,1.5,0.4,2.9,0.4,4.4c0.1,4.8-2.2,10.9-5.9,14
		c-3.9,3.1-9.2,3.8-13.7,1.7C9.4,70.5,8.6,69.8,8,69c-0.5-1.1-0.7-2.4-0.4-3.6c1.3-8.2,7.8-14.9,7.8-23.4c0-1.3-0.4-2.5-1.1-3.6
		c-1.3-2.2-3.7-2.6-5.9-3.2"/>
	<path class="st3" d="M16.1,67.3c-0.6-1.2-1.6-2.1-2.8-2.6c-1.3-0.7-2.9-0.8-4.4-0.4c-1.5,0.5-2.4,2-2.1,3.5
		c0.5,1.3,1.5,2.2,2.8,2.6c1.3,0.7,2.9,0.8,4.3,0.5c1.5-0.4,2.5-1.8,2.3-3.3"/>
	<path class="st4" d="M19,72.6c1.3-0.3,3-0.7,3.7-1.9c0.6-0.8,1.2-1.5,2-2c1.6-1.3,3.4-2.4,5.3-3.3"/>
	<path class="st5" d="M16.4,20.2l-8.9,5.5c-0.3,0.2-0.6,0.3-1,0.4c-0.8,0-1.2-0.8-1.6-1.5C3.4,21,2.1,17.2,1.2,13.3
		C0.1,9.1,0.4,4.9-0.2,0.6c0.1,0.8,5.8,4,6.7,4.7C11.3,9.2,14.8,14.4,16.4,20.2z"/>
	<path class="st5" d="M64,8.2c0.4-0.3,0.9-0.4,1.3-0.3c0.5,0.2,0.6,0.8,0.7,1.3c0.6,4.2,0.1,8.4-1.3,12.4c-0.2,0.6-0.5,1.2-0.9,1.7
		c-0.8,0.8-2,1-2.9,1.7c-1.2,0.9-1.7,2.7-3.2,3c-1,0.1-2.1-0.4-2.7-1.2c-0.6-0.8-1.4-1.5-2.2-2.2c-1.5-0.9-4.4-0.8-4.5-3.1
		c-0.1-1.9,2.8-3.9,4.1-5C55.9,13.4,59.8,10.6,64,8.2z"/>
	<path class="st6" d="M40.7,44.6c1.3,0.7,2,2.2,2.7,3.5s1.7,2.7,3.1,3l-0.2,0.5"/>
	<path class="st3" d="M39.4,43.5c1.1,0.1,2.1,0.8,2.6,1.7c0.1,0.2,0.1,0.4,0.2,0.6c0,0.9-0.4,1.7-1.2,2.2c-2.6,1.7-7.4,1.9-9.4-0.7
		c-0.5,0.8-1.2,1.5-2,1.9c0.8-1.6,2-3.1,3.3-4.3C34.8,43.7,37.1,43.2,39.4,43.5z"/>
	<path class="st1" d="M11.3,53.9c0.4,0.4,0.4,1,0.1,1.4C10.9,56.1,9,58.9,9,59.8c-0.3-1.3-0.9-2.5-1.8-3.4c-1.9-2.6-2.8-5.8-2.7-9
		c1.8,0.9,3,1,4.3,2.7C9.7,51.3,10.5,52.6,11.3,53.9z"/>
	<path class="st7" d="M11.7,37.4c-0.4,1.2-0.6,2.4-0.8,3.7c-0.1,0.2,0,0.4,0.1,0.6c0.2,0.1,0.5,0.1,0.6-0.1c0.1-0.2,0.2-0.4,0.2-0.7
		l0.3-2.8"/>
	<path class="st7" d="M40.2,45.3l-0.4,1.4c-0.1,0.2-0.1,0.5-0.1,0.7c0,0.2,0.2,0.5,0.4,0.6c0.6-0.2,1-0.7,1.2-1.3
		c0.1-0.6-0.3-1.3-0.9-1.2"/>
	<path class="st8" d="M22.6,25.5c-0.2-0.1-0.7-0.1-0.8-0.3c-0.4-0.7-0.5-1.5-0.2-2.3c0.1-0.2,0.1-0.5,0.1-0.7
		c-0.1-0.2-0.2-0.4-0.4-0.6c-0.6-0.9-0.3-2.2,0.1-3.3c-0.6-0.1-1.1-0.5-1.2-1.1c-0.2-0.9,0.6-1.2,0.7-1.9c0-0.7-0.1-1.3-0.3-2
		c-0.2-1.2-1.2-3.3-0.1-4.3c-1.1-1.1-1-2.9-0.7-4.4C20,3.1,20.5,1.4,19.8,0c0.5,1.2,1.2,2.2,2,3.2c0.7,0.8,1.9,1,1.4,2.5
		c0.6-0.1,1.3,0.1,1.8,0.4c0.5,0.5,0.3,1.3,0.7,1.9c0.7,1,1.9,0.7,1.7,2.3c0.4,0.1,0.7,0.3,0.9,0.6c0.2,0.4,0.1,0.8-0.1,1.1
		c0.2-0.3,1.3,0.9,1.4,1c0.3,0.5,0.1,1.2,0.2,1.8c0.2,0.7,0.6,1.1,0.8,1.8c0.2,0.6-0.1,1.4,0.3,2c0.6,1.1,2,1,1.2,2.7
		c0.6-0.1,0.9,0.5,1.1,1.1c0.2,0.7,0.4,1.4,0.6,2.2c0.4,1.8-5.2,4.1-6.3,4.3c-0.3,0.1-4.8-0.3-4.7-0.8c0.3-0.8,0.2-1.7-0.2-2.5
		C22.7,25.5,22.6,25.5,22.6,25.5z"/>
	<g>
		<defs>
			<path id="SVGID_1_" d="M22.6,25.5c-0.2-0.1-0.7-0.1-0.8-0.3c-0.4-0.7-0.5-1.5-0.2-2.3c0.1-0.2,0.1-0.5,0.1-0.7
				c-0.1-0.2-0.2-0.4-0.4-0.6c-0.6-0.9-0.3-2.2,0.1-3.3c-0.6-0.1-1.1-0.5-1.2-1.1c-0.2-0.9,0.6-1.2,0.7-1.9c0-0.7-0.1-1.3-0.3-2
				c-0.2-1.2-1.2-3.3-0.1-4.3c-1.1-1.1-1-2.9-0.7-4.4C20,3.1,20.5,1.4,19.8,0c0.5,1.2,1.2,2.2,2,3.2c0.7,0.8,1.9,1,1.4,2.5
				c0.6-0.1,1.3,0.1,1.8,0.4c0.5,0.5,0.3,1.3,0.7,1.9c0.7,1,1.9,0.7,1.7,2.3c0.4,0.1,0.7,0.3,0.9,0.6c0.2,0.4,0.1,0.8-0.1,1.1
				c0.2-0.3,1.3,0.9,1.4,1c0.3,0.5,0.1,1.2,0.2,1.8c0.2,0.7,0.6,1.1,0.8,1.8c0.2,0.6-0.1,1.4,0.3,2c0.6,1.1,2,1,1.2,2.7
				c0.6-0.1,0.9,0.5,1.1,1.1c0.2,0.7,0.4,1.4,0.6,2.2c0.4,1.8-5.2,4.1-6.3,4.3c-0.3,0.1-4.8-0.3-4.7-0.8c0.3-0.8,0.2-1.7-0.2-2.5
				C22.7,25.5,22.6,25.5,22.6,25.5z"/>
		</defs>
		<clipPath id="SVGID_2_">
			<use xlink:href="#SVGID_1_"  style="overflow:visible;"/>
		</clipPath>
		<g class="st9">
			<path class="st10" d="M21.3,8.9c1.2,0.2,2.3,0,3.4-0.6c-0.2,1.9-1.6,3.5-3.6,3.7c1.5,0.4,3,0.2,4.4-0.4c-0.2,2-1.6,3.7-3.6,4.1
				c1.6,0.7,3.4,0.7,5-0.1c0.1,1-0.4,2-1.2,2.6c-0.9,0.5-1.8,0.9-2.8,1c1.8,0.8,3.8,0.9,5.7,0.5c-0.5,1.9-2.3,3.2-4.2,3.1
				c1.6,0.6,3.4,0.7,5.1,0.3c-1,1.8-3.4,2.3-5.4,2.6c2.8,0.9,5.9,0.3,8.2-1.6c0.9,1.7,0.6,3.8-0.7,5.1c-1.4,1.3-3.1,2.2-4.9,2.5
				c-2.4,0.6-5.2,0.8-7.1-0.8c-1.8-1.5-2.2-4-2.1-6.3c0.1-3.7,1.2-7.4,0.3-11c-0.5-1.9-1-3.7-0.2-5.5c1-1.8,1.9-3.7,2.5-5.7
				c0.6,1.7-0.1,5.8,2.6,4.8C22.6,7.8,22.1,8.5,21.3,8.9z"/>
		</g>
	</g>
</g>
</svg>
