<?xml version="1.0" encoding="utf-8"?>
<!-- Generator: Adobe Illustrator 25.0.0, SVG Export Plug-In . SVG Version: 6.00 Build 0)  -->
<svg version="1.1" id="Layer_1" xmlns="http://www.w3.org/2000/svg" xmlns:xlink="http://www.w3.org/1999/xlink" x="0px" y="0px"
	 viewBox="0 0 70.6 88.2" style="enable-background:new 0 0 70.6 88.2;" xml:space="preserve">
<style type="text/css">
	.st0{fill:#D8C4B2;}
	.st1{clip-path:url(#SVGID_2_);}
	.st2{fill:#7A593F;}
	.st3{fill:#D89F6C;}
	.st4{fill:url(#SVGID_3_);}
	.st5{fill:url(#SVGID_4_);}
	.st6{clip-path:url(#SVGID_6_);}
	.st7{fill:#DBB58D;}
	.st8{clip-path:url(#SVGID_8_);}
	.st9{fill:#F4DCC1;}
	.st10{fill:#575756;}
	.st11{fill:none;stroke:#3C3C3B;stroke-width:0.9054;stroke-linecap:round;stroke-linejoin:round;}
	.st12{fill:#3C3C3B;}
	.st13{fill:#1D1D1B;}
	.st14{fill:#706F6F;}
	.st15{fill:#8EF4C0;}
</style>
<g id="Layer_4">
	<path class="st0" d="M97.1,28.8c-0.6,0.8-1.3,1.5-1.8,2.1c-2.7,3.4-5.7,6.6-8.9,9.6c-0.6,0.6-1.3,1.1-2,1.5
		c-1.1,0.5-2.4,0.7-3.6,0.7c-5,0.3-10.2-0.7-14.8,1.6c-0.2,0.2-0.5,0.2-0.8,0.1c-0.2-0.1-0.3-0.3-0.3-0.5c-0.9-3.1-1.3-6.7,1.3-9.1
		c1.7-1.6,3.9-2.4,5.7-3.6c2.5-1.7,4.5-4.1,6.8-6c4.2-3.3,9.4-5,14.8-4.8c1.9,0,4.1-0.3,5.4,1.4C100.6,24.2,98.9,26.7,97.1,28.8z"/>
	<g>
		<defs>
			<path id="SVGID_1_" d="M97.1,28.8c-0.6,0.8-1.3,1.5-1.8,2.1c-2.7,3.4-5.7,6.6-8.9,9.6c-0.6,0.6-1.3,1.1-2,1.5
				c-1.1,0.5-2.4,0.7-3.6,0.7c-5,0.3-10.2-0.7-14.8,1.6c-0.2,0.2-0.5,0.2-0.8,0.1c-0.2-0.1-0.3-0.3-0.3-0.5
				c-0.9-3.1-1.3-6.7,1.3-9.1c1.7-1.6,3.9-2.4,5.7-3.6c2.5-1.7,4.5-4.1,6.8-6c4.2-3.3,9.4-5,14.8-4.8c1.9,0,4.1-0.3,5.4,1.4
				C100.6,24.2,98.9,26.7,97.1,28.8z"/>
		</defs>
		<clipPath id="SVGID_2_">
			<use xlink:href="#SVGID_1_"  style="overflow:visible;"/>
		</clipPath>
		<g class="st1">
			<path class="st2" d="M82.5,26.3c-0.5,0.2-1,0.6-1,1.1c0,0.4,0.3,0.8,0.3,1.2c0,1.2-2.2,0.7-2.8,1.8c-0.5,0.9,0.8,2,0.5,3
				c-0.3,0.9-1.4,1-2.3,1.1c-4.1,0.5-7.2,4.6-11.4,5c-0.4-3.1-0.8-6.5,1-9.1c0.8-1,1.8-1.9,2.9-2.6c3.1-2.2,6.3-4.3,9.6-6.2
				c1.3-0.9,2.8-1.5,4.3-2c3-0.7,6.1-0.8,5.7,2.8C88.9,27.1,85.9,24.7,82.5,26.3z"/>
		</g>
	</g>
	<path class="st3" d="M77.9,22.4c5.3-1.4,10.8-2.3,16.3-2.7c1-0.1,2.3-0.1,2.9,0.7c-5-1-10.1,1.4-14.2,4.4s-7.7,6.8-12.1,9.3
		c-1.1,0.7-2.4,1.2-3.7,1.3c-2,0.1-3.9-1.1-3.9-3.2c0-2,1.9-3.1,3.3-4.2C70,25.5,73.8,23.6,77.9,22.4z"/>
	
		<linearGradient id="SVGID_3_" gradientUnits="userSpaceOnUse" x1="36.1876" y1="62.9962" x2="39.6549" y2="89.0011" gradientTransform="matrix(1 0 0 -1 0 90)">
		<stop  offset="0.3939" style="stop-color:#DADADA"/>
		<stop  offset="0.839" style="stop-color:#4C4A4A"/>
		<stop  offset="0.8996" style="stop-color:#383636"/>
	</linearGradient>
	<path class="st4" d="M31.6,14.2c-0.4-3.1,0.3-6.2,1.9-8.8c0.8-1.2,1.9-2.2,3-3.1c1.5-1.2,3.3-2,5.2-2.3c-3.1,2.7-3.6,7.3-3.2,11.4
		c0.4,3.9,1.7,8,5.1,10c-2.1,0.5-7.8,2.6-9.6,1.4C32.3,21.8,31.8,16.1,31.6,14.2z"/>
	
		<linearGradient id="SVGID_4_" gradientUnits="userSpaceOnUse" x1="-2275.7927" y1="313.7364" x2="-2272.3254" y2="339.7412" gradientTransform="matrix(-0.9765 -0.2158 0.2158 -0.9765 -2229.5828 -152.5154)">
		<stop  offset="0.3939" style="stop-color:#DADADA"/>
		<stop  offset="0.839" style="stop-color:#4C4A4A"/>
		<stop  offset="0.8996" style="stop-color:#383636"/>
	</linearGradient>
	<path class="st5" d="M67.5,20.7c1.1-2.9,1.1-6.1,0-9C67,10.3,66.2,9.1,65.2,8c-1.2-1.5-2.8-2.7-4.6-3.4c2.5,3.3,2,8,0.6,11.9
		c-1.2,3.7-3.4,7.5-7.1,8.7c1.9,0.9,7,4.2,9.1,3.4C65.2,27.9,66.9,22.4,67.5,20.7z"/>
	<path class="st0" d="M0.9,11c0.3,0.9,0.7,1.8,1,2.6c1.4,4.1,3.1,8.2,5.1,12.1c0.3,0.8,0.8,1.5,1.3,2.1c0.9,0.8,2,1.5,3.1,1.9
		c4.6,2,9.8,2.9,13.4,6.6c0.2,0.2,0.4,0.4,0.7,0.4c0.2-0.1,0.4-0.2,0.5-0.4c1.9-2.6,3.5-5.9,2-9c-1-2-2.8-3.6-4.1-5.4
		c-1.8-2.4-2.8-5.4-4.4-7.9C16.6,9.4,12.3,6,7.3,4.3C5.4,3.7,3.5,2.6,1.7,3.8C-0.8,5.5-0.1,8.4,0.9,11z"/>
	<g>
		<defs>
			<path id="SVGID_5_" d="M0.9,11c0.3,0.9,0.7,1.8,1,2.6c1.4,4.1,3.1,8.2,5.1,12.1c0.3,0.8,0.8,1.5,1.3,2.1c0.9,0.8,2,1.5,3.1,1.9
				c4.6,2,9.8,2.9,13.4,6.6c0.2,0.2,0.4,0.4,0.7,0.4c0.2-0.1,0.4-0.2,0.5-0.4c1.9-2.6,3.5-5.9,2-9c-1-2-2.8-3.6-4.1-5.4
				c-1.8-2.4-2.8-5.4-4.4-7.9C16.6,9.4,12.3,6,7.3,4.3C5.4,3.7,3.5,2.6,1.7,3.8C-0.8,5.5-0.1,8.4,0.9,11z"/>
		</defs>
		<clipPath id="SVGID_6_">
			<use xlink:href="#SVGID_5_"  style="overflow:visible;"/>
		</clipPath>
		<g class="st6">
			<path class="st2" d="M15.5,13.7c0.4,0.4,0.7,0.9,0.5,1.4c-0.1,0.4-0.6,0.6-0.7,1c-0.4,1.1,1.9,1.5,2,2.6c0.2,1-1.4,1.6-1.5,2.6
				c-0.1,0.9,1,1.4,1.8,1.8c3.7,1.9,5.2,6.8,9,8.6c1.5-2.8,3-5.9,2.2-8.9c-0.4-1.2-1-2.4-1.8-3.4c-2.2-3.1-4.5-6.2-6.9-9.2
				c-0.9-1.3-2.1-2.4-3.4-3.4c-2.6-1.7-5.4-2.9-6.3,0.6C9.2,12.2,12.8,11,15.5,13.7z"/>
		</g>
	</g>
	<path class="st7" d="M23.2,71.9c0.4,3,1.3,5.9,2.7,8.6c1.6,3.2,4.2,5.7,7.4,7.2c4.1,1.8,10.7-4.8,13.6-7.4
		c3.7-3.3,5.5-7.5,7.5-11.9c1.5-3.2,3.6-6.1,5.3-9.2c2.2-3.5,4-7.3,5.5-11.2c2.1-6.6-0.5-11.5-6-15.4c-2.7-2.1-5.7-3.7-8.9-4.7
		c-5.3-1.5-11-0.6-16.4,0.4c-2.7,0.3-5.3,1.1-7.6,2.3c-2.4,1.4-2.4,2.4-2.3,5c0.3,6.1,0.1,12.1-0.1,18.2c-0.1,3,0,6.1-0.3,9.1
		c-0.2,2.6-1,4.9-0.7,7.5C23.1,70.9,23.1,71.4,23.2,71.9z"/>
	<path class="st3" d="M27.1,71.9c3.1,0.2,6.2,0.7,9.2,1.6c1.7,0.5,3.6,1.3,4.2,3l6.7-19c0.9-2.7,2-5.4,3.4-7.9
		c1.4-2.5,3.6-4.5,6.2-5.8c3-1.3,6.4-1.1,9.7-0.8c1,0.1-0.6-8.8-0.8-9.6c-0.8-3-2.5-4.6-4.9-6.6c-1.8-1.6-3.7-3-5.9-4.1
		c-2.1-0.9-4.3-1.4-6.6-1.6c-5.1-0.7-10.4,0.1-15.1,2.2c-4,1.9-11.3,8.1-9.1,13.3c0.6,1.4,2,2.3,2.6,3.8c0.8,2.1,1.2,4.3,1.3,6.5
		c0.2,4.9,0,9.7,0,14.6C28.1,65,27.7,68.5,27.1,71.9z"/>
	<g>
		<defs>
			<path id="SVGID_7_" d="M27.1,71.9c3.1,0.2,6.2,0.7,9.2,1.6c1.7,0.5,3.6,1.3,4.2,3l6.7-19c0.9-2.7,2-5.4,3.4-7.9
				c1.4-2.5,3.6-4.5,6.2-5.8c3-1.3,6.4-1.1,9.7-0.8c1,0.1-0.6-8.8-0.8-9.6c-0.8-3-2.5-4.6-4.9-6.6c-1.8-1.6-3.7-3-5.9-4.1
				c-2.1-0.9-4.3-1.4-6.6-1.6c-5.1-0.7-10.4,0.1-15.1,2.2c-4,1.9-11.3,8.1-9.1,13.3c0.6,1.4,2,2.3,2.6,3.8c0.8,2.1,1.2,4.3,1.3,6.5
				c0.2,4.9,0,9.7,0,14.6C28.1,65,27.7,68.5,27.1,71.9z"/>
		</defs>
		<clipPath id="SVGID_8_">
			<use xlink:href="#SVGID_7_"  style="overflow:visible;"/>
		</clipPath>
		<g class="st8">
			<path class="st9" d="M45.7,50c0.1-0.5,0.1-1,0.2-1.5c0.5-1.6,2.2-2.2,3.2-3.4c1.3-1.5,2.2-3.4,3.5-4.8c0.9-1,2.2-1.4,3.5-1
				c0.4,0.2,0.9,0.4,1.4,0.5c0.6-0.1,1.2-0.4,1.7-0.8c2.2-1.3,4.4-0.1,6.5,0.8c1.2,0.5,2.4,1.9,1.7,2.9c-0.4,0.5-1,0.8-1.7,0.8
				c-2.7,0.5-5.6,1.1-7.8,2.7c-1.4,1.1-2.6,2.4-3.6,3.9c-3.4,4.7-6.4,9.7-8.9,14.9c-2.3,4.8-4.3,9.8-7.4,14.1
				c-0.5,0.8-1.2,1.4-2,1.9c-1.4,0.6-3.1-0.1-4.4-1c-1.5-0.9-2.7-2.2-3.5-3.7c-0.6-1.5-0.9-3-0.9-4.6c-0.2-3.8-0.5-7.7-0.4-11.5
				c0.1-3.1,0.4-6.2,0.2-9.4c-0.2-2.7-0.6-5.3-1.4-7.9c-0.2-0.6-3.3-11.2-2.7-11.1c2.6,0.4,8.6,5.2,7.5,8.3
				c-0.4,1.3-1.8,2.3-1.5,3.6c0.2,0.9,1.2,1.4,1.8,2.2c0.7,1.2,0.8,2.6,0.4,3.8c-0.4,1.3-0.6,2.6-0.5,3.9c0.1,0.6,0.4,1.2,0.6,1.8
				c0.4,2-0.8,4-1.1,5.9c-0.1,1.2,0.5,2.3,0.6,3.4c0.1,0.8-0.3,2.3,0.3,2.9c0.9,1.1,3.4,0.8,4.6,0.9c2.1,0.2,3.6-0.1,3.7-2.7
				c0-1.4-0.3-2.9,0.3-4.2c0.8-1.7,3-2.5,3.2-4.4c0-0.6-0.1-1.1-0.1-1.7C42.8,53.6,45.3,52.2,45.7,50L45.7,50z"/>
		</g>
	</g>
	<path class="st10" d="M40.4,76.1c-0.3,1.2-1.1,2.3-2.2,3c-1.1,0.8-2.9,0.9-4.2,1.1c-1,0.2-2,0.1-2.9-0.4c-1.3-0.7-2.5-1.6-3.5-2.7
		c-1.8-2.3-1.3-6.6,1.5-8.1c0.7-0.3,1.4-0.5,2.2-0.5c0.9-0.1,1.8-0.2,2.7-0.1c1.4,0.1,2.7,0.5,3.9,1.2C40,70.9,40.9,73.8,40.4,76.1z
		"/>
	<path class="st11" d="M31.8,79.7c-0.3,2.7-1.6,7.7,2.2,8c2.2,0.2,4.5-0.5,6.2-2"/>
	<path class="st12" d="M30.2,75.7c0,0.9-0.3,2,0.4,2.6c0.7,0.6,2,0.3,2.4,1.1c1.1-2.2,3.2-3.8,5.6-4.4c0.2-0.1,0.4-0.1,0.6,0
		c0.3,0.1,0.6,0.4,0.6,0.7c0.2,0.8-0.1,1.5-0.7,2c-0.6,0.5-1.2,0.9-1.9,1.2l-2.2,1c-1,0.6-2.1,0.8-3.2,0.7c-0.8-0.2-1.5-0.5-2-1.1
		c-0.9-0.6-1.7-1.4-2.3-2.3c-0.6-1-2-4.6-0.3-5.2C28.9,71.5,30.3,74.4,30.2,75.7z"/>
	<path class="st13" d="M26.1,37.3c1.6,2.9,2.4,6.1,2.3,9.4c0,0.5-0.1,1.1-0.6,1.1c-0.8-0.5-1.6-1.1-2.3-1.7
		c-0.4-0.2-0.7-0.5-0.9-0.8c-1-1.5,0.5-10-2.3-9.5C24.1,35.5,25.3,35.9,26.1,37.3z"/>
	<path class="st13" d="M63.7,41.9c0.7,0.2,1.5,0.4,2.2,0.5c-0.8-0.6-1.6-1-2.6-1.2c-0.1-0.1-0.2-0.1-0.2-0.2
		c-0.3-0.1-0.5-0.1-0.8-0.1c-2.7,0.2-5.3,1.3-7.3,3.1c-1.7,1.5-2.6,3.6-4.1,5c1.5,1.2,3.5,1.6,5.3,1c1.8-0.4,3.4-1.3,4.7-2.6
		c1.3-1.3,3.2-3.4,2.9-5.4C63.7,42,63.7,41.9,63.7,41.9z"/>
	<path class="st14" d="M61.8,42c-1.1,0.4-1.8,1.4-1.9,2.6c-0.1,0.2,0.1,0.5,0.3,0.6c0.1,0,0.2,0,0.2,0c0.8,0,1.5-0.5,1.9-1.3
		c0.3-0.8,0-1.6-0.7-2.1"/>
	<path class="st14" d="M25.2,38.5c-0.1-0.1-0.2-0.1-0.3-0.1c-0.3,0.5-0.4,1-0.5,1.6c0,0.3,0.1,0.8,0.4,0.8c0.3,0,0.5-0.2,0.6-0.5
		c0.3-0.8,0.1-1.6-0.5-2.2"/>
	<path class="st3" d="M21.1,11.6c-4.5-3.2-9.3-5.9-14.4-8.2C5.7,3,4.6,2.6,3.7,3.1c5,0.8,9,4.8,11.8,9s4.9,9,8.2,12.9
		c0.8,1.1,1.8,1.9,3,2.5c1.8,0.8,4,0.3,4.7-1.6c0.7-1.9-0.7-3.6-1.6-5.1C27.5,17.3,24.5,14.1,21.1,11.6z"/>
	<path class="st11" d="M31.9,86.7c-2.1-0.9-3.8-2.5-4.8-4.5"/>
	<path class="st15" d="M39.8,30.6c-0.5,0.3-1,0.7-1.3,1.2c-0.7,1-1.4,2.1-1.9,3.2c-0.5,1-0.8,2.1-0.8,3.2c0.1,1.9,1.7,3.5,3.4,4.4
		c0-3,0.5-6,1.6-8.9C41.1,32.8,42.1,29.4,39.8,30.6z"/>
	<path class="st13" d="M41.5,30.6c0,0-3.7,2.5-4.5,6.4c-0.5,2.2,0.3,4.4,2,5.8c2.1-0.6,3.7-2.3,4.1-4.5
		C43.9,34.3,41.5,30.6,41.5,30.6z"/>
	<path class="st14" d="M39.9,35.6c-0.2-0.1-0.5-0.2-0.7,0c-0.2,0.1-0.3,0.3-0.4,0.6c-0.1,0.3-0.1,0.6,0,0.8c0.2,0.3,0.4,0.4,0.7,0.5
		c0.3,0.1,0.6,0.2,0.9,0.1c0.4-0.2,0.7-0.5,0.7-1c0-0.4-0.2-0.8-0.6-1.1c-0.3-0.3-0.7-0.3-1.1-0.2"/>
</g>
</svg>
