<?xml version="1.0" encoding="utf-8"?>
<!-- Generator: Adobe Illustrator 25.0.0, SVG Export Plug-In . SVG Version: 6.00 Build 0)  -->
<svg version="1.1" id="Layer_1" xmlns="http://www.w3.org/2000/svg" xmlns:xlink="http://www.w3.org/1999/xlink" x="0px" y="0px"
	 viewBox="0 0 65.5 102.6" style="enable-background:new 0 0 65.5 102.6;" xml:space="preserve">
<style type="text/css">
	.st0{fill:#72614C;stroke:#EAD6B9;stroke-width:1.0775;stroke-miterlimit:10;}
	.st1{fill:#998876;}
	.st2{fill:#EAD6B9;}
	.st3{fill:#BAB19B;}
	.st4{fill:#3C3C3B;}
	.st5{fill:#575756;}
	.st6{fill:#666258;}
	.st7{fill:#706F6F;}
	.st8{fill:#8EF4C0;}
	.st9{fill:#5C9B78;}
	.st10{fill:#FFFFFF;}
</style>
<g id="Layer_4">
	<path class="st0" d="M68.1,0.7c2.3,3.5,2.3,7.7,3.1,11.9c0.9,4.2,2.1,8.4,2.9,12.7c0.5,2,0.8,4,0.8,6.1c0,5.9-2.6,9.6-6.1,13.2
		c-4.5,4.6-6.2,7.9-10.3,1.3c-3.2-5.2-10.4-9.4-9.9-16.8C49.5,16.8,58.7,5.1,68.1,0.7z"/>
	<path class="st1" d="M57.4,48.2c-1.5-4.2-0.1-6.3,2.8-8.7c3.2-2.6,4.5-7,5.9-11.1c1.4-4.1,2.2-8.4,2.4-12.8
		c0.1-2.2,0.1-4.6,1.1-6.5c0.7,4.7,1.7,9.4,3.2,13.9c1.3,4.7,2.4,8.3,0.4,12.9c-1.9,4.3-4.7,8.1-8.3,11c-1.7,1.5-3.8,2.8-5.9,2.4
		c-0.3,0-0.7-0.2-0.9-0.4C57.7,48.8,57.5,48.5,57.4,48.2z"/>
	<path class="st1" d="M55.8,27.7c-1.4-3.2-1.9-6.8-1.5-10.3c-1.1,0.5-1.4,2-1.7,3.3c-0.5,3.2-3.3,18.1,0.7,19.6
		c1.7,0.6,3.2-2.5,3.7-3.9C58.1,33.2,57,30.5,55.8,27.7z"/>
	<path class="st0" d="M8.1,0.7C5.8,4.2,5.8,8.4,4.9,12.5C4.1,16.8,2.9,21,2,25.3c-0.5,2-0.8,4-0.8,6.1c0,5.9,2.6,9.6,6.1,13.2
		c4.5,4.6,6.2,7.9,10.3,1.3c3.2-5.2,10.4-9.4,9.9-16.8C26.7,16.8,17.5,5.1,8.1,0.7z"/>
	<path class="st1" d="M18.7,48.2c1.5-4.2,0.1-6.3-2.8-8.7c-3.2-2.6-4.5-7-5.9-11.1C8.7,24.3,7.9,20,7.7,15.6
		c-0.1-2.2-0.1-4.6-1.1-6.5C6,13.9,4.9,18.6,3.5,23.1C2.2,27.8,1.1,31.4,3,36c1.9,4.3,4.7,8.1,8.3,11c1.7,1.5,3.8,2.8,5.9,2.4
		c0.3,0,0.7-0.2,0.9-0.4C18.5,48.8,18.6,48.5,18.7,48.2z"/>
	<path class="st1" d="M20.4,27.7c1.4-3.2,1.9-6.8,1.5-10.3c1.1,0.5,1.4,2,1.7,3.3c0.5,3.2,3.3,18.1-0.7,19.6
		c-1.7,0.6-3.2-2.5-3.7-3.9C18,33.2,19.2,30.5,20.4,27.7z"/>
	<path class="st2" d="M24.6,35.1l0.4-2.5c1.2,0.1,2.7,0.2,3.4-0.8c0.3-0.4,0.5-0.9,0.8-1.3c0.4-0.6,1.2-0.9,1.7-1.5
		c0.5-0.6,0.6-1.6-0.1-1.9c1.2,1.4,3.3,1.5,4.7,0.3c0.1-0.1,0.1-0.1,0.2-0.2c0.5,1,1.1,1.9,1.8,2.7c0.2,0.3,0.5,0.4,0.8,0.5
		c0.4,0,0.7-0.4,1-0.6c0.9-0.7,2.1-0.8,3.1-0.3c1,0.5,1.8,1.3,2.3,2.3c0.4,0.7,0.9,1.5,1.6,1.4c0.9-0.2,0.9-1.4,0.7-2.2
		c2.6,4.1,6.1,6,9.8,9c2.2,1.8,11.2,9.5,9.2,12.8c-0.4,0.4-0.7,0.9-0.8,1.4c-0.4,2,3.7,2.9,2.9,4.8c-0.4,0.9-1.9,1.3-1.8,2.3
		c0.1,0.8,1.1,1.1,1.3,1.9c0.4,1.1-1,1.9-1.7,2.9c-0.8,1.3-0.3,2.9-0.1,4.4c0.1,0.4,0.1,0.8-0.1,1.2c-0.2,0.4-0.5,0.7-0.8,1
		c-1.6,1.8-1.8,4.4-0.5,6.4c-1.2,0.1-2.7,0.3-3.1,1.5L59.4,78c-0.5,2-1.5,3.9-3,5.5c1.6,3.9-3.4,9.5-6.2,11.8
		c-3.9,3.1-8.9,7.3-14.2,7.4c-6.1,0-10.2-4-13.5-8.6c-1.3-1.5-2.4-3-3.4-4.7c-0.6-1.3-0.5-3.1-1.5-4.2c-0.9-0.9-2.2-1.2-3.4-0.8
		c0.7-0.1,0.8-1.2,0.3-1.6c-0.6-0.4-1.2-0.7-1.9-1c-0.6-0.4-1.1-1.2-0.6-1.7c0.2-0.2,0.4-0.3,0.6-0.5c0.6-0.7-0.5-1.5-1.2-2.2
		c-0.7-0.9-1.2-1.9-1.5-3c-0.4-1.1-1.3-2.1-2.4-2.1c1.1-0.2,1.6-1.5,1.4-2.6c-0.1-1.1-0.6-2.1-0.7-3.2c0.1-0.9,0.1-1.7,0-2.6
		c-0.3-1-1.4-1.6-1.4-2.6c0-1.2,1.6-2.2,1.1-3.3c-0.2-0.5-0.9-0.8-1.2-1.3c-0.4-0.8,0.2-1.7,0.7-2.5c1-1.4,1.5-3.1,1.6-4.8
		c0-0.6,0.1-1.3,0.3-1.9c0.5-1,2.6-2.5,3.4-3.5c1.6-1.9,3.5-3.7,5-5.7c0.7-0.9,1-2.4,1.9-3c1.3-0.8,3.3,0.1,4.7-0.7
		c1-0.7,1.1-1.9,2.3-2.7c1.2-0.7,2.5-1.1,3.8-1.4c4.1-0.9,8.5-0.4,12.3,1.5c3.3,1.5,6.5,3.2,9.6,5"/>
	<path class="st3" d="M45.6,64c-1.2-1.9-2.7-3.6-4.5-4.9c-1.9,1-3.3,2.7-4,4.8c-1.3-0.6-2.9-0.7-4.3-0.4c-0.2,0.1-0.5,0.1-0.7,0
		c-0.6-0.2-0.4-1.1-0.5-1.7c-0.3-1.1-2.1-1.3-2.1-2.5c-2.2,1.3-4,3.1-5.3,5.4c-0.7,1.2-1.3,2.6-2.5,3.2c-0.8,0.3-1.6,0.5-2.5,0.4
		c-1.4,0-2.8-0.1-4.2-0.2c0.4,3.4,2.1,6.5,4.6,8.8c0.8,0.7,1.8,1.3,2.5,2.1c0.6,1,1,2.1,1.1,3.2c0.7,3,1.4,5.9,2.3,8.8
		c0.4,1.5,1.2,2.9,2.3,3.9c0.6,0.4,1.2,0.7,1.9,0.9c2.5,0.8,5.4,1.9,8,1.8c1.4-0.2,2.8-0.7,4.1-1.5c1.1-0.4,2.1-1,3-1.6
		c1.7-1.5,2.3-3.9,2.6-6c0.3-2.5,0.7-5,1.3-7.4c0.3-1.1,0.6-3.1,1.5-3.9c0.9-0.7,2.2-1,3.1-1.7c0.9-0.7,1.7-1.5,2.3-2.4
		c0.1-0.1,0.2-0.2,0.2-0.3c1.1-1.6,3.9-5.7,1.4-6.9c-1.8-0.7-3.6-1-5.5-1.1c-1.8-0.3-3.7-0.3-5.5,0.2c-1.4-1.4-0.7-3.2,0-4.9
		c-0.8-0.2-1.6,0-2.2,0.5c-0.3-0.6-0.5-1.3-0.4-2c-0.5,0.4-1,0.9-1.3,1.4c-0.1-1.6-0.6-3.2-1.3-4.7c-1.1,2.3-2.3,4.6-3.7,6.7
		c-0.2,0.3-0.4,0.6-0.8,0.7c-0.5,0.1-1.4-0.1-1.3,0.4c-0.5-0.1-0.9-0.6-0.9-1.1l-0.5,1.1c-2.4-1.7-3.6-4.6-4.6-7.4
		c-0.4,0.5-1.1,0.7-1.7,0.5c0.3,1.5-0.5,3-1.9,3.6c0,0.3-0.2,0.6-0.5,0.6c-0.1,0-0.1,0-0.2,0c-0.2,0.9-0.5,1.8-1.1,2.6"/>
	<path class="st4" d="M60,63.9c-3.7-1.8-8-2-11.8-0.5c-0.9,0.2-1.6,0.9-2,1.7c-0.5,1.7,1.5,3,3.2,3.5c2,0.6,4.1,0.6,6.1,0
		c2-0.6,3.6-2.3,4-4.3"/>
	<path class="st4" d="M23.9,66.5c-1.8-1.9-4.3-3-6.9-3.1c-0.7-0.1-1.4,0-2,0.3c-1.2,0.8-1.6,2.3-1,3.6c0.6,1.2,1.8,2.1,3.1,2.4
		c2.6,0.7,5.4,0,7.3-1.9"/>
	<path class="st5" d="M29.4,86.7c1.3,2.4,3.8,3.8,6.5,3.6c3.3,0,5.7-4.5,4.4-7.4c-0.3-0.6-0.8-1.2-1.4-1.4c-1.2-0.5-2.6,0.2-3.8,0.4
		c-1.4,0.2-2.7-0.1-4-0.6c-0.2-0.1-0.5-0.1-0.7-0.1c-0.3,0-0.6,0.2-0.8,0.4C27.9,82.9,28.6,85,29.4,86.7z"/>
	<path class="st4" d="M33.5,88.6c-0.5-0.1-1-0.4-1.3-0.9c-0.1-0.4-0.2-0.7-0.2-1.1c-0.2-0.6-0.6-1.1-1.2-1.4c-0.3-0.2-0.7-0.1-1,0
		c-0.4,0.4-0.5,0.9-0.3,1.4c0.4,1.1,1.3,2,2.4,2.5c3.5,1.7,6.7,1.1,7.4-3.1c0.1-0.5,0-1.2-0.4-1.4c-0.4-0.1-0.8,0-1.1,0.3
		C35.8,86.5,36.9,89.3,33.5,88.6z"/>
	<path class="st6" d="M38,68c0.2-0.8,0.4-1.6,0.6-2.4c0.3-1.1,0.8-2.1,1.1-3.2c0.2-0.6,0.3-1.3,0.3-1.9c0-0.4-0.3-1.4-0.2-1.8
		c-0.6,1.5-1.2,3.1-1.6,4.6C37.7,64.8,38.3,66.4,38,68z"/>
	<path class="st6" d="M32.2,67.5l-1.9-3.1c-0.5-0.9-2.2-3.1-1.5-4.1C30.6,60.6,31.7,65.9,32.2,67.5z"/>
	<path class="st6" d="M44.7,70c1.1,0.8,2.2,1.7,3.1,2.8c0.7,1.2,1.2,2.5,1.3,3.9c-0.6-1.3-1.5-2.4-2.8-3.2c-1.1-0.8-4.8-3.6-3.2-5.2
		C43.6,68.9,44.1,69.5,44.7,70z"/>
	<path class="st6" d="M58.8,70.1c-0.4,0.9-1,1.8-1.7,2.4c-0.9,0.5-1.9,0.8-2.9,0.7c-0.3,0-0.7-0.1-0.6-0.4c0.8-0.2,1.5-0.4,2.2-0.8
		c0.7-0.3,1.3-0.9,1.6-1.6c0.2-0.3,0.2-0.7,0.3-1.1c0.4-1.3,1.4-2.4,2.7-2.7c-0.1-0.1-0.2-0.2-0.4-0.3
		C59.5,67.4,59.3,68.9,58.8,70.1z"/>
	<path class="st6" d="M24.6,71c-0.3,0.3-0.7,0.5-1,0.8c-1.2,1.1-1.9,2.6-2.2,4.2c-0.5-0.4-0.8-1.1-0.8-1.8c0-0.5,0.2-0.9,0.4-1.3
		c0.3-0.5,0.6-0.9,1-1.2c0.4-0.3,0.8-0.6,1.2-0.9c0.3-0.2,1.7-1.4,2-1.2C25.7,69.8,24.9,70.8,24.6,71z"/>
	<path class="st6" d="M12.9,65.1c-0.4,1.4-0.3,2.9,0.3,4.3c0.3,1.1,0.8,2.2,1.5,3.1c0.6,0.7,2.4,1.5,3.2,0.7c1-1-0.6-1.5-1.3-1.8
		c-1.1-0.3-2-1.1-2.5-2.1C13.7,68.5,12.6,66,12.9,65.1z"/>
	<path class="st6" d="M35.3,94c0,0.1,0,0.3,0.1,0.4c0.1,0.1,0.2,0.2,0.4,0.2c3.1,0.9,6.7,1,9.5-0.7c-0.6,0.7-1.4,1.1-2.2,1.2
		c-2.3,0.5-4.7,0.6-7.1,0.1c-0.2-0.1-0.5-0.1-0.7-0.1c-0.3,0-0.7,0.1-1,0.3c-1.9,0.7-3.9,0.8-5.9,0.3c2.1-0.1,4.2-0.7,6.1-1.7
		c0.1,0,0.2-0.1,0.2-0.2c0-0.1,0-0.2,0-0.3c-0.1-1.1-0.3-2.2-0.4-3.4C35.7,89.8,35.2,93.2,35.3,94z"/>
	<path class="st3" d="M36.1,40.8c-0.4,0.5-1.1,0.9-1.4,1.5c-0.6,1.1,0.3,2.4,0.7,3.6c0.2,0.9,0.2,1.9,0.1,2.8
		c-0.2,2.6-0.4,5.2-0.7,7.8c-0.7-0.4-1.2-1.1-1.1-1.9c0.1-0.8,0.2-1.6,0.5-2.3c0.5-2,0.3-4.2-0.6-6.1c-0.4-0.6-0.6-1.3-0.8-1.9
		c0-0.8,0.1-1.6,0.5-2.4l0.9-2.1c0.6-1.4-1.8-4.5,0.5-3.8c1.7,0.7,2.5,2.6,1.8,4.3C36.3,40.5,36.2,40.7,36.1,40.8z"/>
	<path class="st3" d="M54.8,54.9c0.2-0.7,0.3-1.3,0.2-2c-0.1-0.7-0.7-1.2-1.4-1.3c-0.4,0.6-0.5,1.4-0.4,2.1c0,0.7-0.2,1.6-0.9,1.9
		c-0.2,0.1-0.4,0.1-0.7,0.2c-0.3,0.2-0.4,0.6-0.6,1c-0.2,0.3-0.6,0.6-0.9,0.4c-0.3-0.5-0.6-0.9-1-1.3c-0.4,0.5-0.9,0.9-1.6,1.2
		l-0.2-1.6c-0.6,0.7,0.1,1.7,0.7,2.4c1.4,1.8,1.6,5.3,3.9,3.7c0.9-0.6,1.5-2.2,2.1-3.1C54.2,58,55.9,54.1,54.8,54.9z"/>
	<path class="st3" d="M17.3,57.4c-0.1-0.2-0.1-0.4-0.1-0.6c-0.2-1.6-1.5,0.7-2.7,0c-1.4-0.7-0.9-2.2-1.3-3.3c0.1,0.3,0,0.5-0.3,0.6
		c-0.4-0.2-0.6-0.5-0.7-0.9c-0.1,0.7-0.3,1.3-0.7,1.9c-0.3,0.5,1.1,4.5,1.2,5.4c0.4-0.5,1.2-0.4,1.8-0.2c1.3,0.4,2.7,0.7,4.1,0.8
		C18.5,59.8,17.6,58.7,17.3,57.4z"/>
	<path class="st6" d="M48.6,89.4l-1.8,2.8c-0.7,1.1-1.4,2.3-0.9,3.5c1.9-1.3,2.8-3.7,4-5.7c0.5-0.8,3.3-3.8,1.2-4.3
		C49.8,85.4,49.2,88.5,48.6,89.4z"/>
	<path class="st6" d="M25.5,93.4c-0.8-1.5-2.2-6.6-4.1-6.9c-3-0.5,2.2,4.5,2.6,5c0.8,1.2,1.4,2.9,2.9,3.5
		C26.2,94.6,25.8,94,25.5,93.4z"/>
	<path class="st7" d="M20.7,66.2c-0.3,0.8-0.3,1.8,0.4,2.2c0.6,0.2,1.2-0.1,1.4-0.7c0-0.1,0.1-0.2,0-0.3c-0.1-0.7-0.7-1.3-1.4-1.4"
		/>
	<path class="st7" d="M56.2,64.1c-0.5,0.1-0.8,0.6-0.8,1.1c0.1,0.7,0.6,1.2,1.3,1.1c0.7-0.1,1.2-0.6,1.1-1.3
		c-0.1-0.7-0.6-1.2-1.3-1.1c-0.1,0-0.2,0-0.3,0.1"/>
	<circle class="st8" cx="34.4" cy="46.8" r="5.6"/>
	<path class="st9" d="M28.7,46.8c0,2.9,2.4,5.3,5.3,5.3c0.1,0,0.2,0,0.3,0c2.9-0.2,5.2-2.7,5-5.6c-0.1-2.7-2.3-4.9-5-5
		c-2.9-0.2-5.4,2.1-5.6,5C28.7,46.6,28.7,46.7,28.7,46.8L28.7,46.8z M28.7,46.8c0-3.1,2.5-5.7,5.6-5.9c3.3-0.2,6,2.4,6.2,5.6
		c0.2,3.3-2.4,6-5.6,6.2c-0.2,0-0.4,0-0.6,0C31.2,52.6,28.7,50,28.7,46.8z"/>
	<circle class="st10" cx="32.2" cy="44.4" r="1"/>
</g>
</svg>
