<svg xmlns="http://www.w3.org/2000/svg" xmlns:xlink="http://www.w3.org/1999/xlink" viewBox="0 0 63.02245 86.44622"><defs><clipPath id="clip-path"><path d="M11.16868,49.86236C8.41039,50.88711,6.2008,52.97987,4.1468,55.08684A14.81994,14.81994,0,0,0,.49007,60.18963c-.98889,2.76453-.34778,5.85476.74011,8.58186.56892-1.312-.22109-2.95957.47-4.21157.64954-1.17673,2.20953-1.37466,3.47938-1.81519A7.12951,7.12951,0,0,0,8.92,59.707a8.92218,8.92218,0,0,1,1.206-1.87521,5.15546,5.15546,0,0,1,2.13734-1.09228c2.47658-.78116,10.89277-.63113,10.69609-4.18161C22.72784,48.37741,13.72044,48.91434,11.16868,49.86236Z" style="fill:#3c3c3b"/></clipPath><clipPath id="clip-path-2"><path d="M20.452,51.1718a16.91532,16.91532,0,0,0-7.60281,9.23659,5.30812,5.30812,0,0,1,.78468-1.77275c.59658,3.89752-.42564,8.00252-.5751,11.914a10.66909,10.66909,0,0,1,1.53074-5.09848,1.57282,1.57282,0,0,1-.09839,1.4852c.48326-.16041.5705-.78468.72976-1.26832s.8037-.94308,1.11526-.54035c1.73779-2.78475,4.768-5.52406,8.122-4.43691,6.22051,2.01627,13.4094,2.78532,18.99526-.61444C52.52255,54.55652,55.999,42.314,58.02594,32.57179a11.5526,11.5526,0,0,0,.31908-4.2575c-.31488-1.85555-1.6531-2.94987-1.84061-4.81462-.17517-1.74211.69569-3.72184,1.10323-5.3915,1.00856-4.13414,1.8412-8.35109,1.00761-12.62234-.58866-3.01623-3.44584-6.56522-6.921-4.95977a2.55091,2.55091,0,0,0-1.48352,2.57245c.28241,1.9156,3.47223,2.43672,4.30263,4.43719.80585,1.94154.23139,4.44919-.32482,6.37384a19.66389,19.66389,0,0,1-2.381,5.322c-1.47495,2.24012-2.45378,1.22173-4.217,2.73331-3.81141,3.26774-5.72814,8.448-6.95238,13.1753a29.69992,29.69992,0,0,1-3.4049,7.43817c-1.71945,2.93394-1.66768,3.97568-4.985,4.73132C28.39367,48.18767,23.99643,49.01364,20.452,51.1718Z" style="fill:#3c3c3b"/></clipPath><clipPath id="clip-path-3"><path d="M26.93587,71.21927a28.7095,28.7095,0,0,1-8.30856,5.83489,18.08688,18.08688,0,0,0,13.73961-1.84384,20.62193,20.62193,0,0,1-11.50067,11.2359c6.6163-1.678,13.60775-3.5694,18.29953-8.52706a8.7941,8.7941,0,0,1,1.93254-1.7555,10.52932,10.52932,0,0,1,2.496-.78915,10.4561,10.4561,0,0,0,7.47835-7.99683,9.50876,9.50876,0,0,0-4.58634-9.79826,11.29432,11.29432,0,0,0-8.51731-.60688c-2.61693.77211-6.31756,2.28777-7.38029,4.952C29.23877,65.30876,29.686,68.20268,26.93587,71.21927Z" style="fill:#3c3c3b"/></clipPath></defs><g id="Layer_4" data-name="Layer 4"><path d="M11.16868,49.86236C8.41039,50.88711,6.2008,52.97987,4.1468,55.08684A14.81994,14.81994,0,0,0,.49007,60.18963c-.98889,2.76453-.34778,5.85476.74011,8.58186.56892-1.312-.22109-2.95957.47-4.21157.64954-1.17673,2.20953-1.37466,3.47938-1.81519A7.12951,7.12951,0,0,0,8.92,59.707a8.92218,8.92218,0,0,1,1.206-1.87521,5.15546,5.15546,0,0,1,2.13734-1.09228c2.47658-.78116,10.89277-.63113,10.69609-4.18161C22.72784,48.37741,13.72044,48.91434,11.16868,49.86236Z" style="fill:#3c3c3b"/><g style="clip-path:url(#clip-path)"><path d="M11.43893,60.9427c1.17272-.88075,1.75-2.34942,2.89584-3.21435.48285-.36448.85757-.26263,1.34706-.497.51521-.24672.71058-.6368,1.12447-1.01307.74471-.677,1.92051-.79634.96142-1.88527-.94061-1.068-1.46259.1195-2.57035-.104.30138-.19191-.12346-.60485-.47148-.68575l-1.42756-.33183a3.58944,3.58944,0,0,0-1.78791-.10615,1.23373,1.23373,0,0,0-.94814,1.33828c.07538.3156.31918.64575.15994.92846a.67566.67566,0,0,1-.33987.25751,9.632,9.632,0,0,0-1.41694.56075,1.06185,1.06185,0,0,0-.50431,1.29284,6.64025,6.64025,0,0,0-1.88048.96992,2.21983,2.21983,0,0,0-.68375.72271c-.43788.84146.07122,2.01708-.53822,2.744-.69623-.433-4.246-.46882-4.0555.95458.02.1492.12181.28272.11879.43325-.00452.22549-.23659.37634-.45345.43831a1.5775,1.5775,0,0,0-.62883.2312.724.724,0,0,0-.09772.86571,9.29564,9.29564,0,0,1,.79884,1.36133,7.525,7.525,0,0,1,.54333,2.31354,15.098,15.098,0,0,1,6.70957-6.01912A16.15183,16.15183,0,0,0,11.43893,60.9427Z" style="fill:#b17f4a"/></g><path d="M20.452,51.1718a16.91532,16.91532,0,0,0-7.60281,9.23659,5.30812,5.30812,0,0,1,.78468-1.77275c.59658,3.89752-.42564,8.00252-.5751,11.914a10.66909,10.66909,0,0,1,1.53074-5.09848,1.57282,1.57282,0,0,1-.09839,1.4852c.48326-.16041.5705-.78468.72976-1.26832s.8037-.94308,1.11526-.54035c1.73779-2.78475,4.768-5.52406,8.122-4.43691,6.22051,2.01627,13.4094,2.78532,18.99526-.61444C52.52255,54.55652,55.999,42.314,58.02594,32.57179a11.5526,11.5526,0,0,0,.31908-4.2575c-.31488-1.85555-1.6531-2.94987-1.84061-4.81462-.17517-1.74211.69569-3.72184,1.10323-5.3915,1.00856-4.13414,1.8412-8.35109,1.00761-12.62234-.58866-3.01623-3.44584-6.56522-6.921-4.95977a2.55091,2.55091,0,0,0-1.48352,2.57245c.28241,1.9156,3.47223,2.43672,4.30263,4.43719.80585,1.94154.23139,4.44919-.32482,6.37384a19.66389,19.66389,0,0,1-2.381,5.322c-1.47495,2.24012-2.45378,1.22173-4.217,2.73331-3.81141,3.26774-5.72814,8.448-6.95238,13.1753a29.69992,29.69992,0,0,1-3.4049,7.43817c-1.71945,2.93394-1.66768,3.97568-4.985,4.73132C28.39367,48.18767,23.99643,49.01364,20.452,51.1718Z" style="fill:#3c3c3b"/><g style="clip-path:url(#clip-path-2)"><path d="M36.69322,64.08292a84.4914,84.4914,0,0,1-9.18781-1.26512,22.20782,22.20782,0,0,1-2.47787-.53209,2.65294,2.65294,0,0,1-1.31962-.72768,1.07953,1.07953,0,0,1-.06221-1.39344,11.59917,11.59917,0,0,1,2.72785-1.07884,5.24229,5.24229,0,0,1,1.84506-.23694c.54462.02308,1.45613.46572,1.9546.345.89808-.21741,1.00351-1.65358,1.58493-2.43963a.94484.94484,0,0,1,.6091-.44748c.44966-.04276.7308.50287.724.95451a4.1082,4.1082,0,0,0-.02226,1.34484,1.39484,1.39484,0,0,0,1.571.78168,4.06964,4.06964,0,0,0,1.67793-.8766,1.20722,1.20722,0,0,0,.43223-.45965c.141-.335-.041-.70915-.082-1.07029a1.36684,1.36684,0,0,1,2.58984-.74664c.23893.49664.39992,1.28841.9407,1.18215a.82291.82291,0,0,0,.39073-.25,7.85431,7.85431,0,0,0,1.3508-1.74542c.25428-.44678.6261-1.0006,1.12588-.88022a5.45634,5.45634,0,0,1,.50069.23373c.5459.19228,1.112-.38477,1.1486-.96238a3.076,3.076,0,0,0-.55233-1.61937,2.4896,2.4896,0,0,1-.438-1.6411l2.3658.75972a.723.723,0,0,0,1.02626-.32355L48.79239,48.665a2.34331,2.34331,0,0,1-.65539-1.36969c.6315-.27762,1.49945.09229,1.98468-.398.71032-.71776-.47244-2.04357.0644-2.89887.372-.5927,1.2513-.48969,1.92854-.3135.22568-.99565-1.18677-1.83013-.93287-2.819.11413-.44446.54011-.74276.7136-1.16758a7.80117,7.80117,0,0,0,.1911-1.09487c.08974-.36055.41174-.72777.77223-.63775.10852.0271.21749.09412.32425.06075.14714-.046.17536-.23861.17679-.39275l.02376-2.56628c.572-.19535,1.39409.44283,1.7073-.07414a.82927.82927,0,0,0-.01792-.67268l-.69929-2.186,1.256.007a4.92221,4.92221,0,0,1-.71341-1.34083.60832.60832,0,0,1-.03263-.42728A.64846.64846,0,0,1,55.236,30.085a6.62959,6.62959,0,0,0,2.048-1.256c.33435-.33687.43876-.86489.97728-.68383,1.62982.548.28709,4.35457-.05649,5.27925-1.92527,5.18158-3.05552,10.528-5.28678,15.63258" style="fill:#b17f4a"/><path d="M58.098,9.47019a.57909.57909,0,0,1,.18207.36452c-.01227.19138-.22219.29417-.35507.43245-.38422.39981-.10236,1.04681-.06831,1.60026.05425.882-.58241,1.64372-.8271,2.49283-.46424,1.611.49757,3.4748-.27867,4.96082.26137.6146,1.24369.5501,1.66845.03471a2.96911,2.96911,0,0,0,.45265-1.90941l.04182-7.11275a17.89994,17.89994,0,0,0-.9048-7.044C57.3889,1.8045,55.928-.06911,54.13748.002,54.25686,1.73443,56.2396,2.90042,57.075,4.2806,58.03889,5.873,56.9476,8.01764,58.098,9.47019Z" style="fill:#b17f4a"/></g><path d="M26.93587,71.21927a28.7095,28.7095,0,0,1-8.30856,5.83489,18.08688,18.08688,0,0,0,13.73961-1.84384,20.62193,20.62193,0,0,1-11.50067,11.2359c6.6163-1.678,13.60775-3.5694,18.29953-8.52706a8.7941,8.7941,0,0,1,1.93254-1.7555,10.52932,10.52932,0,0,1,2.496-.78915,10.4561,10.4561,0,0,0,7.47835-7.99683,9.50876,9.50876,0,0,0-4.58634-9.79826,11.29432,11.29432,0,0,0-8.51731-.60688c-2.61693.77211-6.31756,2.28777-7.38029,4.952C29.23877,65.30876,29.686,68.20268,26.93587,71.21927Z" style="fill:#3c3c3b"/><g style="clip-path:url(#clip-path-3)"><path d="M20.55236,75.973c4.33954-1.85607,8.54156-4.30759,8.94124-9.40745a4.30086,4.30086,0,0,1,.32679-1.73929A2.38546,2.38546,0,0,1,32.2,63.78081c1.78557.20085,3.00752,1.93264,4.68484,2.06737a2.29575,2.29575,0,0,1,1.06576.19143,1.55773,1.55773,0,0,1,.55895.9361,14.22654,14.22654,0,0,1-.14009,8.05626c-.442,1.45147-1.39278,3.05405-2.90922,3.10429a.41631.41631,0,0,1,.32128-.63107q-1.80733,1.40765-3.6508,2.76807a16.48809,16.48809,0,0,1-4.4653,2.59132,10.83332,10.83332,0,0,0-2.16456.78266,2.01355,2.01355,0,0,0-1.10144,1.8761,56.79033,56.79033,0,0,0,10.18321-9.31089c.24723-.2887.50809-.65139.39774-1.01512a1.80946,1.80946,0,0,0-.37925-.54084,3.49376,3.49376,0,0,1-.5281-1.74592,2.61,2.61,0,0,0-.67872-1.67421c-1.10405-.97205-1.63436.6977-2.36034,1.18322a22.14511,22.14511,0,0,1-4.1227,2.22224,33.83353,33.83353,0,0,1-8.2276,1.76022" style="fill:#706f6f"/></g><path d="M61.7072,56.24957a7.33929,7.33929,0,0,1-.1092,1.11076c-.02784.1577-.10507.35305-.26518.3502-.12946-.0023-.21-.1379-.26147-.2567-.63667-1.4691-.81776-3.14718-1.73029-4.46281a9.42455,9.42455,0,0,0-2.73921-2.33852.51286.51286,0,0,0-.77114.0839c-1.92178,1.63764.61157,4.218.54651,6.73488A22.7324,22.7324,0,0,1,55.225,63.20615a9.48069,9.48069,0,0,0-4.25961-8.30169,9.10925,9.10925,0,0,1-.29675,5.26827,5.28378,5.28378,0,0,0-5.801-2.47222c.94055-.24946,2.783-4.46969,3.40535-5.34363,2.07431-2.91278,4.55893-4.7592,6.0164-8.26177a14.0316,14.0316,0,0,1,6.03488,2.02979,5.77057,5.77057,0,0,1,2.62832,5.4838A6.7909,6.7909,0,0,0,60.88721,48.674a2.3394,2.3394,0,0,0-3.22615.38271A8.18836,8.18836,0,0,1,61.7072,56.24957Z" style="fill:#3c3c3b"/><path d="M23.034,58.13093c.09493-.1624.15677-.34353.263-.4988a1.63617,1.63617,0,0,1,.93615-.58287c.78392-.22156,1.61986-.18238,2.41366-.36545a.88948.88948,0,0,0,.41945-.187c.34629-.32449.06336-.91807-.31138-1.20923a2.63845,2.63845,0,0,0-3.18927.03918,2.887,2.887,0,0,1-.87019.63424,5.84524,5.84524,0,0,1-.65385.09761,6.78271,6.78271,0,0,0-3.86334,2.79032c-.44276.555-1.87035,1.90382-1.11635,2.62382,1.11962,1.06914,2.1756-1.52131,2.904-1.93362C20.92658,58.9953,22.40632,59.20469,23.034,58.13093Z" style="fill:#706f6f"/><path d="M43.99146,42.2607a4.99781,4.99781,0,0,1,3.134,1.41315,1.46606,1.46606,0,0,1,.38416.88877.77223.77223,0,0,1-.5102.7623c-.50526.13841-.92358-.37572-1.24651-.78823a7.451,7.451,0,0,0-3.28186-2.30841,7.68718,7.68718,0,0,0-2.71319-.59071C39.96618,42.20387,43.23311,42.135,43.99146,42.2607Z" style="fill:#706f6f"/><path d="M40.68368,45.075a4.99781,4.99781,0,0,1,3.134,1.41315,1.466,1.466,0,0,1,.38416.88877.77221.77221,0,0,1-.51019.7623c-.50527.13841-.92358-.37571-1.24651-.78823a7.451,7.451,0,0,0-3.28187-2.3084,7.687,7.687,0,0,0-2.71319-.59072C36.6584,45.01818,39.92533,44.94935,40.68368,45.075Z" style="fill:#706f6f"/><path d="M35.62918,48.79523a4.99781,4.99781,0,0,1,3.134,1.41315,1.466,1.466,0,0,1,.38416.88877.77222.77222,0,0,1-.5102.7623c-.50526.13841-.92358-.37571-1.24651-.78823a7.451,7.451,0,0,0-3.28186-2.30841,7.68718,7.68718,0,0,0-2.71319-.59071C31.6039,48.7384,34.87083,48.66957,35.62918,48.79523Z" style="fill:#706f6f"/><path d="M29.21428,49.82016a4.99771,4.99771,0,0,1,3.134,1.41315,1.466,1.466,0,0,1,.38417.88877.77223.77223,0,0,1-.5102.7623c-.50526.13841-.92358-.37572-1.24651-.78823a7.451,7.451,0,0,0-3.28186-2.30841,7.68718,7.68718,0,0,0-2.71319-.59071C25.189,49.76333,28.45594,49.69449,29.21428,49.82016Z" style="fill:#706f6f"/><path d="M45.71486,38.78958a4.9977,4.9977,0,0,1,3.134,1.41315,1.466,1.466,0,0,1,.38416.88876.77221.77221,0,0,1-.51019.7623c-.50527.13842-.92358-.37571-1.24651-.78822a7.451,7.451,0,0,0-3.28187-2.30841,7.687,7.687,0,0,0-2.71318-.59071C41.68958,38.73274,44.95651,38.66391,45.71486,38.78958Z" style="fill:#706f6f"/><path d="M46.38507,34.1064a4.99776,4.99776,0,0,1,3.134,1.41315,1.4661,1.4661,0,0,1,.38417.88877.77223.77223,0,0,1-.5102.7623c-.50527.13841-.92358-.37571-1.24651-.78823A7.45093,7.45093,0,0,0,44.8647,34.074a7.687,7.687,0,0,0-2.71319-.59072C42.3598,34.04957,45.62673,33.98074,46.38507,34.1064Z" style="fill:#706f6f"/><path d="M47.86738,29.03194a4.9977,4.9977,0,0,1,3.134,1.41315,1.466,1.466,0,0,1,.38416.88876.77223.77223,0,0,1-.5102.7623c-.50526.13842-.92358-.37571-1.24651-.78822A7.451,7.451,0,0,0,46.347,28.99952a7.687,7.687,0,0,0-2.71319-.59071C43.8421,28.9751,47.109,28.90627,47.86738,29.03194Z" style="fill:#706f6f"/><path d="M50.42675,25.01452a4.9977,4.9977,0,0,1,3.134,1.41315,1.466,1.466,0,0,1,.38416.88876.77223.77223,0,0,1-.5102.7623c-.50526.13842-.92358-.37571-1.24651-.78822a7.451,7.451,0,0,0-3.28186-2.30841,7.687,7.687,0,0,0-2.71319-.59071C46.40147,24.95768,49.6684,24.88885,50.42675,25.01452Z" style="fill:#706f6f"/><path d="M49.26507,55.62052c-.117-.41962.36606-.72768.71684-.986s.55-.92476.12743-1.03082a.95175.95175,0,0,1,1.25749-.35826,3.8664,3.8664,0,0,1,1.10229.93981,1.77071,1.77071,0,0,0,1.25641.65118,3.21187,3.21187,0,0,0-.44207-3.32294l1.80331-1.48816c.36545-.30159.75937-.8236.45387-1.1858a4.91271,4.91271,0,0,1,2.12313.839c.21888-.43511-.22459-.915-.6622-1.12886s-.97264-.39328-1.13465-.85261l2.795-1.03726c.04219-.50713-.60651-.74329-1.1107-.81223-1.7596-.24061-3.22792-1.01027-4.03415,1.07131a7.32917,7.32917,0,0,1-.41794,1.08087c-.37974.65068-1.07.79694-1.56184,1.28948a16.59979,16.59979,0,0,0-1.1706,1.72923,25.40882,25.40882,0,0,0-2.58358,3.736c-.22034.43959-.92423,1.62554-.42234,2.09206.65606.60982,1.89977-.851,2.40381.33473C50.24293,56.40035,49.38775,56.23392,49.26507,55.62052Z" style="fill:#706f6f"/><path d="M53.90148,16.84834a1.23312,1.23312,0,0,0,1.67519-.63287,1.02467,1.02467,0,0,0-1.07794-1.2915,1.79222,1.79222,0,0,0,1.63406-2.90787c.21621.36957.79925.05118.99134-.33148a2.44544,2.44544,0,0,0-.73734-2.98536,1.9121,1.9121,0,0,0,.21335-3.18162c-.15717-.03419-.15626.27679.00289.30011s.2862-.13389.34231-.28463a1.51537,1.51537,0,0,0-.42555-1.52449,4.45745,4.45745,0,0,0-1.41785-.86372l-2.12415-.9533c-.20833.07569-.17633.39389-.03638.56577s.34978.30081.41105.51382a1.85308,1.85308,0,0,1-.02989.57465,1.09679,1.09679,0,0,0,.79642.9912,3.21233,3.21233,0,0,0,1.35107.05755,1.07126,1.07126,0,0,0-.611,1.09827,4.50542,4.50542,0,0,0,.38472,1.28845,6.83874,6.83874,0,0,1,.40413,2.977,4.419,4.419,0,0,1-.19413,1.00786c-.25931.78114-.82066,1.5148-.71642,2.33123.05952.46615.33561.93836.16838,1.37753a1.71651,1.71651,0,0,1-.37689.51205c-.71126.78138-2.05046,3.02511-.53589,3.76935C55.63977,20.06562,55.2733,17.3542,53.90148,16.84834Z" style="fill:#706f6f"/><path d="M49.21887,3.93461a3.36878,3.36878,0,0,1,.48775.259.362.362,0,0,1,.10281.48549.54206.54206,0,0,0-.09657.10932c-.07072.15034.16.25418.326.26156.37015.01645,1.60113.26548,1.89106.01875A5.80693,5.80693,0,0,0,52.46151,3.57a2.86154,2.86154,0,0,0-.58215-2.56676C50.17073-.537,47.30421,2.82629,49.21887,3.93461Z" style="fill:#706f6f"/><g style="opacity:0.8"><circle cx="40.32604" cy="5.88495" r="2.99319" style="fill:#8ef4c0"/><path d="M37.73386,4.38837a2.98258,2.98258,0,0,0-.264,2.26191,2.87041,2.87041,0,1,0,2.091-3.62134A2.9826,2.9826,0,0,0,37.73386,4.38837Zm0,0a3.11781,3.11781,0,0,1,5.69009.66651,3.22653,3.22653,0,0,1-.28964,2.45141A3.23261,3.23261,0,0,1,41.156,8.98219a3.118,3.118,0,0,1-3.42209-4.59382Z" style="fill:#5c9b78"/><circle cx="39.19486" cy="4.4767" r="0.63431" style="fill:#fff"/></g><g style="opacity:0.7000000000000001"><circle cx="42.62044" cy="13.80803" r="1.78777" style="fill:#8ef4c0"/><path d="M41.07218,12.91413a1.78146,1.78146,0,0,0-.1577,1.351,1.71446,1.71446,0,1,0,1.24888-2.163A1.78157,1.78157,0,0,0,41.07218,12.91413Zm0,0a1.86222,1.86222,0,0,1,3.39859.39813A1.866,1.866,0,0,1,43.11612,15.658a1.86231,1.86231,0,0,1-2.04394-2.74384Z" style="fill:#5c9b78"/><circle cx="41.94481" cy="12.96691" r="0.37886" style="fill:#fff"/></g><g style="opacity:0.5"><circle cx="28.43887" cy="15.55074" r="3.99197" style="fill:#8ef4c0"/><path d="M24.98172,13.55476a3.97765,3.97765,0,0,0-.35214,3.01666,3.82828,3.82828,0,1,0,2.78868-4.82965A3.97739,3.97739,0,0,0,24.98172,13.55476Zm0,0a4.15814,4.15814,0,0,1,7.58879.88891,4.16647,4.16647,0,0,1-3.02481,5.23779,4.15838,4.15838,0,0,1-4.564-6.1267Z" style="fill:#5c9b78"/><circle cx="26.93024" cy="13.67258" r="0.84597" style="fill:#fff"/></g><g style="opacity:0.2"><circle cx="30.97587" cy="26.75294" r="2.43773" style="fill:#8ef4c0"/><path d="M28.86473,25.53407a2.42906,2.42906,0,0,0-.215,1.84216A2.33772,2.33772,0,1,0,30.35263,24.427,2.42888,2.42888,0,0,0,28.86473,25.53407Zm0,0a2.53924,2.53924,0,0,1,4.63417.54284,2.54432,2.54432,0,0,1-1.84713,3.19849,2.53937,2.53937,0,0,1-2.787-3.74133Z" style="fill:#5c9b78"/><circle cx="30.05462" cy="25.60603" r="0.5166" style="fill:#fff"/></g><path d="M19.14639,52.88367a14.02028,14.02028,0,0,0-.40467-2.911,4.43449,4.43449,0,0,0-1.2407-2.35748l.66163-.74982a3.77215,3.77215,0,0,1,.85687,1.45972,7.23953,7.23953,0,0,1,.339,1.53107,14.43658,14.43658,0,0,1,.03109,3.03857Z" style="fill:#5c9b78"/><circle cx="17.14556" cy="46.72075" r="1.21778" style="fill:#8ef4c0"/><path d="M16.02039,46.255a1.15539,1.15539,0,1,0,1.567-.60132A1.16611,1.16611,0,0,0,16.02039,46.255Zm0,0a1.28016,1.28016,0,1,1,.63556,1.64844A1.28238,1.28238,0,0,1,16.02039,46.255Z" style="fill:#5c9b78"/><circle cx="16.71241" cy="46.37857" r="0.29641" style="fill:#fff"/><path d="M23.52271,55.16993a14.02053,14.02053,0,0,0,.58271-2.88068,4.43434,4.43434,0,0,0-.38949-2.63537l.87269-.48828a3.77233,3.77233,0,0,1,.32482,1.66119,7.23889,7.23889,0,0,1-.18747,1.55688,14.4357,14.4357,0,0,1-.97746,2.87726Z" style="fill:#5c9b78"/><circle cx="23.67691" cy="48.69218" r="1.21778" style="fill:#8ef4c0"/><path d="M22.76964,47.87989a1.15539,1.15539,0,1,0,1.67769-.04822A1.16609,1.16609,0,0,0,22.76964,47.87989Zm0,0a1.28015,1.28015,0,1,1,.05345,1.76593A1.2824,1.2824,0,0,1,22.76964,47.87989Z" style="fill:#5c9b78"/><circle cx="23.3816" cy="48.22581" r="0.29641" style="fill:#fff"/></g></svg>