<svg xmlns="http://www.w3.org/2000/svg" viewBox="0 0 28.7234 12.6383"><defs><style>.a{fill:#fff;}.b{fill:#3c3c3b;}</style></defs><rect class="a" width="28.7234" height="12.6383" rx="6.31914"/><path class="b" d="M9.26976,4.39813a1.90424,1.90424,0,0,1,.53077,1.47558v2.437a.19432.19432,0,0,1-.05225.13671.18177.18177,0,0,1-.14063.05616H8.9641a.19174.19174,0,0,1-.19287-.19287v-2.397a1.01266,1.01266,0,0,0-1.1499-1.1416H7.07445a5.57613,5.57613,0,0,0-.11279.66748,5.91678,5.91678,0,0,0-.02393.71582l.04,2.15528a.19174.19174,0,0,1-.19287.19287L5.36937,8.49578a.19255.19255,0,0,1-.19287-.19336V7.86a.18321.18321,0,0,1,.05615-.14062.19436.19436,0,0,1,.13672-.05225l.63526.0083V6.17938a6.881,6.881,0,0,1,.02-.728,4.59758,4.59758,0,0,1,.1167-.6792h-.4585A.19255.19255,0,0,1,5.49,4.57879V4.10467a.18354.18354,0,0,1,.05615-.14111.19436.19436,0,0,1,.13672-.05225H7.66967A2.298,2.298,0,0,1,9.26976,4.39813Z"/><path class="b" d="M10.91869,8.44744a.1861.1861,0,0,1-.05664-.13671V4.10467a.18387.18387,0,0,1,.05664-.14111.19353.19353,0,0,1,.13672-.05225h.67529a.18018.18018,0,0,1,.19336.19336V8.31073a.19432.19432,0,0,1-.05225.13671.18354.18354,0,0,1-.14111.05616h-.67529A.18493.18493,0,0,1,10.91869,8.44744Z"/><path class="b" d="M16.59642,3.968a.18493.18493,0,0,1,.05616.13672v.47412a.18493.18493,0,0,1-.05616.13672.19609.19609,0,0,1-.14453.05664h-.42627a.9979.9979,0,0,0-.16113.394,2.6706,2.6706,0,0,0-.05615.5708V8.32684a.15625.15625,0,0,1-.06445.12451.2249.2249,0,0,1-.14454.05225H14.9558a.16559.16559,0,0,1-.17676-.17676V5.66473a1.56993,1.56993,0,0,1,.18457-.89258H12.93724a.19256.19256,0,0,1-.19287-.19336V4.10467a.18354.18354,0,0,1,.05616-.14111.19432.19432,0,0,1,.13671-.05225h3.51465A.19609.19609,0,0,1,16.59642,3.968Z"/><path class="b" d="M17.56957,8.44744a.1861.1861,0,0,1-.05664-.13671V4.10467a.18387.18387,0,0,1,.05664-.14111.19353.19353,0,0,1,.13672-.05225h.67529a.18018.18018,0,0,1,.19336.19336V8.31073a.19432.19432,0,0,1-.05225.13671.18354.18354,0,0,1-.14111.05616h-.67529A.18493.18493,0,0,1,17.56957,8.44744Z"/><path class="b" d="M23.65746,8.33465a.15785.15785,0,0,1-.05225.12061.16835.16835,0,0,1-.1167.04834h-.67529a.24892.24892,0,0,1-.13281-.03223.36238.36238,0,0,1-.08447-.06836l-.04-.04394-1.625-2.3086a1.129,1.129,0,0,0-.36963.519,2.03243,2.03243,0,0,0-.09668.63916V8.30242a.20565.20565,0,0,1-.05225.145.18176.18176,0,0,1-.14062.05616h-.54688a.18571.18571,0,0,1-.13672-.05616.19613.19613,0,0,1-.05615-.145V7.20086a2.76044,2.76044,0,0,1,.18457-1.07763,1.91524,1.91524,0,0,1,.708-.79639l-.78809-1.11768a.27328.27328,0,0,1-.04052-.1289.16341.16341,0,0,1,.04834-.12061.15456.15456,0,0,1,.11279-.04834h.65137a.321.321,0,0,1,.25732.15283l1.49561,2.09912a.894.894,0,0,0,.39843-.42236,1.71181,1.71181,0,0,0,.08448-.583V4.11248a.20154.20154,0,0,1,.05224-.14453.18209.18209,0,0,1,.14063-.05664h.5791a.17917.17917,0,0,1,.13672.06055.19865.19865,0,0,1,.05615.14062V5.19842a2.1358,2.1358,0,0,1-.19287.93262,1.91024,1.91024,0,0,1-.74805.748l.94092,1.32715A.213.213,0,0,1,23.65746,8.33465Z"/></svg>