<svg xmlns="http://www.w3.org/2000/svg" xmlns:xlink="http://www.w3.org/1999/xlink" viewBox="0 0 28.95349 28.95349"><defs><style>.a{fill:#fff;}.b{fill:url(#a);}.c{fill:#3c3c3b;}.d{fill:url(#b);}.e{fill:url(#c);}.f{fill:url(#d);}.g{fill:url(#e);}.h{fill:url(#f);}.i{fill:url(#g);}</style><linearGradient id="a" x1="6.78536" y1="14.47675" x2="21.87655" y2="14.47675" gradientUnits="userSpaceOnUse"><stop offset="0" stop-color="#ebca8f"/><stop offset="1" stop-color="#debe9d"/></linearGradient><linearGradient id="b" x1="8.01702" y1="7.96119" x2="8.01702" y2="9.32639" gradientUnits="userSpaceOnUse"><stop offset="0" stop-color="#ebca8f"/><stop offset="1" stop-color="#cfb192"/></linearGradient><linearGradient id="c" x1="20.66783" y1="7.96119" x2="20.66783" y2="9.32639" xlink:href="#b"/><linearGradient id="d" x1="6.78536" y1="14.47675" x2="9.24869" y2="14.47675" xlink:href="#b"/><linearGradient id="e" x1="2386.23253" y1="14.47675" x2="2388.65006" y2="14.47675" gradientTransform="matrix(1, 0, 0, -1, -2366.77347, 28.95349)" xlink:href="#b"/><linearGradient id="f" x1="8.01702" y1="19.52814" x2="8.01702" y2="20.89334" xlink:href="#b"/><linearGradient id="g" x1="20.66783" y1="19.52814" x2="20.66783" y2="20.89334" xlink:href="#b"/></defs><circle class="a" cx="14.47675" cy="14.47675" r="14.47675"/><rect class="b" x="6.78536" y="8.69327" width="15.09119" height="11.56695"/><path class="c" d="M10.528,9.8933a4.01922,4.01922,0,0,1,.44372.75073,2.15382,2.15382,0,0,0,.42652.75049,6.89644,6.89644,0,0,0,.60192.59826.82568.82568,0,0,0,.74781.22046l.00854.0166a.74383.74383,0,0,1-.87463-.08593,2.32578,2.32578,0,0,1-.56641-.68982,6.75519,6.75519,0,0,0-.48-.73792,2.86793,2.86793,0,0,1-.32434-.81494Z"/><path class="c" d="M12.56439,10.25218a2.87978,2.87978,0,0,1-.54846.5968,2.8078,2.8078,0,0,0-.61169.52723,5.08943,5.08943,0,0,1-1.21643,1.06262l-.0127-.01355a5.0918,5.0918,0,0,1,1.16016-1.12415,2.81,2.81,0,0,0,.57678-.56616,2.86777,2.86777,0,0,1,.63977-.49658Z"/><path class="c" d="M11.48114,11.5764a3.96617,3.96617,0,0,1,2.21253-.72864,1.353,1.353,0,0,1,.31689.05017.61451.61451,0,0,1,.23621.22486.93338.93338,0,0,1,.1239.61169,1.32522,1.32522,0,0,1-.70166.967c-.679.43042-1.63147.26038-2.08167.91785a.80244.80244,0,0,0,.266.99951,1.65065,1.65065,0,0,0,1.07288.3114c.38452-.00244.77539-.04,1.16406-.0603a1.7951,1.7951,0,0,1,.62366.01855.61457.61457,0,0,1,.21472.60975,1.45512,1.45512,0,0,1-.73755.95324,5.05437,5.05437,0,0,0-.96155.62134c-.06909.07532-.08.08765-.04736.14893a1.39037,1.39037,0,0,0,.17017.2063,1.9422,1.9422,0,0,0,.44384.33325,2.99585,2.99585,0,0,0,1.07825.33984c.76184.10034,1.54968-.019,2.32935.0697l.01184.00135.0022.01049.03833.17908-.01807.00452-.05042-.176.0138.0116c-.7771-.02527-1.5503.11047-2.343.03918a3.1561,3.1561,0,0,1-1.15015-.31884,1.94262,1.94262,0,0,1-.48767-.36573,1.48877,1.48877,0,0,1-.198-.246.28886.28886,0,0,1,.07935-.36621,5.11855,5.11855,0,0,1,.99731-.64221,1.29148,1.29148,0,0,0,.66175-.8291.49284.49284,0,0,0-.12854-.4469,2.2367,2.2367,0,0,0-.536-.01673c-.39026.00708-.77747.02991-1.17237.02076a1.73137,1.73137,0,0,1-1.11743-.35743.91832.91832,0,0,1-.28344-1.08789,1.51753,1.51753,0,0,1,.99609-.61389,3.8611,3.8611,0,0,0,1.07678-.39184,1.2513,1.2513,0,0,0,.616-.8667c.062-.33741-.12451-.79261-.52051-.73743a4.36843,4.36843,0,0,0-2.20032.61707Z"/><path class="c" d="M17.56671,17.48253a.37739.37739,0,0,0-.55212-.01416,1.25971,1.25971,0,0,0-.27161.5769c-.026.10926-.1123.2356-.06592.28467a1.17266,1.17266,0,0,0,.25147.20581,5.35665,5.35665,0,0,0,.59192.35816,1.08233,1.08233,0,0,0,.62439.12585c.18359-.02222.24426-.25183.23645-.44629a1.92568,1.92568,0,0,0-.21021-.6189c-.10559-.19909-.20776-.415-.42724-.49353l.00329-.01831c.25659.01892.41675.25855.54053.44373a1.47541,1.47541,0,0,1,.285.66931.6588.6588,0,0,1-.06567.38831,1.8751,1.8751,0,0,1-.13293.1726.439.439,0,0,1-.20228.0763,1.11206,1.11206,0,0,1-.7008-.20984c-.20422-.12122-.37744-.27612-.57813-.39356a1.80455,1.80455,0,0,1-.30517-.2069c-.09363-.15345.00451-.27.0061-.37745a1.0811,1.0811,0,0,1,.33264-.64953c.20215-.1543.57361-.1416.65735.1195Z"/><ellipse class="d" cx="8.01702" cy="8.69327" rx="1.23167" ry="0.57363"/><ellipse class="e" cx="20.66783" cy="8.69327" rx="1.23167" ry="0.57363"/><rect class="f" x="6.78536" y="8.69327" width="2.46333" height="11.56695"/><rect class="g" x="19.45906" y="8.69327" width="2.41753" height="11.56695" transform="translate(41.33565 28.95349) rotate(-180)"/><ellipse class="h" cx="8.01702" cy="20.26022" rx="1.23167" ry="0.57363"/><ellipse class="i" cx="20.66783" cy="20.26022" rx="1.23167" ry="0.57363"/></svg>