<svg xmlns="http://www.w3.org/2000/svg" viewBox="0 0 67.08511 30.39559"><defs><style>.a{fill:#386ec4;stroke:#fff;stroke-miterlimit:10;stroke-width:3px;}.b{fill:#fff;}</style></defs><rect class="a" x="1.5" y="1.5" width="64.08511" height="27.39559" rx="5.7829"/><path class="b" d="M20.40153,19.09426a.36447.36447,0,0,1-.10352-.26661v-4.3789a1.48374,1.48374,0,0,0-1.67187-1.68653h-3.373a.38888.38888,0,0,1-.27344-.10351.34863.34863,0,0,1-.11132-.2666V11.11965a.34865.34865,0,0,1,.11132-.26661.38888.38888,0,0,1,.27344-.10351h3.44727a4.53815,4.53815,0,0,1,3.07031.90234A3.55155,3.55155,0,0,1,22.798,14.4634v4.36425a.3513.3513,0,0,1-.11035.26661.38964.38964,0,0,1-.27441.10351H20.66813A.36447.36447,0,0,1,20.40153,19.09426Zm-5.42188,0a.34865.34865,0,0,1-.11132-.26661V14.50734a.34507.34507,0,0,1,.11132-.26562.38461.38461,0,0,1,.27344-.10352h1.7461a.35451.35451,0,0,1,.36914.36914v4.32031a.36632.36632,0,0,1-.10352.25879.34506.34506,0,0,1-.26562.11133h-1.7461A.38893.38893,0,0,1,14.97965,19.09426Z"/><path class="b" d="M28.13981,19.28664a.43076.43076,0,0,1-.11914-.2959V17.4966a.4555.4555,0,0,1,.10352-.28125.58143.58143,0,0,1,.2666-.19238l.459-.19239a2.43434,2.43434,0,0,0,1.08008-.792,2.43721,2.43721,0,0,0,.39941-1.501,1.96209,1.96209,0,0,0-.333-1.30273,1.60593,1.60593,0,0,0-1.22071-.36914H24.84a.37858.37858,0,0,1-.38379-.38477V11.105a.32491.32491,0,0,1,.11718-.252.40012.40012,0,0,1,.26661-.10351h4.4541a3.59185,3.59185,0,0,1,2.76562.9248,4.01979,4.01979,0,0,1,.84375,2.78907,4.35151,4.35151,0,0,1-1.10937,3.07714,5.89985,5.89985,0,0,1-2.78125,1.67188l-.60742.17773A.27024.27024,0,0,1,28.13981,19.28664Zm-3.57324,2.63281a.34428.34428,0,0,1-.11035-.26562V14.50734a.34427.34427,0,0,1,.11035-.26562A.383.383,0,0,1,24.84,14.1382h1.68652a.35458.35458,0,0,1,.37012.36914v7.14649a.35458.35458,0,0,1-.37012.36914H24.84A.383.383,0,0,1,24.56657,21.91945Z"/><path class="b" d="M34.37614,15.58742a.34506.34506,0,0,1-.11133-.26563V11.11965a.34863.34863,0,0,1,.11133-.26661.38555.38555,0,0,1,.27344-.10351h1.84961a.35457.35457,0,0,1,.36914.37012v4.20214a.37058.37058,0,0,1-.10352.25879.3491.3491,0,0,1-.26562.11035H34.64958A.38136.38136,0,0,1,34.37614,15.58742Z"/><path class="b" d="M45.36051,10.853a.36447.36447,0,0,1,.10352.26661v1.27246a.37059.37059,0,0,1-.10352.25879.34862.34862,0,0,1-.2666.11132h-.68066a2.275,2.275,0,0,0-.27344.75391,5.27545,5.27545,0,0,0-.0957,1.05078V18.8716a.27525.27525,0,0,1-.14063.22949.50518.50518,0,0,1-.28906.09668H41.884a.32275.32275,0,0,1-.2373-.08887.31892.31892,0,0,1-.08887-.2373V14.40383a3.191,3.191,0,0,1,.2959-1.64161h-3.373a.38056.38056,0,0,1-.37012-.37011V11.11965a.34863.34863,0,0,1,.11133-.26661.37058.37058,0,0,1,.25879-.10351h6.61328A.36443.36443,0,0,1,45.36051,10.853Z"/><path class="b" d="M46.63981,19.08644a.35441.35441,0,0,1-.11133-.25879V17.55519a.34861.34861,0,0,1,.11133-.2666.37058.37058,0,0,1,.25879-.10351h3.71387V14.44875a1.47762,1.47762,0,0,0-1.67188-1.67188H47.04606a.34648.34648,0,0,1-.26562-.11133.38885.38885,0,0,1-.10352-.27343V11.11965a.34863.34863,0,0,1,.11133-.26661.37.37,0,0,1,.25781-.10351h1.96875a4.81986,4.81986,0,0,1,3.12891.873,3.462,3.462,0,0,1,1.05761,2.82617v2.73633h.51856a.35456.35456,0,0,1,.36914.37011v1.27246a.37058.37058,0,0,1-.10352.25879.34794.34794,0,0,1-.26562.11133H46.8986A.35442.35442,0,0,1,46.63981,19.08644Z"/></svg>