<svg xmlns="http://www.w3.org/2000/svg" viewBox="0 0 67.08511 30.39559"><defs><style>.a{fill:#386ec4;stroke:#fff;stroke-miterlimit:10;stroke-width:3px;}.b{fill:#fff;}</style></defs><rect class="a" x="1.5" y="1.5" width="64.08511" height="27.39559" rx="5.7829"/><path class="b" d="M16.535,20.92877a.34783.34783,0,0,1-.11036-.2666v-9.543a.34573.34573,0,0,1,.11036-.26563.383.383,0,0,1,.27343-.10351h1.7461a.35455.35455,0,0,1,.37011.36914v9.543a.35462.35462,0,0,1-.37011.37011h-1.7461A.3872.3872,0,0,1,16.535,20.92877Z"/><path class="b" d="M20.79577,19.09381a.34506.34506,0,0,1-.11133-.26563v-7.709a.34651.34651,0,0,1,.11133-.26563.38465.38465,0,0,1,.27344-.10351h1.84961a.3545.3545,0,0,1,.36914.36914v7.709a.36632.36632,0,0,1-.10352.25879.34768.34768,0,0,1-.26562.11035H21.06921A.38465.38465,0,0,1,20.79577,19.09381Z"/><path class="b" d="M30.68639,11.67486a4.02342,4.02342,0,0,1,.84278,2.78809,4.35151,4.35151,0,0,1-1.10938,3.07715A5.881,5.881,0,0,1,27.63757,19.212l-.60547.17774a.285.285,0,0,1-.27344-.10352.42255.42255,0,0,1-.12695-.2959V17.49615a.425.425,0,0,1,.10351-.27344.734.734,0,0,1,.26758-.20019l.47266-.19238a2.39442,2.39442,0,0,0,1.07226-.791,2.47409,2.47409,0,0,0,.39258-1.502,1.9913,1.9913,0,0,0-.32617-1.30176,1.5781,1.5781,0,0,0-1.21289-.37012h-.38477l-1.98242-.01465a.35455.35455,0,0,1-.36914-.37011v-3.417a.35129.35129,0,0,1,.11035-.2666.368.368,0,0,1,.25879-.10351h1.59766a.35613.35613,0,0,1,.37109.37011v1.68653h.916A3.59377,3.59377,0,0,1,30.68639,11.67486Z"/><path class="b" d="M42.49206,10.85357a.35838.35838,0,0,1,.10351.26563v3.877a4.35286,4.35286,0,0,1-.59179,2.28516,4.01158,4.01158,0,0,1-1.61231,1.5166,4.69526,4.69526,0,0,1-2.26367.51758H36.7069a4.4537,4.4537,0,0,1-2.07129-.458,3.27467,3.27467,0,0,1-1.35351-1.24316,3.32441,3.32441,0,0,1-.46582-1.73047V11.1192a.34573.34573,0,0,1,.11035-.26563.38627.38627,0,0,1,.27344-.10351h1.55468a.35838.35838,0,0,1,.26563.10351.36218.36218,0,0,1,.10351.26563L35.13952,14.67a1.36013,1.36013,0,0,0,1.123-.61328,3.01242,3.01242,0,0,0,.32617-1.5459V11.14947a.39157.39157,0,0,1,.11133-.28906.37259.37259,0,0,1,.27343-.11035h1.53907a.34178.34178,0,0,1,.25781.11816.39718.39718,0,0,1,.11133.28125V12.5401a3.85185,3.85185,0,0,1-.873,2.66308,3.6708,3.6708,0,0,1-2.4707,1.13868,1.91924,1.91924,0,0,0,.748.72558,2.12192,2.12192,0,0,0,1.02735.251h.34082a2.94,2.94,0,0,0,1.36035-.31055,2.34627,2.34627,0,0,0,.94726-.8584,2.27656,2.27656,0,0,0,.33985-1.22754V11.1192a.35462.35462,0,0,1,.37109-.36914h1.55274A.36063.36063,0,0,1,42.49206,10.85357Z"/><path class="b" d="M44.14147,19.09381a.34506.34506,0,0,1-.11133-.26563V17.46686a.3786.3786,0,0,1,.38477-.38477h2.14551a1.5754,1.5754,0,0,0,1.77539-1.67188c.00976-.11816.01465-.2666.01465-.44433,0-.167-.00489-.31055-.01465-.42871a1.5754,1.5754,0,0,0-1.77539-1.67188H44.41491a.3786.3786,0,0,1-.38477-.38476V11.1192a.34651.34651,0,0,1,.11133-.26563.38465.38465,0,0,1,.27344-.10351h2.21973q3.91992,0,4.09863,3.80176c.00879.10839.01367.24707.01367.41406a4.59157,4.59157,0,0,1-.96875,3.12207,3.9714,3.9714,0,0,1-3.14355,1.10937H44.41491A.38465.38465,0,0,1,44.14147,19.09381Z"/></svg>