<svg xmlns="http://www.w3.org/2000/svg" viewBox="0 0 67.08511 30.39559"><defs><style>.a{fill:#3c3c3b;stroke:#fff;stroke-miterlimit:10;stroke-width:3px;}.b{fill:#fff;}</style></defs><rect class="a" x="1.5" y="1.5" width="64.08511" height="27.39559" rx="5.7829"/><path class="b" d="M16.535,20.92862a.34715.34715,0,0,1-.11036-.26562V11.12a.34638.34638,0,0,1,.11036-.2666.383.383,0,0,1,.27343-.10352h1.7461a.35463.35463,0,0,1,.37011.37012v9.543a.35456.35456,0,0,1-.37011.36914h-1.7461A.38721.38721,0,0,1,16.535,20.92862Z"/><path class="b" d="M20.79577,19.09464a.34861.34861,0,0,1-.11133-.2666V11.12a.34715.34715,0,0,1,.11133-.2666.38461.38461,0,0,1,.27344-.10352h1.84961A.35458.35458,0,0,1,23.288,11.12v7.708a.36634.36634,0,0,1-.10352.25879.34506.34506,0,0,1-.26562.11133H21.06921A.38889.38889,0,0,1,20.79577,19.09464Z"/><path class="b" d="M30.68639,11.67472a4.02447,4.02447,0,0,1,.84278,2.78906A4.35071,4.35071,0,0,1,30.41979,17.54a5.87324,5.87324,0,0,1-2.78222,1.67188l-.60547.17773a.28292.28292,0,0,1-.27344-.10351.42036.42036,0,0,1-.12695-.29493V17.497a.42548.42548,0,0,1,.10351-.27441.74508.74508,0,0,1,.26758-.2002l.47266-.1914a2.38912,2.38912,0,0,0,1.07226-.792,2.47287,2.47287,0,0,0,.39258-1.501,1.99265,1.99265,0,0,0-.32617-1.30274,1.57821,1.57821,0,0,0-1.21289-.36914h-.38477l-1.98242-.01562a.3545.3545,0,0,1-.36914-.36914v-3.418a.35126.35126,0,0,1,.11035-.2666.368.368,0,0,1,.25879-.10352h1.59766a.35614.35614,0,0,1,.37109.37012v1.68652h.916A3.59377,3.59377,0,0,1,30.68639,11.67472Z"/><path class="b" d="M42.49206,10.85343a.35908.35908,0,0,1,.10351.2666v3.876a4.35883,4.35883,0,0,1-.59179,2.28613,4.00919,4.00919,0,0,1-1.61231,1.51562,4.69515,4.69515,0,0,1-2.26367.51758H36.7069a4.45358,4.45358,0,0,1-2.07129-.458,3.27461,3.27461,0,0,1-1.35351-1.24316,3.3219,3.3219,0,0,1-.46582-1.73047V11.12a.34638.34638,0,0,1,.11035-.2666.38624.38624,0,0,1,.27344-.10352h1.55468a.35835.35835,0,0,1,.26563.10352.36288.36288,0,0,1,.10351.2666l.01563,3.55078a1.3632,1.3632,0,0,0,1.123-.61426,3.01238,3.01238,0,0,0,.32617-1.54589V11.14933a.39158.39158,0,0,1,.11133-.28907.37259.37259,0,0,1,.27343-.11035h1.53907a.34519.34519,0,0,1,.25781.11817.39718.39718,0,0,1,.11133.28125v1.39062a3.85021,3.85021,0,0,1-.873,2.66309,3.67155,3.67155,0,0,1-2.4707,1.13965,1.92344,1.92344,0,0,0,.748.72461,2.12271,2.12271,0,0,0,1.02735.252h.34082a2.94,2.94,0,0,0,1.36035-.31055,2.35548,2.35548,0,0,0,.94726-.85937,2.27656,2.27656,0,0,0,.33985-1.22754V11.12a.3547.3547,0,0,1,.37109-.37012h1.55274A.3606.3606,0,0,1,42.49206,10.85343Z"/><path class="b" d="M44.14147,19.09464a.34861.34861,0,0,1-.11133-.2666V17.46671a.37862.37862,0,0,1,.38477-.38477h2.14551a1.57539,1.57539,0,0,0,1.77539-1.67187c.00976-.11816.01465-.2666.01465-.44434,0-.167-.00489-.31054-.01465-.42773a1.57494,1.57494,0,0,0-1.77539-1.67188H44.41491a.38018.38018,0,0,1-.38477-.38476V11.12a.34715.34715,0,0,1,.11133-.2666.38461.38461,0,0,1,.27344-.10352h2.21973q3.91992,0,4.09863,3.80176c.00879.10938.01367.24707.01367.41406a4.596,4.596,0,0,1-.96875,3.123,3.97476,3.97476,0,0,1-3.14355,1.10938H44.41491A.38889.38889,0,0,1,44.14147,19.09464Z"/></svg>