<svg xmlns="http://www.w3.org/2000/svg" viewBox="0 0 88.62064 26.65516"><defs><style>.a{fill:#386ec4;stroke-miterlimit:10;stroke-width:3px;}.a,.c{stroke:#fff;}.b{fill:#fff;}.c{fill:none;stroke-linecap:round;stroke-linejoin:round;stroke-width:2.3509px;}</style></defs><rect class="a" x="1.5" y="1.5" width="85.62064" height="23.65516" rx="11.45948"/><path class="b" d="M27.85867,17.39372a.36038.36038,0,0,1-.11523-.27734V12.55192a1.54726,1.54726,0,0,0-1.74317-1.75781H23.65652a.39733.39733,0,0,1-.38574-.38574V9.0822a.36118.36118,0,0,1,.11621-.27735.382.382,0,0,1,.26953-.10839H26.093a4.92319,4.92319,0,0,1,3.2002.8789,3.55354,3.55354,0,0,1,1.05566,2.88379v4.65723a.38523.38523,0,0,1-.10742.26953.36407.36407,0,0,1-.27734.11621H28.14383A.4008.4008,0,0,1,27.85867,17.39372Z"/><path class="b" d="M32.2073,17.39372a.36115.36115,0,0,1-.11621-.27734V9.0822a.36118.36118,0,0,1,.11621-.27735.40086.40086,0,0,1,.28516-.10839h1.92773a.37111.37111,0,0,1,.38575.38574v8.03418a.382.382,0,0,1-.1084.26953.36264.36264,0,0,1-.27735.11621H32.49246A.40082.40082,0,0,1,32.2073,17.39372Z"/><path class="b" d="M41.47488,8.80485a.36118.36118,0,0,1,.11621.27735v1.32617a.384.384,0,0,1-.40137.38574h-.709a2.35434,2.35434,0,0,0-.28613.78613A5.55108,5.55108,0,0,0,40.095,12.675v4.48731a.29156.29156,0,0,1-.13867.23925.49014.49014,0,0,1-.293.10059H37.85867a.3191.3191,0,0,1-.33887-.33984V12.506a3.32415,3.32415,0,0,1,.3086-1.71192H36.67117a.39556.39556,0,0,1-.38477-.38574V9.0822a.36041.36041,0,0,1,.11524-.27735.382.382,0,0,1,.26953-.10839h4.51855A.40084.40084,0,0,1,41.47488,8.80485Z"/><path class="b" d="M43.17117,17.39372a.36038.36038,0,0,1-.11523-.27734V9.0822a.3604.3604,0,0,1,.11523-.27735.40248.40248,0,0,1,.28516-.10839H47.096a4.84617,4.84617,0,0,1,3.23047.90234,3.74069,3.74069,0,0,1,1.041,2.96875v4.54883a.38523.38523,0,0,1-.10742.26953.36474.36474,0,0,1-.27832.11621H49.16238a.40082.40082,0,0,1-.28516-.1084.36042.36042,0,0,1-.11523-.27734V12.55192a1.54726,1.54726,0,0,0-1.74316-1.75781H45.66238v6.32227a.382.382,0,0,1-.1084.26953.3626.3626,0,0,1-.27734.11621H43.45633A.40245.40245,0,0,1,43.17117,17.39372Z"/><polyline class="c" points="62.771 9.153 66.646 13.028 62.771 16.903"/></svg>