<svg xmlns="http://www.w3.org/2000/svg" viewBox="0 0 67.08511 30.39559"><defs><style>.a{fill:#386ec4;stroke:#fff;stroke-miterlimit:10;stroke-width:3px;}.b{fill:#fff;}</style></defs><rect class="a" x="1.5" y="1.5" width="64.08511" height="27.39559" rx="5.7829"/><path class="b" d="M17.20589,12.76222H14.85335a.37878.37878,0,0,1-.36914-.37011V11.11965a.3513.3513,0,0,1,.11035-.26661.37058.37058,0,0,1,.25879-.10351h2.44141a4.75033,4.75033,0,0,1,3.07714.83594,3.41924,3.41924,0,0,1,1.00586,2.77441v6.30273a.3545.3545,0,0,1-.36914.36915H19.26253a.38461.38461,0,0,1-.27344-.10352.34651.34651,0,0,1-.11133-.26563V14.44875A1.48412,1.48412,0,0,0,17.20589,12.76222Z"/><path class="b" d="M32.578,10.853a.36447.36447,0,0,1,.10351.26661v3.876a4.35884,4.35884,0,0,1-.59179,2.28614,4.01455,4.01455,0,0,1-1.61328,1.5166,4.70113,4.70113,0,0,1-2.26368.51757H26.7928a4.45388,4.45388,0,0,1-2.07129-.459A3.279,3.279,0,0,1,23.368,17.61476a3.32537,3.32537,0,0,1-.46582-1.73144V11.11965a.34784.34784,0,0,1,.11035-.26661.38888.38888,0,0,1,.27344-.10351h1.55371a.35462.35462,0,0,1,.37011.37012l.01465,3.55078a1.36368,1.36368,0,0,0,1.124-.61426,3.00756,3.00756,0,0,0,.32617-1.5459V11.14894a.39247.39247,0,0,1,.11035-.28808.37186.37186,0,0,1,.27441-.11133h1.53809a.3457.3457,0,0,1,.25879.11816.39718.39718,0,0,1,.11133.28125v1.39063a3.84849,3.84849,0,0,1-.873,2.66308,3.66723,3.66723,0,0,1-2.4707,1.13965,1.91415,1.91415,0,0,0,.74707.72461,2.12635,2.12635,0,0,0,1.02832.252h.34082a2.94,2.94,0,0,0,1.36035-.31054,2.35956,2.35956,0,0,0,.94726-.8584,2.28229,2.28229,0,0,0,.33985-1.22852V11.11965a.35462.35462,0,0,1,.37012-.37012h1.55371A.36444.36444,0,0,1,32.578,10.853Z"/><path class="b" d="M41.66194,11.65187a3.577,3.577,0,0,1,.94629,2.708v4.46777a.36635.36635,0,0,1-.10351.25879.34863.34863,0,0,1-.26661.11133H38.2a.37876.37876,0,0,1-.37012-.37012V17.55519a.35128.35128,0,0,1,.11035-.2666A.37119.37119,0,0,1,38.2,17.18508h1.9082V14.478a1.78053,1.78053,0,0,0-.37012-1.19824,1.20986,1.20986,0,0,0-.96191-.42969H37.62288L36.36507,18.813a.45167.45167,0,0,1-.11817.27343.34859.34859,0,0,1-.2666.11133H34.27913a.36966.36966,0,0,1-.27344-.11133.29132.29132,0,0,1-.082-.27343l1.4502-5.94727h-.97657a.34862.34862,0,0,1-.2666-.11133.38888.38888,0,0,1-.10351-.27344V11.11965a.34863.34863,0,0,1,.11133-.26661.37054.37054,0,0,1,.25878-.10351h4.749A3.496,3.496,0,0,1,41.66194,11.65187Z"/><path class="b" d="M49.79866,19.09426a.36064.36064,0,0,1-.10351-.26661v-4.3789a1.48413,1.48413,0,0,0-1.67188-1.68653h-3.373a.3872.3872,0,0,1-.27343-.10351.34861.34861,0,0,1-.11133-.2666V11.11965a.34863.34863,0,0,1,.11133-.26661.3872.3872,0,0,1,.27343-.10351h3.44727a4.53535,4.53535,0,0,1,3.06934.90234,3.552,3.552,0,0,1,1.02832,2.81153v4.36425a.35127.35127,0,0,1-.11036.26661.39128.39128,0,0,1-.27441.10351H50.06526A.36448.36448,0,0,1,49.79866,19.09426Zm-5.42187,0a.34863.34863,0,0,1-.11133-.26661V14.50734a.345.345,0,0,1,.11133-.26562.383.383,0,0,1,.27343-.10352h1.7461a.35451.35451,0,0,1,.36914.36914v4.32031a.36632.36632,0,0,1-.10352.25879.345.345,0,0,1-.26562.11133h-1.7461A.38725.38725,0,0,1,44.37679,19.09426Z"/></svg>