<svg xmlns="http://www.w3.org/2000/svg" viewBox="0 0 67.08511 30.39559"><defs><style>.a{fill:#386ec4;stroke-miterlimit:10;stroke-width:3px;}.a,.c{stroke:#fff;}.b{fill:#fff;}.c{fill:none;stroke-linecap:round;stroke-linejoin:round;stroke-width:2.25546px;}</style></defs><rect class="a" x="1.5" y="1.5" width="64.08511" height="27.39559" rx="5.7829"/><path class="b" d="M23.50225,19.09442a.34784.34784,0,0,1-.11036-.2666v-7.708a.34781.34781,0,0,1,.11036-.2666.38885.38885,0,0,1,.27343-.10352h1.84961a.35465.35465,0,0,1,.37012.37012v7.708a.37055.37055,0,0,1-.10352.25878.34859.34859,0,0,1-.2666.11133H23.77568A.38884.38884,0,0,1,23.50225,19.09442Z"/><path class="b" d="M27.85185,19.09442a.34787.34787,0,0,1-.11035-.2666v-7.708a.34784.34784,0,0,1,.11035-.2666.38889.38889,0,0,1,.27344-.10352h3.49219a4.65771,4.65771,0,0,1,3.09961.86523,3.59446,3.59446,0,0,1,.998,2.84864v4.36426a.3663.3663,0,0,1-.10352.25878.34651.34651,0,0,1-.26562.11133H33.5999a.38723.38723,0,0,1-.27344-.10351.34865.34865,0,0,1-.11132-.2666V14.44891a1.48412,1.48412,0,0,0-1.67188-1.68652H30.2415v6.06543a.37054.37054,0,0,1-.10351.25878.34862.34862,0,0,1-.2666.11133h-1.7461A.38888.38888,0,0,1,27.85185,19.09442Z"/><path class="b" d="M45.25029,11.63055a3.41824,3.41824,0,0,1,1.02832,2.74414v4.45313a.36633.36633,0,0,1-.10351.25878.34862.34862,0,0,1-.2666.11133H44.16338a.3896.3896,0,0,1-.27442-.10351.35129.35129,0,0,1-.11035-.2666V14.44891a1.48411,1.48411,0,0,0-1.67187-1.68652h-.96192a8.96962,8.96962,0,0,0-.22168,2.1748l.11817,3.89063a.34862.34862,0,0,1-.11133.2666.38721.38721,0,0,1-.27344.10351l-3.13672-.01465a.38884.38884,0,0,1-.27343-.10351.34783.34783,0,0,1-.11036-.2666V17.64422a.34783.34783,0,0,1,.11036-.2666.38885.38885,0,0,1,.27343-.10352H38.719V14.95184a7.95489,7.95489,0,0,1,.22168-2.18945h-.873a.38721.38721,0,0,1-.27343-.10352.34861.34861,0,0,1-.11133-.2666V11.11981a.34859.34859,0,0,1,.11133-.2666.38721.38721,0,0,1,.27343-.10352H42.1956A4.58972,4.58972,0,0,1,45.25029,11.63055Z"/><path class="b" d="M49.888,13.38348c.01953.4043.13867.6416.35547.71l.41406.14844a.33926.33926,0,0,1,.18457.16992.5698.5698,0,0,1,.06738.27344l.01465.75488a.391.391,0,0,1-.2002.34766.72646.72646,0,0,1-.48046.0957l-.60645-.08887a1.87664,1.87664,0,0,1-1.27246-.82129,2.95493,2.95493,0,0,1-.50293-1.76757V11.11981a.52228.52228,0,0,1,.125-.2666.32155.32155,0,0,1,.24414-.10352H51.22a3.82247,3.82247,0,0,1,2.8916.999,4.21124,4.21124,0,0,1,1.04395,2.80371c.00878.09864.01464.23633.01464.41407a4.67573,4.67573,0,0,1-.94726,3.11426A3.725,3.725,0,0,1,51.22,19.19793H48.4085a.38888.38888,0,0,1-.27344-.10351.34862.34862,0,0,1-.11133-.2666V17.46649a.3802.3802,0,0,1,.38477-.38477h2.7373a1.76686,1.76686,0,0,0,1.23535-.43652,1.72118,1.72118,0,0,0,.52539-1.23535c.00977-.09766.01465-.2461.01465-.44336,0-.1875-.00488-.33008-.01465-.42871a1.67542,1.67542,0,0,0-.51074-1.23536,1.78761,1.78761,0,0,0-1.25-.43652H49.888Z"/><polyline class="c" points="13.737 11.188 10.02 14.906 13.737 18.623"/></svg>