<svg xmlns="http://www.w3.org/2000/svg" viewBox="0 0 112.26118 33.18654"><defs><style>.a{fill:#386ec4;stroke-miterlimit:10;}.a,.c{stroke:#fff;stroke-width:3px;}.b{fill:#fff;}.c{fill:none;stroke-linecap:round;stroke-linejoin:round;}</style></defs><rect class="a" x="1.5" y="1.5" width="109.26118" height="30.18654" rx="14.62353"/><path class="b" d="M41.78058,21.78236a.46206.46206,0,0,1-.14746-.35449V11.17494a.46141.46141,0,0,1,.14746-.35352.514.514,0,0,1,.36426-.13769h2.459a.47164.47164,0,0,1,.49219.49121V21.42787a.489.489,0,0,1-.1377.34472.46549.46549,0,0,1-.35449.14746h-2.459A.514.514,0,0,1,41.78058,21.78236Z"/><path class="b" d="M52.31769,22.03822a.58016.58016,0,0,1-.15723-.39356v-1.9873a.60108.60108,0,0,1,.1377-.374.76782.76782,0,0,1,.35449-.25586l.60937-.25586a3.23624,3.23624,0,0,0,1.43653-1.05274,3.2457,3.2457,0,0,0,.53222-1.99707,2.60763,2.60763,0,0,0-.44336-1.73242,2.13123,2.13123,0,0,0-1.623-.49219H47.93a.50211.50211,0,0,1-.51172-.51172V11.15541a.42622.42622,0,0,1,.15723-.334.52273.52273,0,0,1,.35449-.13769h5.92285a4.77977,4.77977,0,0,1,3.67969,1.22949,5.34845,5.34845,0,0,1,1.12207,3.709A5.785,5.785,0,0,1,57.178,19.716a7.82842,7.82842,0,0,1-3.69922,2.22364l-.80664.23632A.36034.36034,0,0,1,52.31769,22.03822Zm-4.752,3.50293a.46355.46355,0,0,1-.14746-.35449V15.68177a.46355.46355,0,0,1,.14746-.35449.5133.5133,0,0,1,.36426-.13672h2.24317a.47164.47164,0,0,1,.49218.49121v9.50489a.47314.47314,0,0,1-.49218.49218H47.93A.51836.51836,0,0,1,47.56573,25.54115Z"/><path class="b" d="M60.69073,21.78236a.46553.46553,0,0,1-.14746-.35449V11.17494a.46488.46488,0,0,1,.14746-.35352.51406.51406,0,0,1,.36426-.13769h4.64453a6.18674,6.18674,0,0,1,4.12207,1.15136,4.77205,4.77205,0,0,1,1.32813,3.78711v5.80567a.489.489,0,0,1-.1377.34472.46482.46482,0,0,1-.35351.14746H68.33624a.51406.51406,0,0,1-.36426-.13769.4621.4621,0,0,1-.14746-.35449v-5.8252a1.97354,1.97354,0,0,0-2.22363-2.24219H63.86944v8.06739a.4933.4933,0,0,1-.13769.34472.467.467,0,0,1-.35449.14746H61.055A.51406.51406,0,0,1,60.69073,21.78236Z"/><path class="b" d="M86.04718,10.82142a.47908.47908,0,0,1,.13769.35352v5.15625a5.79108,5.79108,0,0,1-.78711,3.041,5.33967,5.33967,0,0,1-2.1455,2.0166,6.24314,6.24314,0,0,1-3.01075.68848H78.35284a5.92621,5.92621,0,0,1-2.75488-.60937,4.3608,4.3608,0,0,1-1.80078-1.65332,4.42481,4.42481,0,0,1-.62012-2.30274V11.17494a.46488.46488,0,0,1,.14746-.35352.51406.51406,0,0,1,.36426-.13769h2.06641a.47163.47163,0,0,1,.49218.49121l.01954,4.72363a1.81117,1.81117,0,0,0,1.49511-.81738,4.00754,4.00754,0,0,0,.4336-2.05567V11.215a.51886.51886,0,0,1,.14746-.38379.49252.49252,0,0,1,.36426-.14746h2.04589a.45784.45784,0,0,1,.34473.15722.52945.52945,0,0,1,.14746.374v1.84961a5.11959,5.11959,0,0,1-1.16113,3.542,4.8804,4.8804,0,0,1-3.28613,1.51562,2.5487,2.5487,0,0,0,.99414.96485,2.8332,2.8332,0,0,0,1.36718.334h.45215a3.90145,3.90145,0,0,0,1.81055-.41406,3.12154,3.12154,0,0,0,1.25976-1.14063,3.02812,3.02812,0,0,0,.45215-1.63281V11.17494a.47308.47308,0,0,1,.49219-.49121h2.06641A.4798.4798,0,0,1,86.04718,10.82142Z"/><polyline class="c" points="28.791 11.266 23.846 16.211 28.791 21.155"/></svg>