<svg xmlns="http://www.w3.org/2000/svg" viewBox="0 0 25.56912 25.56912"><defs><style>.a{fill:#fff;stroke:#fff;stroke-miterlimit:10;stroke-width:2.3509px;}.b{fill:#386ec4;}</style></defs><circle class="a" cx="12.78456" cy="12.78456" r="11.60911"/><path class="b" d="M11.64064,14.50924a.30047.30047,0,0,1-.09277-.2168,2.41734,2.41734,0,0,1,.01562-.32422,2.636,2.636,0,0,1,.48535-1.14062,9.97153,9.97153,0,0,1,1.0254-1.14063,8.03134,8.03134,0,0,0,.72558-.77929,1.10823,1.10823,0,0,0,.26172-.625.78592.78592,0,0,0-.28516-.72461,1.24536,1.24536,0,0,0-.82519-.27735,1.304,1.304,0,0,0-1.40332,1.09571.74646.74646,0,0,1-.18457.27734.462.462,0,0,1-.3086.0918H9.04982a.32018.32018,0,0,1-.2539-.11524.44089.44089,0,0,1-.10059-.30078,3.07946,3.07946,0,0,1,.54-1.60351A3.66548,3.66548,0,0,1,10.74611,7.4692a5.44042,5.44042,0,0,1,2.39063-.48535,5.20266,5.20266,0,0,1,2.30468.43945,2.98235,2.98235,0,0,1,1.27246,1.07129,2.43958,2.43958,0,0,1,.38575,1.28028,2.60047,2.60047,0,0,1-.3545,1.37207,8.74649,8.74649,0,0,1-1.01757,1.31054q-.41748.4629-.63282.74024a2.73724,2.73724,0,0,0-.35449.60156,1.84284,1.84284,0,0,0-.1084.38574,1.26568,1.26568,0,0,1-.22363.32422.38522.38522,0,0,1-.26953.0918H11.85646A.29953.29953,0,0,1,11.64064,14.50924Zm-.02344,3.31445a.36042.36042,0,0,1-.11523-.27734v-1.835a.39523.39523,0,0,1,.40039-.40137h2.06641a.39685.39685,0,0,1,.40136.40137v1.835a.36115.36115,0,0,1-.11621.27734.39916.39916,0,0,1-.28515.1084H11.90236A.40082.40082,0,0,1,11.6172,17.82369Z"/></svg>