<svg xmlns="http://www.w3.org/2000/svg" viewBox="0 0 67.08511 30.39559"><defs><style>.a{fill:#3c3c3b;stroke:#fff;stroke-miterlimit:10;stroke-width:3px;}.b{fill:#fff;}</style></defs><rect class="a" x="1.5" y="1.5" width="64.08511" height="27.39559" rx="5.7829"/><path class="b" d="M17.30746,19.09411a.35836.35836,0,0,1-.10351-.26563V14.4486a1.48451,1.48451,0,0,0-1.67188-1.68652h-3.374a.38889.38889,0,0,1-.27344-.10352.34638.34638,0,0,1-.11035-.2666V11.1195a.34425.34425,0,0,1,.11035-.26562.38461.38461,0,0,1,.27344-.10352h3.44727a4.53817,4.53817,0,0,1,3.07031.90234A3.54832,3.54832,0,0,1,19.704,14.46325v4.36523a.3465.3465,0,0,1-.11133.26563.38889.38889,0,0,1-.27344.10352H17.57309A.36062.36062,0,0,1,17.30746,19.09411Zm-5.42285,0a.34571.34571,0,0,1-.11035-.26563V14.50817a.34639.34639,0,0,1,.11035-.2666.38461.38461,0,0,1,.27344-.10352h1.74609a.35463.35463,0,0,1,.37012.37012v4.32031a.37.37,0,0,1-.10351.25782.34863.34863,0,0,1-.26661.11133H12.15805A.38889.38889,0,0,1,11.88461,19.09411Z"/><path class="b" d="M21.47153,19.09411a.34571.34571,0,0,1-.11035-.26563v-7.709a.34425.34425,0,0,1,.11035-.26562.38461.38461,0,0,1,.27343-.10352h3.49219a4.65235,4.65235,0,0,1,3.09961.86523,3.59079,3.59079,0,0,1,.998,2.84766v4.36523a.36573.36573,0,0,1-.10352.25782.34648.34648,0,0,1-.26562.11133h-1.7461a.38721.38721,0,0,1-.27343-.10352.3465.3465,0,0,1-.11133-.26563V14.4486a1.48451,1.48451,0,0,0-1.67188-1.68652H23.86118v6.0664a.37.37,0,0,1-.10352.25782.34861.34861,0,0,1-.2666.11133H21.745A.38888.38888,0,0,1,21.47153,19.09411Z"/><path class="b" d="M36.48129,11.67419a4.02781,4.02781,0,0,1,.84278,2.78906,4.34716,4.34716,0,0,1-1.10938,3.07715,5.88262,5.88262,0,0,1-2.78125,1.67187L32.827,19.39a.28572.28572,0,0,1-.27344-.10352.42139.42139,0,0,1-.126-.2959V17.49645a.41968.41968,0,0,1,.10352-.27343.72225.72225,0,0,1,.2666-.2002l.47266-.19238a2.392,2.392,0,0,0,1.07324-.791,2.48293,2.48293,0,0,0,.3916-1.50195,1.99681,1.99681,0,0,0-.3252-1.30274,1.57818,1.57818,0,0,0-1.21289-.36914h-.38476L30.82993,12.85a.35457.35457,0,0,1-.37012-.36914v-3.418a.34916.34916,0,0,1,.11035-.26563.36864.36864,0,0,1,.25977-.10351h1.59765a.356.356,0,0,1,.37012.36914v1.6875h.917A3.5963,3.5963,0,0,1,36.48129,11.67419Z"/><path class="b" d="M45.46079,14.21911A3.63063,3.63063,0,0,1,44.159,15.558l1.15429,1.583a1.49652,1.49652,0,0,1,.14063.22266.59541.59541,0,0,1,.05176.26563v1.19921a.37.37,0,0,1-.10352.25782.34859.34859,0,0,1-.2666.11133H39.12875a.37884.37884,0,0,1-.36914-.36915V17.5111a.34786.34786,0,0,1,.11035-.2666.37059.37059,0,0,1,.25879-.10352h3.47754l-4.30566-5.85839a.50224.50224,0,0,1-.08887-.23731.26582.26582,0,0,1,.09668-.21387.34252.34252,0,0,1,.22852-.081h1.835a.54348.54348,0,0,1,.47363.26562l2.07129,2.84082a2.33854,2.33854,0,0,0,.68066-1.8789v-.8291a.39015.39015,0,0,1,.11036-.28809.37415.37415,0,0,1,.27343-.11035H45.535a.34461.34461,0,0,1,.25879.11719.40052.40052,0,0,1,.11133.28125v1.27343A3.66334,3.66334,0,0,1,45.46079,14.21911Z"/><path class="b" d="M53.02133,19.09411a.35836.35836,0,0,1-.10351-.26563V14.4486a1.48451,1.48451,0,0,0-1.67188-1.68652h-3.373a.38721.38721,0,0,1-.27343-.10352.34715.34715,0,0,1-.11133-.2666V11.1195a.345.345,0,0,1,.11133-.26562.383.383,0,0,1,.27343-.10352h3.44727a4.53535,4.53535,0,0,1,3.06934.90234,3.54835,3.54835,0,0,1,1.02832,2.81055v4.36523a.34912.34912,0,0,1-.11036.26563.39124.39124,0,0,1-.27441.10352H53.28793A.36447.36447,0,0,1,53.02133,19.09411Zm-5.42187,0a.3465.3465,0,0,1-.11133-.26563V14.50817a.34716.34716,0,0,1,.11133-.2666.383.383,0,0,1,.27343-.10352H49.619a.35458.35458,0,0,1,.36914.37012v4.32031a.36573.36573,0,0,1-.10352.25782.345.345,0,0,1-.26562.11133h-1.7461A.38721.38721,0,0,1,47.59946,19.09411Z"/></svg>