<svg xmlns="http://www.w3.org/2000/svg" viewBox="0 0 67.08511 30.39559"><defs><style>.a{fill:#386ec4;stroke:#fff;stroke-miterlimit:10;stroke-width:3px;}.b{fill:#fff;}</style></defs><rect class="a" x="1.5" y="1.5" width="64.08511" height="27.39559" rx="5.7829"/><path class="b" d="M17.30746,19.09426a.36064.36064,0,0,1-.10351-.26661v-4.3789a1.48413,1.48413,0,0,0-1.67188-1.68653h-3.374a.38888.38888,0,0,1-.27344-.10351.34782.34782,0,0,1-.11035-.2666V11.11965a.34784.34784,0,0,1,.11035-.26661.38888.38888,0,0,1,.27344-.10351h3.44727a4.53817,4.53817,0,0,1,3.07031.90234A3.55191,3.55191,0,0,1,19.704,14.4634v4.36425a.34863.34863,0,0,1-.11133.26661.38893.38893,0,0,1-.27344.10351H17.57309A.36065.36065,0,0,1,17.30746,19.09426Zm-5.42285,0a.34784.34784,0,0,1-.11035-.26661V14.50734a.34427.34427,0,0,1,.11035-.26562.38461.38461,0,0,1,.27344-.10352h1.74609a.35457.35457,0,0,1,.37012.36914v4.32031a.37057.37057,0,0,1-.10351.25879.34863.34863,0,0,1-.26661.11133H12.15805A.38893.38893,0,0,1,11.88461,19.09426Z"/><path class="b" d="M21.47153,19.09426a.34784.34784,0,0,1-.11035-.26661v-7.708a.34784.34784,0,0,1,.11035-.26661.38888.38888,0,0,1,.27343-.10351h3.49219a4.6577,4.6577,0,0,1,3.09961.86523,3.59446,3.59446,0,0,1,.998,2.84864v4.36425a.36632.36632,0,0,1-.10352.25879.34648.34648,0,0,1-.26562.11133h-1.7461a.38725.38725,0,0,1-.27343-.10351.34863.34863,0,0,1-.11133-.26661v-4.3789a1.48413,1.48413,0,0,0-1.67188-1.68653H23.86118v6.06543a.37058.37058,0,0,1-.10352.25879.34861.34861,0,0,1-.2666.11133H21.745A.38892.38892,0,0,1,21.47153,19.09426Z"/><path class="b" d="M36.48129,11.67433a4.02448,4.02448,0,0,1,.84278,2.78907,4.34712,4.34712,0,0,1-1.10938,3.07714,5.89035,5.89035,0,0,1-2.78125,1.67188l-.60644.17773a.28572.28572,0,0,1-.27344-.10351.42141.42141,0,0,1-.126-.2959V17.4966a.42221.42221,0,0,1,.10352-.27442.7201.7201,0,0,1,.2666-.19921l.47266-.19239a2.38661,2.38661,0,0,0,1.07324-.792,2.47772,2.47772,0,0,0,.3916-1.501,1.995,1.995,0,0,0-.3252-1.30273,1.57818,1.57818,0,0,0-1.21289-.36914h-.38476l-1.98242-.01563a.35455.35455,0,0,1-.37012-.36914V9.063a.3513.3513,0,0,1,.11035-.26661.37289.37289,0,0,1,.25977-.10351h1.59765a.35606.35606,0,0,1,.37012.37012v1.68652h.917A3.59281,3.59281,0,0,1,36.48129,11.67433Z"/><path class="b" d="M45.46079,14.21926A3.63793,3.63793,0,0,1,44.159,15.55812l1.15429,1.583a1.54268,1.54268,0,0,1,.14063.22168.60283.60283,0,0,1,.05176.2666v1.19824a.37058.37058,0,0,1-.10352.25879.34859.34859,0,0,1-.2666.11133H39.12875a.3788.3788,0,0,1-.36914-.37012v-1.3164a.34784.34784,0,0,1,.11035-.2666.36634.36634,0,0,1,.25879-.10352h3.47754l-4.30566-5.8584a.50218.50218,0,0,1-.08887-.2373.26447.26447,0,0,1,.09668-.21387.33839.33839,0,0,1,.22852-.082h1.835a.54444.54444,0,0,1,.47363.2666L42.91684,13.857A2.33856,2.33856,0,0,0,43.5975,11.978v-.8291a.38861.38861,0,0,1,.11036-.28808.37117.37117,0,0,1,.27343-.11133H45.535a.34568.34568,0,0,1,.25879.11816.39718.39718,0,0,1,.11133.28125V12.4214A3.66711,3.66711,0,0,1,45.46079,14.21926Z"/><path class="b" d="M53.02133,19.09426a.36064.36064,0,0,1-.10351-.26661v-4.3789a1.48413,1.48413,0,0,0-1.67188-1.68653h-3.373a.3872.3872,0,0,1-.27343-.10351.34861.34861,0,0,1-.11133-.2666V11.11965a.34863.34863,0,0,1,.11133-.26661.3872.3872,0,0,1,.27343-.10351h3.44727a4.53535,4.53535,0,0,1,3.06934.90234,3.552,3.552,0,0,1,1.02832,2.81153v4.36425a.35127.35127,0,0,1-.11036.26661.39128.39128,0,0,1-.27441.10351H53.28793A.3645.3645,0,0,1,53.02133,19.09426Zm-5.42187,0a.34863.34863,0,0,1-.11133-.26661V14.50734a.345.345,0,0,1,.11133-.26562.383.383,0,0,1,.27343-.10352H49.619a.35451.35451,0,0,1,.36914.36914v4.32031a.36632.36632,0,0,1-.10352.25879.345.345,0,0,1-.26562.11133h-1.7461A.38725.38725,0,0,1,47.59946,19.09426Z"/></svg>