<svg xmlns="http://www.w3.org/2000/svg" xmlns:xlink="http://www.w3.org/1999/xlink" viewBox="0 0 28.95349 28.95349"><defs><linearGradient id="linear-gradient" x1="6.78536" y1="14.47675" x2="21.87655" y2="14.47675" gradientUnits="userSpaceOnUse"><stop offset="0" stop-color="#ebca8f"/><stop offset="1" stop-color="#debe9d"/></linearGradient><linearGradient id="linear-gradient-2" x1="8.01702" y1="7.96119" x2="8.01702" y2="9.32639" gradientUnits="userSpaceOnUse"><stop offset="0" stop-color="#ebca8f"/><stop offset="1" stop-color="#cfb192"/></linearGradient><linearGradient id="linear-gradient-3" x1="20.66783" y1="7.96119" x2="20.66783" y2="9.32639" xlink:href="#linear-gradient-2"/><linearGradient id="linear-gradient-4" x1="6.78536" y1="14.47675" x2="9.24869" y2="14.47675" xlink:href="#linear-gradient-2"/><linearGradient id="linear-gradient-5" x1="22.18344" y1="14.47675" x2="24.60096" y2="14.47675" gradientTransform="matrix(1, 0, 0, -1, -2.72437, 28.95349)" xlink:href="#linear-gradient-2"/><linearGradient id="linear-gradient-6" x1="8.01702" y1="19.52814" x2="8.01702" y2="20.89334" xlink:href="#linear-gradient-2"/><linearGradient id="linear-gradient-7" x1="20.66783" y1="19.52814" x2="20.66783" y2="20.89334" xlink:href="#linear-gradient-2"/></defs><g id="בחירת_משחק" data-name="בחירת משחק"><circle cx="14.47675" cy="14.47675" r="14.47675" style="fill:#fff"/><rect x="6.78536" y="8.69327" width="15.09119" height="11.56695" style="fill:url(#linear-gradient)"/><path d="M10.52805,9.89328a4.02736,4.02736,0,0,1,.44375.75076,2.15458,2.15458,0,0,0,.4264.75052,6.88547,6.88547,0,0,0,.602.5982.8258.8258,0,0,0,.74777.22049l.0085.01654a.74365.74365,0,0,1-.87459-.0859,2.32563,2.32563,0,0,1-.56645-.68982,6.75536,6.75536,0,0,0-.48-.73795,2.86511,2.86511,0,0,1-.32426-.81491Z" style="fill:#3c3c3b"/><path d="M12.56435,10.25222a2.87911,2.87911,0,0,1-.54846.59674,2.81037,2.81037,0,0,0-.61162.52723,5.09185,5.09185,0,0,1-1.21647,1.06265l-.01273-.01358a5.09255,5.09255,0,0,1,1.1602-1.12409A2.81434,2.81434,0,0,0,11.912,10.735a2.87106,2.87106,0,0,1,.63988-.49661Z" style="fill:#3c3c3b"/><path d="M11.4811,11.57638a3.9668,3.9668,0,0,1,2.21262-.72867,1.35509,1.35509,0,0,1,.31681.05027.61382.61382,0,0,1,.23618.22479.93355.93355,0,0,1,.124.61175,1.32536,1.32536,0,0,1-.70169.967c-.679.43055-1.63148.26038-2.08171.91794a.80232.80232,0,0,0,.26606.99945,1.65058,1.65058,0,0,0,1.07284.31143c.38457-.00244.77545-.04007,1.164-.06027a1.79489,1.79489,0,0,1,.62369.0185.61466.61466,0,0,1,.21475.60977,1.45489,1.45489,0,0,1-.73763.95321,5.06367,5.06367,0,0,0-.96144.62131c-.06918.07532-.08.08765-.04746.14893a1.38531,1.38531,0,0,0,.17025.20636,1.94058,1.94058,0,0,0,.44378.33322,2.99774,2.99774,0,0,0,1.07824.3399c.76184.10035,1.54975-.0191,2.32937.06964l.01182.00135.00224.0105.03836.17913-.01809.00452-.05041-.17612.01381.01163c-.77713-.02524-1.55032.11044-2.343.03925a3.15666,3.15666,0,0,1-1.15012-.31894,1.94126,1.94126,0,0,1-.48769-.36563,1.48484,1.48484,0,0,1-.198-.246.28882.28882,0,0,1,.0793-.36624,5.11807,5.11807,0,0,1,.9973-.64221,1.29116,1.29116,0,0,0,.66171-.8291.4927.4927,0,0,0-.12844-.44684,2.23068,2.23068,0,0,0-.53611-.01675c-.39016.007-.77736.02984-1.17234.02069a1.73189,1.73189,0,0,1-1.11738-.35736.91826.91826,0,0,1-.28343-1.08792,1.5174,1.5174,0,0,1,.99607-.61393,3.85888,3.85888,0,0,0,1.07672-.39187,1.25089,1.25089,0,0,0,.616-.86661c.06209-.33749-.12449-.79266-.5205-.73746a4.36791,4.36791,0,0,0-2.2003.617Z" style="fill:#3c3c3b"/><path d="M17.5667,17.48257a.37735.37735,0,0,0-.55213-.01419,1.26121,1.26121,0,0,0-.27165.5769c-.02593.10926-.11227.23554-.06583.28461a1.16663,1.16663,0,0,0,.2515.20587,5.349,5.349,0,0,0,.59184.3581,1.08111,1.08111,0,0,0,.62442.12585c.18361-.02215.24428-.2518.23639-.44623a1.92384,1.92384,0,0,0-.21015-.61892c-.10566-.1991-.20772-.415-.4273-.4935l.00331-.01835c.25656.0189.41683.25858.54054.44376a1.47614,1.47614,0,0,1,.28505.66928.65935.65935,0,0,1-.06569.38837,1.885,1.885,0,0,1-.13288.17251.43914.43914,0,0,1-.20231.07636,1.11235,1.11235,0,0,1-.70084-.20984c-.20422-.12128-.37739-.27609-.57805-.39358a1.80366,1.80366,0,0,1-.30523-.20694c-.09362-.15342.00457-.27.00608-.37745a1.08153,1.08153,0,0,1,.33266-.64944c.20219-.15439.57357-.14169.65743.11951Z" style="fill:#3c3c3b"/><ellipse cx="8.01702" cy="8.69327" rx="1.23167" ry="0.57363" style="fill:url(#linear-gradient-2)"/><ellipse cx="20.66783" cy="8.69327" rx="1.23167" ry="0.57363" style="fill:url(#linear-gradient-3)"/><rect x="6.78536" y="8.69327" width="2.46333" height="11.56695" style="fill:url(#linear-gradient-4)"/><rect x="19.45906" y="8.69327" width="2.41753" height="11.56695" transform="translate(41.33565 28.95349) rotate(-180)" style="fill:url(#linear-gradient-5)"/><ellipse cx="8.01702" cy="20.26022" rx="1.23167" ry="0.57363" style="fill:url(#linear-gradient-6)"/><ellipse cx="20.66783" cy="20.26022" rx="1.23167" ry="0.57363" style="fill:url(#linear-gradient-7)"/></g></svg>