<svg xmlns="http://www.w3.org/2000/svg" xmlns:xlink="http://www.w3.org/1999/xlink" viewBox="0 0 19.06425 18.10215"><defs><style>.a{fill:url(#a);}.b{fill:#f6a853;}.c{fill:#d57716;}.d{fill:#f39a50;}.e{fill:#fcca59;}.f{fill:#f8b65b;}.g{fill:#e0843f;}</style><radialGradient id="a" cx="119.56758" cy="119.56758" r="119.56758" gradientUnits="userSpaceOnUse"><stop offset="0" stop-color="#eac380" stop-opacity="0.2"/><stop offset="0.09882" stop-color="#ebc583" stop-opacity="0.22139"/><stop offset="0.23288" stop-color="#ecc98d" stop-opacity="0.2818"/><stop offset="0.38724" stop-color="#efd19d" stop-opacity="0.38129"/><stop offset="0.55675" stop-color="#f2dbb3" stop-opacity="0.51996"/><stop offset="0.73857" stop-color="#f7e8cf" stop-opacity="0.69791"/><stop offset="0.92796" stop-color="#fdf8f1" stop-opacity="0.91168"/><stop offset="1" stop-color="#fff"/></radialGradient><symbol id="b" viewBox="0 0 239.135 239.135"><circle class="a" cx="119.56758" cy="119.56758" r="119.56758"/></symbol></defs><use width="239.13516" height="239.13516" transform="scale(0.07972 0.0757)" xlink:href="#b"/><rect class="b" x="8.41275" y="6.77226" width="1.07224" height="11.54998" transform="translate(-6.11502 9.29228) rotate(-42.31011)"/><rect class="b" x="11.50443" y="3.95822" width="1.07224" height="11.55014" transform="translate(-3.41548 10.64041) rotate(-42.31011)"/><path class="b" d="M8.89467,6.64238,6.04507,9.236a.49249.49249,0,0,1-.67872-.10949.49239.49239,0,0,1-.04516-.686L8.1708,5.84684a.49259.49259,0,0,1,.67871.1095A.49239.49239,0,0,1,8.89467,6.64238Z"/><path class="b" d="M10.39858,8.2946,7.549,10.88823a.55192.55192,0,0,1-.72412-.79554L9.67446,7.49907a.55191.55191,0,0,1,.72412.79553Z"/><path class="b" d="M11.90224,9.94682,9.05288,12.54045a.55186.55186,0,0,1-.72412-.79554l2.84961-2.59362a.55178.55178,0,0,1,.72387.79553Z"/><path class="b" d="M13.40615,11.599l-2.84961,2.59363a.55178.55178,0,0,1-.72388-.79553L12.682,10.80351a.55186.55186,0,0,1,.72412.79553Z"/><path class="b" d="M14.91006,13.25126l-2.84961,2.59363a.55191.55191,0,0,1-.72412-.79553l2.8496-2.59363a.55191.55191,0,0,1,.72413.79553Z"/><rect class="c" x="12.12935" y="3.71649" width="0.35377" height="11.55001" transform="translate(-3.18356 10.75566) rotate(-42.30782)"/><rect class="d" x="12.00983" y="3.86481" width="0.26688" height="11.55006" transform="translate(-3.32587 10.68449) rotate(-42.30742)"/><rect class="d" x="5.8795" y="7.63262" width="3.10824" height="0.28879" transform="translate(-3.29846 7.02654) rotate(-42.29324)"/><rect class="d" x="7.38319" y="9.28484" width="3.10842" height="0.28879" transform="translate(-4.01886 8.46853) rotate(-42.29324)"/><rect class="d" x="8.88706" y="10.93707" width="3.10824" height="0.28879" transform="translate(-4.73927 9.91052) rotate(-42.29324)"/><rect class="d" x="10.39089" y="12.58924" width="3.10829" height="0.28883" transform="translate(-5.45963 11.35255) rotate(-42.29324)"/><rect class="d" x="11.89467" y="14.24146" width="3.10829" height="0.28883" transform="translate(-6.18102 12.80681) rotate(-42.32905)"/><rect class="e" x="5.33183" y="7.05765" width="3.1136" height="0.24904" transform="translate(-3.03984 6.50225) rotate(-42.27747)"/><rect class="e" x="6.83562" y="8.70987" width="3.1136" height="0.24904" transform="translate(-3.76083 7.95244) rotate(-42.31901)"/><rect class="e" x="8.33942" y="10.36209" width="3.11356" height="0.249" transform="translate(-4.48051 9.38499) rotate(-42.27747)"/><rect class="e" x="9.84321" y="12.01431" width="3.11356" height="0.249" transform="translate(-5.2018 10.83841) rotate(-42.31901)"/><rect class="e" x="11.34711" y="13.66653" width="3.11356" height="0.249" transform="translate(-5.92226 12.28148) rotate(-42.31901)"/><rect class="c" x="5.92808" y="7.75823" width="3.10824" height="0.1444" transform="translate(-3.32175 7.07314) rotate(-42.29324)"/><rect class="c" x="7.4298" y="9.41224" width="3.10833" height="0.14448" transform="translate(-4.04511 8.53053) rotate(-42.36482)"/><rect class="c" x="8.9337" y="11.0645" width="3.10824" height="0.1444" transform="translate(-4.7643 9.95628) rotate(-42.29324)"/><rect class="c" x="10.44908" y="12.72942" width="3.10824" height="0.1444" transform="translate(-5.49023 11.40938) rotate(-42.29324)"/><rect class="c" x="11.9645" y="14.3944" width="3.10816" height="0.1444" transform="translate(-6.21619 12.86249) rotate(-42.29324)"/><rect class="f" x="9.93807" y="12.10315" width="3.11084" height="0.28084" transform="translate(-5.24846 10.935) rotate(-42.34068)"/><rect class="f" x="8.42363" y="10.4392" width="3.11079" height="0.2808" transform="matrix(0.73978, -0.67285, 0.67285, 0.73978, -4.52173, 9.46734)"/><rect class="f" x="6.90908" y="8.77517" width="3.11083" height="0.28092" transform="translate(-3.79707 8.02677) rotate(-42.34068)"/><rect class="f" x="5.39456" y="7.11131" width="3.11083" height="0.28075" transform="translate(-3.07097 6.56621) rotate(-42.30385)"/><rect class="f" x="11.44194" y="13.75536" width="3.11079" height="0.2808" transform="matrix(0.73978, -0.67285, 0.67285, 0.73978, -5.96758, 12.36112)"/><rect class="f" x="11.6235" y="4.25789" width="0.17576" height="11.5501" transform="translate(-3.70295 10.49617) rotate(-42.30742)"/><rect class="g" x="12.1708" y="3.78731" width="0.1151" height="11.5501" transform="translate(-3.25155 10.72158) rotate(-42.30742)"/><rect class="c" x="8.50754" y="7.01301" width="0.35373" height="11.55006" transform="translate(-6.34588 9.1765) rotate(-42.30831)"/><rect class="d" x="8.71393" y="6.86469" width="0.26688" height="11.55006" transform="translate(-6.20363 9.24767) rotate(-42.30872)"/><rect class="f" x="9.19138" y="6.47151" width="0.17576" height="11.5501" transform="translate(-5.82647 9.43587) rotate(-42.30831)"/><polygon class="g" points="4.832 8.485 12.607 17.027 12.692 16.949 4.918 8.408 4.832 8.485"/></svg>