<svg xmlns="http://www.w3.org/2000/svg" xmlns:xlink="http://www.w3.org/1999/xlink" viewBox="0 0 130 130"><defs><style>.a{fill:#5e9e7b;}.b{fill:#fff;}.c{fill:#f9b233;}.d{fill:#ededed;}.e{fill:#f39200;}.f{fill:#3c3c3b;}.g,.i{fill:none;stroke:#f39200;}.g{stroke-linecap:round;stroke-linejoin:round;}.h{fill:#ffc397;}.i{stroke-miterlimit:10;}.j{fill:#706f6f;}.k{clip-path:url(#a);}.l{fill:#8ef4c0;}</style><clipPath id="a"><path class="a" d="M55.97832,55.38181c-.24958-.12-.68939-.07505-.787-.30438a2.90265,2.90265,0,0,1-.19959-2.29964,1.33791,1.33791,0,0,0,.0573-.7391,2.23363,2.23363,0,0,0-.36034-.574c-.63649-.92966-.29683-2.18493.06451-3.25209a1.51371,1.51371,0,0,1-1.2176-1.11741c-.217-.90925.64436-1.19085.71235-1.90281a6.60618,6.60618,0,0,0-.31042-1.98c-.23074-1.17659-1.22217-3.26881-.0811-4.27273-1.0917-1.11366-.99476-2.90563-.69236-4.43553.30238-1.52978.72464-3.17707.072-4.59322a14.22006,14.22006,0,0,0,2.00036,3.21333c.673.807,1.87857,1.03264,1.39753,2.49443a2.56014,2.56014,0,0,1,1.8494.43909c.53262.52591.286,1.29258.656,1.88073.65149,1.03564,1.86142.71229,1.72613,2.31527a1.22114,1.22114,0,0,1,.88482.63446,1.07922,1.07922,0,0,1-.12111,1.09149c.22044-.2856,1.34438.855,1.43541,1.03784.27308.5484.082,1.20138.22124,1.77451.15887.65412.63569,1.14828.80234,1.79828.163.63586-.05528,1.38918.25193,1.98951.56122,1.09669,1.95887.96572,1.23424,2.68412.55307-.07588.91713.54985,1.09743,1.07817a21.09991,21.09991,0,0,1,.61495,2.17763c.40442,1.79529-5.19846,4.088-6.34435,4.29144-.31761.05639-4.84431-.27958-4.67-.8249a3.34,3.34,0,0,0-.15072-2.47662A.301.301,0,0,0,55.97832,55.38181Z"/></clipPath></defs><circle class="b" cx="65" cy="65" r="65"/><path class="c" d="M41.34344,94.08205c-.46605,3.17943,2.24877,6.25365,4.6548,7.92289,4.35375,3.02052,9.01787,2.02183,13.8919.99a37.60221,37.60221,0,0,0,5.40974-1.42923c2.76489-1.03335,5.19053-2.755,7.953-3.79078,2.84825-1.06789,5.98034-1.299,8.65655-2.83217a20.75608,20.75608,0,0,0,3.25487-2.48557A37.31224,37.31224,0,0,0,96.81285,71.2536c1.00562-6.04742.65062-12.42146.32161-18.49156-.11372-2.09831.90144-3.52051,1.45762-5.55233a30.51155,30.51155,0,0,0,.85567-6.29378,10.9994,10.9994,0,0,0-.39649-4.49251,1.30015,1.30015,0,0,0-.44841-.66771,1.39325,1.39325,0,0,0-.6649-.1705,21.17866,21.17866,0,0,0-10.8469,2.42758c-3.16647,1.55911-8.10843,7.016-11.69932,5.80437A13.78982,13.78982,0,0,1,73.401,42.76891a14.913,14.913,0,0,0-5.20119-1.31831c-2.39041-.30272-4.85094-.98237-7.25436-.6246-1.93459.288-2.92379.69523-4.89991-.18242-3.7715-1.675-6.26066-5.30723-9.77211-7.39958-3.83531-2.28531-8.33532-3.71936-12.76333-3.14939a43.52457,43.52457,0,0,0,1.36922,15.06092c1.21021,4.46848,4.67517,8.82679,4.18212,13.45864-.38935,3.65778-1.91536,7.24192-1.45626,10.8916.47065,3.74156.24827,7.29627.76042,11.02659a14.40811,14.40811,0,0,0,1.43528,4.549c.69258,1.36316,2.26,2.40421,2.58781,3.95355C42.73437,90.66847,41.57866,92.4774,41.34344,94.08205Z"/><path class="d" d="M70.9619,87.04947a27.2873,27.2873,0,0,1,8.44893-1.7576,11.53125,11.53125,0,0,1,7.99149,2.77345,1.7753,1.7753,0,0,1,.44159.55609c.68123,1.54706-3.23634,4.16944-4.1677,5.04423a14.93792,14.93792,0,0,1-2.08437,1.73252,14.96474,14.96474,0,0,1-4.2901,1.64425c-2.02342.54483-4.531.72808-6.39136,1.61366-1.73816.8274-3.11588,2.26195-4.79325,3.20657a19.08278,19.08278,0,0,1-11.01282,2.165c-1.80554-.125-3.61173-.25-5.41036-.45133.59361.06641,2.514-1.62391,3.13682-1.94444,1.12843-.58071,2.28924-1.14342,3.4081-1.76536,2.58854-1.43889,3.858-3.74982,5.1031-6.36076.70806-1.48481,2.53551-2.64,3.7507-3.77666C66.638,88.28365,69.00576,87.71232,70.9619,87.04947Z"/><path class="e" d="M55.59761,100.54366a6.99528,6.99528,0,0,1-11.48755.80022,20.84411,20.84411,0,0,0,7.202.314c.59172-.10987,1.17344-.26718,1.7544-.42432C53.86988,101.01619,54.79415,100.761,55.59761,100.54366Z"/><path class="f" d="M43.65174,66.49152c.46143-.50314,1.299-.17118,1.84386.24019a10.21546,10.21546,0,0,1,3.369,4.4866,3.35229,3.35229,0,0,1-.02516,3.0479c-.861,1.25343-2.93755,1.02957-3.97211-.08489a6.42223,6.42223,0,0,1-1.312-4.26343,7.53837,7.53837,0,0,1,.28786-2.65729"/><path class="g" d="M72.70838,69.00856c-3.87652,2.21851-9.94652,6.807-9.79291,11.68679.04654,1.4784.35966,2.93906.40057,4.41763.13234,4.78272-2.21408,10.88158-5.93228,14.004a12.89731,12.89731,0,0,1-13.65869,1.65513,5.14035,5.14035,0,0,1-2.28852-1.90686,5.54813,5.54813,0,0,1-.35952-3.64209c1.3198-8.18413,7.77348-14.91992,7.828-23.38442a6.83482,6.83482,0,0,0-1.08418-3.59225C46.47146,66.09462,44.16025,65.60358,41.88658,65"/><path class="f" d="M49.5162,97.23047a5.15725,5.15725,0,0,0-2.76922-2.594,5.75862,5.75862,0,0,0-4.379-.39833,3.21194,3.21194,0,0,0-2.11334,3.54435,4.38252,4.38252,0,0,0,2.82339,2.61965,6.46717,6.46717,0,0,0,4.32338.48231,3.14105,3.14105,0,0,0,2.30331-3.33438"/><path class="g" d="M52.396,102.5142c1.2953-.30726,2.98506-.74037,3.731-1.94048a8.60853,8.60853,0,0,1,2.03792-2.03349A24.3073,24.3073,0,0,1,63.512,95.27111"/><path class="h" d="M49.83055,50.12023l-8.86908,5.49685a1.9715,1.9715,0,0,1-.95108.37837c-.75531.01888-1.23883-.77345-1.55865-1.458a63.57694,63.57694,0,0,1-3.87668-11.32906c-1.07331-4.15117-.79905-8.40765-1.3249-12.65973.09771.79,5.77195,3.97063,6.73229,4.73659A28.91629,28.91629,0,0,1,49.83055,50.12023Z"/><path class="h" d="M97.41741,38.11764a1.54407,1.54407,0,0,1,1.31-.27867c.47225.201.61569.79049.68352,1.29925a26.998,26.998,0,0,1-1.26157,12.39725,4.62885,4.62885,0,0,1-.938,1.74871c-.77427.79894-1.98348,1.00694-2.85542,1.698-1.16866.9262-1.747,2.70521-3.21089,2.98893a3.14127,3.14127,0,0,1-2.69547-1.19515,11.20485,11.20485,0,0,0-2.18318-2.15158c-1.509-.89123-4.44236-.76386-4.532-3.1184-.073-1.91835,2.791-3.859,4.052-4.99313A66.946,66.946,0,0,1,97.41741,38.11764Z"/><path class="i" d="M74.13005,74.4984c1.30347.73529,2.01372,2.1693,2.73926,3.47821s1.67468,2.67307,3.12543,3.04051l-.15237.51612"/><path class="f" d="M72.82058,73.43924a3.4029,3.4029,0,0,1,2.60307,1.73355,1.82976,1.82976,0,0,1,.16653.56014A2.4,2.4,0,0,1,74.409,77.931c-2.58268,1.68346-7.36692,1.85048-9.37606-.739a4.48586,4.48586,0,0,1-2.03422,1.87844,14.16909,14.16909,0,0,1,3.32591-4.28686A9.44664,9.44664,0,0,1,72.82058,73.43924Z"/><path class="d" d="M44.69905,83.80852a1.08594,1.08594,0,0,1,.09454,1.42209c-.4717.82579-2.41842,3.55777-2.32484,4.50921a7.85876,7.85876,0,0,0-1.77646-3.441,14.671,14.671,0,0,1-2.69179-9.0041c1.76007.868,2.951.99385,4.26476,2.69066A42.79855,42.79855,0,0,1,44.69905,83.80852Z"/><path class="j" d="M45.09565,67.28909a23.62574,23.62574,0,0,0-.7721,3.67541.64061.64061,0,0,0,.12613.58968.44.44,0,0,0,.59867-.13423,1.27691,1.27691,0,0,0,.18-.65421l.25045-2.83911"/><path class="j" d="M73.57217,75.1949l-.37456,1.42589a1.93507,1.93507,0,0,0-.09452.707.65768.65768,0,0,0,.39029.55772,2.22588,2.22588,0,0,0,1.18725-1.274c.14194-.58046-.33962-1.30834-.924-1.18348"/><path class="a" d="M55.97832,55.38181c-.24958-.12-.68939-.07505-.787-.30438a2.90265,2.90265,0,0,1-.19959-2.29964,1.33791,1.33791,0,0,0,.0573-.7391,2.23363,2.23363,0,0,0-.36034-.574c-.63649-.92966-.29683-2.18493.06451-3.25209a1.51371,1.51371,0,0,1-1.2176-1.11741c-.217-.90925.64436-1.19085.71235-1.90281a6.60618,6.60618,0,0,0-.31042-1.98c-.23074-1.17659-1.22217-3.26881-.0811-4.27273-1.0917-1.11366-.99476-2.90563-.69236-4.43553.30238-1.52978.72464-3.17707.072-4.59322a14.22006,14.22006,0,0,0,2.00036,3.21333c.673.807,1.87857,1.03264,1.39753,2.49443a2.56014,2.56014,0,0,1,1.8494.43909c.53262.52591.286,1.29258.656,1.88073.65149,1.03564,1.86142.71229,1.72613,2.31527a1.22114,1.22114,0,0,1,.88482.63446,1.07922,1.07922,0,0,1-.12111,1.09149c.22044-.2856,1.34438.855,1.43541,1.03784.27308.5484.082,1.20138.22124,1.77451.15887.65412.63569,1.14828.80234,1.79828.163.63586-.05528,1.38918.25193,1.98951.56122,1.09669,1.95887.96572,1.23424,2.68412.55307-.07588.91713.54985,1.09743,1.07817a21.09991,21.09991,0,0,1,.61495,2.17763c.40442,1.79529-5.19846,4.088-6.34435,4.29144-.31761.05639-4.84431-.27958-4.67-.8249a3.34,3.34,0,0,0-.15072-2.47662A.301.301,0,0,0,55.97832,55.38181Z"/><g class="k"><path class="l" d="M54.74115,38.77328a5.3977,5.3977,0,0,0,3.37154-.60648,4.00031,4.00031,0,0,1-3.5636,3.66592,6.61084,6.61084,0,0,0,4.41678-.4151,4.47408,4.47408,0,0,1-3.63727,4.05169,5.6147,5.6147,0,0,0,4.9528-.10378,2.6763,2.6763,0,0,1-1.24749,2.56674,7.866,7.866,0,0,1-2.82043,1.0245,9.3364,9.3364,0,0,0,5.70025.4844,4.168,4.168,0,0,1-4.23108,3.069,9.19866,9.19866,0,0,0,5.0855.27207c-1.04136,1.793-3.35755,2.29187-5.4056,2.61533a8.75356,8.75356,0,0,0,8.22562-1.62065,4.32147,4.32147,0,0,1-.73346,5.12621,9.654,9.654,0,0,1-4.9009,2.50424c-2.3842.59282-5.15828.77276-7.05281-.79138-1.77045-1.46168-2.20763-3.99864-2.13191-6.29325.122-3.696,1.24395-7.44489.34546-11.0321-.46833-1.86974-1.00887-3.69614-.16012-5.52941a30.04956,30.04956,0,0,0,2.48973-5.73735c.64985,1.6545-.1061,5.80308,2.62849,4.81217A2.25251,2.25251,0,0,1,54.74115,38.77328Z"/></g></svg>