<svg xmlns="http://www.w3.org/2000/svg" xmlns:xlink="http://www.w3.org/1999/xlink" viewBox="0 0 130 130"><defs><style>.a{fill:#d8c4b2;}.b{fill:#d89f6c;}.c{fill:#fff;}.d{clip-path:url(#a);}.e{fill:#7a593f;}.f{fill:url(#b);}.g{fill:url(#c);}.h{clip-path:url(#d);}.i{fill:#dbb58d;}.j{clip-path:url(#e);}.k{fill:#f4dcc1;}.l{fill:#575756;}.m{fill:none;stroke:#3c3c3b;stroke-linecap:round;stroke-linejoin:round;stroke-width:0.90536px;}.n{fill:#3c3c3b;}.o{fill:#1d1d1b;}.p{fill:#706f6f;}.q{fill:#8ef4c0;}</style><clipPath id="a"><path class="a" d="M117.16964,52.98515c-.64932.76171-1.31613,1.47975-1.84789,2.1375a93.02962,93.02962,0,0,1-8.914,9.56528,8.80072,8.80072,0,0,1-1.99046,1.51465,9.25836,9.25836,0,0,1-3.593.718c-5.02038.32141-10.18411-.66218-14.8285,1.55282a.89363.89363,0,0,1-.78439.111.848.848,0,0,1-.33408-.5352c-.931-3.06114-1.28613-6.74536,1.276-9.14531,1.65765-1.55271,3.85181-2.37978,5.74734-3.631,2.52438-1.66636,4.47839-4.05663,6.83027-5.95871A22.88056,22.88056,0,0,1,113.482,44.49653c1.93146.00145,4.10874-.30143,5.38167,1.42766C120.66917,48.37666,118.988,50.8521,117.16964,52.98515Z"/></clipPath><linearGradient id="b" x1="56.24888" y1="51.15818" x2="59.7162" y2="25.15328" gradientUnits="userSpaceOnUse"><stop offset="0.39389" stop-color="#dadada"/><stop offset="0.83897" stop-color="#4c4a4a"/><stop offset="0.89956" stop-color="#383636"/></linearGradient><linearGradient id="c" x1="6645.09574" y1="772.09619" x2="6648.56306" y2="746.09129" gradientTransform="matrix(-0.97645, -0.21576, -0.21576, 0.97645, 6735.51354, 736.17575)" xlink:href="#b"/><clipPath id="d"><path class="a" d="M20.92437,35.16923c.34661.939.7247,1.843.99684,2.64384a93.03083,93.03083,0,0,0,5.066,12.05361,8.80082,8.80082,0,0,0,1.34558,2.10844,9.25834,9.25834,0,0,0,3.12459,1.91363c4.60113,2.034,9.78712,2.89255,13.382,6.57407.192.19667.426.41507.69792.37481a.848.848,0,0,0,.49824-.38706c1.93011-2.55188,3.53466-5.88729,1.958-9.02392-1.02007-2.02932-2.79409-3.5627-4.14145-5.39117-1.79436-2.43507-2.80359-5.35277-4.3547-7.94955a22.88062,22.88062,0,0,0-12.18281-9.61156c-1.81333-.6651-3.75238-1.70065-5.54376-.517C19.22994,29.63625,19.95374,32.53976,20.92437,35.16923Z"/></clipPath><clipPath id="e"><path class="b" d="M47.1522,96.09216a39.39732,39.39732,0,0,1,9.217,1.55432c1.72987.5089,3.622,1.32362,4.24441,3.016L67.279,81.62921a41.54616,41.54616,0,0,1,3.39767-7.90233,13.94327,13.94327,0,0,1,6.20637-5.77643c3.01069-1.28406,6.41976-1.07719,9.6848-.84779.96378.06771-.63-8.84938-.84118-9.59443-.84137-2.96782-2.50559-4.60712-4.90015-6.59576a27.57983,27.57983,0,0,0-5.85626-4.06289A20.59389,20.59389,0,0,0,68.385,45.23617a28.0153,28.0153,0,0,0-15.09173,2.23135c-3.98288,1.941-11.32516,8.11932-9.06874,13.26582.61375,1.39951,2.00138,2.25069,2.6297,3.77141a19.51881,19.51881,0,0,1,1.26152,6.51883c.23421,4.90422.01575,9.74026-.00307,14.61919A55.75042,55.75042,0,0,1,47.1522,96.09216Z"/></clipPath></defs><circle class="c" cx="65" cy="65" r="65"/><path class="a" d="M117.16964,52.98515c-.64932.76171-1.31613,1.47975-1.84789,2.1375a93.02962,93.02962,0,0,1-8.914,9.56528,8.80072,8.80072,0,0,1-1.99046,1.51465,9.25836,9.25836,0,0,1-3.593.718c-5.02038.32141-10.18411-.66218-14.8285,1.55282a.89363.89363,0,0,1-.78439.111.848.848,0,0,1-.33408-.5352c-.931-3.06114-1.28613-6.74536,1.276-9.14531,1.65765-1.55271,3.85181-2.37978,5.74734-3.631,2.52438-1.66636,4.47839-4.05663,6.83027-5.95871A22.88056,22.88056,0,0,1,113.482,44.49653c1.93146.00145,4.10874-.30143,5.38167,1.42766C120.66917,48.37666,118.988,50.8521,117.16964,52.98515Z"/><g class="d"><path class="e" d="M102.55164,50.45343c-.47376.21975-.98694.5868-.97551,1.10892.00889.40605.34553.75344.34166,1.15956-.01125,1.1832-2.24967.72472-2.81471,1.76434-.4969.91425.78337,1.986.48435,2.98271-.25864.86208-1.40262.96682-2.2958,1.07774-4.1428.51445-7.21666,4.55309-11.36964,4.97758-.44064-3.09262-.80109-6.538,1.02711-9.071a11.786,11.786,0,0,1,2.91163-2.59278q4.691-3.29389,9.62175-6.22737a16.16741,16.16741,0,0,1,4.31369-1.99346c3.00918-.73926,6.09583-.81483,5.70023,2.78568C108.97,51.21619,105.953,48.87572,102.55164,50.45343Z"/></g><path class="b" d="M98.00017,46.5999a82.96781,82.96781,0,0,1,16.32322-2.69926c1.04279-.094,2.271-.109,2.92043.71229-4.9963-.97565-10.06917,1.36017-14.17514,4.36948S95.3813,55.7371,90.95935,58.25926a8.83468,8.83468,0,0,1-3.72015,1.32468c-1.99912.1305-3.90531-1.064-3.88182-3.17971.02192-1.9748,1.85577-3.11412,3.26061-4.19407A35.02094,35.02094,0,0,1,98.00017,46.5999Z"/><path class="f" d="M51.68563,38.37674a13.45735,13.45735,0,0,1,1.92825-8.83451,13.39564,13.39564,0,0,1,3.0306-3.06324,10.84023,10.84023,0,0,1,5.182-2.32592c-3.12422,2.68792-3.628,7.34123-3.19041,11.4393.412,3.85892,1.72841,8.02262,5.05783,10.01662-2.06034.4504-7.76538,2.55347-9.6109,1.39827C52.35428,45.92516,51.85612,40.21363,51.68563,38.37674Z"/><path class="g" d="M87.56219,44.81948a13.4574,13.4574,0,0,0,.02334-9.04247,13.39592,13.39592,0,0,0-2.29829-3.645,10.84028,10.84028,0,0,0-4.55809-3.38922c2.47067,3.2987,1.95856,7.9511.64708,11.85823-1.235,3.67912-3.41869,7.46073-7.09992,8.68939,1.91462.88434,7.03152,4.16881,9.08282,3.439C85.28061,52.04583,86.99938,46.57632,87.56219,44.81948Z"/><path class="a" d="M20.92437,35.16923c.34661.939.7247,1.843.99684,2.64384a93.03083,93.03083,0,0,0,5.066,12.05361,8.80082,8.80082,0,0,0,1.34558,2.10844,9.25834,9.25834,0,0,0,3.12459,1.91363c4.60113,2.034,9.78712,2.89255,13.382,6.57407.192.19667.426.41507.69792.37481a.848.848,0,0,0,.49824-.38706c1.93011-2.55188,3.53466-5.88729,1.958-9.02392-1.02007-2.02932-2.79409-3.5627-4.14145-5.39117-1.79436-2.43507-2.80359-5.35277-4.3547-7.94955a22.88062,22.88062,0,0,0-12.18281-9.61156c-1.81333-.6651-3.75238-1.70065-5.54376-.517C19.22994,29.63625,19.95374,32.53976,20.92437,35.16923Z"/><g class="h"><path class="e" d="M35.51815,37.837c.36884.36973.72385.89131.533,1.37742-.14845.378-.58429.58793-.72079.97045-.39771,1.11441,1.86143,1.45646,2.03305,2.6272.15092,1.02956-1.42055,1.59376-1.4838,2.6324-.05471.89838.98286,1.39142,1.78292,1.80372,3.71084,1.91234,5.20237,6.76359,8.95381,8.595,1.4807-2.75064,3.00787-5.86007,2.166-8.86834a11.78616,11.78616,0,0,0-1.83816-3.43821q-3.26631-4.71024-6.882-9.16493a16.168,16.168,0,0,0-3.3609-3.35948c-2.56928-1.73218-5.44029-2.86817-6.31135.64771C29.2308,36.33823,32.87006,35.18252,35.51815,37.837Z"/></g><path class="i" d="M43.24713,96.05234a26.30975,26.30975,0,0,0,2.6603,8.55031,15.81923,15.81923,0,0,0,7.43947,7.18617c4.05808,1.75086,10.7033-4.76828,13.6178-7.35488,3.73815-3.31758,5.49205-7.47252,7.54608-11.90768,1.45963-3.15171,3.55092-6.14436,5.28984-9.1534A58.46036,58.46036,0,0,0,85.25529,72.158c2.12876-6.64639-.50515-11.477-5.954-15.39921a29.556,29.556,0,0,0-8.86227-4.71162c-5.3113-1.53684-10.98526-.57668-16.42873.39311a22.56439,22.56439,0,0,0-7.63917,2.34143c-2.39526,1.4225-2.40653,2.44356-2.28087,4.99953.2976,6.05356.10937,12.11357-.07368,18.1675-.091,3.0088-.03234,6.06565-.2745,9.06555-.2064,2.557-.98447,4.88639-.6935,7.50855Q43.13354,95.2883,43.24713,96.05234Z"/><path class="b" d="M47.1522,96.09216a39.39732,39.39732,0,0,1,9.217,1.55432c1.72987.5089,3.622,1.32362,4.24441,3.016L67.279,81.62921a41.54616,41.54616,0,0,1,3.39767-7.90233,13.94327,13.94327,0,0,1,6.20637-5.77643c3.01069-1.28406,6.41976-1.07719,9.6848-.84779.96378.06771-.63-8.84938-.84118-9.59443-.84137-2.96782-2.50559-4.60712-4.90015-6.59576a27.57983,27.57983,0,0,0-5.85626-4.06289A20.59389,20.59389,0,0,0,68.385,45.23617a28.0153,28.0153,0,0,0-15.09173,2.23135c-3.98288,1.941-11.32516,8.11932-9.06874,13.26582.61375,1.39951,2.00138,2.25069,2.6297,3.77141a19.51881,19.51881,0,0,1,1.26152,6.51883c.23421,4.90422.01575,9.74026-.00307,14.61919A55.75042,55.75042,0,0,1,47.1522,96.09216Z"/><g class="j"><path class="k" d="M65.73524,74.14432c.08775-.49594.06943-1.0104.20625-1.49516.464-1.64407,2.22374-2.20845,3.245-3.40131,1.283-1.49868,2.15159-3.41246,3.50795-4.78628a3.4157,3.4157,0,0,1,3.45905-1.01448,4.89108,4.89108,0,0,0,1.439.52217,3.42267,3.42267,0,0,0,1.74369-.78584c2.22927-1.34629,4.38755-.14237,6.47643.79079,1.17808.52628,2.41041,1.85846,1.692,2.93022a2.50589,2.50589,0,0,1-1.68329.83075c-2.722.546-5.55287,1.09671-7.79016,2.74054a17.02768,17.02768,0,0,0-3.55721,3.91876,102.47443,102.47443,0,0,0-8.92016,14.90575c-2.32916,4.76854-4.31142,9.75918-7.43291,14.05106a5.08526,5.08526,0,0,1-2.01413,1.85547c-1.44894.59908-3.09553-.126-4.399-.99737a9.54533,9.54533,0,0,1-3.50782-3.737,12.68164,12.68164,0,0,1-.86535-4.55645c-.24834-3.833-.49682-7.67276-.38754-11.51229.0889-3.12354.41445-6.24708.24159-9.36736a37.99922,37.99922,0,0,0-1.372-7.90014c-.16076-.588-3.28268-11.15664-2.65041-11.06134,2.56285.38631,8.62467,5.24756,7.51638,8.34129-.44982,1.25567-1.83328,2.298-1.51185,3.59247.23129.9315,1.2477,1.41159,1.82592,2.17766a4.62776,4.62776,0,0,1,.38044,3.82332,9.12969,9.12969,0,0,0-.46061,3.90828c.13357.62218.42864,1.20109.55768,1.8246.42027,2.03188-.83528,3.95-1.05873,5.92679-.13677,1.20991.45036,2.25269.62778,3.41231.12509.81767-.26322,2.25246.29446,2.90294.93368,1.08621,3.37636.791,4.63436.91237,2.08037.20074,3.58584-.05034,3.65-2.68647.03419-1.40485-.33427-2.89236.25849-4.16649.77388-1.66342,3.01983-2.5494,3.16265-4.37846.04454-.57054-.13923-1.13557-.14373-1.70783-.01712-2.17281,2.41866-3.63219,2.82719-5.76632Z"/></g><path class="l" d="M60.46,100.20435a4.96842,4.96842,0,0,1-2.19124,2.98137c-1.14939.76412-2.88047.88667-4.22083,1.13983a3.995,3.995,0,0,1-2.86419-.37617,11.8687,11.8687,0,0,1-3.51571-2.68447c-1.81123-2.3019-1.32848-6.63527,1.48994-8.09658a6.00411,6.00411,0,0,1,2.20869-.5031,17.36777,17.36777,0,0,1,2.703-.12173,8.71864,8.71864,0,0,1,3.93464,1.21092C60.09958,95.00494,60.94409,97.93681,60.46,100.20435Z"/><path class="m" d="M51.9004,103.83209c-.32966,2.72257-1.59134,7.72949,2.22713,8.03093a8.67192,8.67192,0,0,0,6.20405-1.99613"/><path class="n" d="M50.29616,99.81536c-.02831.91155-.32768,2.00364.35814,2.60477.69457.6088,2.03842.28252,2.449,1.10986a8.45233,8.45233,0,0,1,5.64461-4.37573,1.24988,1.24988,0,0,1,.5609-.02981.96546.96546,0,0,1,.635.71144,2.16851,2.16851,0,0,1-.67616,2.04295,6.3904,6.3904,0,0,1-1.922,1.16016l-2.21883,1.00426a5.53881,5.53881,0,0,1-3.16532.72463,4.93062,4.93062,0,0,1-2.04348-1.05326,9.73359,9.73359,0,0,1-2.30927-2.3151c-.63107-.95888-1.99474-4.6477-.27176-5.18167C49.00149,95.702,50.33415,98.59239,50.29616,99.81536Z"/><path class="o" d="M46.119,61.48434a19.25507,19.25507,0,0,1,2.3306,9.3834c-.002.46161-.13661,1.05978-.59551,1.10889A17.64793,17.64793,0,0,1,45.59,70.2806a2.711,2.711,0,0,1-.89871-.78156c-.96034-1.5399.50453-10.04079-2.25454-9.46853C44.10244,59.685,45.3183,60.02717,46.119,61.48434Z"/><path class="o" d="M83.73929,66.0625a16.65376,16.65376,0,0,0,2.20343.50832,6.53987,6.53987,0,0,0-2.596-1.24188.97029.97029,0,0,0-.24043-.16859,1.71079,1.71079,0,0,0-.80539-.11394,12.11042,12.11042,0,0,0-7.34054,3.07718c-1.697,1.45965-2.58328,3.5524-4.13047,5.04112a5.66766,5.66766,0,0,0,5.3272,1.03837,9.27493,9.27493,0,0,0,4.7308-2.59c1.2826-1.30808,3.22466-3.44393,2.88167-5.43473C83.76277,66.13937,83.74851,66.10135,83.73929,66.0625Z"/><path class="p" d="M81.88059,66.17955a2.9615,2.9615,0,0,0-1.86225,2.59214.46113.46113,0,0,0,.5852.54849,2.185,2.185,0,0,0,1.895-1.25309,1.63822,1.63822,0,0,0-.7088-2.05343"/><path class="p" d="M45.30054,62.634a.26521.26521,0,0,0-.30466-.11377,3.75887,3.75887,0,0,0-.4834,1.61908c-.021.33649.07945.76694.4121.82187.28455.047.51772-.23069.62234-.49945a2.00208,2.00208,0,0,0-.5048-2.151"/><path class="b" d="M41.11976,35.79063a82.96856,82.96856,0,0,0-14.38931-8.16586c-.9463-.44806-2.09393-.88593-2.98684-.33917,5.0261.80827,8.98142,4.751,11.79684,8.9923s4.88451,8.9924,8.1646,12.88546a8.83469,8.83469,0,0,0,3.03459,2.527c1.83131.81228,4.03258.34892,4.74058-1.645.66083-1.86108-.66726-3.5632-1.61318-5.06157A35.02081,35.02081,0,0,0,41.11976,35.79063Z"/><path class="m" d="M51.92149,110.85666a9.57807,9.57807,0,0,1-4.77995-4.53111"/><path class="q" d="M59.84221,54.71927a3.77961,3.77961,0,0,0-1.29032,1.21917,19.61332,19.61332,0,0,0-1.94433,3.21682,6.57935,6.57935,0,0,0-.816,3.231c.13193,1.93907,1.68873,3.51687,3.42066,4.3988a24.64523,24.64523,0,0,1,1.61225-8.86147C61.1935,56.95582,62.13013,53.60281,59.84221,54.71927Z"/><path class="o" d="M61.56313,54.71927S57.8813,57.23333,57.08332,61.106a5.609,5.609,0,0,0,2.0017,5.7732,5.606,5.606,0,0,0,4.06818-4.52248C63.95117,58.48405,61.56313,54.71927,61.56313,54.71927Z"/><path class="p" d="M59.932,59.74456a.55885.55885,0,0,0-.65687-.02193,1.02542,1.02542,0,0,0-.39444.56839,1.08223,1.08223,0,0,0,.03086.8341,1.30822,1.30822,0,0,0,.72653.53643,1.45958,1.45958,0,0,0,.93144.09987,1.02863,1.02863,0,0,0,.67408-.98364,1.464,1.464,0,0,0-.57174-1.09607.91834.91834,0,0,0-1.0679-.1548"/></svg>