<svg xmlns="http://www.w3.org/2000/svg" viewBox="0 0 130 130"><defs><style>.a{fill:#fff;}.b{fill:#72614c;stroke:#ead6b9;stroke-miterlimit:10;stroke-width:1.07745px;}.c{fill:#998876;}.d{fill:#ead6b9;}.e{fill:#bab19b;}.f{fill:#3c3c3b;}.g{fill:#575756;}.h{fill:#666258;}.i{fill:#706f6f;}.j{fill:#8ef4c0;}.k{fill:#5c9b78;}</style></defs><circle class="a" cx="65" cy="65" r="65"/><path class="b" d="M92.95313,21.385c2.09211,3.18315,2.05716,6.947,2.8199,10.65375.78007,3.79094,1.85171,7.57887,2.64276,11.426a27.65457,27.65457,0,0,1,.74744,5.46708c.01583,5.32878-2.3127,8.627-5.49346,11.84336C89.6183,64.872,88.10406,67.879,84.43764,61.9833c-2.896-4.65686-9.37241-8.46939-8.93715-15.07961C76.22573,35.89311,84.48373,25.36451,92.95313,21.385Z"/><path class="c" d="M83.39773,64.077c-1.362-3.78346-.09946-5.64835,2.49034-7.77854,2.87683-2.36627,4.02353-6.28478,5.27356-9.97338A39.56456,39.56456,0,0,0,93.29285,34.8255c.05662-1.99333.06456-4.10827.97693-5.79819a77.57778,77.57778,0,0,0,2.8317,12.50137c1.13748,4.19012,2.14878,7.48458.38448,11.60939a26.90733,26.90733,0,0,1-7.49373,9.90505c-1.5621,1.31283-3.40317,2.50318-5.3136,2.19766a1.49387,1.49387,0,0,1-.83888-.36662A2.095,2.095,0,0,1,83.39773,64.077Z"/><path class="c" d="M81.89373,45.61045a18.07714,18.07714,0,0,1-1.33348-9.24654c-.96961.42454-1.293,1.799-1.48435,2.98134-.458,2.83029-2.97042,16.30376.66717,17.574,1.4965.52257,2.87555-2.21533,3.30056-3.47538C84.00983,50.57926,83.01053,48.16986,81.89373,45.61045Z"/><path class="b" d="M39.04813,21.385c-2.09211,3.18315-2.05716,6.947-2.8199,10.65375-.78007,3.79094-1.85171,7.57887-2.64276,11.426a27.65457,27.65457,0,0,0-.74744,5.46708c-.01583,5.32878,2.3127,8.627,5.49346,11.84336C42.383,64.872,43.8972,67.879,47.56362,61.9833c2.896-4.65686,9.37241-8.46939,8.93715-15.07961C55.77553,35.89311,47.51753,25.36451,39.04813,21.385Z"/><path class="c" d="M48.60353,64.077c1.362-3.78346.09946-5.64835-2.49034-7.77854-2.87683-2.36627-4.02353-6.28478-5.27356-9.97338A39.56456,39.56456,0,0,1,38.70841,34.8255c-.05662-1.99333-.06456-4.10827-.97693-5.79819a77.57778,77.57778,0,0,1-2.8317,12.50137C33.7623,45.7188,32.751,49.01326,34.5153,53.13807A26.90733,26.90733,0,0,0,42.009,63.04312c1.5621,1.31283,3.40317,2.50318,5.3136,2.19766a1.49387,1.49387,0,0,0,.83888-.36662A2.095,2.095,0,0,0,48.60353,64.077Z"/><path class="c" d="M50.10753,45.61045A18.07714,18.07714,0,0,0,51.441,36.36391c.96961.42454,1.293,1.799,1.48435,2.98134.458,2.83029,2.97042,16.30376-.66717,17.574-1.4965.52257-2.87555-2.21533-3.30056-3.47538C47.99143,50.57926,48.99073,48.16986,50.10753,45.61045Z"/><path class="d" d="M53.8852,52.32529l.38357-2.2869c1.09462.10684,2.38473.137,3.07518-.71906.28086-.34824.4119-.79587.67685-1.15636.39747-.54078,1.05366-.8327,1.50006-1.33385s.55548-1.4469-.05332-1.72938a3.01523,3.01523,0,0,0,4.41213.14772,11.57815,11.57815,0,0,0,1.649,2.44881,1.03968,1.03968,0,0,0,.68722.43664c.36287.0108.62332-.32462.89379-.56677a2.63659,2.63659,0,0,1,2.79407-.30586A4.63789,4.63789,0,0,1,71.957,49.33911c.32737.60146.77637,1.36351,1.451,1.24591.78224-.13637.82429-1.25084.58867-2.00911,2.33655,3.71,5.49222,5.43164,8.78671,8.07847,1.96155,1.57593,10.0286,8.536,8.22224,11.46127a4.15366,4.15366,0,0,0-.76189,1.2938c-.33155,1.77291,3.336,2.61966,2.64153,4.28423-.3438.824-1.679,1.1323-1.61124,2.02259.05291.69548.9666,1.00543,1.20031,1.6626.35088.98667-.93162,1.69908-1.51041,2.5718-.75363,1.13638-.26581,2.63454-.08083,3.9855a2.042,2.042,0,0,1-.061,1.04231,3.12892,3.12892,0,0,1-.73011.90429,4.64724,4.64724,0,0,0-.41006,5.71265c-1.09359.06718-2.42452.30388-2.78494,1.33856l-1.717-2.069a11.3806,11.3806,0,0,1-2.67382,4.918c1.44373,3.49953-3.04875,8.57245-5.58436,10.59552-3.53581,2.82108-7.972,6.57436-12.72457,6.6104-5.45377.04135-9.15252-3.61814-12.09433-7.6948a28.90579,28.90579,0,0,1-3.016-4.23654c-.53864-1.16536-.42288-2.81113-1.32509-3.77855a2.8707,2.8707,0,0,0-3.08874-.68851c.62725-.04761.68915-1.03845.23818-1.477a7.77425,7.77425,0,0,0-1.66671-.86322c-.54394-.316-.95339-1.09614-.52024-1.55232.15948-.168.39857-.24572.54952-.42139.54028-.62873-.45315-1.37817-1.058-1.945a7.19217,7.19217,0,0,1-1.35683-2.726c-.38616-.94937-1.16591-1.92576-2.18889-1.86288.96919-.168,1.39544-1.36912,1.276-2.34549s-.58379-1.89779-.60693-2.88116a7.72084,7.72084,0,0,0-.01207-2.3489c-.29584-.85478-1.23765-1.47227-1.22347-2.37669.01694-1.08037,1.42531-1.98767.98024-2.97225-.21891-.48427-.81342-.69931-1.07-1.16472-.39967-.725.18651-1.57068.64863-2.25751a8.66936,8.66936,0,0,0,1.45182-4.2816,4.84839,4.84839,0,0,1,.25034-1.68866c.40668-.91215,2.36817-2.28727,3.08067-3.11969,1.4768-1.72535,3.12523-3.2964,4.49185-5.11655.58977-.78548.8781-2.17428,1.70709-2.69539,1.16824-.73438,2.94384.132,4.18868-.6708.92622-.59731.99168-1.68915,2.06182-2.42a11.0238,11.0238,0,0,1,3.45195-1.23465,16.51979,16.51979,0,0,1,11.01323,1.30566,79.203,79.203,0,0,1,8.66474,4.52951"/><path class="e" d="M72.79661,78.22375a16.50794,16.50794,0,0,0-4.07094-4.434,7.46815,7.46815,0,0,0-3.56018,4.27461,5.93607,5.93607,0,0,0-3.84412-.32664,1.06688,1.06688,0,0,1-.66779.036c-.50482-.21207-.3147-.96645-.4787-1.48887-.30327-.96611-1.9271-1.19974-1.9229-2.21233a13.07818,13.07818,0,0,0-4.72154,4.81739c-.60972,1.08233-1.13811,2.33036-2.23989,2.90418a4.80263,4.80263,0,0,1-2.21582.39112,31.23764,31.23764,0,0,1-3.76513-.2119,13.0234,13.0234,0,0,0,4.12949,7.9423c.7042.639,1.64191,1.20712,2.27194,1.90689a6.37777,6.37777,0,0,1,1.02545,2.90718c.63741,2.65086,1.25557,5.31,2.08535,7.90911a6.98633,6.98633,0,0,0,2.08976,3.54294,5.952,5.952,0,0,0,1.69247.76452c2.20207.71652,4.81505,1.748,7.16082,1.62322a8.64331,8.64331,0,0,0,3.64785-1.322,10.8943,10.8943,0,0,0,2.6857-1.48c1.48736-1.37693,2.02668-3.49079,2.35784-5.374a52.77338,52.77338,0,0,1,1.19712-6.66833c.30281-.98282.4985-2.79864,1.30916-3.4844.7746-.65525,1.952-.87,2.79-1.5066a10.123,10.123,0,0,0,2.07593-2.17322q.10853-.15133.21206-.30564c.99064-1.476,3.50822-5.10448,1.24783-6.236a16.33825,16.33825,0,0,0-4.97642-1.0134,10.99778,10.99778,0,0,0-4.91509.20985c-1.21926-1.27022-.60207-2.89075-.022-4.36341a2.44049,2.44049,0,0,0-2.00806.465,3.10945,3.10945,0,0,1-.33479-1.7994,4.45929,4.45929,0,0,0-1.18756,1.27746,11.29551,11.29551,0,0,0-1.14706-4.202,41.17581,41.17581,0,0,1-3.34912,6.05882,1.26492,1.26492,0,0,1-.67882.60674c-.46322.10981-1.2583-.07-1.1876.40076a1.05646,1.05646,0,0,1-.81543-.97327l-.49154.98964c-2.15128-1.55027-3.20068-4.172-4.14324-6.65046a1.47194,1.47194,0,0,1-1.50988.48374,2.91637,2.91637,0,0,1-1.71454,3.22984.51818.51818,0,0,1-.60636.56591,5.65455,5.65455,0,0,1-.99227,2.31525"/><path class="f" d="M85.67575,78.20109a13.10314,13.10314,0,0,0-10.58189-.47619,2.86316,2.86316,0,0,0-1.82844,1.543c-.49332,1.52107,1.35417,2.72458,2.90749,3.10437a10.06162,10.06162,0,0,0,5.50536.03144,5.20485,5.20485,0,0,0,3.61488-3.87953"/><path class="f" d="M53.28953,80.47632a9.28356,9.28356,0,0,0-6.192-2.81223,3.35033,3.35033,0,0,0-1.77435.30207,2.54739,2.54739,0,0,0-.88605,3.21705,4.29,4.29,0,0,0,2.80768,2.17925,6.74314,6.74314,0,0,0,6.52555-1.7201"/><path class="g" d="M58.23653,98.64392a6.10532,6.10532,0,0,0,5.804,3.22812c2.97592-.01013,5.09037-4.00083,3.91444-6.62644A2.43069,2.43069,0,0,0,66.71487,93.946c-1.04144-.4192-2.336.16112-3.37127.33432a6.768,6.768,0,0,1-3.5769-.5606,1.77979,1.77979,0,0,0-.65485-.11962,1.35567,1.35567,0,0,0-.74964.352C56.83969,95.22933,57.4532,97.15521,58.23653,98.64392Z"/><path class="f" d="M61.867,100.3383a1.5645,1.5645,0,0,1-1.13337-.82356,6.20423,6.20423,0,0,1-.21488-.96943A1.87122,1.87122,0,0,0,59.409,97.29543a.97479.97479,0,0,0-.90544.0366,1.09669,1.09669,0,0,0-.22738,1.23543,4.06148,4.06148,0,0,0,2.13677,2.26961c3.11318,1.54657,6.00267.9434,6.67077-2.76818.08505-.47248.043-1.08337-.40141-1.26492a1.01546,1.01546,0,0,0-.96816.27354C63.98058,98.47552,64.92012,100.98306,61.867,100.3383Z"/><path class="h" d="M65.92043,81.83172a18.1298,18.1298,0,0,1,.54311-2.1365c.29264-.98243.71-1.92494.9635-2.91756a7.20614,7.20614,0,0,0,.27223-1.73347c.00476-.35517-.27216-1.30105-.14347-1.58348a35.6748,35.6748,0,0,0-1.43975,4.15573C65.68961,78.9884,66.15352,80.43279,65.92043,81.83172Z"/><path class="h" d="M60.71021,81.372,59.04347,78.586c-.48661-.81337-1.94578-2.77395-1.37676-3.71778C59.23318,75.20387,60.30277,79.99364,60.71021,81.372Z"/><path class="h" d="M71.90937,83.69558a14.749,14.749,0,0,1,2.75,2.48018,7.5169,7.5169,0,0,1,1.15275,3.514,6.1702,6.1702,0,0,0-2.49227-2.83709c-.9673-.70384-4.29312-3.207-2.86054-4.68811C70.94615,82.64144,71.36318,83.23623,71.90937,83.69558Z"/><path class="h" d="M84.59357,83.71656a5.3598,5.3598,0,0,1-1.55164,2.17425,4.636,4.636,0,0,1-2.63223.65127c-.257.00373-.61143-.10592-.56573-.35886a9.24842,9.24842,0,0,0,1.98535-.676A3.10786,3.10786,0,0,0,83.29,84.05291c.13523-.31292.1995-.65151.3127-.97306a3.57922,3.57922,0,0,1,2.46-2.465.854.854,0,0,0-.33042-.23617C85.2496,81.36134,85.10623,82.65377,84.59357,83.71656Z"/><path class="h" d="M53.87485,84.57358c-.2732.25515-.59273.45525-.87938.69519a6.91226,6.91226,0,0,0-1.98079,3.74407,1.97492,1.97492,0,0,1-.72889-1.62767,2.70993,2.70993,0,0,1,.3766-1.15993,4.42875,4.42875,0,0,1,.87938-1.104,8.84471,8.84471,0,0,1,1.05477-.78308c.28259-.18882,1.50564-1.24672,1.80679-1.07355C54.85387,83.52363,54.11607,84.41276,53.87485,84.57358Z"/><path class="h" d="M43.41613,79.244a6.16817,6.16817,0,0,0,.24431,3.854A6.60345,6.60345,0,0,0,45.014,85.86546c.57776.60489,2.144,1.36332,2.89653.5861.88852-.9177-.49854-1.35475-1.17215-1.575a3.5297,3.5297,0,0,1-2.26615-1.88432C44.0795,82.2681,43.11148,80.06321,43.41613,79.244Z"/><path class="h" d="M63.482,105.26358a.64814.64814,0,0,0,.0824.34969.63942.63942,0,0,0,.365.20535c2.81245.8214,6.03161.92722,8.49421-.66029a3.22178,3.22178,0,0,1-2.00114,1.07568,14.97209,14.97209,0,0,1-6.33539.0659,2.78743,2.78743,0,0,0-.67372-.08783,2.9852,2.9852,0,0,0-.89316.24476,8.86525,8.86525,0,0,1-5.29575.25407,12.911,12.911,0,0,0,5.43691-1.551.46238.46238,0,0,0,.20154-.16855.47116.47116,0,0,0,.02321-.27785c-.11953-1.00458-.24821-2.00894-.3575-3.01441C63.86112,101.45793,63.44924,104.49912,63.482,105.26358Z"/><path class="e" d="M64.23771,57.44618c-.38638.48655-.99425.79-1.28078,1.34127-.528,1.01583.2797,2.17393.58578,3.27709a7.36181,7.36181,0,0,1,.103,2.53672q-.271,3.50082-.65677,6.99149A1.79111,1.79111,0,0,1,61.997,69.876a9.0349,9.0349,0,0,1,.411-2.06377,8.38863,8.38863,0,0,0-.56764-5.45317,5.95624,5.95624,0,0,1-.67875-1.73955,4.40187,4.40187,0,0,1,.45793-2.12432l.76986-1.93c.49555-1.24237-1.58831-4.00687.4439-3.38693A2.96717,2.96717,0,0,1,64.23771,57.44618Z"/><path class="e" d="M81.053,70.07413a4.02731,4.02731,0,0,0,.1511-1.81589,1.37881,1.37881,0,0,0-1.25584-1.1402,2.87691,2.87691,0,0,0-.37465,1.91689c0,.66645-.173,1.45886-.79395,1.701a3.88557,3.88557,0,0,0-.59049.19163c-.30125.17777-.39734.55805-.56788.86344s-.582.56708-.84971.34193a4.10967,4.10967,0,0,0-.89787-1.15445,3.01555,3.01555,0,0,1-1.41016,1.04528l-.166-1.46907c-.50271.64.10974,1.52624.62419,2.15687,1.28628,1.57675,1.401,4.76623,3.53427,3.29964.80479-.55327,1.37968-1.98649,1.84991-2.81476C80.4629,72.91992,81.96477,69.35556,81.053,70.07413Z"/><path class="e" d="M47.32749,72.37a3.83534,3.83534,0,0,1-.10093-.557c-.14613-1.40835-1.34572.58554-2.42788.037-1.21648-.61661-.79544-1.96812-1.1674-2.99869a.48354.48354,0,0,1-.24062.581,1.24034,1.24034,0,0,1-.634-.8359,3.74039,3.74039,0,0,1-.6031,1.68467c-.2766.41627.994,4.06428,1.07248,4.82677.37423-.44009,1.06488-.35063,1.62833-.22244a16.98879,16.98879,0,0,0,3.72842.7118C48.38249,74.47158,47.62391,73.5273,47.32749,72.37Z"/><path class="h" d="M75.41184,101.082l-1.64269,2.55588c-.60914.94775-1.24259,2.08571-.844,3.13949,1.726-1.19811,2.50131-3.31326,3.60841-5.09916.4418-.71269,2.97967-3.44916,1.1157-3.8854C76.55462,97.53659,75.95419,100.23811,75.41184,101.082Z"/><path class="h" d="M54.69029,104.70325c-.7562-1.34634-1.94887-5.96078-3.72323-6.22972-2.72462-.413,1.978,3.99966,2.321,4.53566.70516,1.1022,1.23513,2.60867,2.56467,3.12745A4.2959,4.2959,0,0,1,54.69029,104.70325Z"/><path class="i" d="M50.38969,80.26372c-.23567.69212-.30407,1.65157.35725,1.96336a.98548.98548,0,0,0,1.27671-.96393A1.45208,1.45208,0,0,0,50.775,80.00388"/><path class="i" d="M82.24828,78.35027a.89466.89466,0,0,0-.70968.96676,1.10777,1.10777,0,1,0,.76855-1.14137"/><circle class="j" cx="62.65523" cy="62.85147" r="5.04409"/><path class="k" d="M57.611,62.85154a4.79111,4.79111,0,0,0,5.04419,4.79517,4.80113,4.80113,0,0,0,0-9.58814,4.78908,4.78908,0,0,0-5.04419,4.793Zm0,0a5.3075,5.3075,0,0,1,5.04419-5.29541,5.3,5.3,0,1,1,0,10.58813A5.30492,5.30492,0,0,1,57.611,62.85154Z"/><circle class="a" cx="60.71021" cy="60.66258" r="0.93078"/></svg>