<svg xmlns="http://www.w3.org/2000/svg" viewBox="0 0 130 130"><defs><style>.a{fill:#fff;}.b{fill:#cbbba0;}.c{fill:#e8dccd;}.d{fill:#a89a85;}.e{fill:#3c3c3b;}.f{fill:#ead6b9;}.g{fill:#575756;}.h{fill:#7b6a58;}.i{fill:#5c9b78;}.j{fill:#8ef4c0;}</style></defs><circle class="a" cx="65" cy="65" r="65"/><path class="b" d="M95.93124,71.72716c-.12014-3.62423.26339-7.26529-.10661-10.88143a8.38056,8.38056,0,0,1,.25881-4.31637c.61957-1.49955,1.84886-2.59107,2.21411-4.23011a20.26759,20.26759,0,0,0,.15095-6.25143,2.34963,2.34963,0,0,0-.49558-1.48188,2.219,2.219,0,0,0-1.09326-.50579,17.248,17.248,0,0,0-3.436-.471,19.40612,19.40612,0,0,0-4.33539.359c-1.10155.211-2.82638,1.13046-3.87409.85789-2.17742-.56649-4.59435-3.62447-6.81145-4.63817a35.72186,35.72186,0,0,0-23.82441-1.562c-1.8929.53279-3.7871,1.29685-5.74833,1.15887a20.90714,20.90714,0,0,1-2.95425-.59031,16.44937,16.44937,0,0,0-6.09976-.16841,3.155,3.155,0,0,0-2.13566,1.01427,3.28213,3.28213,0,0,0-.36951,2.25144c.20011,2.21132,1.00244,4.29284,1.32675,6.47848.52772,3.55648-2.10706,7.08969-3.01862,10.45882-1.217,4.49813-2.301,9.18879-2.02061,13.88073.11527,1.92905.4365,3.55687-.27456,5.41831-.69892,1.82963-1.41234,2.69524-.877,4.69073a13.352,13.352,0,0,0,2.40249,4.4966,11.18413,11.18413,0,0,0,3.39007,3.16383c1.51676.82638,2.71427.52568,4.34239.46148a17.38747,17.38747,0,0,1,3.2315-.03145,14.75639,14.75639,0,0,1,4.67115,2.05193c6.5757,3.564,14.32089,4.065,21.7883,4.48929,4.20889.23917,8.52495.46583,12.55044-.78615a12.7696,12.7696,0,0,0,7.95541-6.51112,9.34888,9.34888,0,0,0,.68346-5.17927,9.73765,9.73765,0,0,1,1.21782-6.2343A15.0363,15.0363,0,0,0,95.93124,71.72716Z"/><path class="c" d="M47.97812,73.03306a51.59975,51.59975,0,0,0-6.03431,4.90642c-.99415,1.06469-1.66529,2.66921-1.0204,3.97536a11.08514,11.08514,0,0,0,1.00814,1.38349c1.05918,1.50314,1.12517,3.6583,2.53259,4.84172,1.81536,1.52645,4.93723.635,6.59569,2.33057a4.21911,4.21911,0,0,0,.78692.77018,2.72745,2.72745,0,0,0,1.92675.02258,11.42121,11.42121,0,0,1,6.59669.61615,6.54794,6.54794,0,0,0,1.68842.56821,5.11326,5.11326,0,0,0,2.70014-.71l7.21433-3.421a2.91034,2.91034,0,0,0,1.49879-1.18222c.67221-1.3911-.93461-3.49292.312-4.4056-.65.47592-4.30073-4.1152-4.67942-4.64561a30.56852,30.56852,0,0,0-4.54144-4.397,8.75232,8.75232,0,0,0-2.56336-1.83565,8.73389,8.73389,0,0,0-1.93449-.44615c-1.66634-.253-3.35371-.44852-5.00986-.76057-1.42061-.26767-2.62884-.81157-4.03666-.02428.13163.26079-.17619.53193-.45667.61356s-.62386.13338-.74606.39872c-.05441.11813-.05052.25855-.11509.37145-.1184.207-.398.23245-.62664.30022a2.56363,2.56363,0,0,0-.8792.55351Q48.0886,72.9464,47.97812,73.03306Z"/><path class="d" d="M73.19413,79.03183a5.84112,5.84112,0,0,1,3.63808.9953c.68116.5254,1.20313,1.29152,2.00789,1.59545a7.49513,7.49513,0,0,0,1.69791.24475c2.011.264,3.45968,1.05683,5.43881.04646.70143-.35808.7263-.70506,1.27351-1.17656.46892-.404,1.221-.52507,1.64292-.96709a18.60487,18.60487,0,0,0,1.3189-1.54182,1.28882,1.28882,0,0,0,.30845-.61342c.04751-.434-.3207-.78682-.63869-1.08605a10.19416,10.19416,0,0,1-2.4014-3.45756,2.69187,2.69187,0,0,1-.27619-1.32079,5.66471,5.66471,0,0,1,.60875-1.50256,4.58763,4.58763,0,0,0-.03127-3.27659,13.63429,13.63429,0,0,0-1.60887-2.93159l-2.51977-3.81261a3.27016,3.27016,0,0,0-.62631-.76589,2.97689,2.97689,0,0,0-1.27162-.51444,16.07831,16.07831,0,0,0-5.29262-.25643,5.22074,5.22074,0,0,0-3.24431,1.48833c-1.02339,1.00589-2.36264,1.66252-3.45457,2.66413-.60607.556-1.13565,1.19424-1.77145,1.71594a12.62706,12.62706,0,0,0-1.00036.82189,3.34724,3.34724,0,0,0-.329,4.20464c.95349,1.37732,2.83591,1.58366,3.89588,2.88095,1.23319,1.50928.43241,2.05068-.41977,3.35713-.53474.81981-1.22925,3.34247.40892,3.29619C71.41117,79.0952,72.313,79.0243,73.19413,79.03183Z"/><path class="d" d="M42.84542,58.86758a2.63488,2.63488,0,0,1,.00774.574.78228.78228,0,0,1-.03709.14284,1.97865,1.97865,0,0,1-.55132.6476,2.39341,2.39341,0,0,0-.68559,1.91865,1.45776,1.45776,0,0,1,.01234.4929c-.10264.423-.622.5692-.92867.878a1.74471,1.74471,0,0,0-.32784,1.49007A5.35723,5.35723,0,0,1,40.48566,66.58a.51336.51336,0,0,1-.12372.29417.74647.74647,0,0,1-.44543.13528c-1.40128.1859-2.02,1.75685-2.26079,2.92461-.21368,1.03643-1.12481,3.32315-.67587,4.29671.14165.30715.54781.36347.886.36511A14.0775,14.0775,0,0,0,40.9312,74.273a2.58464,2.58464,0,0,1,1.43748-.061c.20863.07756.39113.2128.59592.3a6.2675,6.2675,0,0,0,1.89838.13532,9.3184,9.3184,0,0,0,1.60567.22745c1.253-.10348,1.62111-1.19187,2.26453-2.03174a34.88305,34.88305,0,0,1,2.77866-3.16619c.632-.63883,1.42518-.94107,1.78708-1.85271.23328-.58764.20272-1.24976.40142-1.85A16.57836,16.57836,0,0,1,54.77286,64.056a3.6951,3.6951,0,0,0-.09639-3.3643A4.0342,4.0342,0,0,0,52.207,58.64594a9.73364,9.73364,0,0,1-2.52826-1.10856C47.87258,56.41587,42.6456,55.4401,42.84542,58.86758Z"/><path class="e" d="M46.05227,79.57525a2.1694,2.1694,0,0,0-.28088.31522.85636.85636,0,0,0-.17761.797c.16971.42293.74356.46529,1.19769.4273a4.73267,4.73267,0,0,1,1.38838.00972,17.87722,17.87722,0,0,1,2.60379,1.40779,23.53,23.53,0,0,0,3.69867,1.26468,18.69381,18.69381,0,0,0,7.68992.35654c.95389-.16542,2.225-.48915,3.11625.1161.42407.288.63719.86777,1.12669,1.02a.927.927,0,0,0,1.09671-.68469,1.3559,1.3559,0,0,0-.46507-1.29538,2.61755,2.61755,0,0,0-1.31413-.56c-1.73618-.29665-3.49668.33365-5.25783.30787a24.55521,24.55521,0,0,1-7.15175-.87953A14.018,14.018,0,0,1,49.12291,80.138C48.23123,79.46731,47.01466,78.69691,46.05227,79.57525Z"/><path class="f" d="M44.788,47.3846c.46252.81276.70055.972.11526,1.88146-.87144,1.35416-3.07023,2.79922-1.03872,4.26563.61625.44483,1.25665.41113,1.16674,1.33857-.05805.59889-1.02035,1.2039-.57983,1.849a1.57931,1.57931,0,0,0,.55523.39753,2.09691,2.09691,0,0,1,1.00415,1.94134A2.14175,2.14175,0,0,1,47.123,58.6062c.283.58478,1.64652,1.91618,2.378,1.94034a.97948.97948,0,0,1,.53058.069c.19378.1318.18922.41027.22971.6411A1.93668,1.93668,0,0,0,52.315,62.5623c.249-.00563.5564-.00625.67334.2136-.15332.55061.15668,1.16026-.03051,1.7003-.1356.39118-.51771.6923-.53706,1.10587a1.97617,1.97617,0,0,1-.004.484c-.08952.29441-.45628.37866-.75921.43273a3.91781,3.91781,0,0,0-2.22179,1.092c-.58162.653-.29379,1.16239-.59,1.84556-.25487.58779-2.52506,1.74129-2.206,2.44739a2.28391,2.28391,0,0,0,2.24174,1.29715,8.71478,8.71478,0,0,1,1.1113-.1548.83109.83109,0,0,1,.83953.60265,3.20722,3.20722,0,0,0,2.05178-1.40382c.23351-.36638.42969-.815.83873-.96146a1.50587,1.50587,0,0,1,.84962.03446q3.08787.738,6.11084,1.71885a2.19252,2.19252,0,0,1,1.01811.5502,3.30933,3.30933,0,0,1,.46513,1.66559,4.16851,4.16851,0,0,0,3.28387,3.12315,6.7285,6.7285,0,0,0,4.61737-.89539,4.82183,4.82183,0,0,1,1.54625-.69911,1.80034,1.80034,0,0,0,.64328-.1467,1.027,1.027,0,0,0,.25712-1.229c-.33273-.96145-1.02823-1.30454-1.117-2.35626-.06579-.77912.27921-1.81869-.18841-2.51984-.44119-.66153-1.09924-.50273-1.72937-.80138-.28617-.13562-1.76075-1.006-1.82782-1.28291.23818-.09172.52573-.26884.46909-.51771-.03763-.16536-.21465-.2551-.31107-.39461-.25047-.36238.119-.829.47427-1.08946s.77988-.63233.639-1.0497a.99609.99609,0,0,1-.10176-.30159c-.00014-.23408.292-.33524.52346-.37039,1.61351-.24512,3.63781-.21221,5.076-1.08861.5421-.33033.91205-.89057,1.44859-1.22987,1.0458-.66135,2.52572-.37173,3.49553-1.14021.617-.4889.92712-1.34111,1.64248-1.66964.50112-.23014,1.11775-.15522,1.58054-.45507.66808-.43285.75512-1.4726,1.45478-1.8523.34756-.18862.84757-.22622.98108-.59845.10786-.30072-.1126-.64877.0034-.94643.202-.51833.97738-.3948,1.21429-.93288.29929-.67973-.33025-1.60033-.26758-2.312.14178-1.61,1.67485-2.74241,2.778-3.77685a32.127,32.127,0,0,0,3.23195-3.518.59571.59571,0,0,0,.13374-.2378c.074-.3589-.4511-.49981-.81555-.46166-1.98778.20808-3.888,1.081-5.85081,1.46013-1.04047.201-3.9308-.04192-4.01018,1.54064-.02653.52893.40386,1.034.26866,1.546-.13534.51261-.746.71766-1.27133.78909-1.20966.16447-2.4467.06218-3.65015.26723a3.87174,3.87174,0,0,0-2.46393,1.20387c-.68645,1.08732.28992.89525.23958,1.87941-.0261.46151-.67641.50789-1.1385.49567a7.42312,7.42312,0,0,0-3.70869,1.2874,2.506,2.506,0,0,0-1.01366.84017.86309.86309,0,0,0,.22587,1.17179,5.11718,5.11718,0,0,1-1.11256.71129,4.68893,4.68893,0,0,1-1.56636.05487c-.88777-.01877-1.99056-.01294-2.44053.96007a5.63159,5.63159,0,0,0-.228,1.45708c-.08251.48715-.43123,1.01814-.924.9826l1.0707,2.69541a1.42907,1.42907,0,0,1,.1361.99469c-.19674.53628-.90394.62731-1.47517.62892l-1.82379.00513a3.88619,3.88619,0,0,1-1.25377-.13352,1.31569,1.31569,0,0,1-.88224-.83732c-.10665-.392.0339-.84072-.15927-1.19812-.30662-.56735-1.26113-.56342-1.48473-1.16833-.18309-.49533.27406-.98689.7179-1.273.62965-.40593,1.32474-.70268,1.95254-1.11146,1.01377-.66012,2.26673-2.20149.64891-3.01035-1.12824-.56409-2.16246.98459-3.20924.22445-.86426-.6276-.30517-2.15919-1.0308-2.94317-.32824-.35465-.85844-.47488-1.16877-.84527A29.84858,29.84858,0,0,1,52.73389,49.961a1.31529,1.31529,0,0,1-.275-1.0608c.15692-.46484.76741-.64126.95548-1.0944a1.10874,1.10874,0,0,0-.29415-1.10043c-.26278-.30192-.60233-.53283-.84552-.85084-1.01912-1.33282-.22313-3.2894-1.02595-4.69528a4.57317,4.57317,0,0,0-4.603-1.74367c-.02033.00558,1.19012,2.28892,1.19418,2.53488C47.87243,43.97749,43.889,45.80482,44.788,47.3846Z"/><path class="e" d="M48.11258,65.07793c-.834.84886-1.9644,1.05565-2.95966-.32821-1.01181-1.40686-1.977-5.34418-1.53066-6.99974.81842-3.03517,3.89982.41036,5.007,1.88887a3.71421,3.71421,0,0,1,.78215,1.64336,4.6195,4.6195,0,0,1-.21405,1.7919A4.53132,4.53132,0,0,1,48.11258,65.07793Z"/><path class="e" d="M78.98946,60.64887a1.06076,1.06076,0,0,1,.94114.73529,6.051,6.051,0,0,1-.33247,5.93143A4.43832,4.43832,0,0,1,74.106,68.80527C67.846,65.42192,73.98729,59.6476,78.98946,60.64887Z"/><path class="g" d="M50.47717,72.61222a2.66862,2.66862,0,0,0-.58811.79841,3.05614,3.05614,0,0,0,.07774,1.98745,16.7048,16.7048,0,0,0,1.553,3.65992,3.73621,3.73621,0,0,0,2.20386,2.03883A3.53527,3.53527,0,0,0,55.33507,80.89a10.14005,10.14005,0,0,0,3.29823-1.40195,4.47919,4.47919,0,0,0,1.87548-3.30145c.1044-2.23984-2.39345-5.90106-4.17509-6.7169C54.12062,68.4563,52.02343,71.01016,50.47717,72.61222Z"/><path class="e" d="M54.71505,77.63465l.07225.02848c.90937-.41112,5.80112-2.106,5.01175.33262-.60959,1.88327-3.42233,3.132-4.94372,3.37283a3.00129,3.00129,0,0,1-1.37717-.04684,3.90857,3.90857,0,0,1-1.8375-1.60785c-.77895-1.11155-3.22941-4.96055-.80939-5.44854.92652-.18684,1.45408.57148,1.8858,1.40382C53.38109,76.94938,53.46225,77.13665,54.71505,77.63465Z"/><path class="h" d="M47.58746,39.38426a10.0677,10.0677,0,0,0-4.73325-2.5371,5.51171,5.51171,0,0,0-4.75459.63054c-1.3201,1.06623-1.66991,2.91047-1.834,4.59942-.34379,3.53776-.20513,7.32551,1.70424,10.32355a.8255.8255,0,0,0,.9968.46787A13.08459,13.08459,0,0,0,42.73694,51.723a14.19794,14.19794,0,0,0,4.3529-2.8939,9.79136,9.79136,0,0,0,2.55493-4.66064C49.96488,42.4676,48.74706,40.53664,47.58746,39.38426Z"/><path class="h" d="M90.3545,45.0053a10.26827,10.26827,0,0,1,8.88268.2685,2.61082,2.61082,0,0,1,.99673.89581,3.13914,3.13914,0,0,1,.19588,1.88859l-.60071,5.79592a6.70939,6.70939,0,0,1-.61158,2.55372A4.62305,4.62305,0,0,1,97.54481,58.063a8.264,8.264,0,0,1-7.40832.4675,10.32974,10.32974,0,0,1-5.30519-5.34024c-.30385-.67842-1.395-1.83647-1.51673-2.44365-.20961-1.04568.98389-1.743,1.74886-2.39183A19.54508,19.54508,0,0,1,90.3545,45.0053Z"/><circle class="i" cx="81.85105" cy="61.85313" r="1.86107"/><circle class="i" cx="93.78974" cy="58.5802" r="0.97493"/><circle class="j" cx="43.02829" cy="65.75172" r="1.86107"/><circle class="j" cx="38.80822" cy="62.39496" r="0.90326"/><circle class="i" cx="41.62368" cy="56.96914" r="1.52922"/><circle class="i" cx="44.39143" cy="48.63935" r="1.52922"/><circle class="j" cx="83.71212" cy="70.2105" r="1.86107"/><circle class="j" cx="89.90613" cy="61.40603" r="1.86107"/><circle class="j" cx="84.53631" cy="54.31996" r="1.03688"/></svg>