<svg xmlns="http://www.w3.org/2000/svg" xmlns:xlink="http://www.w3.org/1999/xlink" viewBox="0 0 130 130"><defs><style>.a{fill:#3c3c3b;}.b{fill:#fff;}.c{clip-path:url(#a);}.d{fill:#b17f4a;}.e{clip-path:url(#b);}.f{clip-path:url(#c);}.g{fill:#706f6f;}.h{opacity:0.8;}.i{fill:#8ef4c0;}.j{fill:#5c9b78;}.k{opacity:0.7;}.l{opacity:0.5;}.m{opacity:0.2;}</style><clipPath id="a"><path class="a" d="M43.65682,71.57617c-2.75829,1.02474-4.96788,3.1175-7.02187,5.22448a14.81968,14.81968,0,0,0-3.65673,5.10278c-.98889,2.76453-.34779,5.85477.7401,8.58186.56893-1.312-.22108-2.95957.47-4.21157.64953-1.17673,2.20952-1.37465,3.47937-1.81519a7.12946,7.12946,0,0,0,3.74041-3.03772,8.92182,8.92182,0,0,1,1.206-1.87521,5.15558,5.15558,0,0,1,2.13733-1.09227c2.47658-.78116,10.89277-.63113,10.6961-4.18161C55.216,70.09121,46.20858,70.62815,43.65682,71.57617Z"/></clipPath><clipPath id="b"><path class="a" d="M52.94018,72.8856a16.91537,16.91537,0,0,0-7.6028,9.23659,5.30805,5.30805,0,0,1,.78467-1.77274c.59658,3.89751-.42564,8.00251-.5751,11.914A10.66924,10.66924,0,0,1,47.07769,87.165a1.57282,1.57282,0,0,1-.09839,1.4852c.48326-.1604.5705-.78468.72976-1.26832s.8037-.94308,1.11527-.54034c1.73779-2.78476,4.768-5.52406,8.122-4.43692,6.22051,2.01627,13.4094,2.78532,18.99526-.61444C85.01069,76.27032,88.4871,64.0278,90.51409,54.28559a11.553,11.553,0,0,0,.31908-4.2575c-.31489-1.85554-1.65311-2.94986-1.84061-4.81462-.17517-1.7421.69569-3.72184,1.10322-5.3915,1.00856-4.13414,1.8412-8.35109,1.00762-12.62234-.58867-3.01623-3.44585-6.56522-6.921-4.95976a2.55088,2.55088,0,0,0-1.48352,2.57244c.2824,1.91561,3.47222,2.43673,4.30263,4.4372.80584,1.94153.23138,4.44918-.32482,6.37384a19.66419,19.66419,0,0,1-2.381,5.322c-1.475,2.24011-2.45377,1.22173-4.217,2.7333-3.8114,3.26774-5.72814,8.44795-6.95238,13.17531a29.69973,29.69973,0,0,1-3.4049,7.43817c-1.71945,2.93393-1.66768,3.97568-4.985,4.73132C60.88182,69.90147,56.48458,70.72745,52.94018,72.8856Z"/></clipPath><clipPath id="c"><path class="a" d="M59.424,92.93307a28.70959,28.70959,0,0,1-8.30856,5.8349,18.087,18.087,0,0,0,13.73962-1.84385A20.62191,20.62191,0,0,1,53.35439,108.16c6.61631-1.678,13.60776-3.5694,18.29953-8.52706a8.79457,8.79457,0,0,1,1.93254-1.7555,10.5293,10.5293,0,0,1,2.49595-.78914,10.45613,10.45613,0,0,0,7.47835-7.99684,9.50876,9.50876,0,0,0-4.58633-9.79826,11.29429,11.29429,0,0,0-8.51732-.60687c-2.61693.77211-6.31755,2.28776-7.38029,4.952C61.72692,87.02257,62.17418,89.91649,59.424,92.93307Z"/></clipPath></defs><circle class="b" cx="65" cy="65" r="65"/><path class="a" d="M43.65682,71.57617c-2.75829,1.02474-4.96788,3.1175-7.02187,5.22448a14.81968,14.81968,0,0,0-3.65673,5.10278c-.98889,2.76453-.34779,5.85477.7401,8.58186.56893-1.312-.22108-2.95957.47-4.21157.64953-1.17673,2.20952-1.37465,3.47937-1.81519a7.12946,7.12946,0,0,0,3.74041-3.03772,8.92182,8.92182,0,0,1,1.206-1.87521,5.15558,5.15558,0,0,1,2.13733-1.09227c2.47658-.78116,10.89277-.63113,10.6961-4.18161C55.216,70.09121,46.20858,70.62815,43.65682,71.57617Z"/><g class="c"><path class="d" d="M43.92707,82.65651c1.17272-.88075,1.75-2.34942,2.89584-3.21436.48285-.36447.85758-.26263,1.34706-.497.51522-.24671.71059-.63679,1.12447-1.01306.74472-.677,1.92051-.79635.96143-1.88528-.94061-1.06795-1.4626.1195-2.57036-.104.30139-.19192-.12346-.60485-.47148-.68575l-1.42756-.33184a3.58955,3.58955,0,0,0-1.78791-.10615,1.23372,1.23372,0,0,0-.94813,1.33828c.07537.3156.31918.64575.15994.92847a.67569.67569,0,0,1-.33987.2575,9.63216,9.63216,0,0,0-1.41695.56075,1.06187,1.06187,0,0,0-.50431,1.29285,6.64016,6.64016,0,0,0-1.88047.96991,2.21975,2.21975,0,0,0-.68375.72272c-.43788.84145.07122,2.01707-.53823,2.744-.69623-.433-4.246-.46882-4.05549.95457.02.1492.1218.28272.11878.43325-.00452.22549-.23659.37634-.45344.43832a1.57764,1.57764,0,0,0-.62883.23119.724.724,0,0,0-.09772.86572,9.296,9.296,0,0,1,.79883,1.36132,7.52489,7.52489,0,0,1,.54333,2.31354,15.09793,15.09793,0,0,1,6.70958-6.01911A16.15175,16.15175,0,0,0,43.92707,82.65651Z"/></g><path class="a" d="M52.94018,72.8856a16.91537,16.91537,0,0,0-7.6028,9.23659,5.30805,5.30805,0,0,1,.78467-1.77274c.59658,3.89751-.42564,8.00251-.5751,11.914A10.66924,10.66924,0,0,1,47.07769,87.165a1.57282,1.57282,0,0,1-.09839,1.4852c.48326-.1604.5705-.78468.72976-1.26832s.8037-.94308,1.11527-.54034c1.73779-2.78476,4.768-5.52406,8.122-4.43692,6.22051,2.01627,13.4094,2.78532,18.99526-.61444C85.01069,76.27032,88.4871,64.0278,90.51409,54.28559a11.553,11.553,0,0,0,.31908-4.2575c-.31489-1.85554-1.65311-2.94986-1.84061-4.81462-.17517-1.7421.69569-3.72184,1.10322-5.3915,1.00856-4.13414,1.8412-8.35109,1.00762-12.62234-.58867-3.01623-3.44585-6.56522-6.921-4.95976a2.55088,2.55088,0,0,0-1.48352,2.57244c.2824,1.91561,3.47222,2.43673,4.30263,4.4372.80584,1.94153.23138,4.44918-.32482,6.37384a19.66419,19.66419,0,0,1-2.381,5.322c-1.475,2.24011-2.45377,1.22173-4.217,2.7333-3.8114,3.26774-5.72814,8.44795-6.95238,13.17531a29.69973,29.69973,0,0,1-3.4049,7.43817c-1.71945,2.93393-1.66768,3.97568-4.985,4.73132C60.88182,69.90147,56.48458,70.72745,52.94018,72.8856Z"/><g class="e"><path class="d" d="M69.18137,85.79673a84.49352,84.49352,0,0,1-9.18781-1.26512,22.212,22.212,0,0,1-2.47788-.53209,2.653,2.653,0,0,1-1.31962-.72769,1.07953,1.07953,0,0,1-.0622-1.39344,11.59915,11.59915,0,0,1,2.72785-1.07883,5.24224,5.24224,0,0,1,1.84505-.23695c.54462.02309,1.45613.46572,1.95461.34505.89807-.21742,1.00351-1.65359,1.58492-2.43963a.94477.94477,0,0,1,.6091-.44748c.44966-.04276.73081.50287.724.95451a4.10847,4.10847,0,0,0-.02225,1.34484,1.39481,1.39481,0,0,0,1.571.78167,4.06949,4.06949,0,0,0,1.67793-.87659,1.20729,1.20729,0,0,0,.43223-.45965c.14105-.335-.041-.70915-.082-1.0703a1.36685,1.36685,0,0,1,2.58985-.74664c.23892.49664.39991,1.28841.9407,1.18215a.82291.82291,0,0,0,.39073-.25,7.85432,7.85432,0,0,0,1.35079-1.74543c.25428-.44677.6261-1.00059,1.12588-.88021a5.45387,5.45387,0,0,1,.5007.23373c.54589.19228,1.112-.38477,1.14859-.96238a3.07609,3.07609,0,0,0-.55232-1.61938,2.48952,2.48952,0,0,1-.438-1.64109l2.3658.75971a.723.723,0,0,0,1.02626-.32354l1.67522-2.32316a2.34344,2.34344,0,0,1-.6554-1.3697c.6315-.27762,1.49945.0923,1.98469-.398.71031-.71775-.47244-2.04357.06439-2.89886.372-.59271,1.2513-.48969,1.92854-.31351.22568-.99565-1.18677-1.83013-.93287-2.819.11413-.44447.54011-.74277.71361-1.16758a7.80313,7.80313,0,0,0,.1911-1.09487c.08973-.36056.41174-.72778.77222-.63776.10853.0271.21749.09412.32426.06076.14713-.046.17535-.23861.17678-.39276l.02377-2.56628c.572-.19535,1.39408.44284,1.70729-.07413a.82933.82933,0,0,0-.01791-.67269l-.6993-2.186,1.256.007a4.92227,4.92227,0,0,1-.7134-1.34082.60833.60833,0,0,1-.03264-.42728.64844.64844,0,0,1,.35239-.28856,6.63,6.63,0,0,0,2.048-1.256c.33435-.33687.43876-.8649.97727-.68384,1.62983.548.28709,4.35457-.05649,5.27926-1.92527,5.18157-3.05552,10.528-5.28678,15.63257"/><path class="d" d="M90.58614,31.184a.5791.5791,0,0,1,.18208.36453c-.01227.19138-.22219.29417-.35507.43244-.38422.39981-.10236,1.04681-.06832,1.60026.05426.882-.58241,1.64373-.82709,2.49283-.46424,1.611.49757,3.4748-.27868,4.96083.26138.61459,1.2437.5501,1.66845.0347a2.9691,2.9691,0,0,0,.45266-1.9094l.04182-7.11276a17.89994,17.89994,0,0,0-.9048-7.044c-.62015-1.48514-2.08107-3.35874-3.87156-3.28767.11938,1.73247,2.10212,2.89846,2.93753,4.27863C90.527,27.58681,89.43574,29.73145,90.58614,31.184Z"/></g><path class="a" d="M59.424,92.93307a28.70959,28.70959,0,0,1-8.30856,5.8349,18.087,18.087,0,0,0,13.73962-1.84385A20.62191,20.62191,0,0,1,53.35439,108.16c6.61631-1.678,13.60776-3.5694,18.29953-8.52706a8.79457,8.79457,0,0,1,1.93254-1.7555,10.5293,10.5293,0,0,1,2.49595-.78914,10.45613,10.45613,0,0,0,7.47835-7.99684,9.50876,9.50876,0,0,0-4.58633-9.79826,11.29429,11.29429,0,0,0-8.51732-.60687c-2.61693.77211-6.31755,2.28776-7.38029,4.952C61.72692,87.02257,62.17418,89.91649,59.424,92.93307Z"/><g class="f"><path class="g" d="M53.04051,97.68675c4.33953-1.85607,8.54156-4.30759,8.94123-9.40745a4.3007,4.3007,0,0,1,.3268-1.73929,2.38546,2.38546,0,0,1,2.37961-1.0454c1.78556.20085,3.00751,1.93265,4.68483,2.06737a2.29585,2.29585,0,0,1,1.06576.19144,1.55762,1.55762,0,0,1,.559.9361,14.22651,14.22651,0,0,1-.14008,8.05625c-.442,1.45147-1.39278,3.05406-2.90922,3.10429a.41631.41631,0,0,1,.32127-.63107q-1.80734,1.40764-3.6508,2.76807a16.48809,16.48809,0,0,1-4.4653,2.59132,10.83416,10.83416,0,0,0-2.16456.78266,2.01356,2.01356,0,0,0-1.10144,1.8761,56.79,56.79,0,0,0,10.18321-9.31089c.24723-.2887.5081-.65139.39775-1.01511a1.80935,1.80935,0,0,0-.37926-.54085,3.49386,3.49386,0,0,1-.5281-1.74592,2.61,2.61,0,0,0-.67872-1.67421c-1.104-.972-1.63436.6977-2.36034,1.18323a22.14506,22.14506,0,0,1-4.1227,2.22223,33.83308,33.83308,0,0,1-8.22759,1.76022"/></g><path class="a" d="M94.19534,77.96337a7.338,7.338,0,0,1-.10919,1.11076c-.02785.1577-.10507.35305-.26519.3502-.12946-.0023-.21-.13789-.26147-.25669-.63667-1.46911-.81775-3.14719-1.73029-4.46282A9.42452,9.42452,0,0,0,89.09,72.36631a.51287.51287,0,0,0-.77114.08389c-1.92177,1.63764.61157,4.218.54652,6.73488A22.73241,22.73241,0,0,1,87.71312,84.92a9.4807,9.4807,0,0,0-4.2596-8.30169,9.10933,9.10933,0,0,1-.29675,5.26827,5.28378,5.28378,0,0,0-5.801-2.47221c.94054-.24946,2.783-4.46969,3.40535-5.34364,2.0743-2.91278,4.55892-4.75919,6.01639-8.26177a14.03165,14.03165,0,0,1,6.03488,2.02979,5.77055,5.77055,0,0,1,2.62832,5.4838,6.791,6.791,0,0,0-2.06532-2.93474,2.33941,2.33941,0,0,0-3.22615.38272A8.18832,8.18832,0,0,1,94.19534,77.96337Z"/><path class="g" d="M55.52218,79.84473c.09494-.1624.15678-.34352.263-.49879a1.6361,1.6361,0,0,1,.93615-.58287c.78392-.22156,1.61987-.18239,2.41366-.36546a.88938.88938,0,0,0,.41945-.187c.34629-.32449.06337-.91807-.31137-1.20924a2.63845,2.63845,0,0,0-3.18928.03919,2.88672,2.88672,0,0,1-.87019.63423,5.84489,5.84489,0,0,1-.65385.09761,6.78272,6.78272,0,0,0-3.86334,2.79033c-.44276.555-1.87034,1.90381-1.11635,2.62381,1.11962,1.06915,2.1756-1.5213,2.904-1.93362C53.41472,80.7091,54.89447,80.91849,55.52218,79.84473Z"/><path class="g" d="M76.4796,63.9745a4.99777,4.99777,0,0,1,3.134,1.41316,1.466,1.466,0,0,1,.38416.88876.77221.77221,0,0,1-.51019.7623c-.50527.13842-.92358-.37571-1.24651-.78822a7.451,7.451,0,0,0-3.28187-2.30841,7.687,7.687,0,0,0-2.71318-.59071C72.45432,63.91767,75.72125,63.84884,76.4796,63.9745Z"/><path class="g" d="M73.17182,66.78882a4.99771,4.99771,0,0,1,3.134,1.41315,1.466,1.466,0,0,1,.38417.88876.77225.77225,0,0,1-.5102.76231c-.50526.13841-.92358-.37572-1.24651-.78823a7.451,7.451,0,0,0-3.28186-2.30841,7.687,7.687,0,0,0-2.71319-.59071C69.14655,66.732,72.41348,66.66315,73.17182,66.78882Z"/><path class="g" d="M68.11732,70.509a4.99771,4.99771,0,0,1,3.134,1.41315,1.466,1.466,0,0,1,.38417.88876.77223.77223,0,0,1-.5102.7623c-.50527.13842-.92358-.37571-1.24651-.78822A7.451,7.451,0,0,0,66.597,70.47662a7.687,7.687,0,0,0-2.71319-.59071C64.09205,70.45221,67.359,70.38337,68.11732,70.509Z"/><path class="g" d="M61.70243,71.534a4.99781,4.99781,0,0,1,3.134,1.41315,1.466,1.466,0,0,1,.38416.88877.77222.77222,0,0,1-.5102.7623c-.50526.13842-.92358-.37571-1.2465-.78823a7.451,7.451,0,0,0-3.28187-2.3084,7.687,7.687,0,0,0-2.71319-.59071C57.67715,71.47713,60.94408,71.4083,61.70243,71.534Z"/><path class="g" d="M78.203,60.50338a4.99771,4.99771,0,0,1,3.134,1.41315,1.466,1.466,0,0,1,.38417.88877.77224.77224,0,0,1-.5102.7623c-.50526.13841-.92358-.37572-1.24651-.78823A7.451,7.451,0,0,0,76.68263,60.471a7.68718,7.68718,0,0,0-2.71319-.59071C74.17773,60.44655,77.44466,60.37771,78.203,60.50338Z"/><path class="g" d="M78.87322,55.82021a4.99776,4.99776,0,0,1,3.134,1.41315,1.466,1.466,0,0,1,.38416.88876.77223.77223,0,0,1-.5102.76231c-.50526.13841-.92358-.37572-1.24651-.78823a7.451,7.451,0,0,0-3.28186-2.30841,7.687,7.687,0,0,0-2.71319-.59071C74.84794,55.76338,78.11487,55.69454,78.87322,55.82021Z"/><path class="g" d="M80.35552,50.74574a4.99773,4.99773,0,0,1,3.134,1.41315,1.466,1.466,0,0,1,.38416.88877.77222.77222,0,0,1-.51019.7623c-.50527.13841-.92358-.37572-1.24651-.78823a7.451,7.451,0,0,0-3.28187-2.30841,7.68717,7.68717,0,0,0-2.71318-.59071C76.33024,50.68891,79.59717,50.62007,80.35552,50.74574Z"/><path class="g" d="M82.91489,46.72832a4.99776,4.99776,0,0,1,3.134,1.41315,1.466,1.466,0,0,1,.38416.88877.77222.77222,0,0,1-.51019.7623c-.50527.13841-.92358-.37572-1.24651-.78823a7.451,7.451,0,0,0-3.28187-2.30841,7.68717,7.68717,0,0,0-2.71318-.59071C78.88961,46.67149,82.15654,46.60265,82.91489,46.72832Z"/><path class="g" d="M81.75322,77.33432c-.117-.41961.36605-.72767.71683-.986s.55-.92475.12743-1.03082a.95175.95175,0,0,1,1.25749-.35825,3.866,3.866,0,0,1,1.1023.93981,1.7707,1.7707,0,0,0,1.2564.65117,3.21181,3.21181,0,0,0-.44207-3.32293l1.80331-1.48816c.36546-.30159.75937-.8236.45388-1.1858a4.91249,4.91249,0,0,1,2.12312.839c.21889-.43512-.22459-.915-.6622-1.12886s-.97263-.39329-1.13465-.85262l2.795-1.03726c.04219-.50713-.6065-.74329-1.1107-.81223-1.7596-.2406-3.22792-1.01026-4.03415,1.07132a7.33012,7.33012,0,0,1-.41793,1.08086c-.37975.65068-1.07.79695-1.56184,1.28948a16.59575,16.59575,0,0,0-1.1706,1.72924,25.40743,25.40743,0,0,0-2.58358,3.736c-.22035.4396-.92424,1.62555-.42234,2.09207.656.60981,1.89977-.851,2.4038.33472C82.73108,78.11415,81.8759,77.94772,81.75322,77.33432Z"/><path class="g" d="M86.38963,38.56214a1.23311,1.23311,0,0,0,1.67518-.63287,1.02467,1.02467,0,0,0-1.07793-1.2915,1.79222,1.79222,0,0,0,1.63406-2.90786c.2162.36956.79924.05117.99133-.33148a2.44543,2.44543,0,0,0-.73733-2.98536,1.91212,1.91212,0,0,0,.21335-3.18163c-.15717-.03418-.15626.2768.00288.30012s.2862-.1339.34232-.28464a1.5154,1.5154,0,0,0-.42556-1.52449,4.45734,4.45734,0,0,0-1.41785-.86372l-2.12415-.95329c-.20832.07569-.17633.39389-.03638.56576s.34979.30081.41106.51383a1.8533,1.8533,0,0,1-.02989.57464,1.09678,1.09678,0,0,0,.79642.9912,3.21229,3.21229,0,0,0,1.35106.05755,1.07128,1.07128,0,0,0-.611,1.09828,4.50592,4.50592,0,0,0,.38472,1.28845,6.83889,6.83889,0,0,1,.40414,2.977A4.41881,4.41881,0,0,1,87.94188,32.98c-.25931.78114-.82066,1.5148-.71641,2.33123.05952.46615.3356.93836.16838,1.37753a1.71676,1.71676,0,0,1-.3769.51206c-.71126.78137-2.05046,3.02511-.53588,3.76935C88.12791,41.77943,87.76144,39.068,86.38963,38.56214Z"/><path class="g" d="M81.707,25.64841a3.36722,3.36722,0,0,1,.48774.259.362.362,0,0,1,.10282.48549.54206.54206,0,0,0-.09658.10931c-.07072.15035.16.25418.326.26156.37016.01646,1.60114.26548,1.89107.01875a5.80717,5.80717,0,0,0,.53155-1.49876A2.86155,2.86155,0,0,0,84.3675,22.717C82.65888,21.17676,79.79235,24.5401,81.707,25.64841Z"/><g class="h"><circle class="i" cx="72.81418" cy="27.59875" r="2.99319"/><path class="j" d="M70.222,26.10227a2.9813,2.9813,0,0,0-.26392,2.26172,2.87014,2.87014,0,1,0,2.09082-3.62134A2.983,2.983,0,0,0,70.222,26.10227Zm0,0a3.11773,3.11773,0,0,1,5.69019.66651A3.12429,3.12429,0,0,1,73.64411,30.696,3.11806,3.11806,0,0,1,70.222,26.10227Z"/><circle class="b" cx="71.683" cy="26.19051" r="0.63431"/></g><g class="k"><circle class="i" cx="75.10858" cy="35.52183" r="1.78777"/><path class="j" d="M73.56037,34.62791a1.78217,1.78217,0,0,0-.15772,1.35107,1.71434,1.71434,0,1,0,1.24878-2.16308A1.78206,1.78206,0,0,0,73.56037,34.62791Zm0,0a1.86216,1.86216,0,0,1,3.39844.39819,1.86583,1.86583,0,0,1-1.3545,2.3457,1.86231,1.86231,0,0,1-2.04394-2.74389Z"/><circle class="b" cx="74.43295" cy="34.68072" r="0.37886"/></g><g class="l"><circle class="i" cx="60.92702" cy="37.26454" r="3.99197"/><path class="j" d="M57.46979,35.26853a3.97836,3.97836,0,0,0-.35205,3.0166,3.82824,3.82824,0,1,0,2.78858-4.82959A3.9781,3.9781,0,0,0,57.46979,35.26853Zm0,0a4.15827,4.15827,0,0,1,7.58887.88892,4.1663,4.1663,0,0,1-3.0249,5.23779,4.1583,4.1583,0,0,1-4.564-6.12671Z"/><circle class="b" cx="59.41838" cy="35.38639" r="0.84597"/></g><g class="m"><circle class="i" cx="63.46402" cy="48.46674" r="2.43773"/><path class="j" d="M61.35285,47.24778a2.43031,2.43031,0,0,0-.21509,1.84229,2.338,2.338,0,1,0,1.70313-2.94922A2.42819,2.42819,0,0,0,61.35285,47.24778Zm0,0a2.53941,2.53941,0,0,1,4.63428.543A2.54461,2.54461,0,0,1,64.14,50.98924a2.53949,2.53949,0,0,1-2.78711-3.74146Z"/><circle class="b" cx="62.54276" cy="47.31983" r="0.5166"/></g><path class="j" d="M51.63459,74.59739a14.03091,14.03091,0,0,0-.40479-2.91089,4.433,4.433,0,0,0-1.24072-2.35742l.66162-.75a3.76981,3.76981,0,0,1,.85693,1.45972,7.248,7.248,0,0,1,.33912,1.531,14.44441,14.44441,0,0,1,.031,3.03882Z"/><circle class="i" cx="49.6337" cy="68.43456" r="1.21778"/><path class="j" d="M48.50861,67.96873a1.1554,1.1554,0,1,0,1.5669-.60132A1.16583,1.16583,0,0,0,48.50861,67.96873Zm0,0a1.28013,1.28013,0,1,1,.6355,1.64844A1.28213,1.28213,0,0,1,48.50861,67.96873Z"/><circle class="b" cx="49.20056" cy="68.09238" r="0.29641"/><path class="j" d="M56.01081,76.88377a14.01917,14.01917,0,0,0,.58276-2.88062,4.437,4.437,0,0,0-.3894-2.6355l.87256-.48828a3.77192,3.77192,0,0,1,.325,1.66113,7.24538,7.24538,0,0,1-.1875,1.55689,14.43371,14.43371,0,0,1-.97754,2.87744Z"/><circle class="i" cx="56.16505" cy="70.40598" r="1.21778"/><path class="j" d="M55.25788,69.59373a1.15529,1.15529,0,1,0,1.67749-.04834A1.1659,1.1659,0,0,0,55.25788,69.59373Zm0,0a1.28013,1.28013,0,1,1,.05346,1.76587A1.28257,1.28257,0,0,1,55.25788,69.59373Z"/><circle class="b" cx="55.86975" cy="69.93961" r="0.29641"/></svg>