<svg xmlns="http://www.w3.org/2000/svg" xmlns:xlink="http://www.w3.org/1999/xlink" viewBox="0 0 130 130"><defs><style>.a{fill:#ca9e67;}.b{fill:#fff;}.c{fill:#8ef4c0;}.d{fill:#936037;}.e{fill:#bc9566;}.f{clip-path:url(#a);}.g{fill:#ad815c;}.h{fill:#cbbba0;}.i{fill:#7b6a58;}.j{fill:#d3ac79;}.k{fill:#3c3c3b;}</style><clipPath id="a"><path class="a" d="M78.7058,30.41576a13.40389,13.40389,0,0,0-4.66032-.96441,5.87421,5.87421,0,0,0-2.0595.37018,9.21717,9.21717,0,0,0-1.37042.72411c-2.26031,1.36182-5.724,2.44759-7.58672,4.26981-2.34842,2.29737-3.03415,5.9846-5.42394,8.37439-1.75348,1.69136-4.05483,2.66692-6.13487,3.9353s-4.08637,3.04559-4.56662,5.434l5.17231,2.34228c.04594.02081-1.53046,2.85669-1.68425,3.10865a3.36733,3.36733,0,0,1-1.91294,1.61824c-1.848.958-2.97848,2.812-4.21532,4.40789-2.51223,3.24141-8.12615,7.13327-7.66608,11.80016a9.73655,9.73655,0,0,0,.79751,2.66986l2.83676,6.97694c-3.68532.59789-5.55348,4.88041-5.6972,8.61115A9.72121,9.72121,0,0,0,35.923,100.059a4.87339,4.87339,0,0,0,5.4185,2.0427c2.11912,2.028,4.62745,4.202,7.54973,3.94954a17.07947,17.07947,0,0,0,3.42288-.94929,46.53691,46.53691,0,0,0,5.33763-1.44943c4.91925-2.165,6.56542-8.18663,9.84137-12.44743A3.66742,3.66742,0,0,1,68.71247,90.077a4.97284,4.97284,0,0,1,2.92508-.026c4.61406.69979,8.79052-1.80368,13.33357-1.534a3.56241,3.56241,0,0,0,1.46428-.28968,11.72685,11.72685,0,0,0,6.48277-7.31973c1.42038-4.121.13149-8.845,2.00212-12.66893.836-1.70892,2.06488-3.26915,2.4365-5.135.45207-2.26982-.44142-4.47638-1.08275-6.6131-.62878-2.09492-2.06235-3.77835-2.623-5.90564a22.42867,22.42867,0,0,1-.33562-5.4787c-.056-4.8691-3.67458-10.59688-8.27389-12.3219l-5.186-1.94506C79.47461,30.69645,79.09141,30.55316,78.7058,30.41576Z"/></clipPath></defs><circle class="b" cx="65" cy="65" r="65"/><polygon class="c" points="85.042 32.784 91.723 31.492 91.723 39.05 85.042 32.784"/><path class="a" d="M98.0131,52.41985c.8337-.63215,1.964-.49718,2.81657-1.1781a5.73416,5.73416,0,0,0,1.62988-2.65037,13.7498,13.7498,0,0,1,1.65076-4.06842c.41463-.542.98794-1.12229.83439-1.78721-.14752-.63879-.93778-1.045-.91454-1.70016.02338-.65943.85076-1.00861,1.04035-1.64063a1.86821,1.86821,0,0,0-.22715-1.25082l-.79713-1.81571a1.248,1.248,0,0,1-.15052-.60054c.06973-.75814,1.38569-.97251,1.33933-1.73245-.027-.44211-.54207-.69394-.985-.69038-.098.00079-.218-.00243-.26361-.0891s.13433-.17848.13717-.08057a4.214,4.214,0,0,0-3.1811,1.05315c-3.40689,2.54382-6.84775,4.9363-7.75671,9.46854-.63769,3.17962-.12413,8.37424,2.74055,10.4214a.73434.73434,0,0,0,.37278.16547.70122.70122,0,0,0,.41837-.15762C97.31792,53.672,97.44549,52.85025,98.0131,52.41985Z"/><path class="d" d="M98.66892,51.36427a27.66873,27.66873,0,0,1,1.35632-3.14812,22.7476,22.7476,0,0,0,1.59172-2.08426c.3247-.679.38247-1.66343-.27936-2.02174.48605-.17918.60179-.81911.5333-1.33258a2.96123,2.96123,0,0,1-.03748-1.53166c.0801-.19008.2139-.35249.30778-.53616a1.44059,1.44059,0,0,0-.10213-1.45278.465.465,0,0,0-.23154-.19452c-.26352-.078-.46264.23494-.5593.49222a41.607,41.607,0,0,0-2.3237,7.26665C98.7049,48.04442,99.13663,50.32592,98.66892,51.36427Z"/><path class="e" d="M96.5153,41.65757c.02413-.99158.52274-2.87147.13971-3.64695-2.589,3.27055-6.1905,8.24181-4.49328,12.66361.40936,1.06651,2.95535,5.88287,4.3171,5.28957.61239-.26681,1.014-2.66165,1.01726-3.24379.0066-1.17956-.68058-2.05722-1.137-3.09974-.546-1.24718-1.08517-2.72448-.41216-3.908.38493-.67688,1.15609-1.26065,1.02193-2.02768a4.32711,4.32711,0,0,0-.31113-.77159A3.26507,3.26507,0,0,1,96.5153,41.65757Z"/><path class="a" d="M56.68139,26.83162a5.90375,5.90375,0,0,0-1.93333,3.68846,14.778,14.778,0,0,0,.11,4.24193,16.34077,16.34077,0,0,0,1.63989,5.82509A2.32221,2.32221,0,0,0,57.504,41.6643a2.39356,2.39356,0,0,0,1.82446-.17831,11.79936,11.79936,0,0,0,3.365-2.10431c.18321-.16338.3837-.10609.30939-.34005C61.74994,35.0964,57.95368,30.77065,56.68139,26.83162Z"/><path class="d" d="M56.8504,26.55445a17.251,17.251,0,0,0,3.75743,12.68176c.2003.24437.50468.50809.79256.37782a.74946.74946,0,0,0,.31651-.38854c.504-1.03313,2.01532-3.03615,1.94729-4.19022-.066-1.11885-1.30951-1.4752-2.10471-2.07135C60.153,31.90947,56.62762,28.55741,56.8504,26.55445Z"/><path class="a" d="M78.7058,30.41576a13.40389,13.40389,0,0,0-4.66032-.96441,5.87421,5.87421,0,0,0-2.0595.37018,9.21717,9.21717,0,0,0-1.37042.72411c-2.26031,1.36182-5.724,2.44759-7.58672,4.26981-2.34842,2.29737-3.03415,5.9846-5.42394,8.37439-1.75348,1.69136-4.05483,2.66692-6.13487,3.9353s-4.08637,3.04559-4.56662,5.434l5.17231,2.34228c.04594.02081-1.53046,2.85669-1.68425,3.10865a3.36733,3.36733,0,0,1-1.91294,1.61824c-1.848.958-2.97848,2.812-4.21532,4.40789-2.51223,3.24141-8.12615,7.13327-7.66608,11.80016a9.73655,9.73655,0,0,0,.79751,2.66986l2.83676,6.97694c-3.68532.59789-5.55348,4.88041-5.6972,8.61115A9.72121,9.72121,0,0,0,35.923,100.059a4.87339,4.87339,0,0,0,5.4185,2.0427c2.11912,2.028,4.62745,4.202,7.54973,3.94954a17.07947,17.07947,0,0,0,3.42288-.94929,46.53691,46.53691,0,0,0,5.33763-1.44943c4.91925-2.165,6.56542-8.18663,9.84137-12.44743A3.66742,3.66742,0,0,1,68.71247,90.077a4.97284,4.97284,0,0,1,2.92508-.026c4.61406.69979,8.79052-1.80368,13.33357-1.534a3.56241,3.56241,0,0,0,1.46428-.28968,11.72685,11.72685,0,0,0,6.48277-7.31973c1.42038-4.121.13149-8.845,2.00212-12.66893.836-1.70892,2.06488-3.26915,2.4365-5.135.45207-2.26982-.44142-4.47638-1.08275-6.6131-.62878-2.09492-2.06235-3.77835-2.623-5.90564a22.42867,22.42867,0,0,1-.33562-5.4787c-.056-4.8691-3.67458-10.59688-8.27389-12.3219l-5.186-1.94506C79.47461,30.69645,79.09141,30.55316,78.7058,30.41576Z"/><g class="f"><path class="g" d="M57.78592,44.68648a8.89989,8.89989,0,0,0-5.31288.30842A9.78426,9.78426,0,0,0,47.199,48.82367a4.15316,4.15316,0,0,0-.71561,2.10438c-.02827,1.80189,1.56213,3.17838,3.0884,4.13658a4.41382,4.41382,0,0,0,1.94691.7954,4.75574,4.75574,0,0,0,2.14941-.52429c2.44436-1.02357,5.84308-2.49034,7.37449-4.81436C62.60163,48.15538,60.02162,45.35056,57.78592,44.68648Z"/><path class="h" d="M75.55592,60.04932A13.96073,13.96073,0,0,1,78.96314,53.265a9.8777,9.8777,0,0,1,6.797-3.1525,7.67348,7.67348,0,0,1,6.55994,3.3366,11.476,11.476,0,0,1,1.08655,2.37768,2.9802,2.9802,0,0,1,.14411,2.29565,3.11319,3.11319,0,0,1-2.3099,1.27474l-5.63114,1.18519a12.04221,12.04221,0,0,1-4.94243.34042,4.1081,4.1081,0,0,1-3.37711-3.228"/><path class="h" d="M65.90969,85.79642a5.13228,5.13228,0,0,0-.81134,1.90147A20.166,20.166,0,0,1,49.6676,101.56137a7.0893,7.0893,0,0,1-4.35053-.3022c-1.63843-.79825-2.58039-2.52148-3.41828-4.14-.36077,1.17441-.99181,2.57315-2.21858,2.63967-1.2053.06536-1.99542-1.22881-2.37829-2.37354A17.3978,17.3978,0,0,1,37.354,86.28892a8.234,8.234,0,0,0-4.337,5.72691,17.84349,17.84349,0,0,0-.02938,4.63131,12.90077,12.90077,0,0,0,1.14451,5.444,6.13021,6.13021,0,0,0,5.73137,3.04576,1.87713,1.87713,0,0,1,1.41679.1993,1.7905,1.7905,0,0,1,.3428.48159,9.6493,9.6493,0,0,0,6.54063,4.34541,20.27658,20.27658,0,0,0,8.0344-.31447,21.60831,21.60831,0,0,0,5.15072-1.62192,14.25185,14.25185,0,0,0,7.12187-7.98348c1.173-3.32826.438-6.244.25363-9.61673C68.65867,89.42618,68.46014,82.72663,65.90969,85.79642Z"/><path class="i" d="M40.868,90.46431c-.06594.87383-.78169,11.67283-1.06243,11.60716a6.02574,6.02574,0,0,1-3.44835-2.56961,17.90928,17.90928,0,0,1-1.86307-3.97355,14.77686,14.77686,0,0,0,.75926,4.24126,4.9895,4.9895,0,0,0,2.89413,3.02424c1.29264.42506,2.74111.11476,4.03106.5479.3691.12394.71548.306,1.07212.46219a14.60822,14.60822,0,0,0,6.764.78079,15.25336,15.25336,0,0,0,3.72438-.57379,12.98793,12.98793,0,0,0,4.54728-2.79334,25.783,25.783,0,0,0,4.34188-4.97728c.89906-1.34407,2.53558-3.49561,2.43511-5.179-1.12522,1.60387-1.70771,3.59524-2.75727,5.26685a15.77022,15.77022,0,0,1-8.51727,6.48453,18.80418,18.80418,0,0,1-10.77076.09054c-2.34546-.6606-2.37959-2.68771-2.30084-4.76658q.16088-4.24656.59088-8.4772"/><path class="i" d="M63.13433,92.73787a20.18807,20.18807,0,0,1,2.52342-7.62564,4.4894,4.4894,0,0,1,1.82547-1.94776c1.25821-.52871.881.50231.20524,1.06958a9.48789,9.48789,0,0,0-.74887.70063C64.88678,87.07461,64.12331,89.87065,63.13433,92.73787Z"/><path class="i" d="M72.23043,87.93168a43.79837,43.79837,0,0,0,12.78635-1.96326A27.50767,27.50767,0,0,1,79.83505,87.991c-.75935.18334-1.53267.30154-2.30487.41952l-3.53521.54012a15.6643,15.6643,0,0,1-3.07711.26442c-.84517-.039-2.68417-.49593-2.4887-1.59156C69.69991,87.7077,70.9368,87.93667,72.23043,87.93168Z"/><path class="d" d="M76.75852,57.94735a10.9935,10.9935,0,0,1,6.4882-3.00076,17.37757,17.37757,0,0,1,7.185.80319c1.34922.4188,2.87814,1.23183,2.97092,2.6415a2.72456,2.72456,0,0,1-1.11748,2.17384c-1.40555,1.15442-3.33345,1.36022-5.13407,1.61722A27.6164,27.6164,0,0,0,81.73768,63.336c-1.04454.375-2.13271,1.22-3.27449,1.22656C74.50779,64.58528,74.62537,60.09273,76.75852,57.94735Z"/><path class="j" d="M61.69678,41.4768A17.95932,17.95932,0,0,1,59.3657,53.22472c-.16074.26869-.47528.57022-.73445.39453a.5819.5819,0,0,1-.17615-.24361c-1.01279-2.10743-2.30811-5.46313-1.92526-7.8814a4.058,4.058,0,0,1,1.59827-2.453C58.67733,42.57171,61.47572,39.98789,61.69678,41.4768Z"/><path class="e" d="M48.98147,59.54915c2.13373-2.65687,4.3816-5.40476,7.4789-6.8255,1.54415-.7083,3.3566-1.13631,4.35733-2.50913a14.62685,14.62685,0,0,1,.8293-1.23426,1.30229,1.30229,0,0,1,1.32176-.47282c.69807.24269.79417,1.17009.80783,1.909a10.09089,10.09089,0,0,0,.61752,3.59383c.3504.86976.87844,1.6549,1.30774,2.48855a19.09154,19.09154,0,0,1,1.7578,7.89456c.16271,3.47723-.16986,7.23734-2.39678,9.91288a16.41922,16.41922,0,0,0-1.14229,1.37385,10.34843,10.34843,0,0,0-.78938,1.61626,20.60616,20.60616,0,0,1-3.07328,4.97406,2.39546,2.39546,0,0,1-.80779.70163,2.53976,2.53976,0,0,1-.96789.15734l-6.83108.21312-2.30367.07187a50.80662,50.80662,0,0,1-7.93056-.166,3.12781,3.12781,0,0,1-2.09453-.86193,3.811,3.811,0,0,1-.567-2.20015,12.88966,12.88966,0,0,0-1.62712-5.32069,4.12629,4.12629,0,0,1-.58029-1.30927,3.77637,3.77637,0,0,1,.70222-2.33268A35.574,35.574,0,0,0,41.30372,57.0771c.04862-.59046.16134-1.29928.70748-1.52892a1.31248,1.31248,0,0,1,1.18086.2274c1.06766.69282,1.66253,1.93483,2.674,2.7074a3.98038,3.98038,0,0,0,4.79151-.082"/></g><path class="k" d="M78.71988,62.968a.66464.66464,0,0,0-.161.53691.6482.6482,0,0,0,.327.327,8.72046,8.72046,0,0,0,7.21627.686c3.07223-1.0886,6.32163-4.32443,1.68834-5.66706C84.02744,57.76039,80.782,59.90121,78.71988,62.968Z"/><path class="k" d="M46.545,52.99435c.53487.45061.88793,2.7692,1.25048,3.5014a12.136,12.136,0,0,0,1.641,2.98874,13.55718,13.55718,0,0,1,3.62975-4.20335c-1.05294-.32556-1.94546-.96211-2.95641-1.38718C49.78705,53.75828,46.54563,52.99487,46.545,52.99435Z"/><path class="h" d="M59.10455,83.73608a2.69353,2.69353,0,0,0,.18166-2.89407,5.26871,5.26871,0,0,0-2.20329-2.07679,10.72739,10.72739,0,0,0-13.58928,3.15635c-1.00935-3.56645-2.39564-7.57817-5.81144-9.01714-1.64092,3.452.05321,7.49009,1.73111,10.92426.65079,1.332,1.541,2.83983,3.01578,2.99083A2.484,2.484,0,0,1,40.738,85.34718c1.03419,5.73093-1.73908,12.17525,1.2053,17.19957q-.23956-5.59508-.10654-11.19783a8.06848,8.06848,0,0,1,.60729-3.455c.8483-1.69239,2.73476-2.5884,4.55666-3.10265A20.355,20.355,0,0,1,57.429,84.63938a2.16816,2.16816,0,0,0-.55835-.46024A1.8417,1.8417,0,0,0,59.10455,83.73608Z"/><path class="d" d="M47.78278,85.50795c.43837-.46232,4.84439-.13036,5.71611-.22775,1.40381-.15683,3.39518-.18868,4.58022-.94138C55.90115,81.39562,49.8086,83.37142,47.78278,85.50795Z"/><path class="e" d="M87.12313,79.866a4.67161,4.67161,0,0,1-1.25133,2.61485,5.2794,5.2794,0,0,1-1.62866.94142,20.77566,20.77566,0,0,1-7.95472,1.54828,1.35637,1.35637,0,0,1-.75249-.15556c-.57535-.381-.29122-1.29254.157-1.81723,1.03019-1.206,2.54772-1.86009,3.83551-2.786a10.58623,10.58623,0,0,0,3.00106-3.33187c.61983-1.08509,2.01763-4.64311,3.73165-3.12933C87.57479,74.91076,87.407,78.35021,87.12313,79.866Z"/><path class="h" d="M65.65159,73.15633a1.70271,1.70271,0,0,1,1.32819,1.85651,5.56323,5.56323,0,0,1-.91872,2.32921,29.68688,29.68688,0,0,0-3.64272,11.32729c-.02385.21858-.09.4896-.30571.532-.23507.04621-.39855-.22311-.4793-.44866a18.37033,18.37033,0,0,1-.36308-9.79055,9.16645,9.16645,0,0,1,.93347-2.7832A3.8812,3.8812,0,0,1,64.40021,74.322"/><path class="j" d="M83.84484,80.72016a6.49318,6.49318,0,0,1-2.06229,1.38606q-2.42209,1.1997-4.89076,2.30219a3.28548,3.28548,0,0,1-2.079.41326A2.199,2.199,0,0,1,73.44,82.25528,5.07846,5.07846,0,0,1,75.177,79.6221c1.85085-1.69728,4.16022-3.03543,5.31371-5.26609.53281-1.03037.88711-2.5288,1.98592-3.12535a1.96878,1.96878,0,0,1,2.84515.95641c.33461.987-.09491,2.52829-.16016,3.54538C85.0549,77.39675,85.01527,79.39662,83.84484,80.72016Z"/><path class="c" d="M63.60148,45.328l-.46765-7.091,5.7336,2.73215S65.70786,45.13646,63.60148,45.328Z"/><path class="c" d="M70.63786,39.05028l-.95744-6.69621,6.12766,1.953S72.55276,38.85288,70.63786,39.05028Z"/><path class="c" d="M77.05276,32.75367l1.89139-6.60638s4.51866,5.8238,4.14052,6.20678S77.81871,32.65793,77.05276,32.75367Z"/></svg>