<svg xmlns="http://www.w3.org/2000/svg" xmlns:xlink="http://www.w3.org/1999/xlink" viewBox="0 0 114.03965 142.23433"><defs><style>.a{fill:#ca9e67;}.b{fill:#fff;}.c{fill:#8ef4c0;}.d{fill:#936037;}.e{fill:#bc9566;}.f{clip-path:url(#a);}.g{fill:#ad815c;}.h{fill:#cbbba0;}.i{fill:#7b6a58;}.j{fill:#d3ac79;}.k{fill:#3c3c3b;}</style><clipPath id="a"><path class="a" d="M70.72562,36.53292a13.40387,13.40387,0,0,0-4.66032-.9644,5.87376,5.87376,0,0,0-2.0595.37018,9.21745,9.21745,0,0,0-1.37041.7241c-2.26032,1.36182-5.724,2.4476-7.58673,4.26982-2.34842,2.29736-3.03415,5.9846-5.42394,8.37439-1.75348,1.69136-4.05482,2.66692-6.13487,3.9353s-4.08637,3.04558-4.56662,5.434l5.17231,2.34229c.04595.0208-1.53045,2.85669-1.68425,3.10865a3.3674,3.3674,0,0,1-1.91294,1.61824c-1.848.958-2.97848,2.812-4.21532,4.40789-2.51223,3.24141-8.12615,7.13327-7.66608,11.80016a9.73735,9.73735,0,0,0,.79751,2.66986l2.83677,6.97693c-3.68533.59789-5.55348,4.88041-5.69721,8.61116a9.72129,9.72129,0,0,0,1.38881,5.96461,4.87337,4.87337,0,0,0,5.4185,2.04269c2.11912,2.028,4.62746,4.202,7.54973,3.94955a17.07931,17.07931,0,0,0,3.42288-.9493,46.53555,46.53555,0,0,0,5.33764-1.44942c4.91924-2.165,6.56542-8.18663,9.84136-12.44744a3.66756,3.66756,0,0,1,1.21936-1.12807,4.973,4.973,0,0,1,2.92508-.026c4.61406.69979,8.79051-1.80367,13.33356-1.534a3.56253,3.56253,0,0,0,1.46428-.28967A11.72687,11.72687,0,0,0,84.938,87.02478c1.42039-4.121.1315-8.845,2.00212-12.66893.836-1.70893,2.06488-3.26915,2.4365-5.135.45208-2.26982-.44142-4.47637-1.08275-6.6131-.62878-2.09492-2.06234-3.77834-2.623-5.90564a22.42855,22.42855,0,0,1-.33562-5.47869c-.056-4.8691-3.67458-10.59689-8.27389-12.3219l-5.186-1.94506C71.49443,36.81361,71.11123,36.67032,70.72562,36.53292Z"/></clipPath></defs><ellipse class="b" cx="57.01982" cy="71.11717" rx="57.01982" ry="71.11717"/><polygon class="c" points="77.061 38.902 83.743 37.61 83.743 45.167 77.061 38.902"/><path class="a" d="M90.03292,58.537c.8337-.63215,1.964-.49718,2.81657-1.1781a5.73425,5.73425,0,0,0,1.62988-2.65038,13.75012,13.75012,0,0,1,1.65076-4.06841c.41463-.542.988-1.12229.83439-1.78722-.14752-.63879-.93777-1.045-.91454-1.70015.02339-.65943.85076-1.00862,1.04035-1.64064a1.86813,1.86813,0,0,0-.22715-1.25081l-.79713-1.81572a1.2479,1.2479,0,0,1-.15051-.60053c.06972-.75814,1.38569-.97252,1.33933-1.73245-.027-.44212-.54208-.69394-.985-.69038-.09795.00079-.218-.00244-.26361-.08911s.13433-.17848.13718-.08056a4.214,4.214,0,0,0-3.18111,1.05315c-3.40688,2.54382-6.84775,4.93629-7.75671,9.46854-.63768,3.17962-.12413,8.37424,2.74055,10.4214a.73424.73424,0,0,0,.37278.16546.70113.70113,0,0,0,.41837-.15762C89.33774,59.78915,89.46531,58.96741,90.03292,58.537Z"/><path class="d" d="M90.68874,57.48143a27.66935,27.66935,0,0,1,1.35632-3.14811,22.74581,22.74581,0,0,0,1.59172-2.08426c.3247-.679.38248-1.66343-.27936-2.02175.48606-.17918.60179-.8191.5333-1.33258a2.96129,2.96129,0,0,1-.03748-1.53165c.08011-.19008.2139-.35249.30778-.53616a1.44061,1.44061,0,0,0-.10212-1.45278.465.465,0,0,0-.23155-.19452c-.26352-.078-.46264.23494-.5593.49222a41.60865,41.60865,0,0,0-2.3237,7.26665C90.72472,54.16158,91.15645,56.44308,90.68874,57.48143Z"/><path class="e" d="M88.53512,47.77474c.02414-.99158.52274-2.87147.13972-3.647-2.58895,3.27056-6.1905,8.24182-4.49328,12.66361.40936,1.06652,2.95534,5.88287,4.31709,5.28958.61239-.26681,1.014-2.66165,1.01726-3.2438.00661-1.17955-.68057-2.05721-1.137-3.09974-.546-1.24718-1.08517-2.72447-.41215-3.908.38492-.67687,1.15608-1.26065,1.02192-2.02767a4.32606,4.32606,0,0,0-.31113-.77159A3.2651,3.2651,0,0,1,88.53512,47.77474Z"/><path class="a" d="M48.70121,32.94879a5.90375,5.90375,0,0,0-1.93333,3.68845,14.77833,14.77833,0,0,0,.11,4.24193,16.34086,16.34086,0,0,0,1.63989,5.82509,2.32219,2.32219,0,0,0,1.00612,1.07721,2.39364,2.39364,0,0,0,1.82447-.17831,11.7997,11.7997,0,0,0,3.365-2.10432c.18321-.16337.3837-.10609.3094-.34C53.76976,41.21356,49.97351,36.88782,48.70121,32.94879Z"/><path class="d" d="M48.87022,32.67162a17.251,17.251,0,0,0,3.75743,12.68176c.20031.24437.50469.50808.79256.37782a.74944.74944,0,0,0,.31651-.38855c.504-1.03313,2.01532-3.03615,1.94729-4.19021-.066-1.11886-1.30951-1.47521-2.1047-2.07136C52.17278,38.02663,48.64745,34.67457,48.87022,32.67162Z"/><path class="a" d="M70.72562,36.53292a13.40387,13.40387,0,0,0-4.66032-.9644,5.87376,5.87376,0,0,0-2.0595.37018,9.21745,9.21745,0,0,0-1.37041.7241c-2.26032,1.36182-5.724,2.4476-7.58673,4.26982-2.34842,2.29736-3.03415,5.9846-5.42394,8.37439-1.75348,1.69136-4.05482,2.66692-6.13487,3.9353s-4.08637,3.04558-4.56662,5.434l5.17231,2.34229c.04595.0208-1.53045,2.85669-1.68425,3.10865a3.3674,3.3674,0,0,1-1.91294,1.61824c-1.848.958-2.97848,2.812-4.21532,4.40789-2.51223,3.24141-8.12615,7.13327-7.66608,11.80016a9.73735,9.73735,0,0,0,.79751,2.66986l2.83677,6.97693c-3.68533.59789-5.55348,4.88041-5.69721,8.61116a9.72129,9.72129,0,0,0,1.38881,5.96461,4.87337,4.87337,0,0,0,5.4185,2.04269c2.11912,2.028,4.62746,4.202,7.54973,3.94955a17.07931,17.07931,0,0,0,3.42288-.9493,46.53555,46.53555,0,0,0,5.33764-1.44942c4.91924-2.165,6.56542-8.18663,9.84136-12.44744a3.66756,3.66756,0,0,1,1.21936-1.12807,4.973,4.973,0,0,1,2.92508-.026c4.61406.69979,8.79051-1.80367,13.33356-1.534a3.56253,3.56253,0,0,0,1.46428-.28967A11.72687,11.72687,0,0,0,84.938,87.02478c1.42039-4.121.1315-8.845,2.00212-12.66893.836-1.70893,2.06488-3.26915,2.4365-5.135.45208-2.26982-.44142-4.47637-1.08275-6.6131-.62878-2.09492-2.06234-3.77834-2.623-5.90564a22.42855,22.42855,0,0,1-.33562-5.47869c-.056-4.8691-3.67458-10.59689-8.27389-12.3219l-5.186-1.94506C71.49443,36.81361,71.11123,36.67032,70.72562,36.53292Z"/><g class="f"><path class="g" d="M49.80574,50.80365a8.89982,8.89982,0,0,0-5.31288.30842,9.78425,9.78425,0,0,0-5.27409,3.82877,4.15331,4.15331,0,0,0-.71561,2.10437c-.02827,1.8019,1.56214,3.17838,3.0884,4.13658a4.41377,4.41377,0,0,0,1.94691.79541,4.75572,4.75572,0,0,0,2.14941-.5243c2.44436-1.02356,5.84309-2.49034,7.3745-4.81435C54.62145,54.27254,52.04144,51.46773,49.80574,50.80365Z"/><path class="h" d="M67.57574,66.16648A13.96063,13.96063,0,0,1,70.983,59.38215a9.87758,9.87758,0,0,1,6.797-3.1525,7.67344,7.67344,0,0,1,6.55993,3.33659,11.47553,11.47553,0,0,1,1.08655,2.37769,2.9802,2.9802,0,0,1,.14411,2.29565,3.11319,3.11319,0,0,1-2.3099,1.27474L77.62951,66.6995a12.04233,12.04233,0,0,1-4.94242.34043A4.10811,4.10811,0,0,1,69.31,63.812"/><path class="h" d="M57.92951,91.91359a5.132,5.132,0,0,0-.81133,1.90147,20.166,20.166,0,0,1-15.43076,13.86347,7.08926,7.08926,0,0,1-4.35052-.3022c-1.63844-.79824-2.5804-2.52148-3.41829-4.14-.36077,1.17442-.99181,2.57316-2.21858,2.63968-1.20529.06535-1.99542-1.22882-2.37828-2.37355a17.39773,17.39773,0,0,1,.05206-11.09638,8.23405,8.23405,0,0,0-4.337,5.72692,17.84386,17.84386,0,0,0-.02938,4.6313,12.901,12.901,0,0,0,1.14451,5.444,6.13021,6.13021,0,0,0,5.73137,3.04576,1.87717,1.87717,0,0,1,1.41679.19929,1.79049,1.79049,0,0,1,.3428.4816,9.64925,9.64925,0,0,0,6.54064,4.3454,20.27634,20.27634,0,0,0,8.03439-.31447,21.60828,21.60828,0,0,0,5.15072-1.62191,14.252,14.252,0,0,0,7.12188-7.98348c1.173-3.32826.438-6.244.25363-9.61674C60.6785,95.54334,60.48,88.84379,57.92951,91.91359Z"/><path class="i" d="M32.8878,96.58147c-.06593.87384-.78169,11.67283-1.06243,11.60716A6.02566,6.02566,0,0,1,28.377,105.619a17.90825,17.90825,0,0,1-1.86307-3.97356,14.77691,14.77691,0,0,0,.75925,4.24127,4.98952,4.98952,0,0,0,2.89413,3.02424c1.29264.42506,2.74111.11476,4.03106.5479.3691.12393.71549.306,1.07212.46218a14.60812,14.60812,0,0,0,6.764.78079,15.2528,15.2528,0,0,0,3.72438-.57378,12.988,12.988,0,0,0,4.54728-2.79335,25.78245,25.78245,0,0,0,4.34189-4.97728c.89905-1.34406,2.53557-3.4956,2.43511-5.179-1.12523,1.60387-1.70771,3.59523-2.75727,5.26684a15.77018,15.77018,0,0,1-8.51728,6.48453,18.80417,18.80417,0,0,1-10.77076.09055c-2.34546-.6606-2.37959-2.68771-2.30083-4.76658q.16086-4.24657.59087-8.47721"/><path class="i" d="M55.15415,98.855a20.188,20.188,0,0,1,2.52343-7.62564A4.48932,4.48932,0,0,1,59.503,89.28164c1.25821-.52871.881.50231.20524,1.06958a9.48763,9.48763,0,0,0-.74886.70062C56.90661,93.19178,56.14313,95.98782,55.15415,98.855Z"/><path class="i" d="M64.25025,94.04885A43.79838,43.79838,0,0,0,77.0366,92.08558a27.50839,27.50839,0,0,1-5.18173,2.02263c-.75935.18333-1.53267.30153-2.30487.41951l-3.5352.54012a15.66444,15.66444,0,0,1-3.07711.26443c-.84517-.039-2.68418-.49593-2.48871-1.59156C61.71974,93.82487,62.95662,94.05384,64.25025,94.04885Z"/><path class="d" d="M68.77834,64.06451a10.99354,10.99354,0,0,1,6.4882-3.00075,17.37723,17.37723,0,0,1,7.185.80319c1.34922.4188,2.87815,1.23183,2.97092,2.6415A2.72454,2.72454,0,0,1,84.305,66.68228c-1.40555,1.15442-3.33345,1.36023-5.13406,1.61722a27.61636,27.61636,0,0,0-5.41345,1.15368c-1.04454.375-2.13271,1.22-3.27449,1.22655C66.52761,70.70245,66.6452,66.2099,68.77834,64.06451Z"/><path class="j" d="M53.7166,47.594a17.95938,17.95938,0,0,1-2.33107,11.74792c-.16075.26869-.47529.57021-.73445.39453a.58179.58179,0,0,1-.17615-.24361c-1.0128-2.10744-2.30812-5.46314-1.92526-7.8814a4.058,4.058,0,0,1,1.59827-2.453C50.69715,48.68888,53.49555,46.10506,53.7166,47.594Z"/><path class="e" d="M41.00129,65.66632c2.13373-2.65687,4.3816-5.40476,7.47891-6.8255,1.54414-.7083,3.3566-1.13632,4.35732-2.50913a14.626,14.626,0,0,1,.8293-1.23426,1.30228,1.30228,0,0,1,1.32176-.47282c.69807.24269.79418,1.17009.80783,1.909a10.091,10.091,0,0,0,.61752,3.59384c.35041.86976.87844,1.6549,1.30775,2.48854a19.09157,19.09157,0,0,1,1.75779,7.89456c.16271,3.47724-.16986,7.23735-2.39678,9.91289A16.41922,16.41922,0,0,0,55.9404,81.7973a10.34832,10.34832,0,0,0-.78938,1.61625,20.606,20.606,0,0,1-3.07328,4.97407,2.39557,2.39557,0,0,1-.80779.70163,2.54,2.54,0,0,1-.96789.15734l-6.83108.21312-2.30367.07187a50.80907,50.80907,0,0,1-7.93056-.166,3.12778,3.12778,0,0,1-2.09452-.86193,3.81092,3.81092,0,0,1-.567-2.20016,12.8897,12.8897,0,0,0-1.62712-5.32069,4.12644,4.12644,0,0,1-.58028-1.30926A3.77629,3.77629,0,0,1,29.07,77.34081a35.574,35.574,0,0,0,4.25354-14.14655c.04862-.59045.16134-1.29928.70748-1.52891a1.3125,1.3125,0,0,1,1.18086.22739c1.06766.69282,1.66253,1.93484,2.674,2.70741a3.98037,3.98037,0,0,0,4.79151-.08206"/></g><path class="k" d="M70.7397,69.08517a.66466.66466,0,0,0-.161.53691.64814.64814,0,0,0,.327.327,8.72043,8.72043,0,0,0,7.21626.686c3.07223-1.08861,6.32163-4.32444,1.68834-5.66707C76.04726,63.87755,72.80186,66.01837,70.7397,69.08517Z"/><path class="k" d="M38.56483,59.11151c.53487.45062.88794,2.7692,1.25048,3.5014a12.13626,12.13626,0,0,0,1.641,2.98875,13.5571,13.5571,0,0,1,3.62975-4.20336c-1.05294-.32555-1.94545-.96211-2.95641-1.38717C41.80687,59.87544,38.56546,59.112,38.56483,59.11151Z"/><path class="h" d="M51.12437,89.85324a2.69347,2.69347,0,0,0,.18166-2.89406,5.26865,5.26865,0,0,0-2.20329-2.07679,10.72739,10.72739,0,0,0-13.58928,3.15635c-1.00934-3.56645-2.39563-7.57818-5.81144-9.01714-1.64091,3.452.05321,7.49008,1.73111,10.92426.65079,1.332,1.541,2.83983,3.01578,2.99083a2.484,2.484,0,0,1-1.691-1.47235c1.03419,5.73093-1.73909,12.17526,1.20529,17.19958q-.23957-5.59508-.10654-11.19783a8.06838,8.06838,0,0,1,.6073-3.455c.8483-1.69238,2.73475-2.5884,4.55665-3.10264a20.35477,20.35477,0,0,1,10.42826-.15189,2.16828,2.16828,0,0,0-.55834-.46024A1.84169,1.84169,0,0,0,51.12437,89.85324Z"/><path class="d" d="M39.8026,91.62512c.43837-.46232,4.84439-.13037,5.71611-.22775,1.40381-.15683,3.39518-.18868,4.58022-.94138C47.921,87.51278,41.82842,89.48859,39.8026,91.62512Z"/><path class="e" d="M79.143,85.98319A4.67169,4.67169,0,0,1,77.89162,88.598a5.27929,5.27929,0,0,1-1.62865.94143,20.77555,20.77555,0,0,1-7.95473,1.54827,1.35637,1.35637,0,0,1-.75249-.15555c-.57535-.381-.29122-1.29254.157-1.81723,1.03019-1.206,2.54771-1.8601,3.8355-2.786a10.58649,10.58649,0,0,0,3.00107-3.33187c.61983-1.08509,2.01763-4.64311,3.73164-3.12933C79.59461,81.02793,79.42686,84.46737,79.143,85.98319Z"/><path class="h" d="M57.67141,79.27349A1.70275,1.70275,0,0,1,58.99961,81.13a5.56338,5.56338,0,0,1-.91873,2.32921,29.68676,29.68676,0,0,0-3.64272,11.32729c-.02385.21857-.09.48959-.3057.532-.23508.0462-.39856-.22311-.47931-.44866a18.37034,18.37034,0,0,1-.36307-9.79055,9.16625,9.16625,0,0,1,.93346-2.7832A3.88119,3.88119,0,0,1,56.42,80.43915"/><path class="j" d="M75.86467,86.83733a6.49326,6.49326,0,0,1-2.06229,1.38605q-2.42211,1.19971-4.89076,2.3022a3.2855,3.2855,0,0,1-2.079.41325,2.199,2.199,0,0,1-1.37277-2.56638,5.07854,5.07854,0,0,1,1.73707-2.63318c1.85085-1.69728,4.16022-3.03544,5.31371-5.2661.53282-1.03036.88711-2.52879,1.98592-3.12535a1.96879,1.96879,0,0,1,2.84515.95641c.33461.987-.09491,2.5283-.16016,3.54538C77.07472,83.51392,77.03509,85.51379,75.86467,86.83733Z"/><path class="c" d="M55.6213,51.44511l-.46765-7.091,5.73361,2.73216S57.72768,51.25363,55.6213,51.44511Z"/><path class="c" d="M62.65769,45.16745l-.95745-6.69621,6.12766,1.953S64.57258,44.97005,62.65769,45.16745Z"/><path class="c" d="M69.07258,38.87084,70.964,32.26445s4.51867,5.82381,4.14052,6.20679S69.83854,38.77509,69.07258,38.87084Z"/></svg>