<svg xmlns="http://www.w3.org/2000/svg" viewBox="0 0 114.03965 142.23433"><defs><style>.a{fill:#fff;}.b{fill:#cbbba0;}.c{fill:#e8dccd;}.d{fill:#a89a85;}.e{fill:#3c3c3b;}.f{fill:#ead6b9;}.g{fill:#575756;}.h{fill:#7b6a58;}.i{fill:#5c9b78;}.j{fill:#8ef4c0;}</style></defs><ellipse class="a" cx="57.01982" cy="71.11717" rx="57.01982" ry="71.11717"/><path class="b" d="M88.95169,80.84621c-.12014-3.62423.26339-7.26529-.10661-10.88143a8.38063,8.38063,0,0,1,.25881-4.31636c.61958-1.49956,1.84886-2.59107,2.21412-4.23011a20.26766,20.26766,0,0,0,.15094-6.25144,2.34961,2.34961,0,0,0-.49558-1.48188,2.21889,2.21889,0,0,0-1.09326-.50578,17.24727,17.24727,0,0,0-3.436-.471,19.40657,19.40657,0,0,0-4.33538.359c-1.10156.211-2.82639,1.13047-3.8741.85789-2.17742-.56648-4.59435-3.62446-6.81145-4.63816a35.72186,35.72186,0,0,0-23.82441-1.562c-1.89289.53279-3.7871,1.29685-5.74832,1.15886a20.90683,20.90683,0,0,1-2.95425-.5903,16.44964,16.44964,0,0,0-6.09977-.16842,3.1551,3.1551,0,0,0-2.13566,1.01428,3.28212,3.28212,0,0,0-.3695,2.25144c.2001,2.21131,1.00243,4.29283,1.32674,6.47848.52772,3.55648-2.10706,7.08968-3.01862,10.45882-1.217,4.49812-2.301,9.18879-2.02061,13.88072.11528,1.92906.4365,3.55688-.27456,5.41832-.69891,1.82963-1.41234,2.69524-.877,4.69073a13.35231,13.35231,0,0,0,2.40249,4.4966,11.18449,11.18449,0,0,0,3.39007,3.16383c1.51676.82637,2.71428.52567,4.34239.46147a17.38833,17.38833,0,0,1,3.2315-.03144,14.75637,14.75637,0,0,1,4.67115,2.05192c6.5757,3.56406,14.32089,4.065,21.78831,4.4893,4.20889.23916,8.52495.46582,12.55043-.78615A12.76969,12.76969,0,0,0,85.759,99.65219a9.34907,9.34907,0,0,0,.68346-5.17927,9.73758,9.73758,0,0,1,1.21782-6.2343A15.0362,15.0362,0,0,0,88.95169,80.84621Z"/><path class="c" d="M40.99858,82.15212a51.59688,51.59688,0,0,0-6.03431,4.90642c-.99415,1.06469-1.6653,2.66921-1.0204,3.97535a11.084,11.084,0,0,0,1.00814,1.3835c1.05917,1.50314,1.12517,3.6583,2.53258,4.84172,1.81537,1.52644,4.93723.63495,6.5957,2.33056a4.21886,4.21886,0,0,0,.78692.77019,2.72753,2.72753,0,0,0,1.92674.02258,11.42113,11.42113,0,0,1,6.59669.61615,6.54826,6.54826,0,0,0,1.68843.56821,5.11323,5.11323,0,0,0,2.70014-.71l7.21432-3.421a2.91032,2.91032,0,0,0,1.49879-1.18221c.67221-1.39111-.93461-3.49292.312-4.4056-.65.47591-4.30072-4.1152-4.67942-4.64561a30.56752,30.56752,0,0,0-4.54144-4.397,8.75213,8.75213,0,0,0-2.56336-1.83565,8.73378,8.73378,0,0,0-1.93449-.44616c-1.66634-.25295-3.35371-.44852-5.00985-.76056-1.42062-.26767-2.62884-.81157-4.03666-.02429.13162.26079-.17619.53194-.45668.61357s-.62386.13338-.74606.39871c-.05441.11814-.05051.25856-.11509.37146-.1184.207-.398.23244-.62664.30021a2.56366,2.56366,0,0,0-.8792.55352Q41.109,82.06545,40.99858,82.15212Z"/><path class="d" d="M66.21458,88.15088a5.84113,5.84113,0,0,1,3.63808.99531c.68116.52539,1.20313,1.29151,2.00789,1.59545a7.49512,7.49512,0,0,0,1.69791.24474c2.011.264,3.45968,1.05683,5.43881.04647.70143-.35809.7263-.70507,1.27351-1.17656.46893-.404,1.221-.52507,1.64293-.96709a18.61047,18.61047,0,0,0,1.3189-1.54183,1.28871,1.28871,0,0,0,.30844-.61342c.04751-.434-.3207-.78682-.63869-1.086A10.1938,10.1938,0,0,1,80.501,82.19034a2.69173,2.69173,0,0,1-.2762-1.32078,5.66444,5.66444,0,0,1,.60875-1.50256,4.58763,4.58763,0,0,0-.03127-3.27659,13.63429,13.63429,0,0,0-1.60887-2.93159l-2.51977-3.81261a3.27,3.27,0,0,0-.6263-.76589,2.977,2.977,0,0,0-1.27163-.51444,16.0783,16.0783,0,0,0-5.29262-.25643,5.2208,5.2208,0,0,0-3.24431,1.48832c-1.02338,1.0059-2.36264,1.66253-3.45457,2.66414-.60607.55595-1.13564,1.19424-1.77144,1.71593a12.62914,12.62914,0,0,0-1.00037.8219,3.34722,3.34722,0,0,0-.329,4.20464c.95348,1.37732,2.8359,1.58365,3.89587,2.88094,1.23319,1.50929.43241,2.05068-.41977,3.35714-.53474.8198-1.22924,3.34246.40892,3.29619C64.43162,88.21426,65.33348,88.14336,66.21458,88.15088Z"/><path class="d" d="M35.86588,67.98663a2.63488,2.63488,0,0,1,.00773.574.78178.78178,0,0,1-.03709.14285,1.97858,1.97858,0,0,1-.55131.64759,2.39335,2.39335,0,0,0-.68559,1.91866,1.45775,1.45775,0,0,1,.01233.4929c-.10264.42294-.622.5692-.92867.878a1.7447,1.7447,0,0,0-.32784,1.49006,5.35729,5.35729,0,0,1,.15067,1.56835.51335.51335,0,0,1-.12371.29416.74658.74658,0,0,1-.44544.13529c-1.40127.1859-2.02,1.75684-2.26079,2.92461-.21367,1.03642-1.12481,3.32315-.67586,4.2967.14164.30715.5478.36347.886.36512a14.07827,14.07827,0,0,0,3.06532-.32285,2.58451,2.58451,0,0,1,1.43747-.06105c.20863.07757.39113.21281.59592.3a6.26754,6.26754,0,0,0,1.89838.13532,9.31937,9.31937,0,0,0,1.60567.22745c1.253-.10348,1.62112-1.19188,2.26453-2.03174a34.88162,34.88162,0,0,1,2.77867-3.16619c.632-.63883,1.42517-.94108,1.78707-1.85271.23328-.58765.20273-1.24977.40143-1.85a16.57622,16.57622,0,0,1,1.07252-1.91807,3.69511,3.69511,0,0,0-.0964-3.36429A4.03421,4.03421,0,0,0,45.22744,67.765a9.73325,9.73325,0,0,1-2.52827-1.10857C40.893,65.53493,35.66606,64.55916,35.86588,67.98663Z"/><path class="e" d="M39.07273,88.6943a2.17007,2.17007,0,0,0-.28089.31523.85634.85634,0,0,0-.17761.79694c.16971.42294.74356.4653,1.19769.42731a4.733,4.733,0,0,1,1.38838.00971,17.87974,17.87974,0,0,1,2.6038,1.40779A23.53023,23.53023,0,0,0,47.50276,92.916a18.69382,18.69382,0,0,0,7.68992.35655c.9539-.16542,2.225-.48916,3.11625.1161.42407.288.63719.86777,1.12669,1.02a.927.927,0,0,0,1.09671-.68469,1.35589,1.35589,0,0,0-.46506-1.29539,2.6177,2.6177,0,0,0-1.31414-.56c-1.73617-.29666-3.49668.33364-5.25783.30787a24.55522,24.55522,0,0,1-7.15175-.87954,14.01806,14.01806,0,0,1-4.20019-2.03983C41.25168,88.58636,40.03511,87.816,39.07273,88.6943Z"/><path class="f" d="M37.80845,56.50366c.46252.81276.70056.97195.11527,1.88145-.87145,1.35417-3.07024,2.79923-1.03873,4.26564.61626.44483,1.25665.41113,1.16675,1.33857-.05806.59888-1.02036,1.20389-.57984,1.84895a1.57921,1.57921,0,0,0,.55523.39754,2.09688,2.09688,0,0,1,1.00415,1.94134,2.14166,2.14166,0,0,1,1.11213-.45189c.283.58478,1.64652,1.91617,2.378,1.94033a.97953.97953,0,0,1,.53059.069c.19377.1318.18921.41026.2297.64109a1.93668,1.93668,0,0,0,2.05377,1.30563c.249-.00563.5564-.00624.67335.21361-.15333.55061.15668,1.16026-.03052,1.70029-.13559.39119-.51771.69231-.53705,1.10587a1.97616,1.97616,0,0,1-.004.484c-.08952.29441-.45628.37866-.75921.43273a3.91782,3.91782,0,0,0-2.22178,1.092c-.58163.653-.2938,1.16238-.59,1.84556-.25488.58778-2.52507,1.74129-2.206,2.44738a2.28389,2.28389,0,0,0,2.24174,1.29716,8.71463,8.71463,0,0,1,1.11129-.1548.83108.83108,0,0,1,.83953.60264,3.20723,3.20723,0,0,0,2.05179-1.40382c.23351-.36638.42968-.815.83872-.96145a1.5059,1.5059,0,0,1,.84963.03446q3.08786.738,6.11083,1.71884a2.19261,2.19261,0,0,1,1.01811.5502,3.30938,3.30938,0,0,1,.46514,1.6656,4.16852,4.16852,0,0,0,3.28386,3.12315,6.72856,6.72856,0,0,0,4.61737-.8954,4.82154,4.82154,0,0,1,1.54626-.6991,1.8006,1.8006,0,0,0,.64328-.1467,1.027,1.027,0,0,0,.25711-1.229c-.33273-.96145-1.02822-1.30455-1.117-2.35627-.06579-.77911.27922-1.81868-.1884-2.51983-.4412-.66153-1.09924-.50273-1.72938-.80138-.28617-.13563-1.76075-1.006-1.82782-1.28291.23818-.09172.52573-.26885.4691-.51771-.03763-.16536-.21466-.25511-.31108-.39461-.25046-.36239.119-.829.47428-1.08947s.77988-.63233.639-1.0497a.99639.99639,0,0,1-.10176-.30158c-.00014-.23408.292-.33524.52346-.3704,1.61351-.24511,3.63781-.21221,5.07605-1.0886.5421-.33034.912-.89057,1.44859-1.22987,1.0458-.66136,2.52573-.37173,3.49553-1.14022.617-.4889.92712-1.3411,1.64249-1.66964.50112-.23014,1.11774-.15521,1.58053-.45506.66808-.43286.75512-1.4726,1.45478-1.8523.34757-.18862.84758-.22622.98108-.59845.10786-.30072-.1126-.64877.0034-.94643.202-.51833.97738-.3948,1.2143-.93288.29928-.67973-.33026-1.60033-.26759-2.312.14179-1.61,1.67485-2.7424,2.778-3.77685a32.12408,32.12408,0,0,0,3.23195-3.518.59555.59555,0,0,0,.13374-.23779c.074-.3589-.45109-.49981-.81555-.46166-1.98777.20808-3.888,1.08094-5.85081,1.46013-1.04047.201-3.9308-.04193-4.01017,1.54064-.02653.52892.40385,1.034.26866,1.546-.13535.51261-.746.71766-1.27134.78908-1.20966.16447-2.4467.06219-3.65015.26723a3.87183,3.87183,0,0,0-2.46393,1.20388c-.68645,1.08731.28992.89524.23958,1.8794-.0261.46152-.6764.50789-1.1385.49568a7.42312,7.42312,0,0,0-3.70869,1.2874,2.50606,2.50606,0,0,0-1.01366.84016.86312.86312,0,0,0,.22587,1.1718,5.11756,5.11756,0,0,1-1.11256.71129,4.68866,4.68866,0,0,1-1.56636.05486c-.88777-.01876-1.99056-.01293-2.44052.96007a5.63075,5.63075,0,0,0-.228,1.45709c-.08252.48714-.43123,1.01813-.924.9826l1.0707,2.69541a1.42907,1.42907,0,0,1,.13611.99469c-.19674.53628-.90394.62731-1.47517.62892l-1.82379.00512a3.886,3.886,0,0,1-1.25378-.13351,1.31573,1.31573,0,0,1-.88224-.83732c-.10665-.392.0339-.84072-.15926-1.19813-.30663-.56734-1.26114-.56342-1.48473-1.16832-.1831-.49533.274-.9869.7179-1.273.62965-.40592,1.32474-.70267,1.95253-1.11146,1.01378-.66011,2.26674-2.20149.64891-3.01035-1.12824-.56408-2.16245.98459-3.20924.22446-.86426-.6276-.30516-2.15919-1.03079-2.94318-.32825-.35464-.85845-.47488-1.16878-.84527A29.84753,29.84753,0,0,1,45.75435,59.08a1.31523,1.31523,0,0,1-.27505-1.06079c.15692-.46485.76742-.64127.95549-1.0944a1.10877,1.10877,0,0,0-.29416-1.10043c-.26277-.30193-.60233-.53283-.84551-.85084-1.01913-1.33282-.22314-3.2894-1.02595-4.69528a4.5732,4.5732,0,0,0-4.60305-1.74367c-.02033.00557,1.19013,2.28891,1.19418,2.53488C40.89288,53.09654,36.90945,54.92387,37.80845,56.50366Z"/><path class="e" d="M41.133,74.197c-.834.84886-1.9644,1.05566-2.95967-.3282-1.0118-1.40687-1.977-5.34418-1.53066-6.99974.81842-3.03518,3.89982.41036,5.007,1.88887a3.71423,3.71423,0,0,1,.78216,1.64336,4.61963,4.61963,0,0,1-.21406,1.79189A4.53135,4.53135,0,0,1,41.133,74.197Z"/><path class="e" d="M72.00992,69.76793a1.06071,1.06071,0,0,1,.94113.73528,6.05108,6.05108,0,0,1-.33246,5.93144,4.43832,4.43832,0,0,1-5.4921,1.48967C60.86649,74.541,67.00774,68.76666,72.00992,69.76793Z"/><path class="g" d="M43.49763,81.73128a2.66836,2.66836,0,0,0-.58812.79841,3.05621,3.05621,0,0,0,.07774,1.98745,16.70472,16.70472,0,0,0,1.553,3.65991,3.73625,3.73625,0,0,0,2.20386,2.03884,3.53534,3.53534,0,0,0,1.61142-.20684,10.1399,10.1399,0,0,0,3.29823-1.40194,4.47919,4.47919,0,0,0,1.87547-3.30146c.1044-2.23984-2.39344-5.901-4.17508-6.71689C47.14107,77.57536,45.04388,80.12922,43.49763,81.73128Z"/><path class="e" d="M47.7355,86.75371l.07225.02848c.90937-.41112,5.80112-2.106,5.01175.33261-.60959,1.88327-3.42233,3.132-4.94371,3.37284a3.00142,3.00142,0,0,1-1.37717-.04685A3.90856,3.90856,0,0,1,44.66111,88.833c-.77894-1.11156-3.22941-4.96056-.80939-5.44855.92652-.18683,1.45408.57149,1.8858,1.40383C46.40154,86.06843,46.4827,86.2557,47.7355,86.75371Z"/><path class="h" d="M40.60791,48.50331a10.06777,10.06777,0,0,0-4.73325-2.53709,5.51171,5.51171,0,0,0-4.75459.63054C29.8,47.663,29.45016,49.50722,29.286,51.19618c-.34379,3.53776-.20514,7.3255,1.70423,10.32355a.8255.8255,0,0,0,.99681.46786A13.08422,13.08422,0,0,0,35.75739,60.842a14.19752,14.19752,0,0,0,4.3529-2.8939,9.79133,9.79133,0,0,0,2.55493-4.66063C42.98533,51.58666,41.76752,49.6557,40.60791,48.50331Z"/><path class="h" d="M83.375,54.12436a10.26823,10.26823,0,0,1,8.88268.2685,2.61085,2.61085,0,0,1,.99674.89581,3.13913,3.13913,0,0,1,.19588,1.88859l-.60071,5.79592a6.70931,6.70931,0,0,1-.61159,2.55371,4.623,4.623,0,0,1-1.67269,1.65517,8.264,8.264,0,0,1-7.40831.4675,10.32974,10.32974,0,0,1-5.3052-5.34023c-.30384-.67843-1.395-1.83647-1.51673-2.44366-.20961-1.04568.9839-1.743,1.74887-2.39183A19.54484,19.54484,0,0,1,83.375,54.12436Z"/><circle class="i" cx="74.8715" cy="70.97219" r="1.86107"/><circle class="i" cx="86.81019" cy="67.69925" r="0.97493"/><circle class="j" cx="36.04875" cy="74.87077" r="1.86107"/><circle class="j" cx="31.82868" cy="71.51401" r="0.90326"/><circle class="i" cx="34.64414" cy="66.0882" r="1.52922"/><circle class="i" cx="37.41188" cy="57.75841" r="1.52922"/><circle class="j" cx="76.73257" cy="79.32955" r="1.86107"/><circle class="j" cx="82.92658" cy="70.52508" r="1.86107"/><circle class="j" cx="77.55676" cy="63.43901" r="1.03688"/></svg>