<svg xmlns="http://www.w3.org/2000/svg" xmlns:xlink="http://www.w3.org/1999/xlink" viewBox="0 0 114.03965 142.23433"><defs><style>.a{fill:#d8c4b2;}.b{fill:#d89f6c;}.c{fill:#fff;}.d{clip-path:url(#a);}.e{fill:#7a593f;}.f{fill:url(#b);}.g{fill:url(#c);}.h{clip-path:url(#d);}.i{fill:#dbb58d;}.j{clip-path:url(#e);}.k{fill:#f4dcc1;}.l{fill:#575756;}.m{fill:none;stroke:#3c3c3b;stroke-linecap:round;stroke-linejoin:round;stroke-width:0.90536px;}.n{fill:#3c3c3b;}.o{fill:#1d1d1b;}.p{fill:#706f6f;}.q{fill:#8ef4c0;}</style><clipPath id="a"><path class="a" d="M109.18946,64.44633c-.64932.76171-1.31612,1.47975-1.84788,2.1375a93.03186,93.03186,0,0,1-8.914,9.56528,8.80067,8.80067,0,0,1-1.99045,1.51465,9.25841,9.25841,0,0,1-3.593.718c-5.02037.32141-10.18411-.66219-14.82849,1.55282a.89364.89364,0,0,1-.78439.111.8479.8479,0,0,1-.33408-.5352c-.931-3.06114-1.28614-6.74536,1.276-9.14531,1.65764-1.55271,3.8518-2.37978,5.74734-3.631,2.52437-1.66637,4.47838-4.05663,6.83026-5.95871a22.88059,22.88059,0,0,1,14.75108-4.81752c1.93145.00144,4.10873-.30143,5.38167,1.42766C112.689,59.83784,111.00778,62.31328,109.18946,64.44633Z"/></clipPath><linearGradient id="b" x1="48.2687" y1="62.61935" x2="51.73602" y2="36.61446" gradientUnits="userSpaceOnUse"><stop offset="0.39389" stop-color="#dadada"/><stop offset="0.83897" stop-color="#4c4a4a"/><stop offset="0.89956" stop-color="#383636"/></linearGradient><linearGradient id="c" x1="6678.64592" y1="788.09113" x2="6682.11324" y2="762.08623" gradientTransform="matrix(-0.97645, -0.21576, -0.21576, 0.97645, 6763.74442, 739.25764)" xlink:href="#b"/><clipPath id="d"><path class="a" d="M12.9442,46.63041c.34661.939.72469,1.843.99683,2.64384a93.03088,93.03088,0,0,0,5.066,12.05361,8.80042,8.80042,0,0,0,1.34557,2.10843,9.25821,9.25821,0,0,0,3.12459,1.91364c4.60114,2.034,9.78712,2.89254,13.382,6.57407.192.19667.426.41506.69793.3748a.84792.84792,0,0,0,.49823-.38705c1.93012-2.55188,3.53466-5.88729,1.958-9.02392-1.02007-2.02932-2.79409-3.5627-4.14145-5.39118-1.79435-2.43506-2.80359-5.35276-4.3547-7.94955a22.88062,22.88062,0,0,0-12.1828-9.61155c-1.81334-.6651-3.75238-1.70065-5.54377-.517C11.24976,41.09743,11.97356,44.00094,12.9442,46.63041Z"/></clipPath><clipPath id="e"><path class="b" d="M39.172,107.55334a39.39723,39.39723,0,0,1,9.217,1.55432c1.72988.5089,3.622,1.32362,4.24441,3.016l6.66546-19.03323a41.54616,41.54616,0,0,1,3.39767-7.90233,13.94337,13.94337,0,0,1,6.20637-5.77643c3.01069-1.28406,6.41977-1.0772,9.6848-.84779.96378.06771-.63-8.84938-.84118-9.59443-.84137-2.96782-2.50559-4.60712-4.90015-6.59576a27.57958,27.57958,0,0,0-5.85626-4.06289,20.59389,20.59389,0,0,0-6.58524-1.61341A28.01522,28.01522,0,0,0,45.31313,58.9287C41.33025,60.86971,33.988,67.048,36.2444,72.19452c.61375,1.3995,2.00137,2.25069,2.6297,3.77141a19.519,19.519,0,0,1,1.26151,6.51883c.23421,4.90422.01575,9.74025-.00306,14.61919A55.75043,55.75043,0,0,1,39.172,107.55334Z"/></clipPath></defs><ellipse class="c" cx="57.01982" cy="71.11717" rx="57.01982" ry="71.11717"/><path class="a" d="M109.18946,64.44633c-.64932.76171-1.31612,1.47975-1.84788,2.1375a93.03186,93.03186,0,0,1-8.914,9.56528,8.80067,8.80067,0,0,1-1.99045,1.51465,9.25841,9.25841,0,0,1-3.593.718c-5.02037.32141-10.18411-.66219-14.82849,1.55282a.89364.89364,0,0,1-.78439.111.8479.8479,0,0,1-.33408-.5352c-.931-3.06114-1.28614-6.74536,1.276-9.14531,1.65764-1.55271,3.8518-2.37978,5.74734-3.631,2.52437-1.66637,4.47838-4.05663,6.83026-5.95871a22.88059,22.88059,0,0,1,14.75108-4.81752c1.93145.00144,4.10873-.30143,5.38167,1.42766C112.689,59.83784,111.00778,62.31328,109.18946,64.44633Z"/><g class="d"><path class="e" d="M94.57147,61.91461c-.47377.21975-.987.5868-.97552,1.10892.00889.40605.34553.75343.34167,1.15956-.01126,1.1832-2.24968.72472-2.81472,1.76434-.4969.91425.78337,1.986.48435,2.98271-.25864.86208-1.40261.96682-2.2958,1.07774-4.14279.51445-7.21665,4.55309-11.36963,4.97758-.44064-3.09262-.8011-6.538,1.0271-9.071a11.786,11.786,0,0,1,2.91163-2.59278q4.691-3.29391,9.62175-6.22737A16.16775,16.16775,0,0,1,95.816,55.10079c3.00918-.73926,6.09584-.81482,5.70023,2.78569C100.98982,62.67737,97.97285,60.3369,94.57147,61.91461Z"/></g><path class="b" d="M90.02,58.06108a82.96791,82.96791,0,0,1,16.32323-2.69926c1.04278-.094,2.271-.109,2.92042.71228-4.9963-.97565-10.06916,1.36018-14.17513,4.36948s-7.68738,6.7547-12.10933,9.27685A8.83464,8.83464,0,0,1,79.259,71.04512c-1.99912.13049-3.90531-1.064-3.88182-3.17971.02193-1.97481,1.85577-3.11412,3.26062-4.19407A35.02069,35.02069,0,0,1,90.02,58.06108Z"/><path class="f" d="M43.70545,49.83792a13.45735,13.45735,0,0,1,1.92825-8.83451,13.39548,13.39548,0,0,1,3.03061-3.06324,10.84035,10.84035,0,0,1,5.182-2.32593c-3.12421,2.68793-3.628,7.34124-3.19041,11.4393.412,3.85893,1.72841,8.02263,5.05783,10.01663-2.06033.4504-7.76538,2.55347-9.61089,1.39827C44.3741,57.38634,43.87594,51.67481,43.70545,49.83792Z"/><path class="g" d="M79.582,56.28066a13.4574,13.4574,0,0,0,.02334-9.04247,13.39592,13.39592,0,0,0-2.29829-3.645A10.84022,10.84022,0,0,0,72.749,40.204c2.47067,3.2987,1.95856,7.9511.64708,11.85822-1.23495,3.67913-3.41869,7.46074-7.09992,8.68939,1.91462.88435,7.03153,4.16882,9.08282,3.439C77.30044,63.507,79.0192,58.0375,79.582,56.28066Z"/><path class="a" d="M12.9442,46.63041c.34661.939.72469,1.843.99683,2.64384a93.03088,93.03088,0,0,0,5.066,12.05361,8.80042,8.80042,0,0,0,1.34557,2.10843,9.25821,9.25821,0,0,0,3.12459,1.91364c4.60114,2.034,9.78712,2.89254,13.382,6.57407.192.19667.426.41506.69793.3748a.84792.84792,0,0,0,.49823-.38705c1.93012-2.55188,3.53466-5.88729,1.958-9.02392-1.02007-2.02932-2.79409-3.5627-4.14145-5.39118-1.79435-2.43506-2.80359-5.35276-4.3547-7.94955a22.88062,22.88062,0,0,0-12.1828-9.61155c-1.81334-.6651-3.75238-1.70065-5.54377-.517C11.24976,41.09743,11.97356,44.00094,12.9442,46.63041Z"/><g class="h"><path class="e" d="M27.538,49.29817c.36885.36973.72386.89131.533,1.37742-.14845.378-.58428.58793-.72079.97045-.3977,1.11441,1.86143,1.45646,2.033,2.6272.15092,1.02956-1.42055,1.59376-1.4838,2.6324-.0547.89838.98287,1.39142,1.78292,1.80372,3.71085,1.91234,5.20237,6.76358,8.95382,8.595,1.4807-2.75064,3.00787-5.86007,2.166-8.86834a11.78593,11.78593,0,0,0-1.83816-3.43821q-3.26631-4.71024-6.882-9.16493a16.168,16.168,0,0,0-3.3609-3.35948c-2.56929-1.73219-5.44029-2.86817-6.31135.64771C21.25062,47.79941,24.88989,46.6437,27.538,49.29817Z"/></g><path class="i" d="M35.267,107.51352a26.30927,26.30927,0,0,0,2.6603,8.55031A15.81914,15.81914,0,0,0,45.36673,123.25c4.05807,1.75085,10.7033-4.76828,13.61779-7.35488,3.73815-3.31758,5.492-7.47252,7.54608-11.90768,1.45963-3.15172,3.55092-6.14437,5.28984-9.1534a58.46016,58.46016,0,0,0,5.45467-11.21489c2.12877-6.64638-.50515-11.477-5.954-15.3992a29.556,29.556,0,0,0-8.86227-4.71162c-5.3113-1.53684-10.98526-.57668-16.42873.39311A22.56439,22.56439,0,0,0,38.391,66.24287c-2.39526,1.4225-2.40652,2.44356-2.28087,4.99953.2976,6.05356.10937,12.11357-.07368,18.1675-.091,3.0088-.03234,6.06565-.2745,9.06555-.2064,2.557-.98447,4.88639-.6935,7.50855Q35.15337,106.74948,35.267,107.51352Z"/><path class="b" d="M39.172,107.55334a39.39723,39.39723,0,0,1,9.217,1.55432c1.72988.5089,3.622,1.32362,4.24441,3.016l6.66546-19.03323a41.54616,41.54616,0,0,1,3.39767-7.90233,13.94337,13.94337,0,0,1,6.20637-5.77643c3.01069-1.28406,6.41977-1.0772,9.6848-.84779.96378.06771-.63-8.84938-.84118-9.59443-.84137-2.96782-2.50559-4.60712-4.90015-6.59576a27.57958,27.57958,0,0,0-5.85626-4.06289,20.59389,20.59389,0,0,0-6.58524-1.61341A28.01522,28.01522,0,0,0,45.31313,58.9287C41.33025,60.86971,33.988,67.048,36.2444,72.19452c.61375,1.3995,2.00137,2.25069,2.6297,3.77141a19.519,19.519,0,0,1,1.26151,6.51883c.23421,4.90422.01575,9.74025-.00306,14.61919A55.75043,55.75043,0,0,1,39.172,107.55334Z"/><g class="j"><path class="k" d="M57.75506,85.60549c.08775-.49593.06943-1.01039.20625-1.49515.46405-1.64407,2.22374-2.20846,3.245-3.40131,1.283-1.49868,2.15159-3.41246,3.508-4.78628a3.41567,3.41567,0,0,1,3.459-1.01448,4.89108,4.89108,0,0,0,1.439.52217,3.4227,3.4227,0,0,0,1.7437-.78584c2.22926-1.3463,4.38754-.14237,6.47643.79079,1.17807.52627,2.4104,1.85846,1.692,2.93022a2.50586,2.50586,0,0,1-1.68328.83075c-2.722.546-5.55288,1.09671-7.79016,2.74054a17.02751,17.02751,0,0,0-3.55722,3.91876,102.47437,102.47437,0,0,0-8.92015,14.90575c-2.32916,4.76853-4.31142,9.75917-7.43291,14.05105a5.08515,5.08515,0,0,1-2.01414,1.85547c-1.44894.59909-3.09553-.126-4.399-.99737a9.54519,9.54519,0,0,1-3.50782-3.737,12.68134,12.68134,0,0,1-.86536-4.55644c-.24834-3.833-.49681-7.67277-.38754-11.5123.0889-3.12353.41445-6.24707.2416-9.36735a37.99846,37.99846,0,0,0-1.372-7.90014c-.16076-.588-3.28268-11.15664-2.65041-11.06134,2.56286.38631,8.62467,5.24756,7.51638,8.34129-.44982,1.25567-1.83327,2.298-1.51185,3.59247.2313.9315,1.2477,1.41159,1.82593,2.17766a4.62774,4.62774,0,0,1,.38043,3.82331,9.12973,9.12973,0,0,0-.4606,3.90829c.13356.62218.42864,1.20109.55767,1.8246.42027,2.03188-.83528,3.95-1.05873,5.92679-.13677,1.20991.45037,2.25269.62778,3.41231.1251.81766-.26322,2.25246.29447,2.90294.93368,1.08621,3.37635.791,4.63436.91237,2.08036.20074,3.58583-.05034,3.65-2.68647.03419-1.40485-.33427-2.89236.2585-4.16649.77387-1.66343,3.01983-2.5494,3.16264-4.37846.04454-.57054-.13922-1.13557-.14373-1.70783-.01712-2.17281,2.41866-3.6322,2.8272-5.76633Z"/></g><path class="l" d="M52.47983,111.66553a4.96834,4.96834,0,0,1-2.19124,2.98136c-1.14939.76413-2.88047.88668-4.22083,1.13984a3.995,3.995,0,0,1-2.86418-.37617,11.86857,11.86857,0,0,1-3.51571-2.68447c-1.81123-2.3019-1.32848-6.63528,1.48993-8.09658a6.00391,6.00391,0,0,1,2.20869-.5031,17.36532,17.36532,0,0,1,2.703-.12173,8.71857,8.71857,0,0,1,3.93464,1.21092C52.1194,106.46611,52.96391,109.398,52.47983,111.66553Z"/><path class="m" d="M43.92022,115.29327c-.32966,2.72257-1.59134,7.72949,2.22713,8.03093a8.67189,8.67189,0,0,0,6.204-1.99613"/><path class="n" d="M42.316,111.27654c-.02831.91155-.32769,2.00364.35813,2.60477.69457.6088,2.03843.28252,2.449,1.10986a8.45233,8.45233,0,0,1,5.64461-4.37573,1.24992,1.24992,0,0,1,.56091-.02981.96545.96545,0,0,1,.63494.71144,2.16852,2.16852,0,0,1-.67616,2.04295,6.39023,6.39023,0,0,1-1.922,1.16016l-2.21884,1.00425a5.53872,5.53872,0,0,1-3.16532.72464,4.93064,4.93064,0,0,1-2.04348-1.05327,9.73314,9.73314,0,0,1-2.30926-2.31509c-.63108-.95888-1.99475-4.64771-.27177-5.18167C41.02131,107.16318,42.354,110.05357,42.316,111.27654Z"/><path class="o" d="M38.13885,72.94552a19.25507,19.25507,0,0,1,2.3306,9.3834c-.002.46161-.13661,1.05978-.59551,1.10888a17.64757,17.64757,0,0,1-2.26408-1.696,2.711,2.711,0,0,1-.89871-.78156c-.96034-1.5399.50453-10.04079-2.25454-9.46854C36.12226,71.14621,37.33812,71.48835,38.13885,72.94552Z"/><path class="o" d="M75.75911,77.52368a16.65412,16.65412,0,0,0,2.20343.50832,6.53956,6.53956,0,0,0-2.596-1.24188.97039.97039,0,0,0-.24043-.16859,1.71083,1.71083,0,0,0-.8054-.11394,12.11042,12.11042,0,0,0-7.34054,3.07718c-1.697,1.45965-2.58328,3.5524-4.13046,5.04112a5.66765,5.66765,0,0,0,5.3272,1.03836,9.27485,9.27485,0,0,0,4.73079-2.59c1.2826-1.30808,3.22466-3.44393,2.88168-5.43473C75.78259,77.60054,75.76834,77.56253,75.75911,77.52368Z"/><path class="p" d="M73.90041,77.64072a2.96149,2.96149,0,0,0-1.86224,2.59215.46113.46113,0,0,0,.5852.54849,2.185,2.185,0,0,0,1.895-1.25309,1.63822,1.63822,0,0,0-.7088-2.05343"/><path class="p" d="M37.32036,74.09513a.26521.26521,0,0,0-.30466-.11378,3.75894,3.75894,0,0,0-.48339,1.61909c-.02105.33649.07945.76694.41209.82187.28455.047.51772-.23069.62234-.49945a2.00206,2.00206,0,0,0-.5048-2.151"/><path class="b" d="M33.13959,47.25181a82.967,82.967,0,0,0-14.38932-8.16586c-.9463-.44807-2.09392-.88593-2.98684-.33917,5.0261.80826,8.98142,4.751,11.79684,8.9923s4.88451,8.9924,8.1646,12.88546a8.83476,8.83476,0,0,0,3.03459,2.527c1.83131.81229,4.03258.34893,4.74058-1.645.66083-1.86109-.66725-3.5632-1.61318-5.06157A35.02078,35.02078,0,0,0,33.13959,47.25181Z"/><path class="m" d="M43.94131,122.31784a9.57809,9.57809,0,0,1-4.77995-4.53112"/><path class="q" d="M51.862,66.18045a3.77964,3.77964,0,0,0-1.29033,1.21917,19.61332,19.61332,0,0,0-1.94433,3.21682,6.57935,6.57935,0,0,0-.816,3.231c.13193,1.93906,1.68874,3.51687,3.42067,4.3988a24.64489,24.64489,0,0,1,1.61225-8.86148C53.21332,68.417,54.15,65.064,51.862,66.18045Z"/><path class="o" d="M53.583,66.18045s-3.68183,2.51406-4.4798,6.38674a5.609,5.609,0,0,0,2.00169,5.7732A5.606,5.606,0,0,0,55.173,73.81791C55.971,69.94523,53.583,66.18045,53.583,66.18045Z"/><path class="p" d="M51.95182,71.20573a.55886.55886,0,0,0-.65687-.02192,1.02547,1.02547,0,0,0-.39444.56839,1.08223,1.08223,0,0,0,.03086.8341,1.30826,1.30826,0,0,0,.72653.53643,1.4595,1.4595,0,0,0,.93144.09986,1.02862,1.02862,0,0,0,.67409-.98363,1.464,1.464,0,0,0-.57175-1.09607.91832.91832,0,0,0-1.06789-.1548"/></svg>