<svg xmlns="http://www.w3.org/2000/svg" xmlns:xlink="http://www.w3.org/1999/xlink" viewBox="0 0 114.03965 142.23433"><defs><style>.a{fill:#5e9e7b;}.b{fill:#fff;}.c{fill:#f9b233;}.d{fill:#ededed;}.e{fill:#f39200;}.f{fill:#3c3c3b;}.g,.i{fill:none;stroke:#f39200;}.g{stroke-linecap:round;stroke-linejoin:round;}.h{fill:#ffc397;}.i{stroke-miterlimit:10;}.j{fill:#706f6f;}.k{clip-path:url(#a);}.l{fill:#8ef4c0;}</style><clipPath id="a"><path class="a" d="M47.99814,61.499c-.24958-.12-.68938-.07506-.78705-.30439A2.90263,2.90263,0,0,1,47.0115,58.895a1.338,1.338,0,0,0,.05731-.7391,2.23366,2.23366,0,0,0-.36035-.574c-.63649-.92967-.29683-2.18494.06451-3.2521a1.5137,1.5137,0,0,1-1.2176-1.1174c-.217-.90926.64437-1.19085.71235-1.90281a6.60613,6.60613,0,0,0-.31042-1.98c-.23073-1.17659-1.22217-3.26882-.0811-4.27274-1.0917-1.11366-.99475-2.90563-.69235-4.43553.30237-1.52977.72463-3.17706.07194-4.59321a14.22029,14.22029,0,0,0,2.00036,3.21333c.673.807,1.87858,1.03264,1.39753,2.49443a2.56017,2.56017,0,0,1,1.8494.43908c.53262.52591.286,1.29259.656,1.88074.65149,1.03564,1.86142.71228,1.72613,2.31527a1.22117,1.22117,0,0,1,.88482.63445,1.07924,1.07924,0,0,1-.12112,1.0915c.22044-.28561,1.34439.855,1.43541,1.03784.27308.5484.082,1.20137.22125,1.77451.15887.65412.63568,1.14827.80233,1.79828.163.63585-.05528,1.38917.25193,1.9895.56122,1.09669,1.95887.96572,1.23424,2.68412.55307-.07588.91713.54985,1.09744,1.07818a21.1029,21.1029,0,0,1,.61494,2.17762c.40442,1.79529-5.19846,4.088-6.34435,4.29145-.31761.05639-4.84431-.27959-4.67-.82491a3.33988,3.33988,0,0,0-.15072-2.47661A.301.301,0,0,0,47.99814,61.499Z"/></clipPath></defs><ellipse class="b" cx="57.01982" cy="71.11717" rx="57.01982" ry="71.11717"/><path class="c" d="M33.36326,100.19921c-.466,3.17944,2.24878,6.25366,4.6548,7.9229,4.35375,3.02051,9.01787,2.02182,13.8919.99a37.60317,37.60317,0,0,0,5.40974-1.42923c2.76489-1.03336,5.19053-2.75505,7.953-3.79078,2.84824-1.06789,5.98034-1.299,8.65654-2.83217a20.75562,20.75562,0,0,0,3.25487-2.48557A37.31224,37.31224,0,0,0,88.83267,77.37077c1.00562-6.04743.65063-12.42146.32161-18.49156-.11372-2.09831.90144-3.52051,1.45762-5.55233a30.51243,30.51243,0,0,0,.85568-6.29378,10.99955,10.99955,0,0,0-.39649-4.49251,1.30016,1.30016,0,0,0-.44842-.66771,1.39325,1.39325,0,0,0-.6649-.1705A21.17858,21.17858,0,0,0,79.11087,44.13c-3.16647,1.55911-8.10843,7.016-11.69932,5.80437a13.79081,13.79081,0,0,1-1.99069-1.04825,14.91275,14.91275,0,0,0-5.20118-1.31831c-2.39042-.30272-4.85094-.98237-7.25437-.62461-1.93459.288-2.92378.69524-4.89991-.18242-3.7715-1.675-6.26066-5.30723-9.77211-7.39957C34.458,37.07585,29.958,35.64181,25.53,36.21178A43.52481,43.52481,0,0,0,26.89918,51.2727c1.21022,4.46848,4.67517,8.82679,4.18213,13.45864-.38936,3.65778-1.91537,7.24192-1.45627,10.8916.47065,3.74156.24827,7.29626.76042,11.02659a14.40831,14.40831,0,0,0,1.43528,4.54894c.69258,1.36317,2.26,2.40422,2.58781,3.95356C34.75419,96.78564,33.59848,98.59457,33.36326,100.19921Z"/><path class="d" d="M62.98172,93.16663A27.28764,27.28764,0,0,1,71.43065,91.409a11.53119,11.53119,0,0,1,7.99149,2.77345,1.77516,1.77516,0,0,1,.44159.55609C80.545,96.28564,76.6274,98.908,75.696,99.78281a14.93851,14.93851,0,0,1-2.08438,1.73251,14.96434,14.96434,0,0,1-4.2901,1.64425c-2.02342.54483-4.531.72808-6.39136,1.61366-1.73816.82741-3.11588,2.26195-4.79325,3.20657a19.08277,19.08277,0,0,1-11.01281,2.165c-1.80555-.125-3.61174-.25-5.41037-.45133.59361.06641,2.514-1.62392,3.13682-1.94444,1.12843-.58072,2.28925-1.14342,3.4081-1.76536,2.58854-1.43889,3.858-3.74983,5.1031-6.36076.70806-1.48481,2.53551-2.64,3.7507-3.77667C58.65784,94.40082,61.02558,93.82949,62.98172,93.16663Z"/><path class="e" d="M47.61743,106.66083a6.99528,6.99528,0,0,1-11.48755.80021,20.84363,20.84363,0,0,0,7.202.314c.59172-.10986,1.17344-.26717,1.7544-.42431C45.8897,107.13336,46.814,106.87815,47.61743,106.66083Z"/><path class="f" d="M35.67157,72.60869c.46142-.50315,1.299-.17119,1.84385.24018a10.21558,10.21558,0,0,1,3.369,4.48661,3.3523,3.3523,0,0,1-.02517,3.04789c-.861,1.25344-2.93754,1.02958-3.9721-.08489a6.42226,6.42226,0,0,1-1.312-4.26343,7.53857,7.53857,0,0,1,.28786-2.65728"/><path class="g" d="M64.7282,75.12573c-3.87652,2.2185-9.94652,6.807-9.7929,11.68679.04654,1.4784.35965,2.93906.40056,4.41762.13235,4.78273-2.21408,10.88159-5.93228,14.004a12.89729,12.89729,0,0,1-13.65869,1.65512,5.14025,5.14025,0,0,1-2.28851-1.90685,5.548,5.548,0,0,1-.35952-3.64209c1.3198-8.18414,7.77347-14.91993,7.828-23.38443a6.83481,6.83481,0,0,0-1.08418-3.59224c-1.34944-2.15184-3.66065-2.64289-5.93432-3.24646"/><path class="f" d="M41.536,103.34764a5.15722,5.15722,0,0,0-2.76922-2.594,5.75858,5.75858,0,0,0-4.379-.39833,3.212,3.212,0,0,0-2.11334,3.54435,4.38259,4.38259,0,0,0,2.82339,2.61965,6.46713,6.46713,0,0,0,4.32339.4823,3.141,3.141,0,0,0,2.3033-3.33437"/><path class="g" d="M44.41583,108.63137c1.29529-.30727,2.98505-.74037,3.731-1.94049a8.60849,8.60849,0,0,1,2.03792-2.03348,24.3073,24.3073,0,0,1,5.34711-3.26912"/><path class="h" d="M41.85038,56.2374l-8.86909,5.49684a1.97151,1.97151,0,0,1-.95107.37837c-.75532.01888-1.23884-.77344-1.55866-1.458a63.57826,63.57826,0,0,1-3.87668-11.32906c-1.07331-4.15116-.79905-8.40764-1.32489-12.65973.0977.79,5.77194,3.97064,6.73228,4.73659A28.91633,28.91633,0,0,1,41.85038,56.2374Z"/><path class="h" d="M89.43723,44.23481a1.54408,1.54408,0,0,1,1.31-.27868c.47225.20106.6157.79049.68352,1.29926a26.99782,26.99782,0,0,1-1.26156,12.39725,4.62883,4.62883,0,0,1-.938,1.7487c-.77427.799-1.98348,1.007-2.85542,1.698-1.16866.92619-1.74695,2.70521-3.21089,2.98893a3.14128,3.14128,0,0,1-2.69546-1.19515,11.20518,11.20518,0,0,0-2.18319-2.15158c-1.509-.89123-4.44236-.76386-4.532-3.1184-.073-1.91836,2.791-3.859,4.052-4.99313A66.94551,66.94551,0,0,1,89.43723,44.23481Z"/><path class="i" d="M66.14987,80.61556c1.30347.73529,2.01372,2.1693,2.73926,3.47822s1.67468,2.67307,3.12543,3.04051l-.15237.51612"/><path class="f" d="M64.8404,79.55641A3.40284,3.40284,0,0,1,67.44347,81.29a1.82942,1.82942,0,0,1,.16653.56013,2.4,2.4,0,0,1-1.18116,2.19806c-2.58268,1.68346-7.36691,1.85048-9.376-.739a4.48593,4.48593,0,0,1-2.03423,1.87844,14.16925,14.16925,0,0,1,3.32591-4.28686A9.44659,9.44659,0,0,1,64.8404,79.55641Z"/><path class="d" d="M36.71888,89.92569a1.08594,1.08594,0,0,1,.09453,1.42208c-.47169.8258-2.41842,3.55778-2.32484,4.50922a7.85871,7.85871,0,0,0-1.77646-3.441,14.671,14.671,0,0,1-2.69179-9.0041c1.76007.868,2.951.99385,4.26476,2.69066A42.79722,42.79722,0,0,1,36.71888,89.92569Z"/><path class="j" d="M37.11548,73.40626a23.62473,23.62473,0,0,0-.77211,3.6754.64063.64063,0,0,0,.12614.58969.44.44,0,0,0,.59866-.13424,1.277,1.277,0,0,0,.18-.6542l.25044-2.83911"/><path class="j" d="M65.592,81.31207,65.21743,82.738a1.93526,1.93526,0,0,0-.09452.707.65766.65766,0,0,0,.3903.55771,2.22593,2.22593,0,0,0,1.18725-1.274c.14194-.58047-.33963-1.30835-.924-1.18348"/><path class="a" d="M47.99814,61.499c-.24958-.12-.68938-.07506-.78705-.30439A2.90263,2.90263,0,0,1,47.0115,58.895a1.338,1.338,0,0,0,.05731-.7391,2.23366,2.23366,0,0,0-.36035-.574c-.63649-.92967-.29683-2.18494.06451-3.2521a1.5137,1.5137,0,0,1-1.2176-1.1174c-.217-.90926.64437-1.19085.71235-1.90281a6.60613,6.60613,0,0,0-.31042-1.98c-.23073-1.17659-1.22217-3.26882-.0811-4.27274-1.0917-1.11366-.99475-2.90563-.69235-4.43553.30237-1.52977.72463-3.17706.07194-4.59321a14.22029,14.22029,0,0,0,2.00036,3.21333c.673.807,1.87858,1.03264,1.39753,2.49443a2.56017,2.56017,0,0,1,1.8494.43908c.53262.52591.286,1.29259.656,1.88074.65149,1.03564,1.86142.71228,1.72613,2.31527a1.22117,1.22117,0,0,1,.88482.63445,1.07924,1.07924,0,0,1-.12112,1.0915c.22044-.28561,1.34439.855,1.43541,1.03784.27308.5484.082,1.20137.22125,1.77451.15887.65412.63568,1.14827.80233,1.79828.163.63585-.05528,1.38917.25193,1.9895.56122,1.09669,1.95887.96572,1.23424,2.68412.55307-.07588.91713.54985,1.09744,1.07818a21.1029,21.1029,0,0,1,.61494,2.17762c.40442,1.79529-5.19846,4.088-6.34435,4.29145-.31761.05639-4.84431-.27959-4.67-.82491a3.33988,3.33988,0,0,0-.15072-2.47661A.301.301,0,0,0,47.99814,61.499Z"/><g class="k"><path class="l" d="M46.761,44.89045a5.39775,5.39775,0,0,0,3.37153-.60648,4.0003,4.0003,0,0,1-3.5636,3.66591,6.61084,6.61084,0,0,0,4.41678-.41509,4.47409,4.47409,0,0,1-3.63727,4.05169,5.61472,5.61472,0,0,0,4.95281-.10379,2.67633,2.67633,0,0,1-1.2475,2.56675,7.86588,7.86588,0,0,1-2.82043,1.02449,9.33642,9.33642,0,0,0,5.70025.48441,4.168,4.168,0,0,1-4.23108,3.069,9.19879,9.19879,0,0,0,5.08551.27207c-1.04136,1.793-3.35756,2.29186-5.40561,2.61533A8.75356,8.75356,0,0,0,57.608,59.894a4.32145,4.32145,0,0,1-.73346,5.12622,9.654,9.654,0,0,1-4.9009,2.50424c-2.3842.59282-5.15827.77276-7.05281-.79138-1.77044-1.46169-2.20763-3.99864-2.13191-6.29325.122-3.696,1.24395-7.44489.34546-11.0321-.46832-1.86975-1.00886-3.69615-.16012-5.52941A30.04874,30.04874,0,0,0,45.464,38.141c.64985,1.65451-.1061,5.80309,2.62849,4.81217A2.25253,2.25253,0,0,1,46.761,44.89045Z"/></g></svg>