<svg xmlns="http://www.w3.org/2000/svg" viewBox="0 0 114.03965 142.23433"><defs><style>.a{fill:#fff;}.b{fill:#72614c;stroke:#ead6b9;stroke-miterlimit:10;stroke-width:1.07745px;}.c{fill:#998876;}.d{fill:#ead6b9;}.e{fill:#bab19b;}.f{fill:#3c3c3b;}.g{fill:#575756;}.h{fill:#666258;}.i{fill:#706f6f;}.j{fill:#8ef4c0;}.k{fill:#5c9b78;}</style></defs><ellipse class="a" cx="57.01982" cy="71.11717" rx="57.01982" ry="71.11717"/><path class="b" d="M84.973,27.50217c2.09211,3.18314,2.05716,6.947,2.81991,10.65375.78006,3.79094,1.8517,7.57886,2.64276,11.426a27.65456,27.65456,0,0,1,.74743,5.46708c.01583,5.32877-2.3127,8.627-5.49346,11.84335-4.05146,4.09684-5.5657,7.10388-9.23212,1.20817-2.896-4.65686-9.37241-8.46939-8.93715-15.07961C68.24555,42.01028,76.50355,31.48167,84.973,27.50217Z"/><path class="c" d="M75.41755,70.19416c-1.362-3.78345-.09946-5.64834,2.49035-7.77853,2.87682-2.36628,4.02352-6.28478,5.27355-9.97338a39.56462,39.56462,0,0,0,2.13122-11.49958c.05663-1.99333.06456-4.10827.97693-5.79819a77.57885,77.57885,0,0,0,2.8317,12.50137c1.13748,4.19011,2.14878,7.48457.38448,11.60939a26.90737,26.90737,0,0,1-7.49373,9.905c-1.5621,1.31284-3.40317,2.50319-5.3136,2.19766a1.49386,1.49386,0,0,1-.83887-.36661A2.09518,2.09518,0,0,1,75.41755,70.19416Z"/><path class="c" d="M73.91356,51.72761a18.07713,18.07713,0,0,1-1.33349-9.24653c-.96961.42453-1.293,1.799-1.48435,2.98134-.458,2.83028-2.97041,16.30375.66717,17.574,1.4965.52258,2.87555-2.21532,3.30056-3.47537C76.02965,56.69642,75.03035,54.287,73.91356,51.72761Z"/><path class="b" d="M31.068,27.50217c-2.09211,3.18314-2.05716,6.947-2.8199,10.65375-.78007,3.79094-1.8517,7.57886-2.64276,11.426a27.65457,27.65457,0,0,0-.74744,5.46708c-.01583,5.32877,2.3127,8.627,5.49346,11.84335,4.05147,4.09684,5.56571,7.10388,9.23213,1.20817,2.896-4.65686,9.37241-8.46939,8.93715-15.07961C47.79536,42.01028,39.53735,31.48167,31.068,27.50217Z"/><path class="c" d="M40.62335,70.19416c1.362-3.78345.09947-5.64834-2.49034-7.77853-2.87682-2.36628-4.02353-6.28478-5.27356-9.97338a39.56461,39.56461,0,0,1-2.13121-11.49958c-.05663-1.99333-.06457-4.10827-.97694-5.79819a77.57672,77.57672,0,0,1-2.8317,12.50137c-1.13748,4.19011-2.14878,7.48457-.38448,11.60939a26.9074,26.9074,0,0,0,7.49374,9.905c1.56209,1.31284,3.40316,2.50319,5.3136,2.19766a1.49392,1.49392,0,0,0,.83887-.36661A2.095,2.095,0,0,0,40.62335,70.19416Z"/><path class="c" d="M42.12735,51.72761a18.07723,18.07723,0,0,0,1.33349-9.24653c.9696.42453,1.293,1.799,1.48434,2.98134.458,2.83028,2.97042,16.30375-.66717,17.574-1.4965.52258-2.87555-2.21532-3.30055-3.47537C40.01125,56.69642,41.01055,54.287,42.12735,51.72761Z"/><path class="d" d="M45.905,58.44245l.38356-2.28689c1.09462.10684,2.38474.137,3.07518-.71906.28086-.34824.4119-.79587.67685-1.15636.39747-.54079,1.05366-.83271,1.50007-1.33385s.55547-1.4469-.05332-1.72938a3.01521,3.01521,0,0,0,4.41212.14771,11.578,11.578,0,0,0,1.649,2.44882,1.03978,1.03978,0,0,0,.68722.43664c.36287.01079.62332-.32462.89379-.56678a2.63659,2.63659,0,0,1,2.79407-.30585,4.63782,4.63782,0,0,1,2.05328,2.07882c.32738.60147.77638,1.36352,1.451,1.24591.78223-.13636.82428-1.25083.58867-2.0091,2.33654,3.71,5.49221,5.43164,8.7867,8.07846,1.96155,1.57594,10.0286,8.536,8.22224,11.46127a4.154,4.154,0,0,0-.76189,1.2938c-.33155,1.77292,3.336,2.61966,2.64154,4.28424-.34381.824-1.679,1.13229-1.61125,2.02259.05291.69547.96661,1.00542,1.20031,1.66259.35088.98668-.93162,1.69908-1.5104,2.57181-.75364,1.13638-.26581,2.63454-.08084,3.9855a2.042,2.042,0,0,1-.061,1.04231,3.12922,3.12922,0,0,1-.73012.90428,4.64726,4.64726,0,0,0-.41006,5.71266c-1.09359.06718-2.42451.30388-2.78493,1.33856l-1.717-2.069a11.38057,11.38057,0,0,1-2.67382,4.918c1.44373,3.49953-3.04874,8.57245-5.58436,10.59553-3.5358,2.82108-7.972,6.57435-12.72457,6.61039-5.45377.04136-9.15252-3.61814-12.09432-7.6948a28.90631,28.90631,0,0,1-3.016-4.23653c-.53864-1.16536-.42288-2.81114-1.32509-3.77856a2.87069,2.87069,0,0,0-3.08874-.6885c.62725-.04761.68915-1.03845.23818-1.477a7.77375,7.77375,0,0,0-1.66671-.86321c-.54394-.316-.95339-1.09614-.52024-1.55232.15949-.168.39857-.24572.54952-.42139.54028-.62874-.45315-1.37818-1.058-1.945a7.1921,7.1921,0,0,1-1.35682-2.726c-.38617-.94938-1.16592-1.92577-2.1889-1.86288.9692-.168,1.39544-1.36913,1.276-2.34549s-.58379-1.89779-.60692-2.88117a7.72116,7.72116,0,0,0-.01208-2.3489c-.29583-.85478-1.23764-1.47227-1.22347-2.37668.01694-1.08038,1.42531-1.98767.98024-2.97226-.21891-.48427-.81341-.6993-1.07-1.16471-.39967-.725.18651-1.57068.64863-2.25751a8.66939,8.66939,0,0,0,1.45182-4.2816,4.84813,4.84813,0,0,1,.25035-1.68866c.40667-.91215,2.36816-2.28728,3.08066-3.11969,1.4768-1.72535,3.12523-3.2964,4.49185-5.11655.58977-.78548.87811-2.17429,1.70709-2.6954,1.16824-.73437,2.94385.132,4.18869-.67079.92621-.59732.99167-1.68915,2.06181-2.42a11.02422,11.02422,0,0,1,3.452-1.23466,16.51975,16.51975,0,0,1,11.01323,1.30567,79.20219,79.20219,0,0,1,8.66474,4.52951"/><path class="e" d="M64.81643,84.34092a16.50792,16.50792,0,0,0-4.07093-4.434,7.46808,7.46808,0,0,0-3.56019,4.2746,5.9361,5.9361,0,0,0-3.84411-.32663,1.06705,1.06705,0,0,1-.6678.036c-.50482-.21208-.3147-.96645-.47869-1.48887-.30328-.96612-1.92711-1.19974-1.9229-2.21233A13.07821,13.07821,0,0,0,45.55026,85.007c-.60972,1.08232-1.13811,2.33036-2.23989,2.90417a4.80261,4.80261,0,0,1-2.21582.39113,31.23982,31.23982,0,0,1-3.76513-.21191,13.02337,13.02337,0,0,0,4.12949,7.9423c.7042.63895,1.64191,1.20713,2.27194,1.90689a6.37794,6.37794,0,0,1,1.02546,2.90719c.6374,2.65086,1.25556,5.31,2.08534,7.90911a6.98633,6.98633,0,0,0,2.08976,3.54294,5.95212,5.95212,0,0,0,1.69247.76452c2.20207.71651,4.815,1.748,7.16082,1.62322a8.64345,8.64345,0,0,0,3.64785-1.322,10.89412,10.89412,0,0,0,2.6857-1.48c1.48736-1.37694,2.02668-3.49079,2.35784-5.374a52.77353,52.77353,0,0,1,1.19712-6.66834c.30281-.98281.4985-2.79863,1.30916-3.48439.7746-.65525,1.952-.87,2.79-1.50661A10.12225,10.12225,0,0,0,73.84826,92.678q.10853-.15132.21206-.30564c.99064-1.476,3.50822-5.10447,1.24783-6.236A16.33856,16.33856,0,0,0,70.33173,85.123a10.99807,10.99807,0,0,0-4.91509.20985c-1.21926-1.27021-.60206-2.89074-.022-4.3634a2.4404,2.4404,0,0,0-2.00805.465,3.10931,3.10931,0,0,1-.33479-1.79941,4.45905,4.45905,0,0,0-1.18756,1.27747,11.29589,11.29589,0,0,0-1.14706-4.202A41.17781,41.17781,0,0,1,57.368,82.76923a1.26491,1.26491,0,0,1-.67882.60673c-.46322.10982-1.2583-.07-1.1876.40077a1.05647,1.05647,0,0,1-.81543-.97328l-.49154.98965c-2.15128-1.55028-3.20068-4.172-4.14324-6.65047a1.47189,1.47189,0,0,1-1.50988.48374A2.91638,2.91638,0,0,1,46.827,80.85622a.51818.51818,0,0,1-.60636.56591,5.65463,5.65463,0,0,1-.99226,2.31524"/><path class="f" d="M77.69557,84.31825a13.10312,13.10312,0,0,0-10.58188-.47619,2.86317,2.86317,0,0,0-1.82844,1.543c-.49332,1.52108,1.35416,2.72459,2.90748,3.10437a10.06153,10.06153,0,0,0,5.50536.03144A5.2048,5.2048,0,0,0,77.313,84.64137"/><path class="f" d="M45.30935,86.59348a9.28357,9.28357,0,0,0-6.192-2.81222,3.35033,3.35033,0,0,0-1.77435.30207,2.54739,2.54739,0,0,0-.886,3.21705,4.29,4.29,0,0,0,2.80769,2.17924,6.74313,6.74313,0,0,0,6.52554-1.7201"/><path class="g" d="M50.25635,104.76109a6.10536,6.10536,0,0,0,5.804,3.22812c2.97592-.01013,5.09038-4.00084,3.91444-6.62644a2.43064,2.43064,0,0,0-1.24007-1.29958c-1.04145-.4192-2.336.16111-3.37128.33432a6.768,6.768,0,0,1-3.5769-.56061,1.77994,1.77994,0,0,0-.65485-.11961,1.35572,1.35572,0,0,0-.74964.352C48.85951,101.3465,49.473,103.27237,50.25635,104.76109Z"/><path class="f" d="M53.88678,106.45547a1.56452,1.56452,0,0,1-1.13337-.82356,6.20524,6.20524,0,0,1-.21488-.96944,1.87116,1.87116,0,0,0-1.10972-1.24987.97482.97482,0,0,0-.90544.03659,1.0967,1.0967,0,0,0-.22738,1.23543,4.06157,4.06157,0,0,0,2.13677,2.26962c3.11318,1.54656,6.00267.94339,6.67078-2.76818.085-.47249.043-1.08337-.40142-1.26493a1.0155,1.0155,0,0,0-.96816.27354C56.0004,104.59269,56.93994,107.10022,53.88678,106.45547Z"/><path class="h" d="M57.94025,87.94888a18.13406,18.13406,0,0,1,.54311-2.13649c.29264-.98244.71-1.92495.9635-2.91757a7.20614,7.20614,0,0,0,.27223-1.73346c.00477-.35517-.27216-1.30105-.14346-1.58348a35.67285,35.67285,0,0,0-1.43976,4.15572C57.70943,85.10556,58.17335,86.55,57.94025,87.94888Z"/><path class="h" d="M52.73,87.48915l-1.66675-2.786c-.48661-.81337-1.94578-2.77394-1.37676-3.71777C51.253,81.321,52.32259,86.11081,52.73,87.48915Z"/><path class="h" d="M63.92919,89.81274a14.74944,14.74944,0,0,1,2.75,2.48019,7.517,7.517,0,0,1,1.15275,3.514,6.17022,6.17022,0,0,0-2.49228-2.83709c-.9673-.70384-4.29312-3.207-2.86053-4.68811C62.966,88.75861,63.383,89.35339,63.92919,89.81274Z"/><path class="h" d="M76.6134,89.83373A5.36,5.36,0,0,1,75.06176,92.008a4.63611,4.63611,0,0,1-2.63224.65127c-.257.00373-.61142-.10593-.56573-.35886a9.24842,9.24842,0,0,0,1.98535-.676,3.10788,3.10788,0,0,0,1.46071-1.4543c.13523-.31292.1995-.65151.3127-.97305a3.57922,3.57922,0,0,1,2.46-2.465.85388.85388,0,0,0-.33042-.23617C77.26942,87.47851,77.12606,88.77094,76.6134,89.83373Z"/><path class="h" d="M45.89468,90.69074c-.27321.25515-.59273.45525-.87938.6952A6.9122,6.9122,0,0,0,43.03451,95.13a1.97487,1.97487,0,0,1-.72889-1.62767,2.70983,2.70983,0,0,1,.37659-1.15993,4.42875,4.42875,0,0,1,.87938-1.104,8.84471,8.84471,0,0,1,1.05477-.78308c.2826-.18882,1.50564-1.24672,1.8068-1.07356C46.87369,89.6408,46.13589,90.52993,45.89468,90.69074Z"/><path class="h" d="M35.436,85.36121a6.16814,6.16814,0,0,0,.24432,3.854,6.60325,6.60325,0,0,0,1.35351,2.76739c.57776.60489,2.144,1.36332,2.89654.5861.88851-.9177-.49855-1.35474-1.17216-1.575A3.5297,3.5297,0,0,1,36.492,89.10944C36.09933,88.38527,35.1313,86.18037,35.436,85.36121Z"/><path class="h" d="M55.50182,111.38074a.64809.64809,0,0,0,.08241.3497.63948.63948,0,0,0,.36494.20535c2.81245.8214,6.03161.92721,8.49421-.66029a3.22182,3.22182,0,0,1-2.00114,1.07568,14.97209,14.97209,0,0,1-6.33539.0659,2.78744,2.78744,0,0,0-.67372-.08784,2.98536,2.98536,0,0,0-.89316.24476,8.86509,8.86509,0,0,1-5.29575.25407,12.911,12.911,0,0,0,5.43692-1.551.46234.46234,0,0,0,.20153-.16854.4712.4712,0,0,0,.02322-.27786c-.11954-1.00458-.24822-2.00893-.35751-3.0144C55.88094,107.5751,55.46907,110.61629,55.50182,111.38074Z"/><path class="e" d="M56.25754,63.56335c-.38638.48655-.99426.79-1.28079,1.34127-.528,1.01583.2797,2.17392.58578,3.27709a7.36174,7.36174,0,0,1,.103,2.53671q-.271,3.50082-.65677,6.99149a1.79111,1.79111,0,0,1-.99192-1.71674,9.03533,9.03533,0,0,1,.411-2.06377,8.38862,8.38862,0,0,0-.56763-5.45317,5.95579,5.95579,0,0,1-.67875-1.73955,4.402,4.402,0,0,1,.45792-2.12432l.76986-1.93c.49556-1.24236-1.5883-4.00686.4439-3.38692A2.96717,2.96717,0,0,1,56.25754,63.56335Z"/><path class="e" d="M73.07282,76.1913a4.02718,4.02718,0,0,0,.1511-1.81589,1.3788,1.3788,0,0,0-1.25584-1.14021,2.877,2.877,0,0,0-.37465,1.91689c0,.66645-.173,1.45886-.79395,1.701a3.88482,3.88482,0,0,0-.59049.19163c-.30124.17776-.39734.558-.56788.86343s-.582.56709-.84971.34194a4.10953,4.10953,0,0,0-.89786-1.15445,3.01557,3.01557,0,0,1-1.41017,1.04528l-.166-1.46908c-.50271.64.10973,1.52625.62418,2.15688,1.28628,1.57674,1.401,4.76622,3.53427,3.29964.80479-.55328,1.37968-1.9865,1.84991-2.81477C72.48272,79.03708,73.98459,75.47273,73.07282,76.1913Z"/><path class="e" d="M39.34732,78.48717a3.83424,3.83424,0,0,1-.10094-.557c-.14613-1.40835-1.34572.58553-2.42787.037-1.21649-.61661-.79545-1.96812-1.16741-2.99869a.48351.48351,0,0,1-.24062.581,1.24032,1.24032,0,0,1-.634-.83591,3.74071,3.74071,0,0,1-.6031,1.68468c-.2766.41626.994,4.06427,1.07247,4.82677.37423-.44009,1.06489-.35064,1.62833-.22245a16.98891,16.98891,0,0,0,3.72843.71181C40.40231,80.58875,39.64373,79.64446,39.34732,78.48717Z"/><path class="h" d="M67.43166,107.19913,65.789,109.755c-.60913.94776-1.24259,2.08572-.844,3.13949,1.726-1.1981,2.50131-3.31325,3.6084-5.09916.44181-.71268,2.97967-3.44916,1.1157-3.88539C68.57444,103.65376,67.974,106.35528,67.43166,107.19913Z"/><path class="h" d="M46.71011,110.82042c-.7562-1.34635-1.94887-5.96078-3.72322-6.22972-2.72462-.413,1.978,3.99966,2.321,4.53565.70516,1.1022,1.23512,2.60867,2.56466,3.12745A4.29609,4.29609,0,0,1,46.71011,110.82042Z"/><path class="i" d="M42.40952,86.38088c-.23567.69212-.30408,1.65158.35725,1.96337a.98548.98548,0,0,0,1.2767-.96393,1.45207,1.45207,0,0,0-1.24861-1.25927"/><path class="i" d="M74.2681,84.46743a.89469.89469,0,0,0-.70968.96677,1.10777,1.10777,0,1,0,.76855-1.14137"/><circle class="j" cx="54.67506" cy="68.96863" r="5.04409"/><path class="k" d="M49.63108,68.96859A4.79111,4.79111,0,0,0,54.675,73.764a4.80126,4.80126,0,0,0,0-9.58838,4.78869,4.78869,0,0,0-5.04394,4.793Zm0,0A5.307,5.307,0,0,1,54.675,63.67342a5.3,5.3,0,1,1,0,10.58814,5.30446,5.30446,0,0,1-5.04394-5.293Z"/><circle class="a" cx="52.73004" cy="66.77975" r="0.93078"/></svg>