<svg xmlns="http://www.w3.org/2000/svg" xmlns:xlink="http://www.w3.org/1999/xlink" viewBox="0 0 114.03965 142.23433"><defs><style>.a{fill:#3c3c3b;}.b{fill:#fff;}.c{clip-path:url(#a);}.d{fill:#b17f4a;}.e{clip-path:url(#b);}.f{clip-path:url(#c);}.g{fill:#706f6f;}.h{opacity:0.8;}.i{fill:#8ef4c0;}.j{fill:#5c9b78;}.k{opacity:0.7;}.l{opacity:0.5;}.m{opacity:0.2;}</style><clipPath id="a"><path class="a" d="M35.67664,77.69333c-2.75829,1.02475-4.96787,3.11751-7.02187,5.22448A14.81994,14.81994,0,0,0,24.998,88.0206c-.98889,2.76453-.34779,5.85476.74011,8.58186.56892-1.312-.22109-2.95957.47-4.21157.64954-1.17673,2.20952-1.37466,3.47937-1.81519A7.12953,7.12953,0,0,0,33.42793,87.538a8.92178,8.92178,0,0,1,1.206-1.87521,5.15546,5.15546,0,0,1,2.13734-1.09228c2.47657-.78116,10.89276-.63113,10.69609-4.18161C47.23581,76.20838,38.22841,76.74531,35.67664,77.69333Z"/></clipPath><clipPath id="b"><path class="a" d="M44.96,79.00277a16.91531,16.91531,0,0,0-7.6028,9.23659,5.30792,5.30792,0,0,1,.78468-1.77275c.59657,3.89752-.42565,8.00252-.5751,11.914a10.66909,10.66909,0,0,1,1.53074-5.09848,1.57282,1.57282,0,0,1-.0984,1.4852c.48327-.16041.57051-.78468.72976-1.26832s.80371-.94308,1.11527-.54035c1.73779-2.78475,4.768-5.52406,8.122-4.43691,6.22052,2.01627,13.40941,2.78532,18.99527-.61444C77.03051,82.38749,80.50692,70.145,82.53391,60.40276a11.55264,11.55264,0,0,0,.31908-4.25751c-.31489-1.85554-1.65311-2.94986-1.84061-4.81461-.17517-1.74211.69569-3.72184,1.10322-5.3915,1.00856-4.13414,1.8412-8.35109,1.00762-12.62234-.58867-3.01623-3.44585-6.56522-6.921-4.95977a2.55091,2.55091,0,0,0-1.48352,2.57245c.28241,1.9156,3.47222,2.43672,4.30263,4.43719.80584,1.94154.23138,4.44919-.32482,6.37384a19.66389,19.66389,0,0,1-2.381,5.322c-1.475,2.24012-2.45378,1.22173-4.217,2.73331-3.81141,3.26774-5.72814,8.44795-6.95238,13.1753a29.69992,29.69992,0,0,1-3.4049,7.43817c-1.71945,2.93394-1.66769,3.97568-4.985,4.73132C52.90164,76.01864,48.5044,76.84461,44.96,79.00277Z"/></clipPath><clipPath id="c"><path class="a" d="M51.44384,99.05024a28.70955,28.70955,0,0,1-8.30857,5.83489,18.0869,18.0869,0,0,0,13.73962-1.84384,20.62188,20.62188,0,0,1-11.50067,11.23589c6.6163-1.678,13.60775-3.56939,18.29952-8.52705a8.79437,8.79437,0,0,1,1.93255-1.7555,10.52918,10.52918,0,0,1,2.49595-.78915,10.4561,10.4561,0,0,0,7.47835-7.99683,9.50876,9.50876,0,0,0-4.58634-9.79826,11.29427,11.29427,0,0,0-8.51731-.60688c-2.61693.77211-6.31756,2.28777-7.3803,4.952C53.74674,93.13973,54.194,96.03365,51.44384,99.05024Z"/></clipPath></defs><ellipse class="b" cx="57.01982" cy="71.11717" rx="57.01982" ry="71.11717"/><path class="a" d="M35.67664,77.69333c-2.75829,1.02475-4.96787,3.11751-7.02187,5.22448A14.81994,14.81994,0,0,0,24.998,88.0206c-.98889,2.76453-.34779,5.85476.74011,8.58186.56892-1.312-.22109-2.95957.47-4.21157.64954-1.17673,2.20952-1.37466,3.47937-1.81519A7.12953,7.12953,0,0,0,33.42793,87.538a8.92178,8.92178,0,0,1,1.206-1.87521,5.15546,5.15546,0,0,1,2.13734-1.09228c2.47657-.78116,10.89276-.63113,10.69609-4.18161C47.23581,76.20838,38.22841,76.74531,35.67664,77.69333Z"/><g class="c"><path class="d" d="M35.94689,88.77367c1.17273-.88075,1.75-2.34942,2.89584-3.21435.48285-.36448.85758-.26263,1.34706-.497.51522-.24672.71059-.6368,1.12447-1.01307.74472-.677,1.92052-.79634.96143-1.88527-.94061-1.068-1.46259.1195-2.57035-.104.30138-.19191-.12346-.60485-.47148-.68575l-1.42756-.33183a3.58945,3.58945,0,0,0-1.78791-.10615,1.23373,1.23373,0,0,0-.94814,1.33828c.07538.3156.31918.64575.15994.92846a.67566.67566,0,0,1-.33987.25751,9.6326,9.6326,0,0,0-1.41695.56075,1.06184,1.06184,0,0,0-.5043,1.29284,6.64012,6.64012,0,0,0-1.88048.96992,2.21972,2.21972,0,0,0-.68375.72271c-.43788.84146.07122,2.01708-.53823,2.744-.69623-.433-4.246-.46882-4.05549.95458.02.1492.1218.28272.11879.43325-.00453.22549-.2366.37633-.45345.43831a1.5775,1.5775,0,0,0-.62883.2312.724.724,0,0,0-.09772.86571,9.29559,9.29559,0,0,1,.79883,1.36133,7.52447,7.52447,0,0,1,.54333,2.31354,15.09807,15.09807,0,0,1,6.70958-6.01912A16.15175,16.15175,0,0,0,35.94689,88.77367Z"/></g><path class="a" d="M44.96,79.00277a16.91531,16.91531,0,0,0-7.6028,9.23659,5.30792,5.30792,0,0,1,.78468-1.77275c.59657,3.89752-.42565,8.00252-.5751,11.914a10.66909,10.66909,0,0,1,1.53074-5.09848,1.57282,1.57282,0,0,1-.0984,1.4852c.48327-.16041.57051-.78468.72976-1.26832s.80371-.94308,1.11527-.54035c1.73779-2.78475,4.768-5.52406,8.122-4.43691,6.22052,2.01627,13.40941,2.78532,18.99527-.61444C77.03051,82.38749,80.50692,70.145,82.53391,60.40276a11.55264,11.55264,0,0,0,.31908-4.25751c-.31489-1.85554-1.65311-2.94986-1.84061-4.81461-.17517-1.74211.69569-3.72184,1.10322-5.3915,1.00856-4.13414,1.8412-8.35109,1.00762-12.62234-.58867-3.01623-3.44585-6.56522-6.921-4.95977a2.55091,2.55091,0,0,0-1.48352,2.57245c.28241,1.9156,3.47222,2.43672,4.30263,4.43719.80584,1.94154.23138,4.44919-.32482,6.37384a19.66389,19.66389,0,0,1-2.381,5.322c-1.475,2.24012-2.45378,1.22173-4.217,2.73331-3.81141,3.26774-5.72814,8.44795-6.95238,13.1753a29.69992,29.69992,0,0,1-3.4049,7.43817c-1.71945,2.93394-1.66769,3.97568-4.985,4.73132C52.90164,76.01864,48.5044,76.84461,44.96,79.00277Z"/><g class="e"><path class="d" d="M61.20119,91.91389a84.4914,84.4914,0,0,1-9.18781-1.26512,22.20782,22.20782,0,0,1-2.47787-.53209,2.653,2.653,0,0,1-1.31963-.72768,1.07954,1.07954,0,0,1-.0622-1.39344,11.59917,11.59917,0,0,1,2.72785-1.07884,5.24226,5.24226,0,0,1,1.84505-.23694c.54462.02308,1.45613.46572,1.95461.345.89807-.21741,1.00351-1.65358,1.58492-2.43963a.94484.94484,0,0,1,.6091-.44748c.44967-.04276.73081.50287.724.95451a4.10847,4.10847,0,0,0-.02225,1.34484,1.39484,1.39484,0,0,0,1.571.78168,4.06964,4.06964,0,0,0,1.67793-.8766,1.2072,1.2072,0,0,0,.43222-.45965c.14106-.335-.041-.70915-.082-1.07029a1.36684,1.36684,0,0,1,2.58984-.74664c.23893.49664.39992,1.28841.9407,1.18215a.823.823,0,0,0,.39073-.25,7.854,7.854,0,0,0,1.35079-1.74542c.25429-.44678.62611-1.0006,1.12588-.88022a5.45528,5.45528,0,0,1,.5007.23373c.54589.19228,1.112-.38477,1.14859-.96238a3.07585,3.07585,0,0,0-.55232-1.61937,2.48955,2.48955,0,0,1-.438-1.6411l2.3658.75972a.723.723,0,0,0,1.02626-.32355L73.30036,76.496A2.34334,2.34334,0,0,1,72.645,75.1263c.63149-.27762,1.49944.09229,1.98468-.398.71032-.71776-.47244-2.04357.06439-2.89887.372-.5927,1.2513-.48969,1.92854-.3135.22568-.99565-1.18677-1.83013-.93286-2.819.11412-.44446.5401-.74276.7136-1.16758a7.80117,7.80117,0,0,0,.1911-1.09487c.08973-.36055.41174-.72777.77222-.63775.10853.0271.2175.09412.32426.06075.14713-.046.17536-.23861.17679-.39275l.02376-2.56628c.572-.19535,1.39409.44283,1.70729-.07414a.82927.82927,0,0,0-.01791-.67268l-.6993-2.186,1.256.007a4.92245,4.92245,0,0,1-.7134-1.34083.60826.60826,0,0,1-.03263-.42728.64843.64843,0,0,1,.35238-.28856,6.62971,6.62971,0,0,0,2.048-1.256c.33435-.33687.43876-.86489.97728-.68383,1.62982.548.28709,4.35457-.05649,5.27925-1.92527,5.18158-3.05553,10.528-5.28679,15.63258"/><path class="d" d="M82.606,37.30116a.579.579,0,0,1,.18208.36452c-.01227.19138-.22219.29417-.35507.43245-.38422.39981-.10236,1.04681-.06831,1.60026.05425.882-.58241,1.64372-.8271,2.49283-.46424,1.611.49757,3.4748-.27868,4.96082.26138.6146,1.2437.5501,1.66845.03471A2.96906,2.96906,0,0,0,83.38,45.27734l.04182-7.11275a17.9,17.9,0,0,0-.9048-7.044c-.62015-1.48513-2.08107-3.35874-3.87156-3.28767.11938,1.73247,2.10212,2.89846,2.93753,4.27864C82.54686,33.704,81.45557,35.84861,82.606,37.30116Z"/></g><path class="a" d="M51.44384,99.05024a28.70955,28.70955,0,0,1-8.30857,5.83489,18.0869,18.0869,0,0,0,13.73962-1.84384,20.62188,20.62188,0,0,1-11.50067,11.23589c6.6163-1.678,13.60775-3.56939,18.29952-8.52705a8.79437,8.79437,0,0,1,1.93255-1.7555,10.52918,10.52918,0,0,1,2.49595-.78915,10.4561,10.4561,0,0,0,7.47835-7.99683,9.50876,9.50876,0,0,0-4.58634-9.79826,11.29427,11.29427,0,0,0-8.51731-.60688c-2.61693.77211-6.31756,2.28777-7.3803,4.952C53.74674,93.13973,54.194,96.03365,51.44384,99.05024Z"/><g class="f"><path class="g" d="M45.06033,103.80392c4.33953-1.85607,8.54156-4.30759,8.94123-9.40745a4.30086,4.30086,0,0,1,.3268-1.73929,2.38546,2.38546,0,0,1,2.37961-1.0454c1.78556.20085,3.00752,1.93264,4.68483,2.06737a2.29576,2.29576,0,0,1,1.06577.19143,1.55772,1.55772,0,0,1,.55894.9361,14.22654,14.22654,0,0,1-.14008,8.05626c-.442,1.45147-1.39278,3.05405-2.90922,3.10429a.41631.41631,0,0,1,.32128-.63107q-1.80733,1.40765-3.6508,2.76807a16.48839,16.48839,0,0,1-4.4653,2.59132,10.83309,10.83309,0,0,0-2.16456.78266,2.01354,2.01354,0,0,0-1.10144,1.8761,56.7906,56.7906,0,0,0,10.1832-9.31089c.24724-.2887.5081-.65139.39775-1.01512a1.80931,1.80931,0,0,0-.37926-.54084,3.49385,3.49385,0,0,1-.52809-1.74592,2.61005,2.61005,0,0,0-.67872-1.67421c-1.10405-.972-1.63436.6977-2.36035,1.18322a22.14479,22.14479,0,0,1-4.1227,2.22224,33.83345,33.83345,0,0,1-8.22759,1.76022"/></g><path class="a" d="M86.21516,84.08054A7.338,7.338,0,0,1,86.106,85.1913c-.02784.1577-.10507.353-.26519.3502-.12945-.0023-.21-.1379-.26146-.2567-.63667-1.4691-.81776-3.14718-1.73029-4.46281a9.42472,9.42472,0,0,0-2.73922-2.33852.51285.51285,0,0,0-.77113.0839c-1.92178,1.63764.61156,4.218.54651,6.73488a22.73241,22.73241,0,0,1-1.15225,5.73487,9.48068,9.48068,0,0,0-4.2596-8.30169,9.10934,9.10934,0,0,1-.29675,5.26827,5.28378,5.28378,0,0,0-5.801-2.47222c.94054-.24946,2.783-4.46969,3.40535-5.34363,2.0743-2.91279,4.55893-4.7592,6.0164-8.26177a14.03152,14.03152,0,0,1,6.03487,2.02979,5.77055,5.77055,0,0,1,2.62833,5.4838,6.791,6.791,0,0,0-2.06533-2.93474,2.3394,2.3394,0,0,0-3.22615.38271A8.18833,8.18833,0,0,1,86.21516,84.08054Z"/><path class="g" d="M47.542,85.9619c.09494-.1624.15678-.34353.263-.4988a1.63614,1.63614,0,0,1,.93614-.58287c.78393-.22156,1.61987-.18238,2.41367-.36545a.88948.88948,0,0,0,.41945-.187c.34629-.32449.06336-.91807-.31138-1.20923a2.63845,2.63845,0,0,0-3.18927.03918,2.887,2.887,0,0,1-.87019.63424,5.84507,5.84507,0,0,1-.65386.09761A6.78278,6.78278,0,0,0,42.6862,86.6799c-.44275.555-1.87034,1.90382-1.11635,2.62382,1.11963,1.06914,2.1756-1.52131,2.904-1.93362C45.43455,86.82627,46.91429,87.03566,47.542,85.9619Z"/><path class="g" d="M68.49942,70.09167a4.99776,4.99776,0,0,1,3.134,1.41315,1.46608,1.46608,0,0,1,.38417.88877.77223.77223,0,0,1-.5102.7623c-.50527.13841-.92358-.37572-1.24651-.78823a7.451,7.451,0,0,0-3.28186-2.30841,7.68723,7.68723,0,0,0-2.71319-.59071C64.47415,70.03484,67.74108,69.966,68.49942,70.09167Z"/><path class="g" d="M65.19165,72.906a4.99781,4.99781,0,0,1,3.134,1.41315,1.46609,1.46609,0,0,1,.38416.88877.77222.77222,0,0,1-.5102.7623c-.50526.13841-.92358-.37571-1.24651-.78823a7.45093,7.45093,0,0,0-3.28186-2.3084,7.687,7.687,0,0,0-2.71319-.59072C61.16637,72.84915,64.4333,72.78032,65.19165,72.906Z"/><path class="g" d="M60.13715,76.6262a4.99781,4.99781,0,0,1,3.134,1.41315,1.46609,1.46609,0,0,1,.38416.88877.77223.77223,0,0,1-.5102.7623c-.50526.13841-.92358-.37571-1.24651-.78823a7.451,7.451,0,0,0-3.28186-2.30841,7.68718,7.68718,0,0,0-2.71319-.59071C56.11187,76.56937,59.3788,76.50054,60.13715,76.6262Z"/><path class="g" d="M53.72225,77.65113a4.99771,4.99771,0,0,1,3.134,1.41315,1.466,1.466,0,0,1,.38416.88877.77221.77221,0,0,1-.51019.7623c-.50527.13841-.92358-.37572-1.24651-.78823a7.451,7.451,0,0,0-3.28186-2.30841,7.68723,7.68723,0,0,0-2.71319-.59071C49.697,77.5943,52.96391,77.52546,53.72225,77.65113Z"/><path class="g" d="M70.22283,66.62054a4.99777,4.99777,0,0,1,3.134,1.41316,1.466,1.466,0,0,1,.38416.88876.77222.77222,0,0,1-.5102.7623c-.50526.13842-.92358-.37571-1.24651-.78822a7.451,7.451,0,0,0-3.28186-2.30841,7.687,7.687,0,0,0-2.71319-.59071C66.19755,66.56371,69.46448,66.49488,70.22283,66.62054Z"/><path class="g" d="M70.893,61.93737a4.99781,4.99781,0,0,1,3.134,1.41315,1.466,1.466,0,0,1,.38416.88877.77221.77221,0,0,1-.51019.7623c-.50527.13841-.92358-.37571-1.24651-.78823a7.451,7.451,0,0,0-3.28187-2.3084,7.687,7.687,0,0,0-2.71318-.59072C66.86776,61.88054,70.13469,61.81171,70.893,61.93737Z"/><path class="g" d="M72.37534,56.8629a4.99772,4.99772,0,0,1,3.134,1.41316,1.466,1.466,0,0,1,.38417.88876.77223.77223,0,0,1-.5102.7623c-.50527.13842-.92358-.37571-1.24651-.78822A7.451,7.451,0,0,0,70.855,56.83049a7.687,7.687,0,0,0-2.71319-.59071C68.35007,56.80607,71.617,56.73724,72.37534,56.8629Z"/><path class="g" d="M74.93471,52.84549a4.99766,4.99766,0,0,1,3.134,1.41315,1.466,1.466,0,0,1,.38417.88876.77223.77223,0,0,1-.5102.7623c-.50527.13842-.92358-.37571-1.24651-.78822a7.451,7.451,0,0,0-3.28186-2.30841,7.687,7.687,0,0,0-2.71319-.59071C70.90944,52.78865,74.17637,52.71982,74.93471,52.84549Z"/><path class="g" d="M73.773,83.45149c-.117-.41962.36605-.72768.71683-.986s.55-.92476.12744-1.03082a.95174.95174,0,0,1,1.25748-.35826,3.86631,3.86631,0,0,1,1.1023.93981,1.77067,1.77067,0,0,0,1.2564.65118,3.21183,3.21183,0,0,0-.44207-3.32294l1.80331-1.48816c.36546-.30159.75938-.8236.45388-1.1858a4.91271,4.91271,0,0,1,2.12313.839c.21888-.43511-.22459-.915-.6622-1.12886s-.97264-.39328-1.13465-.85261l2.795-1.03726c.04219-.50713-.60651-.74329-1.11071-.81223-1.7596-.24061-3.22791-1.01027-4.03414,1.07131a7.32917,7.32917,0,0,1-.41794,1.08087c-.37975.65068-1.07.79694-1.56184,1.28948a16.59823,16.59823,0,0,0-1.1706,1.72923,25.40752,25.40752,0,0,0-2.58358,3.736c-.22034.43959-.92424,1.62554-.42234,2.09206.65605.60982,1.89977-.851,2.4038.33473C74.7509,84.23132,73.89572,84.06489,73.773,83.45149Z"/><path class="g" d="M78.40945,44.67931a1.2331,1.2331,0,0,0,1.67518-.63287,1.02467,1.02467,0,0,0-1.07793-1.2915,1.79222,1.79222,0,0,0,1.63406-2.90787c.2162.36957.79924.05118.99134-.33148a2.44545,2.44545,0,0,0-.73734-2.98536,1.91211,1.91211,0,0,0,.21335-3.18162c-.15717-.03419-.15626.27679.00289.30011s.28619-.13389.34231-.28463a1.51538,1.51538,0,0,0-.42556-1.52449,4.45734,4.45734,0,0,0-1.41785-.86372l-2.12415-.9533c-.20832.07569-.17633.39389-.03637.56577s.34978.30081.411.51382a1.85308,1.85308,0,0,1-.02989.57465,1.09678,1.09678,0,0,0,.79642.9912,3.21229,3.21229,0,0,0,1.35106.05755,1.07127,1.07127,0,0,0-.611,1.09827,4.5051,4.5051,0,0,0,.38472,1.28845,6.83889,6.83889,0,0,1,.40413,2.977,4.41952,4.41952,0,0,1-.19413,1.00786c-.25931.78114-.82066,1.5148-.71642,2.33123.05952.46615.33561.93836.16838,1.37753a1.71651,1.71651,0,0,1-.37689.512c-.71127.78138-2.05047,3.02511-.53589,3.76935C80.14774,47.89659,79.78127,45.18517,78.40945,44.67931Z"/><path class="g" d="M73.72684,31.76558a3.36815,3.36815,0,0,1,.48774.259.362.362,0,0,1,.10282.48549.54175.54175,0,0,0-.09657.10932c-.07072.15034.16.25418.326.26156.37016.01645,1.60114.26548,1.89107.01875a5.80693,5.80693,0,0,0,.53155-1.49876,2.86154,2.86154,0,0,0-.58216-2.56676C74.6787,27.29393,71.81217,30.65726,73.72684,31.76558Z"/><g class="h"><circle class="i" cx="64.834" cy="33.71592" r="2.99319"/><path class="j" d="M62.24186,32.21932a2.98307,2.98307,0,0,0-.26416,2.262A2.87049,2.87049,0,1,0,64.06876,30.86,2.98254,2.98254,0,0,0,62.24186,32.21932Zm0,0a3.11765,3.11765,0,0,1,5.68994.66651A3.1239,3.1239,0,0,1,65.664,36.81307a3.11791,3.11791,0,0,1-3.42212-4.59375Z"/><circle class="b" cx="63.70283" cy="32.30767" r="0.63431"/></g><g class="k"><circle class="i" cx="67.1284" cy="41.639" r="1.78777"/><path class="j" d="M65.58024,40.7452a1.77944,1.77944,0,0,0-.15772,1.35083,1.71448,1.71448,0,1,0,1.24878-2.16284A1.78053,1.78053,0,0,0,65.58024,40.7452Zm0,0a1.86207,1.86207,0,0,1,3.39844.398,1.86556,1.86556,0,0,1-1.3545,2.3457,1.86223,1.86223,0,0,1-2.04394-2.74365Z"/><circle class="b" cx="66.45277" cy="40.79788" r="0.37886"/></g><g class="l"><circle class="i" cx="52.94684" cy="43.38171" r="3.99197"/><path class="j" d="M49.48966,41.38583a3.97709,3.97709,0,0,0-.352,3.0166,3.82825,3.82825,0,1,0,2.78858-4.82959A3.97623,3.97623,0,0,0,49.48966,41.38583Zm0,0a4.15811,4.15811,0,0,1,7.58887.88891,4.16656,4.16656,0,0,1-3.0249,5.23779,4.15844,4.15844,0,0,1-4.564-6.1267Z"/><circle class="b" cx="51.43821" cy="41.50355" r="0.84597"/></g><g class="m"><circle class="i" cx="55.48384" cy="54.58391" r="2.43773"/><path class="j" d="M53.37272,53.36507a2.42849,2.42849,0,0,0-.21509,1.84205,2.33772,2.33772,0,1,0,1.70288-2.94922A2.429,2.429,0,0,0,53.37272,53.36507Zm0,0a2.53908,2.53908,0,0,1,4.634.54273,2.54421,2.54421,0,0,1-1.84692,3.19848,2.53924,2.53924,0,0,1-2.78711-3.74121Z"/><circle class="b" cx="54.56258" cy="53.437" r="0.5166"/></g><path class="j" d="M43.65446,80.71468a14.03094,14.03094,0,0,0-.40479-2.91113A4.433,4.433,0,0,0,42.009,75.44613l.66162-.74976a3.77126,3.77126,0,0,1,.85693,1.45972,7.23205,7.23205,0,0,1,.33887,1.531,14.442,14.442,0,0,1,.03125,3.03857Z"/><circle class="i" cx="41.65353" cy="74.55172" r="1.21778"/><path class="j" d="M40.52824,74.086a1.15546,1.15546,0,1,0,1.56714-.60156A1.16623,1.16623,0,0,0,40.52824,74.086Zm0,0a1.28019,1.28019,0,1,1,.63574,1.64844A1.28252,1.28252,0,0,1,40.52824,74.086Z"/><circle class="b" cx="41.22038" cy="74.20954" r="0.29641"/><path class="j" d="M48.03068,83.00082a14.01582,14.01582,0,0,0,.58276-2.88062,4.43424,4.43424,0,0,0-.38965-2.63525l.87281-.48828a3.76737,3.76737,0,0,1,.3247,1.66113,7.24716,7.24716,0,0,1-.18725,1.55688,14.4468,14.4468,0,0,1-.97754,2.8772Z"/><circle class="i" cx="48.18487" cy="76.52315" r="1.21778"/><path class="j" d="M47.2775,75.71078a1.15547,1.15547,0,1,0,1.67774-.0481A1.1664,1.1664,0,0,0,47.2775,75.71078Zm0,0a1.2803,1.2803,0,1,1,.05347,1.76587A1.28234,1.28234,0,0,1,47.2775,75.71078Z"/><circle class="b" cx="47.88957" cy="76.05678" r="0.29641"/></svg>